<?xml version="1.0" encoding="UTF-8"?>
<svg width="72px" height="72px" viewBox="0 0 72 72" version="1.1" xmlns="http://www.w3.org/2000/svg" xmlns:xlink="http://www.w3.org/1999/xlink">
    <!-- Generator: Sketch 51.3 (57544) - http://www.bohemiancoding.com/sketch -->
    <title>Barbtn_4</title>
    <desc>Created with Sketch.</desc>
    <defs></defs>
    <g id="Barbtn_4" stroke="none" stroke-width="1" fill="none" fill-rule="evenodd">
        <path d="M36,72 C16.117749,72 0,55.882251 0,36 C0,16.117749 16.117749,0 36,0 C55.882251,0 72,16.117749 72,36 C72,55.882251 55.882251,72 36,72 Z" id="Oval-Copy-8" fill="#055077" fill-rule="nonzero"></path>
        <g id="fields-1-copy" transform="translate(4.000000, 4.000000)">
            <ellipse id="Oval-Copy-3" stroke-opacity="0" stroke="#FFEFC6" stroke-width="8" fill="#8DD9FF" cx="32.0410622" cy="32" rx="31.9272064" ry="32"></ellipse>
            <g id="Group-7">
                <ellipse id="Oval" fill="#FFF9BB" cx="32.0410622" cy="32" rx="31.9272064" ry="32"></ellipse>
                <path d="M47.7538623,8.61075 C47.5420951,8.61075 47.3420512,8.6525 47.1502385,8.713125 C46.5427486,7.83775 45.5349214,7.26225 44.3904059,7.26225 C43.2458904,7.26225 42.2380632,7.83775 41.6305733,8.713125 C41.4387606,8.6525 41.2387167,8.61075 41.0269495,8.61075 C39.9123658,8.61075 39.0088009,9.516375 39.0088009,10.6335 L49.7720109,10.6335 C49.7720109,9.516375 48.8684461,8.61075 47.7538623,8.61075 Z" id="Shape" fill="#FFEB97"></path>
                <path d="M37.9403619,17.83675 C37.7697509,17.83675 37.6084936,17.870375 37.4538462,17.91925 C36.9642125,17.213875 36.1520642,16.75 35.2296673,16.75 C34.3072703,16.75 33.495122,17.21375 33.0054884,17.91925 C32.8509657,17.870375 32.6897083,17.83675 32.5189726,17.83675 C31.6207705,17.83675 30.8925558,18.5665 30.8925558,19.466875 L39.5664046,19.466875 C39.5667787,18.5665 38.838564,17.83675 37.9403619,17.83675 Z" id="Shape" fill="#FFF1A9"></path>
                <path d="M25.1798307,17.38125 C25.1798307,16.62175 25.7832051,16.006 26.5273833,16.006 C26.6397521,16.006 26.7471323,16.024125 26.8513946,16.0505 C27.202968,15.663 27.7015812,15.4165 28.2599332,15.4165 C29.3231341,15.4165 30.1849192,16.296125 30.1849192,17.381125 L25.1798307,17.381125 L25.1798307,17.38125 Z" id="Shape" fill="#FFF1A9"></path>
                <path d="M63.9682687,32 C63.9682687,29.363375 63.6436338,26.80375 63.0436269,24.3525 L62.6804549,24.129875 C50.9146557,24.129875 40.0643942,32 26.220957,32 C14.9420477,32 45.6403062,33.29125 63.9330989,33.393625 C63.9529287,32.931125 63.9682687,32.467375 63.9682687,32 Z" id="Shape" fill="#FFEA96"></path>
                <path d="M0.233458095,32 C0.233458095,29.363375 0.558092932,26.80375 1.15809993,24.3525 L1.5212719,24.129875 C13.2870711,24.129875 14.0411019,32 27.884539,32 C39.163573,32 18.5614206,33.29125 0.268627908,33.393625 C0.24879812,32.931125 0.233458095,32.467375 0.233458095,32 Z" id="Shape" fill="#FFEB97"></path>
                <path d="M32.0410622,64 C49.6739844,64 63.9682687,49.673125 63.9682687,32 L0.113855786,32 C0.113855786,49.673125 14.40814,64 32.0410622,64 Z" id="Shape" fill="#D6EB76"></path>
                <g id="cupcake" transform="translate(40.092050, 22.037736)" fill-rule="nonzero">
                    <polyline id="Shape" fill="#FFCA54" points="15.360419 11.6860606 15.8991139 9.39180606 1.22343538 9.39180606 3.02891231 17.0819879 14.0935883 17.0819879 15.0766956 12.894303"></polyline>
                    <polygon id="Shape" fill="#FCA21F" points="1.22343538 9.39180606 3.02891231 17.0819879 4.26699116 17.0819879 2.46141693 9.39180606"></polygon>
                    <path d="M15.8099882,7.96475152 C15.8678323,3.91350303 12.5902242,0.633212121 8.56127464,0.633212121 C4.55708759,0.633212121 1.31105297,3.86826667 1.31105297,7.85886061 C1.31105297,7.89425455 1.31183136,7.92945455 1.31231785,7.9648" id="Shape" fill="#7C5437"></path>
                    <path d="M9.12458616,0.654787879 C4.85613552,0.328145455 1.25170069,3.71772121 1.3123665,7.96475152 L4.34337073,7.96475152 C4.52123298,4.77061818 6.41651672,2.03306667 9.12458616,0.654787879 Z" id="Shape" fill="#603D26"></path>
                    <path d="M8.56132329,0.633212121 C5.58539019,0.633212121 3.02871771,2.42031515 1.91172724,4.97624242 C1.92953293,4.96683636 1.94583048,4.95781818 1.95993881,4.94957576 L3.13024903,4.19175758 L3.13034633,4.19175758 C3.6652466,3.84533333 4.13743778,4.06055758 4.29700785,4.15447273 C5.63515853,5.02099394 5.73668985,5.15035152 6.16850202,5.14162424 C6.59034106,5.13721212 6.79846324,4.9414303 7.95617327,4.19175758 C7.95617327,4.19175758 8.21659356,4.00189091 8.56414495,4.00189091 C8.91043146,4.00460606 9.16632736,4.19175758 9.16632736,4.19175758 C11.158764,5.48189091 10.7756012,5.48189091 12.8255901,4.15447273 C12.9851601,4.06050909 13.457254,3.84533333 13.9922029,4.19170909 C13.9922029,4.19170909 13.9922029,4.19175758 13.9923489,4.19175758 C15.2494497,5.0057697 15.1597402,4.9494303 15.2111139,4.97619394 C14.0937829,2.42031515 11.5371591,0.633212121 8.56132329,0.633212121 Z" id="Shape" fill="#FFC373"></path>
                    <path d="M1.91172724,4.97624242 C1.92953293,4.96683636 1.94583048,4.95781818 1.95993881,4.94957576 L3.13024903,4.19175758 L3.13034633,4.19175758 C3.6652466,3.84533333 4.13743778,4.06055758 4.29700785,4.15447273 C5.22300073,4.75408485 4.81132941,4.48756364 5.16953503,4.71946667 C6.00061291,2.96775758 7.3965591,1.53435152 9.12439157,0.654836364 C9.07725029,0.653187879 8.86504156,0.633163636 8.56132329,0.633163636 C5.65257502,0.633212121 3.05576678,2.35810909 1.91172724,4.97624242 Z" id="Shape" fill="#EF9A4D"></path>
                    <polygon id="Shape" fill="#F9D58C" points="4.0075925 9.39180606 5.12803708 17.0819879 11.9944149 17.0819879 13.1150054 9.39180606"></polygon>
                    <polygon id="Shape" fill="#FFCA54" points="6.90023781 9.39180606 7.30894151 17.0819879 9.81346182 17.0819879 10.2222142 9.39180606"></polygon>
                    <path d="M12.1391955,7.96475152 L1.14287195,7.96475152 C0.808553205,7.96475152 0.455553081,8.20746667 0.455553081,8.70676364 C0.455553081,9.08509091 0.763260604,9.39175758 1.14287195,9.39175758 L15.979726,9.39175758 C16.3162339,9.39175758 16.6670448,9.14661818 16.6670448,8.64974545 C16.6670448,8.2713697 16.3593373,7.96475152 15.979726,7.96475152 L13.4701461,7.96475152" id="Shape" fill="#F99841"></path>
                    <path d="M15.9796773,8.67830303 L1.14287195,8.67830303 C0.882597608,8.67830303 0.65628055,8.53406061 0.539570614,8.32150303 C0.307804821,8.74346667 0.555089776,9.39185455 1.14287195,9.39185455 L15.979726,9.39185455 C16.5667298,9.39185455 16.8150363,8.74395152 16.5830273,8.32150303 C16.4663174,8.53406061 16.2399517,8.67830303 15.9796773,8.67830303 Z" id="Shape" fill="#F26722"></path>
                    <ellipse id="Oval" fill="#231F20" cx="10.7414007" cy="2.86244848" rx="1" ry="1"></ellipse>
                    <ellipse id="Oval" fill="#231F20" cx="6.14091781" cy="3.07141818" rx="1" ry="1"></ellipse>
                    <path d="M7.68826096,2.28092121 L8.35719036,2.68809697 C8.54205812,2.80077576 8.78438083,2.74298182 8.89783126,2.55796364 C9.01103844,2.37318788 8.95256185,2.13197576 8.76720759,2.01915152 L8.09832685,1.61192727 C7.91292394,1.49910303 7.67094177,1.55738182 7.55768594,1.74206061 C7.44447877,1.92673939 7.50290671,2.16804848 7.68826096,2.28092121 Z" id="Shape" fill="#231F20"></path>
                    <path d="M16.2340651,7.53372121 C16.1089388,3.86812121 13.4033505,0.866860606 9.87500332,0.258618182 L9.088391,0.164557576 C9.07851517,0.163878788 8.61459439,0.125284848 8.03600695,0.164557576 L7.24949193,0.258618182 C3.71413926,0.868460606 1.01506995,3.88014545 0.890430163,7.53372121 C-0.25258774,7.76872727 -0.266744719,9.44809697 0.87252718,9.70264242 L2.62157079,17.1518061 C2.66311739,17.3290667 2.82181177,17.454497 3.0044903,17.454497 L14.1200536,17.454497 C14.3027808,17.454497 14.4614265,17.3290667 14.5029731,17.1518061 L15.4906534,12.9449212 C15.5401299,12.7341091 15.4087765,12.5232485 15.1972975,12.4739394 C14.9855753,12.4243879 14.7743395,12.5554424 14.7247658,12.7662545 L13.8081622,16.6705939 L12.465779,16.6705939 L13.4772489,9.7289697 L15.4379661,9.7289697 L15.0098027,11.5524848 C14.9603749,11.763297 15.0917283,11.9741576 15.3032073,12.0234182 C15.5144917,12.0725818 15.7262139,11.9418182 15.775739,11.7310545 L16.2520654,9.70254545 C17.3908021,9.44824242 17.3775695,7.76882424 16.2340651,7.53372121 Z M14.0894045,3.70133333 C13.5640395,3.42855758 12.989344,3.51427879 12.6318681,3.74695758 C10.7404277,4.9718303 11.2406409,4.98632727 9.38432537,3.78438788 C9.13246737,3.62584242 8.87554983,3.53444848 8.5728532,3.53047273 C8.28188107,3.52358788 7.97213027,3.63025455 7.74012123,3.78438788 C6.50836681,4.58196364 6.44585231,4.66094545 6.16495062,4.67495758 C5.8653189,4.68135758 5.86201074,4.63369697 4.49257848,3.74690909 C4.10182641,3.49512727 3.53413644,3.44232727 3.03523673,3.70123636 C5.82206957,-0.0242424242 11.3508805,0.0402424242 14.0894045,3.70133333 Z M1.68657777,9.72906667 L3.64739226,9.72906667 L4.65876486,16.6706909 L3.31643032,16.6706909 L1.68657777,9.72906667 Z M4.44217769,9.72906667 L6.52062646,9.72906667 L6.88958359,16.6706909 L5.45359893,16.6706909 L4.44217769,9.72906667 Z M7.67721755,16.6706424 L7.30826042,9.72901818 L9.81613754,9.72901818 L9.4471804,16.6706424 L7.67721755,16.6706424 Z M11.6708963,16.6706424 L10.234863,16.6706424 L10.6038688,9.72901818 L12.6824149,9.72901818 L11.6708963,16.6706424 Z M1.10979036,8.94511515 C0.945890491,8.94511515 0.812591106,8.81221818 0.812591106,8.64887273 L0.812591106,8.59161212 C0.812591106,8.42831515 0.945890491,8.29541818 1.10979036,8.29541818 L12.1567093,8.29541818 C12.3739776,8.29541818 12.5500398,8.11995152 12.5500398,7.90341818 C12.5500398,7.68688485 12.3739776,7.51141818 12.1567093,7.51141818 L1.67845332,7.51141818 C1.71255655,6.68504242 1.89377561,5.89590303 2.19681279,5.16935758 C3.40993449,4.38390303 3.45809741,4.31418182 3.71983124,4.31418182 C3.88504464,4.31418182 4.01712779,4.37798788 4.07195567,4.40940606 C5.40626306,5.27340606 5.63666667,5.51098182 6.27660101,5.45299394 C6.926022,5.39156364 7.29536832,4.9456 8.16872254,4.44169697 C8.42092109,4.27835152 8.68348196,4.26540606 8.95572406,4.44169697 C10.0287841,5.09522424 10.3880114,5.52829091 11.1244661,5.45299394 C11.3773944,5.42918788 11.6282794,5.33313939 11.7673681,5.2416 C13.1252704,4.3622303 13.1391842,4.31413333 13.4046154,4.31413333 C13.6663005,4.31413333 13.7097445,4.38070303 14.9277311,5.16940606 C15.2308169,5.89590303 15.4119387,6.68499394 15.4460419,7.5113697 L13.4935951,7.5113697 C13.2763755,7.5113697 13.1003133,7.68683636 13.1003133,7.9033697 C13.1003133,8.11990303 13.2763755,8.2953697 13.4935951,8.2953697 L16.0147049,8.2953697 C16.4124138,8.2953697 16.4126571,8.94501818 16.0147049,8.94501818 C15.2529038,8.94511515 1.87095903,8.94511515 1.10979036,8.94511515 Z" id="Shape" fill="#231F20"></path>
                </g>
                <path d="M5.51878263,36.4245 C-2.63101096,37.5825 22.2443985,42.27525 22.2443985,42.27525 C22.2443985,42.27525 58.7376943,45.71425 59.8111219,45.71425 C59.9884676,45.71425 60.357127,45.772125 60.8300488,45.850625 C62.3781441,42.624 63.4001889,39.09675 63.7895512,35.3805 C48.1709114,38.5 30.7939057,32.833375 5.51878263,36.4245 Z" id="Shape" fill="#CCE16B"></path>
                <g id="ice-cream-1" transform="translate(9.393792, 11.935090)" fill-rule="nonzero">
                    <path d="M8.21088267,9.89654581 C10.7182892,7.24460039 8.84309494,2.84226121 5.16103515,2.84226121 C1.47791262,2.84226121 -0.395156113,7.24603509 2.11137519,9.89654581 L8.21088267,9.89654581 Z" id="Shape" fill="#FF4B4E"></path>
                    <path d="M14.5728898,2.8425731 C14.5728273,2.84251072 14.5725773,2.84219883 14.5725773,2.84219883 L14.5725773,2.84219883 C12.431445,-0.216764133 7.89261977,-0.188756335 5.78687092,2.8888577 C9.12928774,3.38788304 10.5263687,7.44745419 8.21088267,9.89654581 L13.7032463,9.89654581 C15.801806,8.06755556 16.1019396,5.03079922 14.5728898,2.8425731 Z" id="Shape" fill="#078CD6"></path>
                    <path d="M11.5041003,0.724584795 C10.5558132,1.47249903 9.94735654,2.63011306 9.94910695,3.92976218 C9.95204515,6.18186355 11.7841042,8.00511501 14.0411389,8.00193372 C14.4284806,8.00149708 14.8026943,7.9462924 15.1575908,7.84517739 C16.359188,4.82070955 14.5813918,1.49888499 11.5041003,0.724584795 Z" id="Shape" fill="#21AAF7"></path>
                    <path d="M6.11244805,2.95179727 C3.47013458,2.33930604 0.967791771,4.34445224 0.967791771,7.02633918 C0.967791771,8.13779337 1.40283233,9.14725926 2.11137519,9.89648343 L4.01420097,9.89648343 C1.79705072,7.55187524 2.96995359,3.67950097 6.11244805,2.95179727 Z" id="Shape" fill="#EF3F48"></path>
                    <path d="M3.73651018,17.8631111 L7.52428251,30.7305419 L7.52428251,30.7305419 C7.52428251,30.7305419 7.77946796,31.4816374 8.29871597,31.4816374 C8.78433102,31.4816374 8.9902548,30.8254191 9.01488564,30.7400234 L12.6454957,17.8631735" id="Shape" fill="#FFCA54"></path>
                    <path d="M5.63933596,17.8631111 L3.73651018,17.8631111 L7.52428251,30.7305419 C7.52428251,30.7305419 7.77946796,31.4816374 8.29871597,31.4816374 C8.89835803,31.4816374 9.05495763,30.5980507 9.21793374,30.0199298 L5.63933596,17.8631111 Z" id="Shape" fill="#FCA21F"></path>
                    <path d="M10.8255021,17.9309162 L13.043465,17.9309162 C13.9206728,17.9309162 14.6315912,17.2214269 14.6315912,16.3462612 L14.6315912,12.3934815 L1.75047719,12.3934815 L1.75047719,16.3462612 C1.75047719,17.2214269 2.46139561,17.9309162 3.33835336,17.9309162 L9.09259154,17.9309162" id="Shape" fill="#F99841"></path>
                    <path d="M3.65317794,16.3462612 L3.65317794,12.3934815 L1.75035216,12.3934815 L1.75035216,16.3462612 C1.75035216,17.2214269 2.46127058,17.9309162 3.33822833,17.9309162 L5.24105411,17.9309162 C4.36415887,17.9309162 3.65317794,17.2214269 3.65317794,16.3462612 Z" id="Shape" fill="#F26722"></path>
                    <path d="M14.5535102,9.82874074 L1.82843316,9.82874074 C1.13826966,9.82874074 0.579012169,10.3869006 0.579012169,11.0753684 L0.579012169,11.2145965 C0.579012169,11.9031267 1.13833217,12.4612242 1.82843316,12.4612242 L14.5535102,12.4612242 C15.2434862,12.4612242 15.8027437,11.9030643 15.8027437,11.2145965 L15.8027437,11.0753684 C15.8028062,10.3868382 15.2434862,9.82874074 14.5535102,9.82874074 Z" id="Shape" fill="#FFCA54"></path>
                    <path d="M2.48190046,11.2146589 L2.48190046,11.0754308 C2.48190046,10.3869006 3.04122047,9.82880312 3.73125894,9.82880312 L1.82843316,9.82880312 C1.13826966,9.82880312 0.579012169,10.386963 0.579012169,11.0754308 L0.579012169,11.2146589 C0.579012169,11.9031891 1.13833217,12.4612865 1.82843316,12.4612865 L3.73125894,12.4612865 C3.04122047,12.4612865 2.48190046,11.9031267 2.48190046,11.2146589 Z" id="Shape" fill="#F9B24B"></path>
                    <path d="M14.744493,9.29933723 C15.5061734,8.29910331 15.928711,7.07087719 15.928711,5.79511891 C15.928711,5.39820663 15.8883265,5.00173099 15.808495,4.6168577 C15.7518566,4.34339181 15.4836056,4.16792203 15.2099783,4.22431189 C14.9360384,4.28076413 14.7598716,4.54830409 14.81651,4.82152047 C14.8824632,5.13933723 14.9157836,5.46688499 14.9157836,5.79511891 C14.9157836,7.11348148 14.3694041,8.37102534 13.4104895,9.27432359 L9.15629414,9.27432359 C10.6275802,6.75923587 9.43779832,3.47296686 6.63000816,2.51477583 C8.77726684,0.240530214 12.5632262,0.571009747 14.2298086,3.32756335 C14.3743428,3.56659649 14.685604,3.64350877 14.9251608,3.49922807 C15.164655,3.35500975 15.2416108,3.04442885 15.097139,2.80545809 C12.9547565,-0.73837037 7.96444929,-0.93785575 5.50236602,2.28135673 C1.67045823,1.96746979 -0.879083256,6.1642729 1.15558626,9.39982846 C-0.348520065,10.0033996 -0.304634668,12.2589318 1.22147687,12.8005614 L1.22147687,16.3236179 C1.22147687,17.4705029 2.15657339,18.4036803 3.30590817,18.4036803 L3.32253711,18.4036803 C3.32916368,18.4261365 6.97871577,30.8249825 6.98590497,30.8471891 C7.47627114,32.2884366 9.00457069,32.3191891 9.43436001,30.8312203 L12.9383776,18.4036803 C14.1243461,18.4036803 15.0348743,17.4505419 15.0348743,16.3236179 L15.0348743,12.800499 C16.7184606,12.2031033 16.544982,9.60461598 14.744493,9.29933723 Z M6.62325656,3.59959454 C8.81540088,4.59639766 9.48968562,7.41277193 7.92043886,9.27419883 L2.31373563,9.27419883 C1.75972938,8.61660819 1.45703267,7.79134503 1.45703267,6.92740741 C1.45709519,4.29217934 4.19574398,2.5014269 6.62325656,3.59959454 Z M14.0220718,16.3236179 C14.0220718,16.9132788 13.5412704,17.3928421 12.950443,17.3928421 L10.7463583,17.3928421 C10.4666046,17.3928421 10.2399258,17.6190877 10.2399258,17.89823 C10.2399258,18.1773723 10.4666671,18.4035556 10.7463583,18.4035556 L11.8862534,18.4035556 C8.34378915,30.9677661 8.41568118,30.8779415 8.23532596,30.9259103 C8.1743115,30.9259103 8.0193998,30.7261754 7.94807041,30.5297466 L4.37853728,18.4036803 L9.02426286,18.4036803 C9.30401663,18.4036803 9.53069533,18.1774347 9.53069533,17.8983548 C9.53069533,17.6191501 9.30395412,17.3929669 9.02426286,17.3929669 L3.30615823,17.3929669 C2.71539328,17.3929669 2.23477942,16.9133411 2.23477942,16.3237427 L2.23477942,12.9011774 L14.0221344,12.9011774 L14.0220718,16.3236179 L14.0220718,16.3236179 Z M14.450986,11.8902768 L1.80574028,11.8902768 C0.820319335,11.8902768 0.823632619,10.285037 1.80574028,10.285037 L2.0869319,10.285037 L14.4509234,10.285037 C15.4362194,10.285037 15.4329686,11.8902768 14.450986,11.8902768 Z" id="Shape" fill="#231F20"></path>
                </g>
                <path d="M32.0410622,64 C46.5568415,64 58.8019229,54.287375 62.6804549,40.994875 C37.7519166,40.886375 23.1747772,34.043375 0.489499325,36.917125 C2.84986772,52.25575 16.076586,64 32.0410622,64 Z" id="Shape" fill="#D0D75B"></path>
                <path d="M1.9627653,42.740625 C4.15751131,48.913875 8.19006715,54.208625 13.4003129,57.971875 L55.6648254,53.525875 C57.9958856,50.957375 59.9102709,48.00425 61.3144444,44.776875 C42.3834817,44.3155 15.7742753,41.092875 1.9627653,42.740625 Z" id="Shape" fill="#D8C34A"></path>
                <path d="M32.0410622,64 C44.7756526,64 55.7611059,56.523875 60.8845495,45.71425 C41.6935547,45.71425 22.9046431,45.7295 6.47535167,51.16825 C12.2984501,58.958375 21.5817842,64 32.0410622,64 Z" id="Shape" fill="#D0B459"></path>
                <g id="candy-1-copy" transform="translate(40.438126, 12.779845) scale(-1, -1) rotate(-135.000000) translate(-40.438126, -12.779845) translate(34.778303, 6.961663)" fill-rule="nonzero">
                    <path d="M2.5095886,7.34343182 C2.17974798,7.46922727 1.6298904,7.709 0.712791173,8.16097727 C-0.883486814,8.94784091 1.50696829,8.6635 2.05361478,10.56025 C2.77255091,13.0546364 3.88254615,10.0157955 4.22275926,8.96761364 C3.47254395,8.63238636 2.8688834,8.05038636 2.5095886,7.34343182 Z" id="Shape" fill="#FFCA54"></path>
                    <path d="M1.44422511,8.75652273 C2.15295045,8.40720455 2.64219017,8.18477273 2.98023176,8.04359091 C2.79188671,7.82561364 2.63502876,7.59027273 2.5095886,7.34345455 C2.17974798,7.46925 1.6298904,7.70902273 0.712791173,8.161 C-0.257995522,8.63956818 0.24570562,8.72190909 0.912502069,9.13959091 C0.950780954,9.03895455 1.11018005,8.92122727 1.44422511,8.75652273 Z" id="Shape" fill="#F99830"></path>
                    <path d="M8.86737169,4.29065909 C9.19721231,4.16484091 9.74706989,3.92506818 10.6641922,3.47304545 C12.260424,2.68620455 9.869992,2.97056818 9.32334551,1.07377273 C8.60440939,-1.42059091 7.49441415,1.61827273 7.15422413,2.66643182 C7.90132077,3.00029545 8.5065291,3.58061364 8.86737169,4.29065909 Z" id="Shape" fill="#FFCA54"></path>
                    <path d="M9.1322283,0.553181818 C8.42126213,-0.918363636 7.4654913,1.70736364 7.15420103,2.66643182 C7.38604586,2.77 7.60878877,2.89936364 7.81827153,3.05431818 C7.90524799,2.87036364 8.49262211,0.936431818 9.1322283,0.553181818 Z" id="Shape" fill="#F99830"></path>
                    <path d="M9.32332241,1.07377273 C8.87566506,-0.479431818 8.27637067,0.112886364 7.80570441,1.03402273 C7.84811843,1.11234091 7.8459007,1.12790909 7.92689392,1.50331818 C7.97445954,1.72354545 7.98543267,1.92179545 8.15529666,2.05979545 C8.16700903,2.07611364 8.25553328,2.13222727 8.34324898,2.15622727 C8.38168958,2.16954545 8.33788948,2.15906818 8.9989568,2.29711364 C9.02161919,2.29711364 9.16946763,2.33972727 9.25152351,2.42663636 C9.35381615,2.51370455 9.37181207,2.65281818 9.38313172,2.67511364 C9.50702409,3.24902273 9.51340005,3.42856818 9.68746849,3.56715909 C9.69911155,3.58397727 9.79241778,3.64247727 9.88258222,3.66556818 L10.1519898,3.72188636 C10.3086167,3.647 10.4787579,3.56440909 10.6641922,3.47306818 C12.260424,2.68620455 9.8700151,2.97054545 9.32332241,1.07377273 Z" id="Shape" fill="#17DDC0"></path>
                    <path d="M9.1321821,0.553227273 C8.86381409,0.0104772727 8.57373083,-0.0045 8.22691074,0.3755 C8.20276987,0.403 8.17772804,0.433977273 8.17823627,0.433477273 C8.04896129,0.594295455 7.92331322,0.803886364 7.80570441,1.03402273 C7.84811843,1.11234091 7.8459007,1.12790909 7.92689392,1.50331818 C7.97445954,1.72354545 7.98543267,1.92179545 8.15529666,2.05979545 C8.15645172,2.06140909 8.18142425,2.07965909 8.18306444,2.08081818 C8.44244604,1.44106818 8.785131,0.761272727 9.1321821,0.553227273 Z" id="Shape" fill="#0DBAA1"></path>
                    <path d="M2.05363788,10.5602955 C2.52633706,12.2002955 3.16804548,11.4483409 3.64885321,10.4429773 C3.57539102,10.1025455 3.57308089,10.0166136 3.47286737,9.89740909 C3.47286737,9.89740909 3.4453768,9.86390909 3.40933874,9.83490909 C3.39744156,9.81840909 3.3087556,9.76229545 3.22136332,9.73847727 C3.18276101,9.72513636 3.22741586,9.73577273 2.56574791,9.59756818 C2.56574791,9.59756818 2.42501468,9.57634091 2.31401284,9.46895455 C2.22883828,9.38654545 2.18150368,9.2525 2.18150368,9.21956818 C2.05881258,8.65095455 2.04585274,8.46213636 1.87719002,8.32754545 C1.86769537,8.31238636 1.77404263,8.25279545 1.68209938,8.22913636 C0.95842749,8.07793182 0.991924401,8.08952273 0.922828358,8.05806818 C0.85502599,8.09111364 0.785213806,8.12531818 0.712814275,8.161 C-0.883486814,8.94788636 1.50696829,8.66354545 2.05363788,10.5602955 Z" id="Shape" fill="#17DDC0"></path>
                    <path d="M0.17192001,8.58643182 C0.163488029,8.76072727 0.531838548,8.89688636 0.912502069,9.13959091 C0.980212033,8.96154545 1.41285352,8.76659091 2.00330011,8.48540909 C1.96996491,8.41945455 1.92399329,8.36490909 1.87721312,8.32756818 C1.86771848,8.31240909 1.77406573,8.25281818 1.68212249,8.22915909 C0.952559755,8.07672727 0.988505406,8.08797727 0.92285146,8.05809091 C0.665156255,8.18375 0.180721612,8.40015909 0.17192001,8.58643182 Z" id="Shape" fill="#0DBAA1"></path>
                    <path d="M8.72525238,7.69404545 C7.50480974,9.60722727 4.79992259,9.89981818 3.18574108,8.31172727 C1.79434869,6.94290909 1.79434869,4.72361364 3.18574108,3.35481818 C4.57711038,1.98597727 6.8329079,1.98597727 8.22423099,3.35477273 C9.26205771,4.37581818 9.52580546,5.86995455 9.01535873,7.13147727" id="Shape" fill="#FC3842"></path>
                    <path d="M3.92170288,8.31172727 C1.79742116,6.22188636 3.10816686,2.64827273 6.07299004,2.347 C5.04278675,2.24238636 3.97513623,2.57818182 3.18574108,3.35481818 C1.79434869,4.72363636 1.79434869,6.94293182 3.18574108,8.31172727 C3.97515933,9.08836364 5.04283295,9.42418182 6.07299004,9.31954545 C5.28745281,9.23972727 4.52367703,8.90393182 3.92170288,8.31172727 Z" id="Shape" fill="#EF2235"></path>
                    <path d="M5.72159589,9.33815909 C5.53736287,8.48809091 5.55418063,8.45836364 5.40589327,8.31247727 C5.31565952,8.22534091 5.21962734,8.18240909 5.10160271,8.15215909 C4.34337124,7.99375 4.24946438,7.99715909 4.10353336,7.85590909 C3.99943882,7.75409091 3.95053333,7.59818182 3.95053333,7.56804545 C3.79880387,6.86479545 3.79647063,6.74159091 3.65414341,6.58981818 C3.49659242,6.42031818 3.39399947,6.42895455 2.59582582,6.26225 C2.50284302,6.23865909 2.25069213,6.14629545 2.18201191,5.82820455 C2.18201191,5.82820455 2.1800483,5.81911364 2.14638968,5.66325 C2.04781635,7.67270455 3.68121816,9.34752273 5.72159589,9.33815909 Z" id="Shape" fill="#FC6574"></path>
                    <path d="M5.72150348,9.33781818 C5.72150348,9.33781818 5.72201171,9.34043182 5.70535566,9.26304545 C4.25103527,8.96270455 3.12544664,7.79475 2.91381547,6.32870455 L2.59582582,6.26229545 C2.50284302,6.23870455 2.25069213,6.14634091 2.18201191,5.82825 C2.18201191,5.82825 2.1800483,5.81915909 2.14641278,5.66334091 C2.1451191,5.67454545 2.14315549,5.75865909 2.14294758,5.77009091 C2.11007441,7.75552273 3.74779616,9.35422727 5.72150348,9.33781818 Z" id="Shape" fill="#FC304E"></path>
                    <path d="M9.26688589,5.90865909 C9.3126958,3.79843182 7.46976504,2.13159091 5.33889945,2.34684091 L5.65374731,2.41259091 C5.65374731,2.41259091 5.65377042,2.41268182 5.65379352,2.41263636 C5.97718887,2.48018182 6.07104953,2.72825 6.09500559,2.81979545 C6.27586581,3.65779545 6.26098856,3.69756818 6.41784652,3.85172727 C6.50431475,3.93288636 6.59900705,3.97504545 6.71481396,4.00481818 C7.44502353,4.15729545 7.57991213,4.16227273 7.71491623,4.30306818 C7.78015435,4.36829545 7.83802315,4.46006818 7.86579094,4.58881818 L7.86581404,4.58886364 C8.01876787,5.29768182 8.01772831,5.43886364 8.19650941,5.60088636 C8.21330407,5.61575 8.21767022,5.61902273 8.21767022,5.61902273 C8.36075978,5.73561364 8.41641086,5.72677273 9.22054464,5.89468182 C9.23325037,5.89786364 9.24902857,5.90245455 9.26688589,5.90865909 Z" id="Shape" fill="#FC6574"></path>
                    <path d="M3.97240235,7.95777727 C3.97240235,7.95777727 3.97280235,7.95817727 3.96490235,7.94997727 L3.97240235,7.95777727 Z" id="Shape" fill="#231F20"></path>
                    <path d="M9.44014577,1.07670455 C9.3039404,0.604159091 9.04959489,-0.0504318182 8.55074502,0.00309090909 C7.84243551,0.0792272727 7.24674491,1.75588636 7.01298268,2.44668182 C4.59249586,1.52290909 1.97652568,3.28779545 1.98449564,5.84493182 C1.98611273,6.31579545 2.07794047,6.78959091 2.27044376,7.24061364 C1.77658378,7.44154545 1.13145636,7.75063636 0.655846424,7.98518182 C0.268714533,8.176 0.027444366,8.33943182 0.0208142877,8.56440909 C0.00438925046,9.12188636 1.47263973,9.14804545 1.87947705,10.5595682 C2.01963274,11.0458182 2.2799153,11.70425 2.78828291,11.6307045 C3.48404841,11.5296364 4.06523137,9.90040909 4.30091102,9.20645455 C5.92204602,9.846 7.83675258,9.28090909 8.80541395,7.76229545 C8.86004857,7.67663636 8.83375927,7.56361364 8.7466673,7.50988636 C8.65959843,7.45613636 8.54471558,7.48195455 8.49012716,7.56765909 C7.93682749,8.43484091 6.97350252,9.04127273 5.84225407,9.09577273 C5.71605157,8.511 5.71720664,8.32547727 5.49217669,8.12402273 C5.30242247,7.94609091 5.11830496,7.93609091 4.42478029,7.79122727 C4.29781544,7.76113636 4.26849987,7.72343182 4.23086782,7.69379545 C4.13550558,7.59843182 4.14398376,7.55920455 3.98403024,6.81809091 C3.94919345,6.65863636 3.86057679,6.49904545 3.722223,6.38631818 C3.52292793,6.22413636 3.37464056,6.22725 2.65979337,6.07795455 C2.41688301,6.01395455 2.3956991,5.80956818 2.36178637,5.65268182 C2.45035682,4.05027273 3.71014101,2.76197727 5.30526393,2.58865909 C5.57215346,2.64438636 5.80834134,2.65247727 5.87859244,2.91118182 C6.04739378,3.69331818 6.0425887,3.82988636 6.26061894,4.0275 C6.46363333,4.21006818 6.63409796,4.21475 7.3271837,4.35945455 C7.49679358,4.39484091 7.59432735,4.50663636 7.62052424,4.64979545 C7.77204579,5.35181818 7.77296984,5.54965909 8.02967169,5.76427273 C8.22656422,5.92468182 8.38275224,5.92454545 8.988515,6.05104545 C8.96587571,6.38593182 8.89098124,6.72075 8.76032018,7.04370455 C8.72229541,7.13765909 8.76891387,7.24413636 8.86443782,7.28152273 C8.95986937,7.31890909 9.06816835,7.27309091 9.10617002,7.17911364 C9.4773158,6.26184091 9.44455813,5.24781818 9.06569651,4.38879545 C9.55664572,4.18809091 10.1852788,3.88688636 10.6637764,3.65104545 C11.0509083,3.46022727 11.2921554,3.29677273 11.2988085,3.07181818 C11.3152336,2.51436364 9.84695999,2.48820455 9.44014577,1.07670455 Z M0.40429617,8.57106818 C0.499519804,8.46506818 0.827396813,8.30990909 0.95597875,8.24709091 C0.965450291,8.24995455 0.981251592,8.25443182 0.990931045,8.25645455 C1.95171487,8.45711364 1.80030883,8.2925 2.00230676,9.22847727 C2.05761131,9.48481818 2.23429019,9.67606818 2.52374971,9.74145455 C3.40236215,9.92495455 3.31998285,9.84786364 3.43297139,10.3713182 C3.31866607,10.6050682 2.97417921,11.2701591 2.71297261,11.2701591 C2.49436483,11.2701136 2.29740299,10.6671136 2.23761678,10.4596364 C1.86238207,9.15781818 0.643233104,8.80736364 0.40429617,8.57106818 Z M3.66837382,9.84175 C3.56829891,9.66475 3.41123305,9.56138636 3.21198418,9.51097727 C2.28940994,9.28197727 2.45070334,9.54281818 2.23842533,8.55897727 C2.20552905,8.41245455 2.13511623,8.29711364 2.04040083,8.20393182 C1.87136848,8.04261364 1.70099626,8.03034091 1.49562554,7.98743182 C1.86344473,7.81397727 2.173141,7.67609091 2.42108745,7.57554545 C2.7513901,8.15597727 3.29507962,8.70736364 3.96088272,9.05186364 C3.88799806,9.26788636 3.78727631,9.55029545 3.66837382,9.84175 Z M3.33931865,6.59429545 C3.4926652,6.63545455 3.5785559,6.74445455 3.62090062,6.89870455 C3.7818013,7.64425 3.77558704,7.75495455 3.96975362,7.95479545 C4.07752127,8.05904545 4.22280546,8.12790909 4.34974721,8.14990909 C5.06785168,8.29993182 5.12920878,8.29665909 5.23605238,8.38975 L5.36195456,8.25486364 L5.23852422,8.39202273 C5.35093524,8.50261364 5.33561906,8.51168182 5.46108232,9.09286364 C5.07882481,9.0685 4.70146478,8.98252273 4.33283704,8.82211364 C4.31583447,8.80295455 4.29467366,8.78693182 4.26979354,8.77577273 C3.24802224,8.31927273 2.57896186,7.41625 2.40158994,6.36740909 C2.53869626,6.44034091 2.54881464,6.42920455 3.33931865,6.59429545 Z M8.13110958,5.25215909 C7.98122823,4.55752273 7.97346618,4.37784091 7.78211796,4.19581818 C7.59257165,4.01240909 7.45407925,4.01159091 6.71303516,3.85684091 C6.56398545,3.81643182 6.44785513,3.73995455 6.4034775,3.57977273 C6.23661667,2.80659091 6.2476591,2.76338636 6.13804335,2.59984091 C7.69876841,2.80827273 8.91796358,4.10575 8.99181849,5.67740909 L8.41269155,5.55645455 C8.25188327,5.51318182 8.17234543,5.40131818 8.13110958,5.25215909 Z M7.35435085,2.59736364 C7.44026466,2.34204545 7.56655956,1.98945455 7.7162099,1.63897727 C7.75709924,1.82845455 7.78775469,2.23811364 8.24081774,2.36645455 C8.2647276,2.37452273 8.28872987,2.38106818 8.30011882,2.38352273 C8.95922253,2.52118182 8.98098397,2.51256818 9.05821168,2.58670455 C9.21400697,2.71809091 9.16752712,3.34268182 9.41346375,3.63518182 L9.41348685,3.63518182 C9.45694043,3.68545455 9.50113325,3.72690909 9.56704131,3.76854545 C9.31047807,3.88654545 9.08748105,3.98404545 8.89982904,4.06018182 C8.55363269,3.45422727 8.01668875,2.93065909 7.35435085,2.59736364 Z M10.0525386,3.54 C9.59917525,3.44522727 9.68511215,3.46856818 9.50145667,2.66181818 C9.47338857,2.53354545 9.41484983,2.41961364 9.31884075,2.32515909 C9.14770619,2.16034091 9.01711443,2.15884091 8.3820592,2.02622727 C8.37436646,2.02411364 8.36651201,2.02170455 8.35854206,2.01895455 C8.11854246,1.93622727 8.15007576,1.88615909 7.99257097,1.15622727 C7.98968331,1.14334091 7.9825681,1.11854545 7.97365099,1.09393182 C8.33105149,0.420113636 8.54739533,0.366113636 8.60674262,0.366113636 C8.6432427,0.366113636 8.68653457,0.386909091 8.73403088,0.433704545 C8.96155576,0.657909091 9.06800664,1.18438636 9.17438821,1.44070455 C9.6246329,2.52552273 10.6963031,2.84863636 10.9153498,3.06513636 C10.7978333,3.19597727 10.2792319,3.43045455 10.0525386,3.54 Z" id="Shape" fill="#231F20"></path>
                    <path d="M6.63090435,6.25681818 C6.45387253,6.43034091 6.74702424,6.71720455 6.92382419,6.54390909 C6.99677011,6.47238636 6.99677011,6.35647727 6.92382419,6.28495455 L6.89514202,6.25681818 C6.82212654,6.18531818 6.70389664,6.18531818 6.63090435,6.25681818 Z" id="Shape" fill="#231F20"></path>
                    <path d="M6.47520709,5.84486364 L5.10287328,4.49470455 C5.03021963,4.42320455 4.91235671,4.42322727 4.83967996,4.49468182 C4.76698011,4.56618182 4.76698011,4.68213636 4.83965686,4.75361364 C6.32772827,6.21765909 6.23756383,6.15743182 6.34359888,6.15743182 C6.50798786,6.15745455 6.5928159,5.96056818 6.47520709,5.84486364 Z" id="Shape" fill="#231F20"></path>
                    <path d="M4.70765593,5.49984091 C4.63500228,5.57136364 4.63500228,5.68729545 4.70765593,5.75881818 C6.19653589,7.22359091 6.10782683,7.16497727 6.21409289,7.16497727 C6.37843567,7.16497727 6.46328681,6.96809091 6.345678,6.85236364 L4.97089545,5.49979545 C4.8981956,5.42836364 4.78037888,5.42836364 4.70765593,5.49984091 Z" id="Shape" fill="#231F20"></path>
                    <path d="M4.26301876,5.06220455 C4.19009603,5.13372727 4.19009603,5.24965909 4.26301876,5.32115909 L4.28919675,5.34684091 C4.36223541,5.41834091 4.48039575,5.41831818 4.55341123,5.34684091 C4.73023437,5.17343182 4.4398419,4.88895455 4.26301876,5.06220455 Z" id="Shape" fill="#231F20"></path>
                </g>
                <path d="M57.5083721,12.704625 C57.5010139,12.704625 57.4940298,12.70325 57.4866716,12.70325 C56.2320322,12.70325 55.1271762,13.334125 54.4611947,14.29375 C54.2509241,14.22725 54.0315493,14.1815 53.7994534,14.1815 C52.5776142,14.1815 51.5871225,15.17425 51.5871225,16.398875 L59.9151348,16.398875 C59.1956502,15.11025 58.3927308,13.87525 57.5083721,12.704625 Z" id="Shape" fill="#FFF1A9"></path>
                <path d="M19.4517656,11.022375 C19.4517656,9.027 21.0657109,7.4095 23.0564221,7.4095 C23.3568621,7.4095 23.6442069,7.457125 23.9231958,7.5265 C24.8638013,6.508375 26.1973857,5.861 27.6909804,5.861 C30.534996,5.861 32.8404896,8.17175 32.8404896,11.02225 L19.4517656,11.02225 L19.4517656,11.022375 Z" id="Shape" fill="#FFEB97"></path>
                <path d="M26.9829696,12.84075 C26.9829696,11.32175 28.1895935,10.09025 29.6780748,10.09025 C29.9026877,10.09025 30.117448,10.1265 30.3260973,10.179375 C31.0293689,9.40425 32.0264705,8.9115 33.1431744,8.9115 C35.2694516,8.9115 36.9932713,10.67075 36.9932713,12.84075 L26.9829696,12.84075 L26.9829696,12.84075 Z" id="Shape" fill="#FFEB97"></path>
                <ellipse id="Oval" fill="#D8C34A" cx="22.2082309" cy="57.116625" rx="1" ry="1"></ellipse>
                <ellipse id="Oval" fill="#D8C34A" cx="24.7456956" cy="53.208375" rx="1" ry="1"></ellipse>
                <ellipse id="Oval" fill="#D8C34A" cx="36.8634423" cy="52.623625" rx="1" ry="1"></ellipse>
                <ellipse id="Oval" fill="#D8C34A" cx="40.611397" cy="49.464125" rx="1" ry="1"></ellipse>
                <ellipse id="Oval" fill="#D0D75B" cx="33.3014386" cy="58.80525" rx="1" ry="1"></ellipse>
                <ellipse id="Oval" fill="#D0D75B" cx="29.131072" cy="51.79025" rx="1" ry="1"></ellipse>
                <ellipse id="Oval" fill="#D6EB76" cx="12.6481528" cy="37.972875" rx="1" ry="1"></ellipse>
                <ellipse id="Oval" fill="#CCE16B" cx="6.47535167" cy="39.683875" rx="1" ry="1"></ellipse>
                <ellipse id="Oval" fill="#CCE16B" cx="10.2034766" cy="40.1485" rx="1" ry="1"></ellipse>
                <ellipse id="Oval" fill="#D6EB76" cx="24.7456956" cy="40.98175" rx="1" ry="1"></ellipse>
                <ellipse id="Oval" fill="#D6EB76" cx="22.2082309" cy="38.902125" rx="1" ry="1"></ellipse>
                <ellipse id="Oval" fill="#D6EB76" cx="32.9335274" cy="40.1485" rx="1" ry="1"></ellipse>
                <ellipse id="Oval" fill="#CCE16B" cx="29.9624265" cy="40.98175" rx="1" ry="1"></ellipse>
                <ellipse id="Oval" fill="#CCE16B" cx="36.4955311" cy="40.98175" rx="1" ry="1"></ellipse>
                <ellipse id="Oval" fill="#D6EB76" cx="44.3911542" cy="42.275375" rx="1" ry="1"></ellipse>
                <ellipse id="Oval" fill="#CCE16B" cx="50.5915175" cy="42.0625" rx="1" ry="1"></ellipse>
                <ellipse id="Oval" fill="#D6EB76" cx="54.3651636" cy="42.739875" rx="1" ry="1"></ellipse>
                <ellipse id="Oval" fill="#D8C34A" cx="42.3509309" cy="56.28325" rx="1" ry="1"></ellipse>
                <ellipse id="Oval" fill="#D8C34A" cx="50.1280741" cy="52.375" rx="1" ry="1"></ellipse>
                <ellipse id="Oval" fill="#D0D75B" cx="46.6611038" cy="49.583375" rx="1" ry="1"></ellipse>
                <ellipse id="Oval" fill="#D0D75B" cx="52.6223871" cy="48.630875" rx="1" ry="1"></ellipse>
                <ellipse id="Oval" fill="#D0D75B" cx="16.4982496" cy="52.623625" rx="1" ry="1"></ellipse>
            </g>
        </g>
    </g>
</svg>