<?xml version="1.0" encoding="UTF-8"?>
<svg width="72px" height="72px" viewBox="0 0 72 72" version="1.1" xmlns="http://www.w3.org/2000/svg" xmlns:xlink="http://www.w3.org/1999/xlink">
    <!-- Generator: Sketch 51.3 (57544) - http://www.bohemiancoding.com/sketch -->
    <title>Barbtn_3</title>
    <desc>Created with Sketch.</desc>
    <defs>
        <circle id="path-1" cx="32" cy="32" r="32"></circle>
    </defs>
    <g id="Barbtn_3" stroke="none" stroke-width="1" fill="none" fill-rule="evenodd">
        <path d="M36,72 C16.117749,72 0,55.882251 0,36 C0,16.117749 16.117749,0 36,0 C55.882251,0 72,16.117749 72,36 C72,55.882251 55.882251,72 36,72 Z" id="Oval-Copy-7" fill="#055077" fill-rule="nonzero"></path>
        <g id="Group-10-Copy" transform="translate(4.000000, 4.000000)">
            <circle id="Oval-Copy-2" stroke-opacity="0" stroke="#FFEFC6" stroke-width="8" fill="#001529" fill-rule="nonzero" cx="32" cy="32" r="32"></circle>
            <g id="Group-5">
                <mask id="mask-2" fill="white">
                    <use xlink:href="#path-1"></use>
                </mask>
                <use id="Oval" fill="#8DD9FF" xlink:href="#path-1"></use>
                <g id="Group-6" mask="url(#mask-2)">
                    <g transform="translate(-10.763636, -11.054545)">
                        <g id="Group-20" stroke-width="1" fill="none" transform="translate(0.000000, 33.600000)">
                            <path d="M54.2742614,5.55060985 C54.2742614,4.02285985 53.0357614,2.78423485 51.5078864,2.78423485 C51.2772614,2.78423485 51.0568864,2.82073485 50.8426364,2.87385985 C50.1207614,2.09435985 49.0973864,1.59860985 47.9511364,1.59860985 C45.7685114,1.59860985 43.9992614,3.36798485 43.9992614,5.55048485 L54.2742614,5.55048485 L54.2742614,5.55060985 Z" id="Shape" fill="#FFFFFF" opacity="0.600000024"></path>
                            <path d="M32.1783864,5.55060985 C32.1783864,3.46248485 30.4856364,1.76973485 28.3975114,1.76973485 C28.0823864,1.76973485 27.7810114,1.81960985 27.4883864,1.89223485 C26.5017614,0.826859848 25.1030114,0.149359848 23.5363864,0.149359848 C20.5533864,0.149359848 18.1350114,2.56760985 18.1350114,5.55073485 L32.1783864,5.55073485 L32.1783864,5.55060985 Z" id="Shape" fill="#FFFFFF"></path>
                            <path d="M44.8995114,3.71710985 C44.7071364,3.71710985 44.5253864,3.75498485 44.3511364,3.80985985 C43.7991364,3.01648485 42.8836364,2.49473485 41.8438864,2.49473485 C40.8041364,2.49473485 39.8885114,3.01635985 39.3366364,3.80985985 C39.1623864,3.75485985 38.9806364,3.71710985 38.7882614,3.71710985 C37.7756364,3.71710985 36.9548864,4.53798485 36.9548864,5.55048485 L46.7331364,5.55048485 C46.7328864,4.53798485 45.9120114,3.71710985 44.8995114,3.71710985 Z" id="Shape" fill="#FFFFFF"></path>
                            <path d="M65.1597614,4.07448485 C65.0048864,4.07448485 64.8585114,4.10498485 64.7182614,4.14923485 C64.2738864,3.51048485 63.5367614,3.09048485 62.6996364,3.09048485 C61.8625114,3.09048485 61.1253864,3.51048485 60.6810114,4.14923485 C60.5407614,4.10498485 60.3943864,4.07448485 60.2395114,4.07448485 C59.4242614,4.07448485 58.7635114,4.73535985 58.7635114,5.55048485 L66.6357614,5.55048485 C66.6358864,4.73535985 65.9750114,4.07448485 65.1597614,4.07448485 Z" id="Shape" fill="#FFFFFF"></path>
                            <path d="M71.9446364,3.73973485 C71.7546364,3.73973485 71.5751364,3.77710985 71.4030114,3.83135985 C70.8578864,3.04773485 69.9535114,2.53248485 68.9265114,2.53248485 C67.8995114,2.53248485 66.9952614,3.04773485 66.4500114,3.83135985 C66.2778864,3.77710985 66.0983864,3.73973485 65.9083864,3.73973485 C64.9082614,3.73973485 64.0975114,4.55048485 64.0975114,5.55060985 L73.7553864,5.55060985 C73.7555114,4.55048485 72.9447614,3.73973485 71.9446364,3.73973485 Z" id="Shape" fill="#FFFFFF" opacity="0.600000024"></path>
                            <path d="M86.9818182,7.24848485 L2.85189981,7.24848485 L10.4565035,19.2484848 C10.4565035,19.2484848 32.1918013,27.9151098 38.4960073,28.9151098 C41.0885234,29.3263598 45.6292444,30.0193598 50.0774215,30.6931098 C68.0692003,28.4059848 82.4626233,19.1776098 86.9818182,7.24848485 Z" id="Shape" fill="#57B9E7" opacity="0.600000024"></path>
                            <path d="M66.3115463,15.8718598 C59.1290493,13.5912348 46.1528578,12.0652348 31.3113716,12.0652348 C18.7481189,12.0652348 7.51233957,13.1577348 0,14.8761098 L2.06151614,18.5801098 C2.06151614,18.5801098 16.0156368,24.9146098 24.2696456,27.7502348 C26.5586832,27.8268598 28.908891,27.8689848 31.3113716,27.8689848 C39.0146894,27.8689848 46.2092615,27.4553598 52.3633043,26.7416098 C55.6775751,25.1852589 81.3439539,23.7911591 83.9616122,21.5838712 C85.8443522,19.9962884 71.417906,17.4932586 66.3115463,15.8718598 Z" id="Shape" fill="#B3F4EF"></path>
                            <path d="M79.4575114,17.6931098 L7.57637753,17.6931098 L7.57637753,20.6234848 L75.4236844,20.6234848 C76.865586,19.6949848 78.2092594,18.7151098 79.4575114,17.6931098 Z" id="Shape" fill="#FFFFFF"></path>
                            <path d="M43.4037053,8.87348485 C58.1593891,8.87348485 71.5996604,10.2219848 81.7026141,12.4323598 C82.6916375,10.7722348 83.5221478,9.04573485 84.1299184,7.24848485 L9.01818182,7.24848485 L11.2869729,11.2583598 C20.4248856,9.75485985 31.483189,8.87348485 43.4037053,8.87348485 Z" id="Shape" fill="#57B9E7"></path>
                        </g>
                        <path d="M29.9415114,2.68025 C28.4052614,5.354125 27.5136364,8.445125 27.5136364,11.75 C27.5136364,21.829125 35.6843864,30 45.7636364,30 C55.8428864,30 64.0136364,21.829125 64.0136364,11.75 C64.0136364,10.346125 63.8401364,8.98525 63.5400114,7.672375 C57.9487614,2.892625 50.6960114,0 42.7636364,0 C38.2026364,0 33.8680114,0.960625 29.9415114,2.68025 Z" id="Shape" fill="#FFFFF4" opacity="0.300000012"></path>
                        <circle id="Oval" fill="#FFFFF4" opacity="0.300000012" cx="45.7636364" cy="11.75" r="8.579875"></circle>
                        <circle id="Oval" fill="#FFFFFF" cx="45.7636364" cy="11.75" r="3.373125"></circle>
                    </g>
                </g>
                <path d="M68.6811338,43.4666667 L-3.2,43.4666667 C-3.2,43.4666667 7.57479328,67.2684726 7.70199919,67.2684726 C7.78428918,67.2684726 23.8420663,71.8636283 35.1783086,75.1105047 C36.6637184,74.5634886 38.1137652,73.9647426 39.5039801,73.2922539 C55.4220202,88.3584063 65.633555,55.215957 68.6811338,43.4666667 Z" id="Shape" fill="#FFF8DB" mask="url(#mask-2)"></path>
                <g id="Group-3" mask="url(#mask-2)">
                    <g transform="translate(32.000000, 41.866667)">
                        <path d="M9.04603826,2.81248437 C9.3480995,2.38070901 9.36314333,1.67646249 9.03999703,1.03999178 C8.7259718,0.421180079 8.18309075,0.0449933046 7.68474893,0.0449933046 C7.52886163,0.0449933046 7.37747565,0.0818036468 7.23864593,0.159403828 C7.23864593,0.159403828 7.20595224,1.02307892 7.618177,1.83526927 C7.80213822,2.19765217 8.04343184,2.48827977 8.25440089,2.69931744 C8.02317597,2.70553541 7.74172597,2.51812599 7.56380597,2.21319708 C7.47164768,2.05513645 7.27477482,2.00539275 7.12398111,2.10226861 C6.97342432,2.19914448 6.92604216,2.40582958 7.01831891,2.56401456 C7.21151965,2.89505893 7.48953445,3.14850311 7.80142748,3.27771238 C7.94914135,3.33889714 8.09946124,3.3692408 8.24516137,3.3692408 C8.34478235,3.3692408 8.44215268,3.35456641 8.53490325,3.32621249 L8.6096486,3.56150022 L7.23852748,4.06378729 C7.23497381,4.06515524 7.23153861,4.06689627 7.22798495,4.06838858 C6.78922619,3.84043805 6.22869528,3.60875674 5.59922335,3.48601415 C5.60739677,3.47880131 5.61568865,3.47196155 5.62362516,3.46425128 C5.73141956,3.35891898 5.79360864,3.21565711 5.79882068,3.0612029 C5.80403271,2.90662434 5.75155698,2.75913425 5.65122526,2.64609168 C5.54722143,2.52894525 5.40009984,2.46179125 5.24764775,2.46179125 C5.10763348,2.46179125 4.97425271,2.5168824 4.8717888,2.61711597 C4.7639944,2.72257263 4.70180532,2.86571014 4.69659328,3.0202887 C4.69185507,3.15857621 4.73366982,3.29089446 4.81445639,3.39834087 C4.77702449,3.39734599 4.73947413,3.3967242 4.70180532,3.3967242 C4.68747222,3.3967242 4.67325757,3.39684856 4.65892447,3.39697292 C4.62871834,3.39722163 4.59851222,3.39784343 4.56842455,3.39883831 C4.64080079,3.30270859 4.682734,3.18581089 4.68687994,3.0612029 C4.69209198,2.90662434 4.63961624,2.75913425 4.53928453,2.64609168 C4.43528069,2.52894525 4.28827756,2.46179125 4.13570701,2.46179125 C3.9958112,2.46179125 3.86231198,2.5168824 3.75984807,2.61711597 C3.65205366,2.72257263 3.58986458,2.86571014 3.58465255,3.0202887 C3.57944051,3.17474291 3.63191625,3.322233 3.73224796,3.43539993 C3.75001627,3.45529741 3.7693245,3.47320515 3.78934346,3.49024236 C3.16638657,3.6155965 2.61047543,3.84939192 2.17017674,4.08281426 C2.15690974,4.07560142 2.14340583,4.06913474 2.12895427,4.06378729 L0.757951596,3.56150022 L0.832578491,3.32633685 C0.925447516,3.35456641 1.02269939,3.3692408 1.12243883,3.3692408 C1.2680205,3.3692408 1.41845885,3.33889714 1.56617272,3.27771238 C1.8779473,3.14850311 2.15608055,2.89505893 2.34916284,2.56401456 C2.44143959,2.40582958 2.39417589,2.19914448 2.24350063,2.10226861 C2.09282538,2.00539275 1.89595252,2.05513645 1.80367577,2.21319708 C1.62587423,2.51800164 1.34442423,2.70553541 1.11319931,2.69931744 C1.32416836,2.48827977 1.56546198,2.19765217 1.74930475,1.83526927 C2.1615295,1.02307892 2.12883581,0.159403828 2.12883581,0.159403828 C1.99012455,0.0818036468 1.83862011,0.0449933046 1.68285127,0.0449933046 C1.18450945,0.0449933046 0.641628404,0.421180079 0.327484712,1.03999178 C0.00445686628,1.67646249 0.0195007007,2.38070901 0.321443487,2.81248437 L0.0513652003,3.6632261 C-0.00395346634,3.83732907 0.0842957985,4.02585772 0.249422611,4.08642068 L1.44605895,4.52478708 C1.24444788,4.66581049 1.13227063,4.76181584 1.13227063,4.76181584 C1.14103632,5.73716555 1.48728143,6.62384711 2.04982607,7.29377046 L1.63025708,7.90997062 C1.52755626,8.06081841 1.56084222,8.27048813 1.70452861,8.37830761 C1.76091338,8.42058976 1.82582693,8.44098468 1.89026666,8.44098468 C1.9900061,8.44098468 2.08820562,8.39211149 2.15075006,8.30045871 L2.51855404,7.76024207 C2.57588645,7.80787166 2.63452187,7.85363587 2.69457875,7.89741033 L2.19398628,8.63249795 C2.09128546,8.78347009 2.12445296,8.99313981 2.26813935,9.10095929 C2.32452412,9.14324144 2.38955612,9.16363636 2.4538774,9.16363636 C2.55361684,9.16363636 2.65193481,9.11476317 2.7143608,9.02311039 L3.25416201,8.23032008 C3.68865638,8.43588595 4.16828225,8.55017211 4.67219147,8.55017211 C4.68320782,8.55017211 4.69422417,8.55004775 4.70524053,8.55004775 C5.18924925,8.54519774 5.64956689,8.43551287 6.06806978,8.2412637 L6.6004083,9.02311039 C6.66283429,9.11476317 6.76115226,9.16363636 6.8608917,9.16363636 C6.92521297,9.16363636 6.99024498,9.14324144 7.04662975,9.10095929 C7.19031613,8.99313981 7.22348364,8.78347009 7.12078282,8.63249795 L6.63025905,7.91208473 C6.69055285,7.86868334 6.74954363,7.82341657 6.8072314,7.77628441 L7.16413749,8.30045871 C7.22656348,8.39211149 7.32488145,8.44098468 7.42462089,8.44098468 C7.48894217,8.44098468 7.55397418,8.42058976 7.61035894,8.37830761 C7.75404533,8.27048813 7.78721284,8.06081841 7.68451202,7.90997062 L7.27821003,7.31317051 C7.86420884,6.62372275 8.21862736,5.70172316 8.2095063,4.69167722 C8.2095063,4.69167722 8.12196777,4.6196732 7.96300064,4.50961525 L9.11817759,4.08642068 C9.2833044,4.02585772 9.37143521,3.83732907 9.316235,3.6632261 L9.04603826,2.81248437 Z" id="Crab" stroke="#000000" stroke-width="0.5" fill="#F14F16"></path>
                        <path d="M4.69931776,7.87850773 C4.69019669,7.87863209 4.68119408,7.87863209 4.67219147,7.87863209 C3.90696966,7.87863209 3.18474715,7.55691467 2.63854935,6.97292356 C2.16129259,6.46242878 1.86645713,5.8035734 1.79100104,5.09062174 C1.94913899,4.97944456 2.17503342,4.83282498 2.4517452,4.68570797 C2.97235664,4.40900861 3.77903784,4.07721809 4.66496569,4.06851294 C4.67728505,4.06838858 4.68948596,4.06826423 4.70180532,4.06826423 C5.95909082,4.06826423 7.07079464,4.70747084 7.5565802,5.03403827 C7.4160921,6.61613683 6.19339558,7.86370897 4.69931776,7.87850773 L4.69931776,7.87850773 Z M8.18273538,1.5195211 C8.05551429,1.26881283 7.98124277,1.00778273 7.93788809,0.783687335 C8.12327078,0.875091394 8.32630331,1.06187901 8.47543865,1.35573995 C8.60716104,1.61515338 8.66247971,1.9020502 8.62765382,2.14368025 C8.47508328,1.98126705 8.31043029,1.77097553 8.18273538,1.5195211 L8.18273538,1.5195211 Z M0.892043096,1.35573995 C1.04117843,1.06187901 1.24432942,0.875091394 1.42959365,0.783687335 C1.38635743,1.00778273 1.31208591,1.26881283 1.18486482,1.5195211 C1.05764373,1.76998066 0.892753829,1.98027218 0.739827922,2.14305845 C0.705120493,1.90155276 0.760439159,1.61502902 0.892043096,1.35573995 L0.892043096,1.35573995 Z" id="Path" stroke="#000000" stroke-width="0.5" fill="#BD3100"></path>
                        <path d="M4.01417179,2.90376407 C4.04733929,2.87130631 4.09045706,2.85352293 4.13570701,2.85352293 C4.18581364,2.85352293 4.2321297,2.87466401 4.26624485,2.91309102 C4.29870163,2.94965264 4.31564075,2.99728224 4.31398238,3.04727466 C4.312324,3.09726709 4.29218658,3.14352874 4.2573607,3.17772753 C4.22419319,3.21006094 4.18107543,3.22796868 4.13582547,3.22796868 C4.08571884,3.22796868 4.03940278,3.20670324 4.00528763,3.16827623 C3.97283086,3.13171461 3.95589173,3.08408501 3.95755011,3.03409258 C3.95920849,2.98410016 3.9793459,2.93783851 4.01417179,2.90376407 L4.01417179,2.90376407 Z" id="Path" stroke="none" fill="#000000"></path>
                        <path d="M5.12611252,2.90376407 C5.15928003,2.87130631 5.20239779,2.85352293 5.24764775,2.85352293 C5.29763593,2.85352293 5.34407044,2.87466401 5.37818559,2.91309102 C5.41064237,2.94965264 5.42758149,2.99728224 5.42592311,3.04727466 C5.42426474,3.09726709 5.40412732,3.14352874 5.36930144,3.17772753 C5.33613393,3.21006094 5.29301617,3.22796868 5.24776621,3.22796868 C5.19765958,3.22796868 5.15134352,3.20670324 5.11722837,3.16827623 C5.08477159,3.13171461 5.06783247,3.08408501 5.06949085,3.03409258 C5.07114922,2.98410016 5.09128664,2.93783851 5.12611252,2.90376407 L5.12611252,2.90376407 Z" id="Path" stroke="none" fill="#000000"></path>
                    </g>
                </g>
                <g id="Group-3-Copy-2" mask="url(#mask-2)">
                    <g transform="translate(18.400000, 48.800000)">
                        <path d="M9.04603826,2.81248437 C9.3480995,2.38070901 9.36314333,1.67646249 9.03999703,1.03999178 C8.7259718,0.421180079 8.18309075,0.0449933046 7.68474893,0.0449933046 C7.52886163,0.0449933046 7.37747565,0.0818036468 7.23864593,0.159403828 C7.23864593,0.159403828 7.20595224,1.02307892 7.618177,1.83526927 C7.80213822,2.19765217 8.04343184,2.48827977 8.25440089,2.69931744 C8.02317597,2.70553541 7.74172597,2.51812599 7.56380597,2.21319708 C7.47164768,2.05513645 7.27477482,2.00539275 7.12398111,2.10226861 C6.97342432,2.19914448 6.92604216,2.40582958 7.01831891,2.56401456 C7.21151965,2.89505893 7.48953445,3.14850311 7.80142748,3.27771238 C7.94914135,3.33889714 8.09946124,3.3692408 8.24516137,3.3692408 C8.34478235,3.3692408 8.44215268,3.35456641 8.53490325,3.32621249 L8.6096486,3.56150022 L7.23852748,4.06378729 C7.23497381,4.06515524 7.23153861,4.06689627 7.22798495,4.06838858 C6.78922619,3.84043805 6.22869528,3.60875674 5.59922335,3.48601415 C5.60739677,3.47880131 5.61568865,3.47196155 5.62362516,3.46425128 C5.73141956,3.35891898 5.79360864,3.21565711 5.79882068,3.0612029 C5.80403271,2.90662434 5.75155698,2.75913425 5.65122526,2.64609168 C5.54722143,2.52894525 5.40009984,2.46179125 5.24764775,2.46179125 C5.10763348,2.46179125 4.97425271,2.5168824 4.8717888,2.61711597 C4.7639944,2.72257263 4.70180532,2.86571014 4.69659328,3.0202887 C4.69185507,3.15857621 4.73366982,3.29089446 4.81445639,3.39834087 C4.77702449,3.39734599 4.73947413,3.3967242 4.70180532,3.3967242 C4.68747222,3.3967242 4.67325757,3.39684856 4.65892447,3.39697292 C4.62871834,3.39722163 4.59851222,3.39784343 4.56842455,3.39883831 C4.64080079,3.30270859 4.682734,3.18581089 4.68687994,3.0612029 C4.69209198,2.90662434 4.63961624,2.75913425 4.53928453,2.64609168 C4.43528069,2.52894525 4.28827756,2.46179125 4.13570701,2.46179125 C3.9958112,2.46179125 3.86231198,2.5168824 3.75984807,2.61711597 C3.65205366,2.72257263 3.58986458,2.86571014 3.58465255,3.0202887 C3.57944051,3.17474291 3.63191625,3.322233 3.73224796,3.43539993 C3.75001627,3.45529741 3.7693245,3.47320515 3.78934346,3.49024236 C3.16638657,3.6155965 2.61047543,3.84939192 2.17017674,4.08281426 C2.15690974,4.07560142 2.14340583,4.06913474 2.12895427,4.06378729 L0.757951596,3.56150022 L0.832578491,3.32633685 C0.925447516,3.35456641 1.02269939,3.3692408 1.12243883,3.3692408 C1.2680205,3.3692408 1.41845885,3.33889714 1.56617272,3.27771238 C1.8779473,3.14850311 2.15608055,2.89505893 2.34916284,2.56401456 C2.44143959,2.40582958 2.39417589,2.19914448 2.24350063,2.10226861 C2.09282538,2.00539275 1.89595252,2.05513645 1.80367577,2.21319708 C1.62587423,2.51800164 1.34442423,2.70553541 1.11319931,2.69931744 C1.32416836,2.48827977 1.56546198,2.19765217 1.74930475,1.83526927 C2.1615295,1.02307892 2.12883581,0.159403828 2.12883581,0.159403828 C1.99012455,0.0818036468 1.83862011,0.0449933046 1.68285127,0.0449933046 C1.18450945,0.0449933046 0.641628404,0.421180079 0.327484712,1.03999178 C0.00445686628,1.67646249 0.0195007007,2.38070901 0.321443487,2.81248437 L0.0513652003,3.6632261 C-0.00395346634,3.83732907 0.0842957985,4.02585772 0.249422611,4.08642068 L1.44605895,4.52478708 C1.24444788,4.66581049 1.13227063,4.76181584 1.13227063,4.76181584 C1.14103632,5.73716555 1.48728143,6.62384711 2.04982607,7.29377046 L1.63025708,7.90997062 C1.52755626,8.06081841 1.56084222,8.27048813 1.70452861,8.37830761 C1.76091338,8.42058976 1.82582693,8.44098468 1.89026666,8.44098468 C1.9900061,8.44098468 2.08820562,8.39211149 2.15075006,8.30045871 L2.51855404,7.76024207 C2.57588645,7.80787166 2.63452187,7.85363587 2.69457875,7.89741033 L2.19398628,8.63249795 C2.09128546,8.78347009 2.12445296,8.99313981 2.26813935,9.10095929 C2.32452412,9.14324144 2.38955612,9.16363636 2.4538774,9.16363636 C2.55361684,9.16363636 2.65193481,9.11476317 2.7143608,9.02311039 L3.25416201,8.23032008 C3.68865638,8.43588595 4.16828225,8.55017211 4.67219147,8.55017211 C4.68320782,8.55017211 4.69422417,8.55004775 4.70524053,8.55004775 C5.18924925,8.54519774 5.64956689,8.43551287 6.06806978,8.2412637 L6.6004083,9.02311039 C6.66283429,9.11476317 6.76115226,9.16363636 6.8608917,9.16363636 C6.92521297,9.16363636 6.99024498,9.14324144 7.04662975,9.10095929 C7.19031613,8.99313981 7.22348364,8.78347009 7.12078282,8.63249795 L6.63025905,7.91208473 C6.69055285,7.86868334 6.74954363,7.82341657 6.8072314,7.77628441 L7.16413749,8.30045871 C7.22656348,8.39211149 7.32488145,8.44098468 7.42462089,8.44098468 C7.48894217,8.44098468 7.55397418,8.42058976 7.61035894,8.37830761 C7.75404533,8.27048813 7.78721284,8.06081841 7.68451202,7.90997062 L7.27821003,7.31317051 C7.86420884,6.62372275 8.21862736,5.70172316 8.2095063,4.69167722 C8.2095063,4.69167722 8.12196777,4.6196732 7.96300064,4.50961525 L9.11817759,4.08642068 C9.2833044,4.02585772 9.37143521,3.83732907 9.316235,3.6632261 L9.04603826,2.81248437 Z" id="Crab" stroke="#000000" stroke-width="0.5" fill="#F14F16"></path>
                        <path d="M4.69931776,7.87850773 C4.69019669,7.87863209 4.68119408,7.87863209 4.67219147,7.87863209 C3.90696966,7.87863209 3.18474715,7.55691467 2.63854935,6.97292356 C2.16129259,6.46242878 1.86645713,5.8035734 1.79100104,5.09062174 C1.94913899,4.97944456 2.17503342,4.83282498 2.4517452,4.68570797 C2.97235664,4.40900861 3.77903784,4.07721809 4.66496569,4.06851294 C4.67728505,4.06838858 4.68948596,4.06826423 4.70180532,4.06826423 C5.95909082,4.06826423 7.07079464,4.70747084 7.5565802,5.03403827 C7.4160921,6.61613683 6.19339558,7.86370897 4.69931776,7.87850773 L4.69931776,7.87850773 Z M8.18273538,1.5195211 C8.05551429,1.26881283 7.98124277,1.00778273 7.93788809,0.783687335 C8.12327078,0.875091394 8.32630331,1.06187901 8.47543865,1.35573995 C8.60716104,1.61515338 8.66247971,1.9020502 8.62765382,2.14368025 C8.47508328,1.98126705 8.31043029,1.77097553 8.18273538,1.5195211 L8.18273538,1.5195211 Z M0.892043096,1.35573995 C1.04117843,1.06187901 1.24432942,0.875091394 1.42959365,0.783687335 C1.38635743,1.00778273 1.31208591,1.26881283 1.18486482,1.5195211 C1.05764373,1.76998066 0.892753829,1.98027218 0.739827922,2.14305845 C0.705120493,1.90155276 0.760439159,1.61502902 0.892043096,1.35573995 L0.892043096,1.35573995 Z" id="Path" stroke="#000000" stroke-width="0.5" fill="#BD3100"></path>
                        <path d="M4.01417179,2.90376407 C4.04733929,2.87130631 4.09045706,2.85352293 4.13570701,2.85352293 C4.18581364,2.85352293 4.2321297,2.87466401 4.26624485,2.91309102 C4.29870163,2.94965264 4.31564075,2.99728224 4.31398238,3.04727466 C4.312324,3.09726709 4.29218658,3.14352874 4.2573607,3.17772753 C4.22419319,3.21006094 4.18107543,3.22796868 4.13582547,3.22796868 C4.08571884,3.22796868 4.03940278,3.20670324 4.00528763,3.16827623 C3.97283086,3.13171461 3.95589173,3.08408501 3.95755011,3.03409258 C3.95920849,2.98410016 3.9793459,2.93783851 4.01417179,2.90376407 L4.01417179,2.90376407 Z" id="Path" stroke="none" fill="#000000"></path>
                        <path d="M5.12611252,2.90376407 C5.15928003,2.87130631 5.20239779,2.85352293 5.24764775,2.85352293 C5.29763593,2.85352293 5.34407044,2.87466401 5.37818559,2.91309102 C5.41064237,2.94965264 5.42758149,2.99728224 5.42592311,3.04727466 C5.42426474,3.09726709 5.40412732,3.14352874 5.36930144,3.17772753 C5.33613393,3.21006094 5.29301617,3.22796868 5.24776621,3.22796868 C5.19765958,3.22796868 5.15134352,3.20670324 5.11722837,3.16827623 C5.08477159,3.13171461 5.06783247,3.08408501 5.06949085,3.03409258 C5.07114922,2.98410016 5.09128664,2.93783851 5.12611252,2.90376407 L5.12611252,2.90376407 Z" id="Path" stroke="none" fill="#000000"></path>
                    </g>
                </g>
                <g id="Group-3-Copy" mask="url(#mask-2)">
                    <g transform="translate(7.466667, 37.066667)">
                        <path d="M9.04603826,2.81248437 C9.3480995,2.38070901 9.36314333,1.67646249 9.03999703,1.03999178 C8.7259718,0.421180079 8.18309075,0.0449933046 7.68474893,0.0449933046 C7.52886163,0.0449933046 7.37747565,0.0818036468 7.23864593,0.159403828 C7.23864593,0.159403828 7.20595224,1.02307892 7.618177,1.83526927 C7.80213822,2.19765217 8.04343184,2.48827977 8.25440089,2.69931744 C8.02317597,2.70553541 7.74172597,2.51812599 7.56380597,2.21319708 C7.47164768,2.05513645 7.27477482,2.00539275 7.12398111,2.10226861 C6.97342432,2.19914448 6.92604216,2.40582958 7.01831891,2.56401456 C7.21151965,2.89505893 7.48953445,3.14850311 7.80142748,3.27771238 C7.94914135,3.33889714 8.09946124,3.3692408 8.24516137,3.3692408 C8.34478235,3.3692408 8.44215268,3.35456641 8.53490325,3.32621249 L8.6096486,3.56150022 L7.23852748,4.06378729 C7.23497381,4.06515524 7.23153861,4.06689627 7.22798495,4.06838858 C6.78922619,3.84043805 6.22869528,3.60875674 5.59922335,3.48601415 C5.60739677,3.47880131 5.61568865,3.47196155 5.62362516,3.46425128 C5.73141956,3.35891898 5.79360864,3.21565711 5.79882068,3.0612029 C5.80403271,2.90662434 5.75155698,2.75913425 5.65122526,2.64609168 C5.54722143,2.52894525 5.40009984,2.46179125 5.24764775,2.46179125 C5.10763348,2.46179125 4.97425271,2.5168824 4.8717888,2.61711597 C4.7639944,2.72257263 4.70180532,2.86571014 4.69659328,3.0202887 C4.69185507,3.15857621 4.73366982,3.29089446 4.81445639,3.39834087 C4.77702449,3.39734599 4.73947413,3.3967242 4.70180532,3.3967242 C4.68747222,3.3967242 4.67325757,3.39684856 4.65892447,3.39697292 C4.62871834,3.39722163 4.59851222,3.39784343 4.56842455,3.39883831 C4.64080079,3.30270859 4.682734,3.18581089 4.68687994,3.0612029 C4.69209198,2.90662434 4.63961624,2.75913425 4.53928453,2.64609168 C4.43528069,2.52894525 4.28827756,2.46179125 4.13570701,2.46179125 C3.9958112,2.46179125 3.86231198,2.5168824 3.75984807,2.61711597 C3.65205366,2.72257263 3.58986458,2.86571014 3.58465255,3.0202887 C3.57944051,3.17474291 3.63191625,3.322233 3.73224796,3.43539993 C3.75001627,3.45529741 3.7693245,3.47320515 3.78934346,3.49024236 C3.16638657,3.6155965 2.61047543,3.84939192 2.17017674,4.08281426 C2.15690974,4.07560142 2.14340583,4.06913474 2.12895427,4.06378729 L0.757951596,3.56150022 L0.832578491,3.32633685 C0.925447516,3.35456641 1.02269939,3.3692408 1.12243883,3.3692408 C1.2680205,3.3692408 1.41845885,3.33889714 1.56617272,3.27771238 C1.8779473,3.14850311 2.15608055,2.89505893 2.34916284,2.56401456 C2.44143959,2.40582958 2.39417589,2.19914448 2.24350063,2.10226861 C2.09282538,2.00539275 1.89595252,2.05513645 1.80367577,2.21319708 C1.62587423,2.51800164 1.34442423,2.70553541 1.11319931,2.69931744 C1.32416836,2.48827977 1.56546198,2.19765217 1.74930475,1.83526927 C2.1615295,1.02307892 2.12883581,0.159403828 2.12883581,0.159403828 C1.99012455,0.0818036468 1.83862011,0.0449933046 1.68285127,0.0449933046 C1.18450945,0.0449933046 0.641628404,0.421180079 0.327484712,1.03999178 C0.00445686628,1.67646249 0.0195007007,2.38070901 0.321443487,2.81248437 L0.0513652003,3.6632261 C-0.00395346634,3.83732907 0.0842957985,4.02585772 0.249422611,4.08642068 L1.44605895,4.52478708 C1.24444788,4.66581049 1.13227063,4.76181584 1.13227063,4.76181584 C1.14103632,5.73716555 1.48728143,6.62384711 2.04982607,7.29377046 L1.63025708,7.90997062 C1.52755626,8.06081841 1.56084222,8.27048813 1.70452861,8.37830761 C1.76091338,8.42058976 1.82582693,8.44098468 1.89026666,8.44098468 C1.9900061,8.44098468 2.08820562,8.39211149 2.15075006,8.30045871 L2.51855404,7.76024207 C2.57588645,7.80787166 2.63452187,7.85363587 2.69457875,7.89741033 L2.19398628,8.63249795 C2.09128546,8.78347009 2.12445296,8.99313981 2.26813935,9.10095929 C2.32452412,9.14324144 2.38955612,9.16363636 2.4538774,9.16363636 C2.55361684,9.16363636 2.65193481,9.11476317 2.7143608,9.02311039 L3.25416201,8.23032008 C3.68865638,8.43588595 4.16828225,8.55017211 4.67219147,8.55017211 C4.68320782,8.55017211 4.69422417,8.55004775 4.70524053,8.55004775 C5.18924925,8.54519774 5.64956689,8.43551287 6.06806978,8.2412637 L6.6004083,9.02311039 C6.66283429,9.11476317 6.76115226,9.16363636 6.8608917,9.16363636 C6.92521297,9.16363636 6.99024498,9.14324144 7.04662975,9.10095929 C7.19031613,8.99313981 7.22348364,8.78347009 7.12078282,8.63249795 L6.63025905,7.91208473 C6.69055285,7.86868334 6.74954363,7.82341657 6.8072314,7.77628441 L7.16413749,8.30045871 C7.22656348,8.39211149 7.32488145,8.44098468 7.42462089,8.44098468 C7.48894217,8.44098468 7.55397418,8.42058976 7.61035894,8.37830761 C7.75404533,8.27048813 7.78721284,8.06081841 7.68451202,7.90997062 L7.27821003,7.31317051 C7.86420884,6.62372275 8.21862736,5.70172316 8.2095063,4.69167722 C8.2095063,4.69167722 8.12196777,4.6196732 7.96300064,4.50961525 L9.11817759,4.08642068 C9.2833044,4.02585772 9.37143521,3.83732907 9.316235,3.6632261 L9.04603826,2.81248437 Z" id="Crab" stroke="#000000" stroke-width="0.5" fill="#F14F16"></path>
                        <path d="M4.69931776,7.87850773 C4.69019669,7.87863209 4.68119408,7.87863209 4.67219147,7.87863209 C3.90696966,7.87863209 3.18474715,7.55691467 2.63854935,6.97292356 C2.16129259,6.46242878 1.86645713,5.8035734 1.79100104,5.09062174 C1.94913899,4.97944456 2.17503342,4.83282498 2.4517452,4.68570797 C2.97235664,4.40900861 3.77903784,4.07721809 4.66496569,4.06851294 C4.67728505,4.06838858 4.68948596,4.06826423 4.70180532,4.06826423 C5.95909082,4.06826423 7.07079464,4.70747084 7.5565802,5.03403827 C7.4160921,6.61613683 6.19339558,7.86370897 4.69931776,7.87850773 L4.69931776,7.87850773 Z M8.18273538,1.5195211 C8.05551429,1.26881283 7.98124277,1.00778273 7.93788809,0.783687335 C8.12327078,0.875091394 8.32630331,1.06187901 8.47543865,1.35573995 C8.60716104,1.61515338 8.66247971,1.9020502 8.62765382,2.14368025 C8.47508328,1.98126705 8.31043029,1.77097553 8.18273538,1.5195211 L8.18273538,1.5195211 Z M0.892043096,1.35573995 C1.04117843,1.06187901 1.24432942,0.875091394 1.42959365,0.783687335 C1.38635743,1.00778273 1.31208591,1.26881283 1.18486482,1.5195211 C1.05764373,1.76998066 0.892753829,1.98027218 0.739827922,2.14305845 C0.705120493,1.90155276 0.760439159,1.61502902 0.892043096,1.35573995 L0.892043096,1.35573995 Z" id="Path" stroke="#000000" stroke-width="0.5" fill="#BD3100"></path>
                        <path d="M4.01417179,2.90376407 C4.04733929,2.87130631 4.09045706,2.85352293 4.13570701,2.85352293 C4.18581364,2.85352293 4.2321297,2.87466401 4.26624485,2.91309102 C4.29870163,2.94965264 4.31564075,2.99728224 4.31398238,3.04727466 C4.312324,3.09726709 4.29218658,3.14352874 4.2573607,3.17772753 C4.22419319,3.21006094 4.18107543,3.22796868 4.13582547,3.22796868 C4.08571884,3.22796868 4.03940278,3.20670324 4.00528763,3.16827623 C3.97283086,3.13171461 3.95589173,3.08408501 3.95755011,3.03409258 C3.95920849,2.98410016 3.9793459,2.93783851 4.01417179,2.90376407 L4.01417179,2.90376407 Z" id="Path" stroke="none" fill="#000000"></path>
                        <path d="M5.12611252,2.90376407 C5.15928003,2.87130631 5.20239779,2.85352293 5.24764775,2.85352293 C5.29763593,2.85352293 5.34407044,2.87466401 5.37818559,2.91309102 C5.41064237,2.94965264 5.42758149,2.99728224 5.42592311,3.04727466 C5.42426474,3.09726709 5.40412732,3.14352874 5.36930144,3.17772753 C5.33613393,3.21006094 5.29301617,3.22796868 5.24776621,3.22796868 C5.19765958,3.22796868 5.15134352,3.20670324 5.11722837,3.16827623 C5.08477159,3.13171461 5.06783247,3.08408501 5.06949085,3.03409258 C5.07114922,2.98410016 5.09128664,2.93783851 5.12611252,2.90376407 L5.12611252,2.90376407 Z" id="Path" stroke="none" fill="#000000"></path>
                    </g>
                </g>
                <g id="Seagull-" mask="url(#mask-2)">
                    <g transform="translate(41.866667, 28.533333)">
                        <rect id="Rectangle-3" stroke="#000000" stroke-width="0.5" fill="#F2A820" fill-rule="nonzero" x="5.89022685" y="12.2327273" width="1.04383421" height="3.79636364" rx="0.521917107"></rect>
                        <rect id="Rectangle-3-Copy-2" stroke="#000000" stroke-width="0.5" fill="#F2A820" fill-rule="nonzero" transform="translate(2.132424, 3.480000) rotate(90.000000) translate(-2.132424, -3.480000) " x="1.61050657" y="1.79272727" width="1.04383421" height="3.37454545" rx="0.521917107"></rect>
                        <rect id="Rectangle-3-Copy" stroke="#000000" stroke-width="0.5" fill="#FFC013" fill-rule="nonzero" x="7.35159475" y="12.8654545" width="1.04383421" height="3.79636364" rx="0.521917107"></rect>
                        <rect id="Rectangle-3-Copy-3" stroke="#000000" stroke-width="0.5" fill="#FFC013" fill-rule="nonzero" transform="translate(1.714890, 3.058182) rotate(90.000000) translate(-1.714890, -3.058182) " x="1.19297288" y="1.37090909" width="1.04383421" height="3.37454545" rx="0.521917107"></rect>
                        <path d="M14.7570557,5.98789891 L7.24144936,5.98789891 L7.24144936,2.94089527 C7.24144936,1.43099709 6.01863412,0.0373098182 4.46756432,0.0373098182 C2.91649452,0.0373098182 1.81351144,1.15677713 1.81351144,2.36912368 L1.81351144,3.66789891 L1.81351144,10.4868007 C1.81351144,12.1139644 3.21454573,13.3697171 4.94856312,13.3697171 L7.4502162,13.3697171 L8.70281726,13.3697171 L15.1745894,13.3697171 L15.1745894,12.9719425 C15.1745894,11.6761171 14.7056991,10.430488 13.8464147,9.48097527 C14.4073712,8.74511345 14.7570557,7.82449527 14.7570557,6.82689527 L14.7570557,5.98789891 Z" id="Fill-24" stroke="#000000" stroke-width="0.5" fill="#CED8DA" fill-rule="evenodd"></path>
                        <path d="M16.8326834,8.74281708 C16.4923797,10.886066 14.8250776,12.1173625 12.825429,12.1173625 C10.8260457,12.1173625 9.49939883,10.9305382 8.48200966,8.99787825 L16.8326834,8.74281708 Z" id="Path-Copy-3" stroke="#000000" stroke-width="0.5" fill="#434440" fill-rule="evenodd" transform="translate(12.657347, 10.430090) scale(-1, -1) rotate(28.000000) translate(-12.657347, -10.430090) "></path>
                        <g id="Group-4" stroke="none" stroke-width="1" fill="none" fill-rule="evenodd" transform="translate(4.846393, 5.905455)">
                            <path d="M11.4821764,0 C10.9946323,3.08092035 8.60593222,4.85090909 5.74108818,4.85090909 C2.87662414,4.85090909 0.487544092,3.08092035 0,0 L11.4821764,0 Z" id="Path" stroke="#000000" stroke-width="0.5" fill="#595854"></path>
                            <path d="M10.4383421,0 C9.99512024,3.08092035 7.19727422,4.64 4.59287054,4.64 C2.8238797,4.64 0.443221901,3.08092035 0,0 L10.4383421,0 Z" id="Path-Copy-5" stroke="#000000" stroke-width="0.5" fill="#B9C3C5"></path>
                            <path d="M9.53479925,0 C9.16650844,2.28278075 7.36208443,3.59423829 5.19798124,3.59423829 C3.0341651,3.59423829 1.22945403,2.28278075 0.861163227,0 L9.53479925,0 Z" id="Path-Copy-4" stroke="#000000" stroke-width="0.5" fill="#E5E8ED"></path>
                        </g>
                        <path d="M4.47246046,3.2323416 C4.37515558,3.32394858 4.24907775,3.37454545 4.11619905,3.37454545 C3.96919544,3.37454545 3.83317787,3.3148944 3.73325727,3.20571166 C3.63856811,3.10292011 3.58939253,2.96923783 3.59410083,2.82863177 C3.59933227,2.68855831 3.65792446,2.55807163 3.75941449,2.46220386 C3.85619623,2.37059688 3.9827972,2.32 4.1156759,2.32 C4.26267951,2.32 4.39869708,2.37965106 4.49861768,2.48883379 C4.59278369,2.59162534 4.64248242,2.72530762 4.63725098,2.86591368 C4.63254268,3.00598714 4.57395049,3.13647383 4.47246046,3.2323416" id="Fill-26" stroke="none" fill="#000000" fill-rule="evenodd"></path>
                    </g>
                </g>
            </g>
        </g>
    </g>
</svg>