<?xml version="1.0" encoding="UTF-8"?>
<svg width="72px" height="72px" viewBox="0 0 72 72" version="1.1" xmlns="http://www.w3.org/2000/svg" xmlns:xlink="http://www.w3.org/1999/xlink">
    <!-- Generator: Sketch 51.3 (57544) - http://www.bohemiancoding.com/sketch -->
    <title>Barbtn_1</title>
    <desc>Created with Sketch.</desc>
    <defs>
        <ellipse id="path-1" cx="32" cy="31.988489" rx="31.819209" ry="31.988489"></ellipse>
    </defs>
    <g id="Barbtn_1" stroke="none" stroke-width="1" fill="none" fill-rule="evenodd">
        <g id="Group-10">
            <path d="M36,72 C16.117749,72 0,55.882251 0,36 C0,16.117749 16.117749,0 36,0 C55.882251,0 72,16.117749 72,36 C72,55.882251 55.882251,72 36,72 Z" id="Oval-Copy-5" fill="#055077" fill-rule="nonzero"></path>
            <g id="Group-2-Copy" transform="translate(4.000000, 4.000000)">
                <g id="Group-14">
                    <ellipse id="Oval" stroke-opacity="0" stroke="#FFEFC6" stroke-width="8" fill="#001529" fill-rule="nonzero" cx="32" cy="31.988489" rx="31.819209" ry="31.988489"></ellipse>
                    <g id="iceberg">
                        <mask id="mask-2" fill="white">
                            <use xlink:href="#path-1"></use>
                        </mask>
                        <use id="Oval" fill="#8DD9FF" xlink:href="#path-1"></use>
                        <g id="Group-19" mask="url(#mask-2)">
                            <g transform="translate(0.000000, 4.016736)" id="Shape">
                                <path d="M0.912384181,21.1540809 C0.437581921,23.3517901 0.18079096,25.6312198 0.18079096,27.9717526 C0.18079096,30.3124103 0.437706215,32.5917151 0.912384181,34.7894243 C9.27499435,41.7216797 29.9942712,46.6316628 54.2485876,46.6316628 C55.464678,46.6316628 56.6684633,46.6151688 57.8657853,46.5908026 C61.6086441,41.3451902 63.819209,34.9198773 63.819209,27.9717526 C63.819209,21.0236279 61.6085198,14.59819 57.8657853,9.35257767 C56.6684633,9.32833639 55.4648023,9.31171737 54.2485876,9.31171737 C29.9942712,9.31184233 9.27499435,14.2218255 0.912384181,21.1540809 Z" fill="#FFFFF4" opacity="0.200000003"></path>
                                <path d="M0.18079096,27.9717526 C0.18079096,34.7313202 2.27178531,40.9971904 5.83118644,46.1625816 C17.3425311,49.4180352 33.5663503,51.7788107 52.1633107,52.7162233 C59.2782599,46.8495844 63.819209,37.9445389 63.819209,27.9717526 C63.819209,23.7177834 62.9860678,19.6613681 61.4865876,15.9484542 C35.7155141,16.5568602 13.4851977,19.8559231 0.359649718,24.5860959 C0.243062147,25.6989455 0.18079096,26.8279142 0.18079096,27.9717526 Z" fill="#FFFFF4" opacity="0.300000012"></path>
                                <path d="M22.0564972,13.9767887 C20.9378531,14.2266987 19.5706215,16.8507545 18.079096,16.9757095 C16.5875706,17.1006645 13.8531073,16.9757095 13.1073446,17.9753498 C12.7493785,18.4553021 12.2771864,20.3533691 11.8825537,21.9739109 L27.7118644,21.9739109 L28.4783842,17.2672296 C27.2354463,16.3925443 23.1751412,13.7268786 22.0564972,13.9767887 Z" fill="#BBE6FF"></path>
                                <path d="M0.18079096,27.9717526 C0.18079096,45.6385202 14.4267232,59.9602416 32,59.9602416 C49.5732768,59.9602416 63.819209,45.6385202 63.819209,27.9717526 C63.819209,25.9207406 63.6194689,23.9175865 63.2524294,21.9739109 L0.747570621,21.9739109 C0.380531073,23.9175865 0.18079096,25.9207406 0.18079096,27.9717526 Z" fill="#3B87C5"></path>
                                <path d="M23.7552203,7.47175448 C23.4422486,7.47175448 23.1464294,7.53373218 22.8629153,7.62357485 C21.9648927,6.32579186 20.4752316,5.47247392 18.7834689,5.47247392 C17.0917062,5.47247392 15.6020452,6.32579186 14.7040226,7.62357485 C14.4205085,7.53373218 14.1246893,7.47175448 13.8117175,7.47175448 C12.1642034,7.47175448 10.8286667,8.81439633 10.8286667,10.4706753 L26.7382712,10.4706753 C26.7382712,8.81439633 25.4027345,7.47175448 23.7552203,7.47175448 Z" fill="#FFFFFF"></path>
                                <path d="M19.7778192,7.77089684 C19.7778192,6.34640944 20.9264181,5.19169996 22.3433672,5.19169996 C22.5572768,5.19169996 22.7617401,5.22568773 22.9602373,5.27529487 C23.6296836,4.54855639 24.5789153,4.08634772 25.6418757,4.08634772 C27.666,4.08634772 29.3069266,5.73600409 29.3069266,7.77089684 L19.7778192,7.77089684 L19.7778192,7.77089684 Z" fill="#FFFFFF"></path>
                                <path d="M32,5.16383498 C32,3.95002177 32.9788136,2.96587592 34.1863277,2.96587592 C34.3685424,2.96587592 34.5428023,2.99486548 34.7120904,3.03710029 C35.2825989,2.41769818 36.0915028,2.02396486 36.9973559,2.02396486 C38.7223051,2.02396486 40.1206102,3.42970901 40.1206102,5.16383498 L32,5.16383498 Z" fill="#FFFFFF" opacity="0.600000024"></path>
                                <path d="M49.5668136,13.9602946 C49.5668136,12.7464814 50.5456271,11.7623355 51.7531412,11.7623355 C51.9353559,11.7623355 52.1096158,11.7913251 52.278904,11.8335599 C52.8494124,11.2141578 53.6583164,10.8204245 54.5641695,10.8204245 C56.2891186,10.8204245 57.6874237,12.2261686 57.6874237,13.9602946 L49.5668136,13.9602946 Z" fill="#FFFFFF" opacity="0.600000024"></path>
                                <path d="M24.1187797,2.39483141 C24.1187797,1.52501941 24.8201695,0.819898143 25.6853785,0.819898143 C25.8160113,0.819898143 25.9408023,0.840640679 26.062113,0.870879797 C26.4709153,0.427039512 27.0504972,0.144891043 27.6996836,0.144891043 C28.935661,0.144891043 29.9377175,1.15227854 29.9377175,2.39483141 L24.1187797,2.39483141 Z" fill="#FFFFFF" opacity="0.600000024"></path>
                                <path d="M43.4764181,11.9775081 C43.4764181,10.3672126 44.7749153,9.06193226 46.376565,9.06193226 C46.6183164,9.06193226 46.8495028,9.10041841 47.0739774,9.15639827 C47.830678,8.33481891 48.9037062,7.81238191 50.1053785,7.81238191 C52.3936271,7.81238191 54.2485876,9.67721085 54.2485876,11.9775081 L43.4764181,11.9775081 Z" fill="#FFFFFF"></path>
                                <path d="M50.8926554,21.9739109 C50.8926554,18.808425 48.1839209,17.585615 46.9152542,16.9757095 C45.4108023,16.2524698 42.2749944,16.4758894 40.9491525,13.9767887 C39.6233107,11.477688 38.7072655,9.97822753 37.9661017,9.97822753 C36.5574802,9.97822753 33.0772542,10.6446127 31.0056497,12.9771484 C29.3208475,14.8742157 29.6798079,16.6424544 27.0282486,17.9753498 C26.2300339,18.3765804 24.0451977,18.9703667 24.0451977,21.9739109 C24.0451977,22.0572559 40.1576032,22.0572559 50.8926554,21.9739109 Z" fill="#BBE6FF"></path>
                                <path d="M22.0564972,13.9767887 C20.9378531,14.2266987 19.5706215,16.8507545 18.079096,16.9757095 C16.5875706,17.1006645 13.8531073,16.9757095 13.1073446,17.9753498 C12.8547797,18.313853 12.5457853,19.3604763 12.2468588,20.5149359 C13.6899096,20.6296446 14.0854124,19.225275 14.3916723,18.72508 C14.7231638,18.1836498 16.5460565,18.4335599 17.7889944,18.2668699 C19.0319322,18.1003048 18.9490282,19.0582101 20.1804068,19.3498552 C21.411661,19.6413753 21.6421017,16.8091444 22.2221808,16.2675893 C22.8022599,15.7261591 27.0282486,17.9753498 27.981209,18.68347 L28.3155593,18.2673697 L28.4783842,17.2673546 C27.2354463,16.3925443 23.1751412,13.7268786 22.0564972,13.9767887 Z" fill="#FFFFFF"></path>
                                <path d="M46.9152542,16.9757095 C45.4108023,16.2524698 42.2749944,16.4758894 40.9491525,13.9767887 C39.6233107,11.477688 38.7072655,9.97822753 37.9661017,9.97822753 C36.5574802,9.97822753 33.0772542,10.6446127 31.0056497,12.9771484 C29.3208475,14.8742157 29.6798079,16.6424544 27.0282486,17.9753498 C26.2577514,18.3627104 24.2139887,18.9509987 24.0716723,21.6912626 C25.1016949,20.2870179 28.3954802,19.4123327 30.4463277,19.9121528 C31.796904,20.2412844 30.8813559,21.2692895 32.4422373,21.2692895 C33.6148249,21.2692895 33.5196158,16.2577179 34.3615819,15.4762491 C35.1694915,14.7265189 36.0493672,14.923573 36.5988701,16.9757095 C37.4689266,20.2245404 42.9378531,17.7879172 49.981209,19.1802912 L49.981209,19.1802912 C49.0759774,17.9843465 47.7119774,17.3586967 46.9152542,16.9757095 Z" fill="#FFFFFF"></path>
                                <path d="M0.547706215,23.0985062 L63.4522938,23.0985062 C63.3948701,22.7205172 63.3230282,22.3474015 63.2525537,21.9739109 L0.747570621,21.9739109 C0.676971751,22.3474015 0.605254237,22.7205172 0.547706215,23.0985062 Z" fill="#FFFFFF"></path>
                            </g>
                        </g>
                        <path d="M31.9481878,31.8661088 C19.0197068,31.8661088 7.15982729,34.6920919 -2.13333333,39.4001852 C1.15834708,54.5855832 14.1825339,66.1055878 30.032296,66.9943429 C30.690359,67.0161976 31.3433705,67.0534467 32.0083964,67.0534467 C32.0171342,67.0534467 32.0257355,67.0527594 32.0344732,67.0527594 C32.686529,67.0524845 33.3267069,67.0160601 33.9720729,66.9948927 C49.8068169,66.110536 62.8221295,54.6147227 66.1333333,39.4532411 C56.8247451,34.7133967 44.9249996,31.8661088 31.9481878,31.8661088 Z" id="Shape" fill="#3C9BD4" mask="url(#mask-2)"></path>
                    </g>
                </g>
            </g>
        </g>
    </g>
</svg>