<?xml version="1.0" encoding="UTF-8"?>
<svg width="72px" height="72px" viewBox="0 0 72 72" version="1.1" xmlns="http://www.w3.org/2000/svg" xmlns:xlink="http://www.w3.org/1999/xlink">
    <!-- Generator: Sketch 51.3 (57544) - http://www.bohemiancoding.com/sketch -->
    <title>Barbtn_7</title>
    <desc>Created with Sketch.</desc>
    <defs>
        <circle id="path-1" cx="32" cy="32" r="32"></circle>
        <circle id="path-3" cx="32" cy="32" r="32"></circle>
        <circle id="path-5" cx="33.8983051" cy="33.8983051" r="33.8983051"></circle>
    </defs>
    <g id="Barbtn_7" stroke="none" stroke-width="1" fill="none" fill-rule="evenodd">
        <path d="M36,72 C16.117749,72 0,55.882251 0,36 C0,16.117749 16.117749,0 36,0 C55.882251,0 72,16.117749 72,36 C72,55.882251 55.882251,72 36,72 Z" id="Oval-Copy-10" fill="#055077" fill-rule="nonzero"></path>
        <g id="waterfall-copy-2" transform="translate(4.000000, 4.000000)">
            <circle id="Oval-Copy-4" stroke-opacity="0" stroke="#FFEFC6" stroke-width="8" fill="#8DD9FF" cx="32" cy="32" r="32"></circle>
            <mask id="mask-2" fill="white">
                <use xlink:href="#path-1"></use>
            </mask>
            <use id="Oval" fill="#64B400" xlink:href="#path-1"></use>
            <path d="M-4.53333333,37.3333333 C0.441015202,52.8041126 14.9131967,64 32,64 C49.0868033,64 63.5589848,52.8041126 68.5333333,37.3333333 L-4.53333333,37.3333333 Z" id="Shape" fill="#64B400" mask="url(#mask-2)"></path>
        </g>
        <g id="waterfall" transform="translate(4.000000, 4.000000)">
            <mask id="mask-4" fill="white">
                <use xlink:href="#path-3"></use>
            </mask>
            <use id="Oval" fill="#F9BE58" xlink:href="#path-3"></use>
            <g id="Group-4" mask="url(#mask-4)">
                <g transform="translate(-1.898305, -22.779661)">
                    <mask id="mask-6" fill="white">
                        <use xlink:href="#path-5"></use>
                    </mask>
                    <use id="Oval-Copy" stroke="none" fill="#8DD9FF" fill-rule="evenodd" xlink:href="#path-5"></use>
                    <g id="3" stroke="none" stroke-width="1" fill="none" fill-rule="evenodd" mask="url(#mask-6)">
                        <g transform="translate(8.135593, 35.254237)">
                            <g id="Group-22" stroke-width="1" fill="none" transform="translate(4.338983, 18.440678)">
                                <path d="M2.62609459,16.7071384 C1.21191837,16.7071384 0.0652220554,15.5709359 0.0652220554,14.1694684 L0.0652220554,2.60308088 C0.0652220554,1.20142459 1.21191837,0.0652220554 2.62609459,0.0652220554 L11.664782,0.0652220554 C13.0789583,0.0652220554 14.2252735,1.20142459 14.2252735,2.60308088 L14.2252735,14.1694684 C14.2252735,15.5709359 13.0789583,16.7071384 11.664782,16.7071384" id="Fill-3" fill="#262F6E"></path>
                            </g>
                            <path d="M10.3798601,16.2250178 L12.5372856,16.2250178 C13.2196112,16.2250178 13.7729861,16.7783926 13.7729861,17.4609071 L13.7729861,21.6369895 C13.7729861,22.319504 13.2196112,22.8728788 12.5372856,22.8728788 L10.3798601,22.8728788 C9.69734563,22.8728788 9.14397082,22.319504 9.14397082,21.6369895 L9.14397082,17.4609071 C9.14397082,16.7783926 9.69734563,16.2250178 10.3798601,16.2250178" id="Fill-6" fill="#E3B38F"></path>
                            <path d="M20.82843,13.5049286 C20.82843,14.5329483 19.9950637,15.3663145 18.9672328,15.3663145 C17.9390242,15.3663145 17.105658,14.5329483 17.105658,13.5049286 C17.105658,12.4769088 17.9390242,11.6435426 18.9672328,11.6435426 C19.9950637,11.6435426 20.82843,12.4769088 20.82843,13.5049286 Z M5.36908989,13.5049286 C5.36908989,14.5329483 4.53572366,15.3663145 3.50770393,15.3663145 C2.47949539,15.3663145 1.64612916,14.5329483 1.64612916,13.5049286 C1.64612916,12.4769088 2.47949539,11.6435426 3.50770393,11.6435426 C4.53572366,11.6435426 5.36908989,12.4769088 5.36908989,13.5049286 Z" id="Combined-Shape" fill="#E3B38F"></path>
                            <path d="M19.9511676,11.3976863 C19.9511676,16.0882506 16.1487217,19.8903188 11.4585351,19.8903188 C6.76815962,19.8903188 2.9659026,16.0882506 2.9659026,11.3976863 C2.9659026,6.70731088 6.76815962,2.90524265 11.4585351,2.90524265 C16.1487217,2.90524265 19.9511676,6.70731088 19.9511676,11.3976863" id="Fill-15" fill="#F6D1B6"></path>
                            <path d="M17.0299301,12.0879983 C17.0299301,12.7616391 16.4835409,13.3080283 15.8099,13.3080283 C15.1360704,13.3080283 14.5896812,12.7616391 14.5896812,12.0879983 C14.5896812,11.4141686 15.1360704,10.8679682 15.8099,10.8679682 C16.4835409,10.8679682 17.0299301,11.4141686 17.0299301,12.0879983 Z M8.32721905,12.0879983 C8.32721905,12.7616391 7.78101867,13.3080283 7.10718902,13.3080283 C6.43354817,13.3080283 5.88715898,12.7616391 5.88715898,12.0879983 C5.88715898,11.4141686 6.43354817,10.8679682 7.10718902,10.8679682 C7.78101867,10.8679682 8.32721905,11.4141686 8.32721905,12.0879983 Z" id="Combined-Shape" fill="#010202"></path>
                            <path d="M9.5223274,15.2780691 L13.3887767,15.2780691 C13.3887767,15.2780691 12.8939301,17.2884188 11.4554576,17.2884188 C10.017174,17.2884188 9.5223274,15.2780691 9.5223274,15.2780691" id="Fill-49" fill="#CA583C"></path>
                            <path d="M12.6895344,12.9136237 C12.6895344,13.5951942 12.1371036,14.147625 11.4555331,14.147625 C10.7739627,14.147625 10.2217207,13.5951942 10.2217207,12.9136237 C10.2217207,12.232242 10.7739627,11.6796224 11.4555331,11.6796224 C12.1371036,11.6796224 12.6895344,12.232242 12.6895344,12.9136237" id="Fill-52" fill="#2C1811"></path>
                            <path d="M19.2353885,5.00381991 C19.3834776,4.97826293 19.5357581,4.96494486 19.6911513,4.96494486 C21.1609646,4.96494486 22.3524857,6.15646599 22.3524857,7.62627934 C22.3524857,9.09590388 21.1609646,10.2876138 19.6911513,10.2876138 C18.2560691,10.2876138 17.0864626,9.15155781 17.0319891,7.72998181 C16.8627939,7.77564472 16.6881559,7.80151085 16.5094443,7.80567775 L9.57479511,7.96823514 C8.77262323,7.98704941 8.04056048,7.56426224 7.50766516,6.86662409 C6.9246106,7.54165804 6.06241523,7.96885818 5.1004454,7.96885818 C4.79489331,7.96885818 4.4994039,7.92574874 4.21972797,7.84527966 C4.22212085,7.88617902 4.22333405,7.92739563 4.22333405,7.96889595 C4.22333405,9.11944733 3.29084746,10.0519339 2.14029607,10.0519339 C0.98974469,10.0519339 0.0572580991,9.11944733 0.0572580991,7.96889595 C0.0572580991,6.82670224 0.976246611,5.89941676 2.11525783,5.88600531 C1.98962727,5.54413611 1.92104184,5.17471018 1.92104184,4.78926582 C1.92104184,3.03323064 3.34459901,1.60986226 5.1004454,1.60986226 C5.80746236,1.60986226 6.46058337,1.84059571 6.98859758,2.2308764 C7.47055034,1.04876085 8.39837196,0.237882591 9.47378674,0.212680541 L16.4086248,0.0503119502 C18.0022914,0.0129294143 19.3195537,1.71874362 19.3474962,3.86049861 C19.3526387,4.2573803 19.3132045,4.64135632 19.2353885,5.00381991 Z M8.07165844,16.4720824 C8.23818065,14.7271864 9.70780519,13.3623463 11.4965029,13.3623463 C13.284823,13.3623463 14.7546363,14.7271864 14.9211585,16.4720824 C13.3879047,15.7245889 12.2379644,15.3508422 11.4713374,15.3508422 C10.7158532,15.3508422 9.58262689,15.7245889 8.07165844,16.4720824 Z" id="Combined-Shape" fill="#997415"></path>
                        </g>
                    </g>
                    <g id="6" stroke="none" stroke-width="1" fill="none" fill-rule="evenodd" mask="url(#mask-6)">
                        <g transform="translate(35.254237, 33.355932)">
                            <g id="Group-25" stroke-width="1" fill="none">
                                <g id="Group-26" transform="translate(7.753923, 23.258225)" fill="#29A98C">
                                    <path d="M10.9544207,15.6730151 L2.53979308,15.6730151 C1.22305098,15.6730151 0.155681105,14.6170151 0.155681105,13.3144748 L0.155681105,2.61395015 C0.155681105,1.3112343 1.22305098,0.255234297 2.53979308,0.255234297 L10.9544207,0.255234297 C12.2711628,0.255234297 13.3383553,1.3112343 13.3383553,2.61395015 L13.3383553,13.3144748" id="Fill-6"></path>
                                </g>
                                <path d="M8.80052954,13.8359571 C9.47121489,14.4356829 9.89315756,15.3064053 9.89315756,16.27535 C9.89315756,18.0848335 8.42249843,19.5512662 6.60821092,19.5512662 C4.79392341,19.5512662 3.32344005,18.0848335 3.32344005,16.27535 C3.32344005,15.1917302 3.85110394,14.230958 4.66424731,13.6346974 C1.96600501,12.658144 0.0383176397,10.0790091 0.0383176397,7.05087936 C0.0383176397,3.18379262 3.18212178,0.0489571286 7.05976146,0.0489571286 C10.9377527,0.0489571286 14.081381,3.18379262 14.081381,7.05087936 C14.081381,10.3187818 11.8364576,13.06377 8.80052954,13.8359571 Z M18.1056121,16.0296869 C18.1056121,14.2205543 19.5762712,12.7541216 21.3903829,12.7541216 C23.2048462,12.7541216 24.6755053,14.2205543 24.6755053,16.0296869 C24.6755053,17.838995 23.2048462,19.3056032 21.3903829,19.3056032 C19.5762712,19.3056032 18.1056121,17.838995 18.1056121,16.0296869 Z" id="Combined-Shape" fill="#FBC53A"></path>
                                <g id="Group-23" transform="translate(5.273070, 8.949153)">
                                    <path d="M8.2343553,12.5327968 L10.2426918,12.5327968 C10.8780967,12.5327968 11.3932756,13.0471099 11.3932756,13.6814469 L11.3932756,17.562747 C11.3932756,18.1970839 10.8780967,18.711397 10.2426918,18.711397 L8.2343553,18.711397 C7.59895041,18.711397 7.0837715,18.1970839 7.0837715,17.562747 L7.0837715,13.6814469 C7.0837715,13.0471099 7.59895041,12.5327968 8.2343553,12.5327968" id="Fill-9" fill="#FFC4A3"></path>
                                    <path d="M3.56935844,10.0047139 C3.56935844,10.9601675 2.79351412,11.7347079 1.83645198,11.7347079 C0.879389831,11.7347079 0.103545512,10.9601675 0.103545512,10.0047139 C0.103545512,9.04926022 0.879389831,8.27471984 1.83645198,8.27471984 C2.79351412,8.27471984 3.56935844,9.04926022 3.56935844,10.0047139 Z M17.9617276,10.0047139 C17.9617276,10.9601675 17.1858832,11.7347079 16.2288211,11.7347079 C15.2717589,11.7347079 14.4959146,10.9601675 14.4959146,10.0047139 C14.4959146,9.04926022 15.2717589,8.27471984 16.2288211,8.27471984 C17.1858832,8.27471984 17.9617276,9.04926022 17.9617276,10.0047139 Z" id="Combined-Shape" fill="#FFC4A3"></path>
                                    <path d="M1.99128688,11.6304064 C1.99128688,11.8120215 1.8438167,11.9594193 1.66172003,11.9594193 C1.47962335,11.9594193 1.33215317,11.8120215 1.33215317,11.6304064 C1.33215317,11.4486158 1.47962335,11.3012179 1.66172003,11.3012179 C1.8438167,11.3012179 1.99128688,11.4486158 1.99128688,11.6304064 Z M17.2085223,11.6304064 C17.2085223,11.8120215 17.0608763,11.9594193 16.8787797,11.9594193 C16.6968588,11.9594193 16.5492128,11.8120215 16.5492128,11.6304064 C16.5492128,11.4486158 16.6968588,11.3012179 16.8787797,11.3012179 C17.0608763,11.3012179 17.2085223,11.4486158 17.2085223,11.6304064 Z" id="Combined-Shape" fill="#29A98C"></path>
                                    <path d="M17.1450169,8.04623569 C17.1450169,12.4055258 13.6050295,15.9393882 9.23857627,15.9393882 C4.87194727,15.9393882 1.33213559,12.4055258 1.33213559,8.04623569 C1.33213559,3.68694556 4.87194727,0.153258624 9.23857627,0.153258624 C13.6050295,0.153258624 17.1450169,3.68694556 17.1450169,8.04623569" id="Fill-25" fill="#FED8BC"></path>
                                    <path d="M10.3846077,9.45514816 C10.3846077,10.0886078 9.8703076,10.6020435 9.23578154,10.6020435 C8.60125549,10.6020435 8.08695543,10.0886078 8.08695543,9.45514816 C8.08695543,8.82186401 8.60125549,8.30825284 9.23578154,8.30825284 C9.8703076,8.30825284 10.3846077,8.82186401 10.3846077,9.45514816" id="Fill-37" fill="#FFC4A3"></path>
                                    <path d="M7.43601255,11.6526915 L11.0355857,11.6526915 C11.0355857,11.6526915 10.5747194,13.5211342 9.23571124,13.5211342 C7.89670308,13.5211342 7.43601255,11.6526915 7.43601255,11.6526915" id="Fill-34" fill="#CA583C"></path>
                                    <path d="M14.4254137,8.68780219 C14.4254137,9.31389192 13.9167382,9.82171246 13.2894187,9.82171246 C12.662275,9.82171246 12.1535995,9.31389192 12.1535995,8.68780219 C12.1535995,8.06153699 12.662275,7.55371645 13.2894187,7.55371645 C13.9167382,7.55371645 14.4254137,8.06153699 14.4254137,8.68780219 Z M6.32337728,8.68780219 C6.32337728,9.31389192 5.81487759,9.82171246 5.18755807,9.82171246 C4.56023854,9.82171246 4.05173886,9.31389192 4.05173886,8.68780219 C4.05173886,8.06153699 4.56023854,7.55371645 5.18755807,7.55371645 C5.81487759,7.55371645 6.32337728,8.06153699 6.32337728,8.68780219 Z" id="Combined-Shape" fill="#010202"></path>
                                </g>
                            </g>
                            <path d="M10.0575016,7.22617747 C10.0575016,9.78177468 12.1347395,11.8534158 14.6974513,11.8534158 C17.2601632,11.8534158 19.3372254,9.78177468 19.3372254,7.22617747 C19.3372254,4.67093121 17.2601632,2.59929013 14.6974513,2.59929013 C12.1347395,2.59929013 10.0575016,4.67093121 10.0575016,7.22617747 Z" id="Clip-42" fill="#FBC53A"></path>
                            <path d="M18.1056121,9.72404387 C18.1056121,11.5331765 19.5762712,12.9997846 21.3903829,12.9997846 C23.2048462,12.9997846 24.6755053,11.5331765 24.6755053,9.72404387 C24.6755053,7.91491127 23.2048462,6.44830309 21.3903829,6.44830309 C19.5762712,6.44830309 18.1056121,7.91491127 18.1056121,9.72404387 Z" id="Clip-45" fill="#FBC53A"></path>
                        </g>
                    </g>
                    <g id="4" stroke="none" stroke-width="1" fill="none" fill-rule="evenodd" mask="url(#mask-6)">
                        <g transform="translate(23.593220, 44.474576)">
                            <g id="Group-49" transform="translate(0.271186, 0.023256)">
                                <g id="Group-9" transform="translate(4.067797, 16.542373)" fill="#7B53A2">
                                    <path d="M10.4556653,8.33657478 L2.36218491,8.33657478 C1.08986011,8.33657478 0.0583565758,7.29989553 0.0583565758,6.02135892 L0.0583565758,2.54905191 C0.0583565758,1.27034303 1.08986011,0.233663789 2.36218491,0.233663789 L10.4556653,0.233663789 C11.7281615,0.233663789 12.7594937,1.27034303 12.7594937,2.54905191 L12.7594937,6.02135892 C12.7594937,7.29989553 11.7281615,8.33657478 10.4556653,8.33657478" id="Fill-7"></path>
                                </g>
                                <path d="M9.52484016,14.7737367 L11.4734349,14.7737367 C12.093731,14.7737367 12.5966273,15.2786398 12.5966273,15.9013709 L12.5966273,19.6933981 C12.5966273,20.3161292 12.093731,20.82086 11.4734349,20.82086 L9.52484016,20.82086 C8.90437245,20.82086 8.40130444,20.3161292 8.40130444,19.6933981 L8.40130444,15.9013709 C8.40130444,15.2786398 8.90437245,14.7737367 9.52484016,14.7737367" id="Fill-10" fill="#F7AC82"></path>
                                <path d="M6.05773868,1.41711169 C6.05773868,1.41711169 2.49781592,2.22864309 0.928882214,10.4042491 L1.89434027,10.4042491 C1.89434027,10.4042491 1.94308517,17.489602 2.49198026,17.9135415 C2.49198026,17.9135415 -0.277897447,19.8515012 0.0238403776,20.6993801 C0.325578202,21.5470867 2.18457842,22.3947934 2.49198026,22.0922994 C2.79938211,21.7894609 3.02920403,18.21638 3.02920403,18.21638 C3.02920403,18.21638 2.6787213,17.6711673 5.39401845,16.5812588 C8.10914396,15.491178 15.4706544,16.7629964 15.4706544,16.7629964 L17.6428921,17.9135415 C17.6428921,17.9135415 17.3411543,22.0964337 17.9446299,22.1548309 C18.5479339,22.2132281 20.2373568,21.0020463 20.116696,20.2754407 C19.9960352,19.5486627 18.2461961,17.7924406 18.2461961,17.7924406 C18.2461961,17.7924406 18.7288393,10.4042491 18.3064407,9.5563702 C18.3064407,9.5563702 19.513392,10.0409463 19.8149582,9.8592087 C19.8149582,9.8592087 19.935619,-3.16112432 5.81641708,0.896532651 L6.05773868,1.41711169 Z" id="Fill-13" fill="#EFBB37"></path>
                                <path d="M17.740605,18.1951055 C17.6745248,18.2161216 17.603982,18.1796018 17.5828706,18.1132805 L17.5257155,17.9332656 C17.5046042,17.8671166 17.5409912,17.7963165 17.6070714,17.7751281 L18.1597425,17.5978694 C18.2258228,17.576681 18.2963656,17.6133731 18.3174769,17.6796944 L18.3746321,17.8597093 C18.3957434,17.9260306 18.3593564,17.9968307 18.2934478,18.0180191 L17.740605,18.1951055 Z M2.9873761,18.1860272 L2.43453336,18.0091131 C2.36862476,17.9879247 2.33223772,17.9169523 2.35334907,17.850631 L2.41050418,17.6707884 C2.43161553,17.6044671 2.50215834,17.567775 2.56823858,17.5889634 L3.12090968,17.7660498 C3.18698992,17.7872382 3.22337696,17.8582106 3.20226561,17.9243596 L3.14511049,18.1043745 C3.12399914,18.1706958 3.05345634,18.2072156 2.9873761,18.1860272 Z" id="Fill-46" fill="#7B53A2"></path>
                                <path d="M19.1128771,12.3238628 C19.1128771,13.2590791 18.3575027,14.0170366 17.4258571,14.0170366 C16.4940399,14.0170366 15.7386655,13.2590791 15.7386655,12.3238628 C15.7386655,11.3886465 16.4940399,10.6306889 17.4258571,10.6306889 C18.3575027,10.6306889 19.1128771,11.3886465 19.1128771,12.3238628 Z M5.1013259,12.3238628 C5.1013259,13.2590791 4.34612315,14.0170366 3.41430594,14.0170366 C2.48248874,14.0170366 1.72728599,13.2590791 1.72728599,12.3238628 C1.72728599,11.3886465 2.48248874,10.6306889 3.41430594,10.6306889 C4.34612315,10.6306889 5.1013259,11.3886465 5.1013259,12.3238628 Z" id="Fill-19" fill="#F7AC82"></path>
                                <path d="M18.1759107,10.382699 C18.1759107,14.6493111 14.7297833,18.1080093 10.4786784,18.1080093 C6.22774512,18.1080093 2.78161768,14.6493111 2.78161768,10.382699 C2.78161768,6.1160869 6.22774512,2.65738868 10.4786784,2.65738868 C14.7297833,2.65738868 18.1759107,6.1160869 18.1759107,10.382699" id="Fill-22" fill="#FBCBA9"></path>
                                <path d="M15.5282729,11.010529 C15.5282729,11.6234411 15.0332718,12.1202478 14.4225874,12.1202478 C13.811903,12.1202478 13.3167303,11.6234411 13.3167303,11.010529 C13.3167303,10.3974447 13.811903,9.90081023 14.4225874,9.90081023 C15.0332718,9.90081023 15.5282729,10.3974447 15.5282729,11.010529 Z M7.6408496,11.010529 C7.6408496,11.6234411 7.14567689,12.1202478 6.53499249,12.1202478 C5.92430809,12.1202478 5.42913538,11.6234411 5.42913538,11.010529 C5.42913538,10.3974447 5.92430809,9.90081023 6.53499249,9.90081023 C7.14567689,9.90081023 7.6408496,10.3974447 7.6408496,11.010529 Z" id="Combined-Shape" fill="#010202"></path>
                                <path d="M10.4760352,12.6894223 C9.91237932,12.6894223 9.45548166,12.2308579 9.45548166,11.665146 L11.4967604,11.665146 C11.4967604,12.2308579 11.0398627,12.6894223 10.4760352,12.6894223" id="Fill-31" fill="#F7AC82"></path>
                                <path d="M8.72396481,13.9124213 L12.2282772,13.9124213 C12.2282772,13.9124213 11.7797897,15.7411662 10.4760352,15.7411662 C9.17245226,15.7411662 8.72396481,13.9124213 8.72396481,13.9124213" id="Fill-34" fill="#CA583C"></path>
                                <path d="M2.75288565,10.6057797 C2.75288565,10.6057797 5.28281485,11.4291972 7.81274405,3.60569696 L7.81274405,1.02933026 L5.28281485,2.91957309 L1.72718301,9.50777478 L2.75288565,10.6057797 Z" id="Fill-37" fill="#EFBB37"></path>
                                <path d="M5.90017593,0.990002601 C5.90017593,0.990002601 7.50704141,9.08550628 20.3169964,10.0711957 C20.3169964,10.0711957 19.3796868,-3.43216305 5.90017593,0.990002601" id="Fill-40" fill="#EFBB37"></path>
                            </g>
                            <g id="Group-54" transform="translate(0.106415, 18.005134)">
                                <path d="M2.58459558,0.0741075791 C2.58459558,0.0741075791 -1.26453551,2.22395088 0.679253379,3.46596772 C2.62338554,4.70798456 2.75194164,4.39136501 2.89199743,3.2313454 C3.03222484,2.07132579 3.30186655,0.321821895 3.07667882,0.299083168 C2.85183437,0.276172178 2.58459558,0.0741075791 2.58459558,0.0741075791" id="Fill-50" fill="#EFBB37"></path>
                                <path d="M18.4688951,0.0381045944 C18.4688951,0.0381045944 22.1053679,2.53350764 20.0561939,3.59137525 C18.0068483,4.64907059 17.7782278,4.3601854 17.7444154,3.19206942 C17.7109461,2.02395344 17.7320575,0.218980834 17.958275,0.216913677 C18.1846642,0.21484652 18.4688951,0.0381045944 18.4688951,0.0381045944" id="Fill-52" fill="#EFBB37"></path>
                            </g>
                        </g>
                    </g>
                </g>
            </g>
        </g>
    </g>
</svg>