<?xml version="1.0" encoding="UTF-8"?>
<svg width="72px" height="72px" viewBox="0 0 72 72" version="1.1" xmlns="http://www.w3.org/2000/svg" xmlns:xlink="http://www.w3.org/1999/xlink">
    <!-- Generator: Sketch 51.3 (57544) - http://www.bohemiancoding.com/sketch -->
    <title>Barbtn_2</title>
    <desc>Created with Sketch.</desc>
    <defs>
        <path d="M63.994875,32 C64.308125,49.673125 50.2375,64 32.56725,64 C14.897,64 0.318375,49.673125 0.005125,32 C-0.308125,14.326875 13.7625,0 31.43275,0 C49.103,0 63.681625,14.326875 63.994875,32 Z" id="path-1"></path>
    </defs>
    <g id="Barbtn_2" stroke="none" stroke-width="1" fill="none" fill-rule="evenodd">
        <path d="M36,72 C16.117749,72 0,55.882251 0,36 C0,16.117749 16.117749,0 36,0 C55.882251,0 72,16.117749 72,36 C72,55.882251 55.882251,72 36,72 Z" id="Oval-Copy-6" fill="#055077" fill-rule="nonzero"></path>
        <g id="Group-3-Copy-3" transform="translate(4.000000, 4.000000)">
            <circle id="Oval-Copy" stroke-opacity="0" stroke="#FFEFC6" stroke-width="8" fill="#001529" fill-rule="nonzero" cx="32" cy="32" r="32"></circle>
            <g id="village">
                <mask id="mask-2" fill="white">
                    <use xlink:href="#path-1"></use>
                </mask>
                <use id="Shape" fill="#FFF9BB" xlink:href="#path-1"></use>
                <path d="M-1.6,34.9333333 C6.21958714,55.150641 18.6027022,68.2666667 32.4353026,68.2666667 C46.2680668,68.2666667 58.4135049,55.150641 65.8666667,34.9333333 L-1.6,34.9333333 Z" id="Shape" fill="#FFBB8C" mask="url(#mask-2)"></path>
                <g id="Group" mask="url(#mask-2)">
                    <g transform="translate(-4.342857, 0.000000)">
                        <path d="M64.0226667,26.2 L61.6532917,26.2 L61.6532917,22.73125 L56.7029167,22.73125 L43.3749167,22.73125 L40.5665417,19.965625 L36.2666667,24.2 L19.0672917,24.2 L19.0672917,21.2 L12.0382917,21.2 L12.0382917,22.923625 L9.98541667,22.923625 L8.15829167,21.12425 L4.69904167,24.53075 L16.9094167,27.78325 L42.7085417,31.059625 L68.1832917,29.9745 C68.2456667,29.05925 68.2781667,28.1355 68.2615417,27.199875 C68.2464167,26.34525 68.1879167,25.501125 68.1072917,24.663375 L64.0226667,24.663375 L64.0226667,26.2 Z" id="Shape" fill="#FFEB97"></path>
                        <path d="M3.29464505,39.2 L17.9884167,39.2 L17.9884167,28.2 L0,28.2 C0.247653379,32.080625 1.39662693,35.786125 3.29464505,39.2 Z" id="Shape" fill="#FAD2A3"></path>
                        <path d="M4.40216667,29.433875 L15.9574167,29.433875 L15.9574167,28.215125 L4.31591667,28.215125 C4.33591667,28.623625 4.36716667,29.02925 4.40216667,29.433875 Z" id="Shape" fill="#FF8562"></path>
                        <rect id="Rectangle-path" fill="#FFF4DB" x="17.9882917" y="18.2" width="18.615" height="21"></rect>
                        <rect id="Rectangle-path" fill="#F26E64" x="17.9882917" y="18.2" width="18.615" height="4"></rect>
                        <path d="M70.9333333,31.278375 L58.1201667,31.278375 L58.1201667,39.2 L68.4513137,39.2 C69.6980402,36.700625 70.5428255,34.045125 70.9333333,31.278375 Z" id="Shape" fill="#FFF4DB"></path>
                        <rect id="Rectangle-path" fill="#FAD2A3" x="41.9997917" y="23.2" width="16.1205" height="16"></rect>
                        <rect id="Rectangle-path" fill="#FF8562" x="41.9997917" y="23.2" width="16.1205" height="1.21875"></rect>
                        <rect id="Rectangle-path" fill="#FFFCEC" x="29.1584167" y="28.2" width="14.2165" height="11"></rect>
                        <path d="M73.0666667,42.2 L1.86791667,42.2 C2.83543218,43.598 0.662025488,44.935 1.86791667,46.2 L69.9813235,46.2 C71.130691,44.935 72.1616579,43.598 73.0666667,42.2 Z" id="Shape" fill="#D8C34A"></path>
                        <path d="M0.533333333,39.506125 C1.02392846,40.427 1.56721317,41.325 2.15629493,42.2 L71.4195046,42.2 C72.0309488,41.229 72.5792881,40.22725 73.0666667,39.2 L0.533333333,39.2 L0.533333333,39.506125 Z" id="Shape" fill="#E5AF7C"></path>
                        <path d="M3.2,39.4713381 C3.3744186,39.7910938 3.56232891,40.1051989 3.75107376,40.41875 L68.42894,40.41875 C68.6517618,40.0168949 68.8667946,39.6114943 69.0666667,39.2 L3.2,39.2 L3.2,39.4713381 Z" id="Shape" fill="#D0D75B"></path>
                        <path d="M32.2047917,3.9245 C32.2047917,2.49025 33.3854167,1.3275 34.8419167,1.3275 C35.0617917,1.3275 35.2719167,1.36175 35.4760417,1.411625 C36.1641667,0.679875 37.1397917,0.2145 38.2325417,0.2145 C40.3131667,0.2145 41.9997917,1.8755 41.9997917,3.924375 L32.2047917,3.924375 L32.2047917,3.9245 Z" id="Shape" fill="#FFF1A9"></path>
                        <path d="M36.7002917,5.075 C36.7002917,3.913125 37.6567917,2.971125 38.8366667,2.971125 C39.0147917,2.971125 39.1850417,2.998875 39.3504167,3.03925 C39.9079167,2.446375 40.6982917,2.0695 41.5834167,2.0695 C43.2689167,2.0695 44.6354167,3.415125 44.6354167,5.075 L36.7002917,5.075 Z" id="Shape" fill="#FFF1A9"></path>
                        <path d="M56.2002917,17.429625 C56.2002917,16.551375 56.9232917,15.8395 57.8150417,15.8395 C57.9496667,15.8395 58.0782917,15.8605 58.2032917,15.891 C58.6246667,15.442875 59.2220417,15.158 59.8911667,15.158 C61.1651667,15.158 62.1979167,16.175125 62.1979167,17.429625 L56.2002917,17.429625 Z" id="Shape" fill="#FFF1A9"></path>
                        <path d="M24.7254167,15.075 C24.7254167,14.216625 25.4320417,13.520875 26.3036667,13.520875 C26.4351667,13.520875 26.5610417,13.541375 26.6831667,13.57125 C27.0949167,13.13325 27.6789167,12.854875 28.3327917,12.854875 C29.5779167,12.854875 30.5872917,13.848875 30.5872917,15.075125 L24.7254167,15.075125 L24.7254167,15.075 Z" id="Shape" fill="#FFF1A9"></path>
                        <path d="M19.6429167,10.459625 C19.6429167,8.378 21.3565417,6.690375 23.4704167,6.690375 C23.7894167,6.690375 24.0945417,6.740125 24.3907917,6.8125 C25.3895417,5.750375 26.8056667,5.075 28.3915417,5.075 C31.4112917,5.075 33.8594167,7.48575 33.8594167,10.459625 L19.6429167,10.459625 Z" id="Shape" fill="#FFEB97"></path>
                        <path d="M50.8216667,10.327125 C50.5020417,10.327125 50.1999167,10.389125 49.9104167,10.479 C48.9932917,9.18075 47.4719167,8.327125 45.7442917,8.327125 C44.0166667,8.327125 42.4952917,9.18075 41.5781667,10.479 C41.2886667,10.389125 40.9865417,10.327125 40.6669167,10.327125 C38.9844167,10.327125 37.6205417,11.67025 37.6205417,13.327125 L53.8679167,13.327125 C53.8680417,11.67025 52.5041667,10.327125 50.8216667,10.327125 Z" id="Shape" fill="#FFEB97"></path>
                        <path d="M54.7195417,9.62825 C54.5114167,9.62825 54.3147917,9.668625 54.1262917,9.727125 C53.5291667,8.881875 52.5387917,8.326125 51.4140417,8.326125 C50.2892917,8.326125 49.2987917,8.881875 48.7017917,9.727125 C48.5132917,9.668625 48.3166667,9.62825 48.1085417,9.62825 C47.0131667,9.62825 46.1251667,10.50275 46.1251667,11.581375 L56.7029167,11.581375 C56.7027917,10.50275 55.8149167,9.62825 54.7195417,9.62825 Z" id="Shape" fill="#FFEB97"></path>
                        <path d="M21.8695417,9.76075 C21.6614167,9.76075 21.4647917,9.801125 21.2762917,9.859625 C20.6791667,9.014375 19.6887917,8.458625 18.5640417,8.458625 C17.4392917,8.458625 16.4487917,9.014375 15.8517917,9.859625 C15.6632917,9.801125 15.4666667,9.76075 15.2585417,9.76075 C14.1631667,9.76075 13.2751667,10.63525 13.2751667,11.713875 L23.8529167,11.713875 C23.8527917,10.63525 22.9647917,9.76075 21.8695417,9.76075 Z" id="Shape" fill="#FFEB97"></path>
                        <polygon id="Shape" fill="#F26E64" points="54.7612917 19.2 45.3587917 19.2 41.5977917 23.2 58.5221667 23.2"></polygon>
                        <rect id="Rectangle-path" fill="#63A0B5" x="32.2047917" y="31.278375" width="3.046375" height="4"></rect>
                        <path d="M35.5050417,35.528625 L31.9509167,35.528625 L31.9509167,31.028625 L35.5050417,31.028625 L35.5050417,35.528625 Z M32.4586667,35.028625 L34.9972917,35.028625 L34.9972917,31.528625 L32.4586667,31.528625 L32.4586667,35.028625 Z" id="Shape" fill="#4185A6"></path>
                        <rect id="Rectangle-path" fill="#4185A6" x="32.2047917" y="32.028625" width="3.046375" height="1"></rect>
                        <rect id="Rectangle-path" fill="#63A0B5" x="37.2821667" y="31.278375" width="3.046375" height="4"></rect>
                        <path d="M40.5824167,35.528625 L37.0282917,35.528625 L37.0282917,31.028625 L40.5824167,31.028625 L40.5824167,35.528625 Z M37.5360417,35.028625 L40.0746667,35.028625 L40.0746667,31.528625 L37.5360417,31.528625 L37.5360417,35.028625 Z" id="Shape" fill="#4185A6"></path>
                        <rect id="Rectangle-path" fill="#4185A6" x="37.2821667" y="32.028625" width="3.046375" height="1"></rect>
                        <polygon id="Shape" fill="#F26E64" points="39.3130417 22.73125 36.2666667 22.73125 33.2202917 22.73125 28.1429167 28.73125 44.3904167 28.73125"></polygon>
                        <rect id="Rectangle-path" fill="#EBD7BD" x="29.1584167" y="37.95" width="14.2165" height="1.25"></rect>
                        <rect id="Rectangle-path" fill="#E8A271" x="17.9882917" y="36.497125" width="11.170125" height="2.702875"></rect>
                        <rect id="Rectangle-path" fill="#FF8562" x="29.1584167" y="28.73125" width="14.2165" height="1.21875"></rect>
                        <rect id="Rectangle-path" fill="#FF8562" x="17.9882917" y="22.121875" width="18.615" height="1.21875"></rect>
                        <rect id="Rectangle-path" fill="#63A0B5" x="45.4481667" y="31.278375" width="2.28475" height="4"></rect>
                        <path d="M47.9871667,35.528625 L45.1946667,35.528625 L45.1946667,31.028625 L47.9871667,31.028625 L47.9871667,35.528625 Z M45.7022917,35.028625 L47.4792917,35.028625 L47.4792917,31.528625 L45.7022917,31.528625 L45.7022917,35.028625 Z" id="Shape" fill="#4185A6"></path>
                        <rect id="Rectangle-path" fill="#4185A6" x="45.4484167" y="32.028625" width="2.28475" height="1"></rect>
                        <rect id="Rectangle-path" fill="#63A0B5" x="48.9176667" y="31.278375" width="2.28475" height="4"></rect>
                        <path d="M51.4559167,35.528625 L48.6634167,35.528625 L48.6634167,31.028625 L51.4559167,31.028625 L51.4559167,35.528625 Z M49.1711667,35.028625 L50.9481667,35.028625 L50.9481667,31.528625 L49.1711667,31.528625 L49.1711667,35.028625 Z" id="Shape" fill="#4185A6"></path>
                        <rect id="Rectangle-path" fill="#4185A6" x="48.9172917" y="32.028625" width="2.28475" height="1"></rect>
                        <rect id="Rectangle-path" fill="#63A0B5" x="52.3871667" y="31.278375" width="2.28475" height="4"></rect>
                        <path d="M54.9257917,35.528625 L52.1332917,35.528625 L52.1332917,31.028625 L54.9257917,31.028625 L54.9257917,35.528625 Z M52.6410417,35.028625 L54.4180417,35.028625 L54.4180417,31.528625 L52.6410417,31.528625 L52.6410417,35.028625 Z" id="Shape" fill="#4185A6"></path>
                        <rect id="Rectangle-path" fill="#4185A6" x="52.3871667" y="32.028625" width="2.28475" height="1"></rect>
                        <rect id="Rectangle-path" fill="#63A0B5" x="6.4" y="31.2" width="2.28475" height="4"></rect>
                        <rect id="Rectangle-path-Copy" fill="#63A0B5" x="2.66666667" y="31.2" width="2.28475" height="4"></rect>
                        <path d="M8.92583333,35.4333333 L6.13333333,35.4333333 L6.13333333,30.9333333 L8.92583333,30.9333333 L8.92583333,35.4333333 Z M6.64108333,34.9333333 L8.41808333,34.9333333 L8.41808333,31.4333333 L6.64108333,31.4333333 L6.64108333,34.9333333 Z" id="Shape" fill="#4185A6"></path>
                        <path d="M5.1925,35.4333333 L2.4,35.4333333 L2.4,30.9333333 L5.1925,30.9333333 L5.1925,35.4333333 Z M2.90775,34.9333333 L4.68475,34.9333333 L4.68475,31.4333333 L2.90775,31.4333333 L2.90775,34.9333333 Z" id="Shape-Copy" fill="#4185A6"></path>
                        <rect id="Rectangle-path" fill="#4185A6" x="6.4" y="32" width="2.28475" height="1"></rect>
                        <rect id="Rectangle-path-Copy-2" fill="#4185A6" x="2.66666667" y="32" width="2.28475" height="1"></rect>
                        <rect id="Rectangle-path" fill="#63A0B5" x="9.98541667" y="31.278375" width="2.28475" height="4"></rect>
                        <path d="M12.5242917,35.528625 L9.73179167,35.528625 L9.73179167,31.028625 L12.5242917,31.028625 L12.5242917,35.528625 Z M10.2395417,35.028625 L12.0165417,35.028625 L12.0165417,31.528625 L10.2395417,31.528625 L10.2395417,35.028625 Z" id="Shape" fill="#4185A6"></path>
                        <rect id="Rectangle-path" fill="#4185A6" x="9.98566667" y="32.028625" width="2.28475" height="1"></rect>
                        <rect id="Rectangle-path" fill="#63A0B5" x="13.4549167" y="31.278375" width="2.28475" height="4"></rect>
                        <path d="M15.9931667,35.528625 L13.2006667,35.528625 L13.2006667,31.028625 L15.9931667,31.028625 L15.9931667,35.528625 Z M13.7082917,35.028625 L15.4854167,35.028625 L15.4854167,31.528625 L13.7082917,31.528625 L13.7082917,35.028625 Z" id="Shape" fill="#4185A6"></path>
                        <rect id="Rectangle-path" fill="#4185A6" x="13.4544167" y="32.028625" width="2.28475" height="1"></rect>
                        <rect id="Rectangle-path" fill="#63A0B5" x="45.4481667" y="25.7" width="2.28475" height="3"></rect>
                        <path d="M47.9871667,28.95 L45.1946667,28.95 L45.1946667,25.45 L47.9871667,25.45 L47.9871667,28.95 Z M45.7022917,28.45 L47.4792917,28.45 L47.4792917,25.95 L45.7022917,25.95 L45.7022917,28.45 Z" id="Shape" fill="#4185A6"></path>
                        <rect id="Rectangle-path" fill="#4185A6" x="45.4484167" y="26.45" width="2.28475" height="1"></rect>
                        <rect id="Rectangle-path" fill="#63A0B5" x="48.9176667" y="25.7" width="2.28475" height="3"></rect>
                        <path d="M51.4559167,28.95 L48.6634167,28.95 L48.6634167,25.45 L51.4559167,25.45 L51.4559167,28.95 Z M49.1711667,28.45 L50.9481667,28.45 L50.9481667,25.95 L49.1711667,25.95 L49.1711667,28.45 Z" id="Shape" fill="#4185A6"></path>
                        <rect id="Rectangle-path" fill="#4185A6" x="48.9172917" y="26.45" width="2.28475" height="1"></rect>
                        <rect id="Rectangle-path" fill="#63A0B5" x="52.3871667" y="25.7" width="2.28475" height="3"></rect>
                        <path d="M54.9257917,28.95 L52.1332917,28.95 L52.1332917,25.45 L54.9257917,25.45 L54.9257917,28.95 Z M52.6410417,28.45 L54.4180417,28.45 L54.4180417,25.95 L52.6410417,25.95 L52.6410417,28.45 Z" id="Shape" fill="#4185A6"></path>
                        <rect id="Rectangle-path" fill="#4185A6" x="52.3871667" y="26.45" width="2.28475" height="1"></rect>
                        <rect id="Rectangle-path" fill="#B66E64" x="43.3749167" y="37.283375" width="14.745375" height="1.916625"></rect>
                        <path d="M50.8606667,38.600375 C50.6927917,38.600375 50.5340417,38.632875 50.3819167,38.680125 C49.9000417,37.998 49.1007917,37.5495 48.1930417,37.5495 C47.2852917,37.5495 46.4860417,37.998 46.0041667,38.680125 C45.8520417,38.632875 45.6932917,38.600375 45.5254167,38.600375 C44.6414167,38.600375 43.9249167,39.306 43.9249167,40.1765 L52.4611667,40.1765 C52.4611667,39.306125 51.7445417,38.600375 50.8606667,38.600375 Z" id="Shape" fill="#69BE5D"></path>
                        <path d="M51.9536667,38.600375 C51.7857917,38.600375 51.6270417,38.632875 51.4749167,38.680125 C50.9930417,37.998 50.1937917,37.5495 49.2860417,37.5495 C49.0972917,37.5495 48.9169167,37.57975 48.7395417,37.616625 C49.4156667,37.757 50.0002917,38.13975 50.3819167,38.680125 C50.5340417,38.632875 50.6927917,38.600375 50.8606667,38.600375 C51.7446667,38.600375 52.4611667,39.306125 52.4611667,40.1765 L53.5541667,40.1765 C53.5541667,39.306125 52.8376667,38.600375 51.9536667,38.600375 Z" id="Shape" fill="#9DC85C"></path>
                        <path d="M69.7616667,28.73125 L58.1201667,28.73125 L58.1201667,31.278375 L69.5504941,31.278375 C69.6563677,30.438375 69.7326484,29.5905 69.7616667,28.73125 Z" id="Shape" fill="#F26E64"></path>
                        <rect id="Rectangle-path" fill="#63A0B5" x="59.4636667" y="33.48125" width="6.061" height="2.8785"></rect>
                        <path d="M65.7785417,36.609625 L59.2097917,36.609625 L59.2097917,33.23125 L65.7785417,33.23125 L65.7785417,36.609625 Z M59.7175417,36.109625 L65.2707917,36.109625 L65.2707917,33.73125 L59.7175417,33.73125 L59.7175417,36.109625 Z" id="Shape" fill="#4185A6"></path>
                        <rect id="Rectangle-path" fill="#4185A6" x="62.2402917" y="33.48125" width="1" height="2.878375"></rect>
                        <rect id="Rectangle-path" fill="#F26E64" x="58.1202917" y="27.2" width="1.079" height="4.078375"></rect>
                        <rect id="Rectangle-path" fill="#F26E64" x="17.9882917" y="17.048625" width="1.079" height="3.47975"></rect>
                        <rect id="Rectangle-path" fill="#F26E64" x="16.9094167" y="22.923625" width="1.079" height="3.47975"></rect>
                        <rect id="Rectangle-path" fill="#B66E64" x="22.1391667" y="16.29375" width="1.428" height="3.413375"></rect>
                        <rect id="Rectangle-path" fill="#B66E64" x="31.0245417" y="16.29375" width="1.428" height="3.413375"></rect>
                        <rect id="Rectangle-path" fill="#F26E64" x="35.5244167" y="17.048625" width="1.079" height="3.47975"></rect>
                        <path d="M69.2902917,31.278375 L58.1201667,31.278375 L58.1201667,32.497125 L69.0950166,32.497125 C69.1629628,32.09175 69.2397532,31.689 69.2902917,31.278375 Z" id="Shape" fill="#FF8562"></path>
                        <rect id="Rectangle-path" fill="#63A0B5" x="21.3731667" y="31.059625" width="2.28475" height="4"></rect>
                        <path d="M23.9115417,35.309875 L21.1190417,35.309875 L21.1190417,30.809875 L23.9115417,30.809875 L23.9115417,35.309875 Z M21.6267917,34.809875 L23.4037917,34.809875 L23.4037917,31.309875 L21.6267917,31.309875 L21.6267917,34.809875 Z" id="Shape" fill="#4185A6"></path>
                        <rect id="Rectangle-path" fill="#4185A6" x="21.3729167" y="31.809875" width="2.28475" height="1"></rect>
                        <rect id="Rectangle-path" fill="#63A0B5" x="25.4774167" y="31.059625" width="2.28475" height="4"></rect>
                        <path d="M28.0160417,35.309875 L25.2235417,35.309875 L25.2235417,30.809875 L28.0160417,30.809875 L28.0160417,35.309875 Z M25.7312917,34.809875 L27.5082917,34.809875 L27.5082917,31.309875 L25.7312917,31.309875 L25.7312917,34.809875 Z" id="Shape" fill="#4185A6"></path>
                        <rect id="Rectangle-path" fill="#4185A6" x="25.4774167" y="31.809875" width="2.28475" height="1"></rect>
                        <rect id="Rectangle-path" fill="#63A0B5" x="21.3731667" y="25.48125" width="2.28475" height="3"></rect>
                        <path d="M23.9115417,28.73125 L21.1190417,28.73125 L21.1190417,25.23125 L23.9115417,25.23125 L23.9115417,28.73125 Z M21.6267917,28.23125 L23.4037917,28.23125 L23.4037917,25.73125 L21.6267917,25.73125 L21.6267917,28.23125 Z" id="Shape" fill="#4185A6"></path>
                        <rect id="Rectangle-path" fill="#4185A6" x="21.3729167" y="26.23125" width="2.28475" height="1"></rect>
                        <rect id="Rectangle-path" fill="#63A0B5" x="25.4774167" y="25.48125" width="2.28475" height="3"></rect>
                        <path d="M28.0160417,28.73125 L25.2235417,28.73125 L25.2235417,25.23125 L28.0160417,25.23125 L28.0160417,28.73125 Z M25.7312917,28.23125 L27.5082917,28.23125 L27.5082917,25.73125 L25.7312917,25.73125 L25.7312917,28.23125 Z" id="Shape" fill="#4185A6"></path>
                        <rect id="Rectangle-path" fill="#4185A6" x="25.4774167" y="26.23125" width="2.28475" height="1"></rect>
                        <path d="M17.9882917,24.2 L4.36316667,24.2 C4.28879167,25.188125 4.25391667,26.18775 4.27179167,27.2 C4.27779167,27.535375 4.29866667,27.867125 4.31479167,28.2 L17.9882917,28.2 L17.9882917,24.2 L17.9882917,24.2 Z" id="Shape" fill="#F26E64"></path>
                        <path d="M2.85815515,39.2 L17.9884167,39.2 L17.9884167,37.283375 L1.86791667,37.283375 C2.17440293,37.9305 2.49849945,38.57175 2.85815515,39.2 Z" id="Shape" fill="#B66E64"></path>
                        <path d="M17.6140417,39.9195 L17.6140417,34.7975 C17.6140417,34.534625 17.3976667,34.3215 17.1304167,34.3215 C16.8631667,34.3215 16.6467917,34.534625 16.6467917,34.7975 L16.6467917,39.919375 L17.6140417,39.919375 L17.6140417,39.9195 Z" id="Shape" fill="#996459"></path>
                        <path d="M20.5596667,33.22775 C20.5596667,35.819625 19.0242917,37.1205 17.1301667,37.1205 C15.2360417,37.1205 13.7006667,35.8195 13.7006667,33.22775 C13.7006667,30.636 15.8014167,20.5285 17.1301667,20.5285 C18.4589167,20.5285 20.5596667,30.635875 20.5596667,33.22775 Z" id="Shape" fill="#69BE5D"></path>
                        <path d="M17.1301667,20.528375 C16.8670417,20.528375 16.5734167,20.929125 16.2720417,21.585125 C17.3559167,23.20175 18.7582917,31.188875 18.7582917,33.407375 C18.7582917,35.574875 17.7795417,36.795125 16.4800417,37.063125 C16.6909167,37.099125 16.9074167,37.1205 17.1301667,37.1205 C19.0241667,37.1205 20.5596667,35.8195 20.5596667,33.22775 C20.5596667,30.635875 18.4589167,20.528375 17.1301667,20.528375 Z" id="Shape" fill="#9DC85C"></path>
                        <path d="M21.7897917,39.9195 L21.7897917,35.982 C21.7897917,35.78 21.6234167,35.616125 21.4179167,35.616125 C21.2124167,35.616125 21.0460417,35.78 21.0460417,35.982 L21.0460417,39.9195 L21.7897917,39.9195 Z" id="Shape" fill="#996459"></path>
                        <path d="M24.0541667,34.775125 C24.0541667,36.767625 22.8737917,37.76775 21.4177917,37.76775 C19.9617917,37.76775 18.7814167,36.767625 18.7814167,34.775125 C18.7814167,32.782625 20.3964167,25.012375 21.4177917,25.012375 C22.4391667,25.012375 24.0541667,32.782625 24.0541667,34.775125 Z" id="Shape" fill="#69BE5D"></path>
                        <path d="M21.4177917,25.012375 C21.2155417,25.012375 20.9897917,25.3205 20.7580417,25.82475 C21.5912917,27.0675 22.6692917,33.207625 22.6692917,34.91325 C22.6692917,36.5795 21.9169167,37.517625 20.9179167,37.723625 C21.0800417,37.75125 21.2465417,37.76775 21.4176667,37.76775 C22.8736667,37.76775 24.0540417,36.767625 24.0540417,34.775125 C24.0540417,32.782625 22.4391667,25.012375 21.4177917,25.012375 Z" id="Shape" fill="#9DC85C"></path>
                        <path d="M49.2507917,38.25475 C49.0460417,38.25475 48.8525417,38.294375 48.6670417,38.352 C48.0795417,37.52025 47.1049167,36.9735 45.9981667,36.9735 C44.8914167,36.9735 43.9167917,37.520375 43.3292917,38.352 C43.1437917,38.294375 42.9502917,38.25475 42.7455417,38.25475 C41.6676667,38.25475 40.7939167,39.11525 40.7939167,40.176625 L51.2024167,40.176625 C51.2024167,39.115125 50.3286667,38.25475 49.2507917,38.25475 Z" id="Shape" fill="#69BE5D"></path>
                        <path d="M45.9611667,38.25475 C45.7564167,38.25475 45.5629167,38.294375 45.3774167,38.352 C44.7899167,37.52025 43.8152917,36.9735 42.7085417,36.9735 C41.6017917,36.9735 40.6271667,37.520375 40.0396667,38.352 C39.8541667,38.294375 39.6606667,38.25475 39.4559167,38.25475 C38.3780417,38.25475 37.5042917,39.11525 37.5042917,40.176625 L47.9127917,40.176625 C47.9127917,39.115125 47.0390417,38.25475 45.9611667,38.25475 Z" id="Shape" fill="#69BE5D"></path>
                        <path d="M47.2939167,38.254625 C47.0891667,38.254625 46.8956667,38.29425 46.7101667,38.351875 C46.1226667,37.520125 45.1480417,36.973375 44.0411667,36.973375 C43.8110417,36.973375 43.5911667,37.01025 43.3747917,37.05525 C44.1992917,37.226375 44.9120417,37.693125 45.3772917,38.352 C45.5627917,38.294375 45.7562917,38.25475 45.9610417,38.25475 C47.0389167,38.25475 47.9126667,39.11525 47.9126667,40.176625 L49.2454167,40.176625 C49.2455417,39.115125 48.3717917,38.254625 47.2939167,38.254625 Z" id="Shape" fill="#9DC85C"></path>
                    </g>
                </g>
            </g>
        </g>
    </g>
</svg>