<?xml version="1.0" encoding="UTF-8"?>
<svg width="72px" height="72px" viewBox="0 0 72 72" version="1.1" xmlns="http://www.w3.org/2000/svg" xmlns:xlink="http://www.w3.org/1999/xlink">
    <!-- Generator: Sketch 51.3 (57544) - http://www.bohemiancoding.com/sketch -->
    <title>Barbtn_6</title>
    <desc>Created with Sketch.</desc>
    <defs>
        <circle id="path-1" cx="32" cy="32" r="32"></circle>
        <circle id="path-3" cx="32" cy="32" r="32"></circle>
        <path d="M27.7639422,13.8587278 C27.7639422,21.5125344 21.5487508,27.7172802 13.8818832,27.7172802 C6.21519146,27.7172802 0,21.5125344 0,13.8587278 C0,6.20474576 6.21519146,0 13.8818832,0 C21.5487508,0 27.7639422,6.20474576 27.7639422,13.8587278" id="path-5"></path>
        <path d="M0.0734606308,13.6261823 C0.0734606308,21.1173871 6.12417936,27.1900053 13.588157,27.1900053 C21.0519631,27.1900053 27.1026818,21.1173871 27.1026818,13.6261823 C27.1026818,6.13514977 21.0519631,0.0621869737 13.588157,0.0621869737 C6.12417936,0.0621869737 0.0734606308,6.13514977 0.0734606308,13.6261823" id="path-7"></path>
    </defs>
    <g id="Barbtn_6" stroke="none" stroke-width="1" fill="none" fill-rule="evenodd">
        <path d="M36,72 C16.117749,72 0,55.882251 0,36 C0,16.117749 16.117749,0 36,0 C55.882251,0 72,16.117749 72,36 C72,55.882251 55.882251,72 36,72 Z" id="Oval-Copy-10" fill="#055077" fill-rule="nonzero"></path>
        <g id="waterfall-copy-2" transform="translate(4.000000, 4.000000)">
            <circle id="Oval-Copy-4" stroke-opacity="0" stroke="#FFEFC6" stroke-width="8" fill="#8DD9FF" cx="32" cy="32" r="32"></circle>
            <mask id="mask-2" fill="white">
                <use xlink:href="#path-1"></use>
            </mask>
            <use id="Oval" fill="#64B400" xlink:href="#path-1"></use>
            <path d="M-4.53333333,37.3333333 C0.441015202,52.8041126 14.9131967,64 32,64 C49.0868033,64 63.5589848,52.8041126 68.5333333,37.3333333 L-4.53333333,37.3333333 Z" id="Shape" fill="#64B400" mask="url(#mask-2)"></path>
        </g>
        <g id="waterfall" transform="translate(4.000000, 4.000000)">
            <mask id="mask-4" fill="white">
                <use xlink:href="#path-3"></use>
            </mask>
            <use id="Oval" fill="#53BCFB" xlink:href="#path-3"></use>
            <g id="Group-21-Copy" mask="url(#mask-4)">
                <g transform="translate(5.423729, 2.169492)">
                    <g id="6" stroke="none" stroke-width="1" fill="none" fill-rule="evenodd" transform="translate(27.661017, 20.881356)">
                        <g id="Group-25">
                            <g id="Group-26" transform="translate(0.703076, 2.105683)">
                                <mask id="mask-6" fill="white">
                                    <use xlink:href="#path-5"></use>
                                </mask>
                                <use id="Fill-1" fill="#D1E1E7" xlink:href="#path-5"></use>
                                <path d="M18.0052682,29.6867956 L9.59064054,29.6867956 C8.27389844,29.6867956 7.20652856,28.6307956 7.20652856,27.3282552 L7.20652856,23.7664925 C7.20652856,22.4637767 8.27389844,21.4077767 9.59064054,21.4077767 L18.0052682,21.4077767 C19.3220102,21.4077767 20.3892028,22.4637767 20.3892028,23.7664925 L20.3892028,27.3282552 C20.3892028,28.6307956 19.3220102,29.6867956 18.0052682,29.6867956" id="Fill-6" fill="#29A98C" mask="url(#mask-6)"></path>
                                <rect id="Rectangle-Copy" fill="#FED8BC" fill-rule="nonzero" mask="url(#mask-6)" x="7.20652856" y="25.2681954" width="2.98807282" height="4.2113659"></rect>
                                <rect id="Rectangle-Copy-3" fill="#FED8BC" fill-rule="nonzero" mask="url(#mask-6)" x="17.4011299" y="25.2681954" width="2.98807282" height="4.2113659"></rect>
                            </g>
                            <path d="M8.80052954,13.8359571 C9.47121489,14.4356829 9.89315756,15.3064053 9.89315756,16.27535 C9.89315756,18.0848335 8.42249843,19.5512662 6.60821092,19.5512662 C4.79392341,19.5512662 3.32344005,18.0848335 3.32344005,16.27535 C3.32344005,15.1917302 3.85110394,14.230958 4.66424731,13.6346974 C1.96600501,12.658144 0.0383176397,10.0790091 0.0383176397,7.05087936 C0.0383176397,3.18379262 3.18212178,0.0489571286 7.05976146,0.0489571286 C10.9377527,0.0489571286 14.081381,3.18379262 14.081381,7.05087936 C14.081381,10.3187818 11.8364576,13.06377 8.80052954,13.8359571 Z M18.1056121,16.0296869 C18.1056121,14.2205543 19.5762712,12.7541216 21.3903829,12.7541216 C23.2048462,12.7541216 24.6755053,14.2205543 24.6755053,16.0296869 C24.6755053,17.838995 23.2048462,19.3056032 21.3903829,19.3056032 C19.5762712,19.3056032 18.1056121,17.838995 18.1056121,16.0296869 Z" id="Combined-Shape" fill="#FBC53A"></path>
                            <g id="Group-23" transform="translate(5.273070, 8.949153)">
                                <path d="M8.2343553,12.5327968 L10.2426918,12.5327968 C10.8780967,12.5327968 11.3932756,13.0471099 11.3932756,13.6814469 L11.3932756,17.562747 C11.3932756,18.1970839 10.8780967,18.711397 10.2426918,18.711397 L8.2343553,18.711397 C7.59895041,18.711397 7.0837715,18.1970839 7.0837715,17.562747 L7.0837715,13.6814469 C7.0837715,13.0471099 7.59895041,12.5327968 8.2343553,12.5327968" id="Fill-9" fill="#FFC4A3"></path>
                                <path d="M3.56935844,10.0047139 C3.56935844,10.9601675 2.79351412,11.7347079 1.83645198,11.7347079 C0.879389831,11.7347079 0.103545512,10.9601675 0.103545512,10.0047139 C0.103545512,9.04926022 0.879389831,8.27471984 1.83645198,8.27471984 C2.79351412,8.27471984 3.56935844,9.04926022 3.56935844,10.0047139 Z M17.9617276,10.0047139 C17.9617276,10.9601675 17.1858832,11.7347079 16.2288211,11.7347079 C15.2717589,11.7347079 14.4959146,10.9601675 14.4959146,10.0047139 C14.4959146,9.04926022 15.2717589,8.27471984 16.2288211,8.27471984 C17.1858832,8.27471984 17.9617276,9.04926022 17.9617276,10.0047139 Z" id="Combined-Shape" fill="#FFC4A3"></path>
                                <path d="M1.99128688,11.6304064 C1.99128688,11.8120215 1.8438167,11.9594193 1.66172003,11.9594193 C1.47962335,11.9594193 1.33215317,11.8120215 1.33215317,11.6304064 C1.33215317,11.4486158 1.47962335,11.3012179 1.66172003,11.3012179 C1.8438167,11.3012179 1.99128688,11.4486158 1.99128688,11.6304064 Z M17.2085223,11.6304064 C17.2085223,11.8120215 17.0608763,11.9594193 16.8787797,11.9594193 C16.6968588,11.9594193 16.5492128,11.8120215 16.5492128,11.6304064 C16.5492128,11.4486158 16.6968588,11.3012179 16.8787797,11.3012179 C17.0608763,11.3012179 17.2085223,11.4486158 17.2085223,11.6304064 Z" id="Combined-Shape" fill="#29A98C"></path>
                                <path d="M17.1450169,8.04623569 C17.1450169,12.4055258 13.6050295,15.9393882 9.23857627,15.9393882 C4.87194727,15.9393882 1.33213559,12.4055258 1.33213559,8.04623569 C1.33213559,3.68694556 4.87194727,0.153258624 9.23857627,0.153258624 C13.6050295,0.153258624 17.1450169,3.68694556 17.1450169,8.04623569" id="Fill-25" fill="#FED8BC"></path>
                                <path d="M10.3846077,9.45514816 C10.3846077,10.0886078 9.8703076,10.6020435 9.23578154,10.6020435 C8.60125549,10.6020435 8.08695543,10.0886078 8.08695543,9.45514816 C8.08695543,8.82186401 8.60125549,8.30825284 9.23578154,8.30825284 C9.8703076,8.30825284 10.3846077,8.82186401 10.3846077,9.45514816" id="Fill-37" fill="#FFC4A3"></path>
                                <path d="M7.43601255,11.6526915 L11.0355857,11.6526915 C11.0355857,11.6526915 10.5747194,13.5211342 9.23571124,13.5211342 C7.89670308,13.5211342 7.43601255,11.6526915 7.43601255,11.6526915" id="Fill-34" fill="#CA583C"></path>
                                <path d="M14.4254137,8.68780219 C14.4254137,9.31389192 13.9167382,9.82171246 13.2894187,9.82171246 C12.662275,9.82171246 12.1535995,9.31389192 12.1535995,8.68780219 C12.1535995,8.06153699 12.662275,7.55371645 13.2894187,7.55371645 C13.9167382,7.55371645 14.4254137,8.06153699 14.4254137,8.68780219 Z M6.32337728,8.68780219 C6.32337728,9.31389192 5.81487759,9.82171246 5.18755807,9.82171246 C4.56023854,9.82171246 4.05173886,9.31389192 4.05173886,8.68780219 C4.05173886,8.06153699 4.56023854,7.55371645 5.18755807,7.55371645 C5.81487759,7.55371645 6.32337728,8.06153699 6.32337728,8.68780219 Z" id="Combined-Shape" fill="#010202"></path>
                            </g>
                        </g>
                        <path d="M19.3368563,7.16721108 C19.8992943,6.71738565 20.6133315,6.44830309 21.3903829,6.44830309 C23.2048462,6.44830309 24.6755053,7.91491127 24.6755053,9.72404387 C24.6755053,11.5331765 23.2048462,12.9997846 21.3903829,12.9997846 C19.7764339,12.9997846 18.4343279,11.8389625 18.1578099,10.308864 C17.3082115,11.2567656 16.072767,11.8534158 14.6974513,11.8534158 C12.1347395,11.8534158 10.0575016,9.78177468 10.0575016,7.22617747 C10.0575016,4.67093121 12.1347395,2.59929013 14.6974513,2.59929013 C17.2404213,2.59929013 19.3051951,4.63913627 19.3368563,7.16721108 Z" id="Combined-Shape" fill="#FBC53A"></path>
                    </g>
                    <g id="Group" stroke="none" stroke-width="1" fill="none" fill-rule="evenodd" transform="translate(0.000000, 29.016949)">
                        <g id="4">
                            <path d="M27.1027162,13.649455 C27.1027162,21.1404875 21.0519974,27.2132781 13.5881914,27.2132781 C6.12421369,27.2132781 0.0734949582,21.1404875 0.0734949582,13.649455 C0.0734949582,6.15842251 6.12421369,0.0856319795 13.5881914,0.0856319795 C21.0519974,0.0856319795 27.1027162,6.15842251 27.1027162,13.649455" id="Fill-1-Copy" fill="#D1E1E7"></path>
                            <g id="Group-49" transform="translate(0.000000, 0.023256)">
                                <g id="Group-9">
                                    <mask id="mask-8" fill="white">
                                        <use xlink:href="#path-7"></use>
                                    </mask>
                                    <g id="Clip-8"></g>
                                    <path d="M17.7776992,28.9467443 L9.68421881,28.9467443 C8.411894,28.9467443 7.38039047,27.910065 7.38039047,26.6315284 L7.38039047,23.1592214 C7.38039047,21.8805125 8.411894,20.8438333 9.68421881,20.8438333 L17.7776992,20.8438333 C19.0501954,20.8438333 20.0815276,21.8805125 20.0815276,23.1592214 L20.0815276,26.6315284 C20.0815276,27.910065 19.0501954,28.9467443 17.7776992,28.9467443" id="Fill-7" fill="#7B53A2" mask="url(#mask-8)"></path>
                                    <rect id="Rectangle-Copy" fill="#FBCBA9" fill-rule="nonzero" mask="url(#mask-8)" x="17.1636988" y="23.9445688" width="2.91782879" height="4.13431404"></rect>
                                    <path d="M7.38039047,26.1752319 C7.38039047,25.335525 7.38039047,24.6416398 7.38039047,24.0935764 L10.2753342,24.0935764 C10.2753342,24.3603303 10.2753342,24.9503262 10.2753342,25.863564 C10.2753342,26.7733321 10.4829796,27.8794253 11.4107705,27.8794253 C12.8124901,27.8794253 12.5877149,28.1789781 11.8445542,28.3622636 C12.2433194,28.8762697 12.9973024,29.4893868 12.5780288,29.7553138 C12.1587552,30.0212408 11.5443879,30.8946522 9.85586316,29.6208005 C8.16733846,28.3469487 7.38039047,27.4004845 7.38039047,26.1752319 Z" id="Rectangle-Copy-2" fill="#FBCBA9" fill-rule="nonzero" mask="url(#mask-8)"></path>
                                </g>
                                <path d="M12.7790775,18.8415333 L14.7276722,18.8415333 C15.3479682,18.8415333 15.8508646,19.3464364 15.8508646,19.9691675 L15.8508646,23.7611948 C15.8508646,24.3839258 15.3479682,24.8886566 14.7276722,24.8886566 L12.7790775,24.8886566 C12.1586097,24.8886566 11.6555417,24.3839258 11.6555417,23.7611948 L11.6555417,19.9691675 C11.6555417,19.3464364 12.1586097,18.8415333 12.7790775,18.8415333" id="Fill-10" fill="#F7AC82"></path>
                                <path d="M9.31197597,5.4849083 C9.31197597,5.4849083 5.75205321,6.2964397 4.1831195,14.4720457 L5.14857756,14.4720457 C5.14857756,14.4720457 5.19732246,21.5573987 5.74621755,21.9813381 C5.74621755,21.9813381 2.97633984,23.9192978 3.27807767,24.7671767 C3.57981549,25.6148834 5.4388157,26.46259 5.74621755,26.160096 C6.05361939,25.8572575 6.28344132,22.2841766 6.28344132,22.2841766 C6.28344132,22.2841766 5.93295859,21.7389639 8.64825574,20.6490554 C11.3633812,19.5589746 18.7248917,20.830793 18.7248917,20.830793 L20.8971294,21.9813381 C20.8971294,21.9813381 20.5953915,26.1642303 21.1988672,26.2226275 C21.8021712,26.2810247 23.4915941,25.069843 23.3709333,24.3432373 C23.2502725,23.6164593 21.5004334,21.8602372 21.5004334,21.8602372 C21.5004334,21.8602372 21.9830766,14.4720457 21.560678,13.6241668 C21.560678,13.6241668 22.7676293,14.1087429 23.0691955,13.9270053 C23.0691955,13.9270053 23.1898563,0.906672295 9.07065437,4.96432926 L9.31197597,5.4849083 Z" id="Fill-13" fill="#EFBB37"></path>
                                <path d="M20.9948423,22.2629021 C20.9287621,22.2839182 20.8582193,22.2473984 20.8371079,22.1810772 L20.7799528,22.0010622 C20.7588415,21.9349132 20.7952285,21.8641131 20.8613087,21.8429247 L21.4139798,21.665666 C21.4800601,21.6444776 21.5506029,21.6811697 21.5717142,21.747491 L21.6288693,21.9275059 C21.6499807,21.9938272 21.6135936,22.0646273 21.547685,22.0858157 L20.9948423,22.2629021 Z M6.24161339,22.2538239 L5.68877065,22.0769097 C5.62286205,22.0557213 5.58647501,21.9847489 5.60758635,21.9184276 L5.66474147,21.738585 C5.68585282,21.6722637 5.75639562,21.6355716 5.82247586,21.65676 L6.37514696,21.8338465 C6.4412272,21.8550348 6.47761425,21.9260072 6.4565029,21.9921562 L6.39934778,22.1721712 C6.37823643,22.2384924 6.30769363,22.2750122 6.24161339,22.2538239 Z" id="Fill-46" fill="#7B53A2"></path>
                                <path d="M22.3671144,16.3916594 C22.3671144,17.3268757 21.61174,18.0848333 20.6800944,18.0848333 C19.7482772,18.0848333 18.9929028,17.3268757 18.9929028,16.3916594 C18.9929028,15.4564431 19.7482772,14.6984855 20.6800944,14.6984855 C21.61174,14.6984855 22.3671144,15.4564431 22.3671144,16.3916594 Z M8.35556318,16.3916594 C8.35556318,17.3268757 7.60036044,18.0848333 6.66854323,18.0848333 C5.73672602,18.0848333 4.98152328,17.3268757 4.98152328,16.3916594 C4.98152328,15.4564431 5.73672602,14.6984855 6.66854323,14.6984855 C7.60036044,14.6984855 8.35556318,15.4564431 8.35556318,16.3916594 Z" id="Fill-19" fill="#F7AC82"></path>
                                <path d="M21.430148,14.4504956 C21.430148,18.7171077 17.9840206,22.1758059 13.7329157,22.1758059 C9.48198241,22.1758059 6.03585497,18.7171077 6.03585497,14.4504956 C6.03585497,10.1838835 9.48198241,6.72518529 13.7329157,6.72518529 C17.9840206,6.72518529 21.430148,10.1838835 21.430148,14.4504956" id="Fill-22" fill="#FBCBA9"></path>
                                <path d="M18.7825102,15.0783256 C18.7825102,15.6912377 18.2875091,16.1880444 17.6768247,16.1880444 C17.0661403,16.1880444 16.5709676,15.6912377 16.5709676,15.0783256 C16.5709676,14.4652413 17.0661403,13.9686068 17.6768247,13.9686068 C18.2875091,13.9686068 18.7825102,14.4652413 18.7825102,15.0783256 Z M10.8950869,15.0783256 C10.8950869,15.6912377 10.3999142,16.1880444 9.78922978,16.1880444 C9.17854538,16.1880444 8.68337267,15.6912377 8.68337267,15.0783256 C8.68337267,14.4652413 9.17854538,13.9686068 9.78922978,13.9686068 C10.3999142,13.9686068 10.8950869,14.4652413 10.8950869,15.0783256 Z" id="Combined-Shape" fill="#010202"></path>
                                <path d="M13.7302725,16.7572189 C13.1666166,16.7572189 12.7097189,16.2986546 12.7097189,15.7329426 L14.7509976,15.7329426 C14.7509976,16.2986546 14.2941,16.7572189 13.7302725,16.7572189" id="Fill-31" fill="#F7AC82"></path>
                                <path d="M11.9782021,17.9802179 L15.4825145,17.9802179 C15.4825145,17.9802179 15.034027,19.8089628 13.7302725,19.8089628 C12.4266896,19.8089628 11.9782021,17.9802179 11.9782021,17.9802179" id="Fill-34" fill="#CA583C"></path>
                                <path d="M6.00712293,14.6735763 C6.00712293,14.6735763 8.53705213,15.4969938 11.0669813,7.67349357 L11.0669813,5.09712687 L8.53705213,6.9873697 L4.9814203,13.5755714 L6.00712293,14.6735763 Z" id="Fill-37" fill="#EFBB37"></path>
                                <path d="M9.15441322,5.05779921 C9.15441322,5.05779921 10.7612787,13.1533029 23.5712336,14.1389923 C23.5712336,14.1389923 22.6339241,0.635633557 9.15441322,5.05779921" id="Fill-40" fill="#EFBB37"></path>
                            </g>
                            <g id="Group-54" transform="translate(3.089466, 22.072930)" fill="#EFBB37">
                                <path d="M2.58459558,0.0741075791 C2.58459558,0.0741075791 -1.26453551,2.22395088 0.679253379,3.46596772 C2.62338554,4.70798456 2.75194164,4.39136501 2.89199743,3.2313454 C3.03222484,2.07132579 3.30186655,0.321821895 3.07667882,0.299083168 C2.85183437,0.276172178 2.58459558,0.0741075791 2.58459558,0.0741075791" id="Fill-50"></path>
                                <path d="M18.4688951,0.0381045944 C18.4688951,0.0381045944 22.1053679,2.53350764 20.0561939,3.59137525 C18.0068483,4.64907059 17.7782278,4.3601854 17.7444154,3.19206942 C17.7109461,2.02395344 17.7320575,0.218980834 17.958275,0.216913677 C18.1846642,0.21484652 18.4688951,0.0381045944 18.4688951,0.0381045944" id="Fill-52"></path>
                            </g>
                        </g>
                    </g>
                    <path d="M26.0213881,33.2231333 C24.9692515,33.2231333 21.9730892,34.2285954 17.1101069,36.2278452 L16.6070548,36.4346579 L16.7446229,35.9084375 C17.4190002,33.3288349 17.3014555,31.9326675 16.5337477,31.6666854 C15.2275916,31.2141511 10.6942144,28.7828795 9.71977271,28.0205822 C5.77142256,24.9318222 3.52542373,20.8384401 3.52542373,16.4759734 C3.52542373,7.20618432 13.6118022,-0.271186441 26.0213881,-0.271186441 C38.430974,-0.271186441 48.5173525,7.20618432 48.5173525,16.4759734 C48.5173525,25.7457626 38.430974,33.2231333 26.0213881,33.2231333 Z" id="Oval-16" stroke-opacity="0.398635643" stroke="#075D89" stroke-width="0.542372881" fill="#FFFFFF" fill-rule="nonzero" stroke-linecap="round" stroke-linejoin="round"></path>
                </g>
            </g>
        </g>
    </g>
</svg>