<?xml version="1.0" encoding="UTF-8"?>
<svg width="72px" height="72px" viewBox="0 0 72 72" version="1.1" xmlns="http://www.w3.org/2000/svg" xmlns:xlink="http://www.w3.org/1999/xlink">
    <!-- Generator: Sketch 51.3 (57544) - http://www.bohemiancoding.com/sketch -->
    <title>Barbtn_8</title>
    <desc>Created with Sketch.</desc>
    <defs>
        <circle id="path-1" cx="32" cy="32" r="32"></circle>
        <circle id="path-3" cx="32" cy="32" r="32"></circle>
        <path d="M18.5908979,17.023575 C26.9914337,18.7374146 36.9352116,5.84632876 36.9352116,1.79139449 C36.9352116,-2.26353978 21.5096826,2.98251895 18.5908979,3.50166606 C17.2242549,3.74474283 12.8729246,6.76440808 8.84142678,7.79905046 C4.26272122,8.97412808 0.0393508091,8.27682265 0.0393508091,10.4331422 C0.0393508091,12.8002976 2.52360599,12.1315443 7.07459863,13.1156996 C10.3194509,13.8174012 15.0943561,16.3102263 18.5908979,17.023575 Z" id="path-5"></path>
        <path d="M18.1435335,31.2545219 C28.0844488,34.1610277 44.8667455,33.111015 44.8667455,27.8289296 C44.8667455,22.5468441 31.1147474,18.5717304 22.1324249,17.515908 C18.2296429,17.0571575 13.2972838,15.1488902 9.42493406,14.9173241 C7.25874184,14.787786 4.69302313,1.4396717 0.859596211,0.020457225 C-1.07449526,-0.695583717 0.859596211,17.6123401 0.859596211,19.3155337 C0.859596211,24.5976192 8.20261815,28.348016 18.1435335,31.2545219 Z" id="path-7"></path>
        <path d="M12.9006868,21.0746237 C11.971557,20.9292129 7.32431158,18.3741542 4.66195642,17.5585564 C2.94840361,17.033619 2.5890065,17.8067118 2.42163555,18.2819911 C2.06244638,19.301972 6.01520346,23.2438753 9.08671428,23.9236603 C10.1633241,24.1619349 12.243976,23.5264745 14.720005,24.3799089 C17.3334025,25.2806912 20.5005371,29.1115114 23.3571803,30.7578829 C27.7757595,33.3044462 34.5659845,38.1347088 39.7034335,39.3197921 C40.0448704,39.3985532 45.1881735,41.3424693 50.2014834,41.5648706 C55.8428237,41.8151327 58.5919164,40.1373293 61.5847207,38.3526123 C64.4269975,36.6576603 41.542851,25.4631894 41.5761359,25.4498715 C43.4140855,24.7144729 31.0397672,27.6171603 28.8168267,24.3799089 C27.2126188,22.0437129 28.468642,19.3258039 28.6945175,17.3314345 C29.4266277,10.8672634 27.4530983,6.49580223 18.7628613,1.21452777 C10.0726243,-4.06674669 -4.41475851,10.3322364 1.41664421,13.7079371 C7.24804693,17.0836378 9.5760015,18.9450239 12.9006868,21.0746237 Z" id="path-9"></path>
        <path d="M22.6312612,23.8963456 C25.2303064,25.2801653 29.7957932,26.2994429 32.6340274,24.9149863 C41.1568087,20.7576758 46.2543883,11.5841423 43.4472797,10.2718316 C39.7053552,8.52249869 33.065133,1.05044186 22.6312612,0.187327372 C12.1973895,-0.675787122 1.7499804,5.80112266 2.57931886,14.0882299 C4.50784138,19.205197 8.79252718,16.5281349 22.6312612,23.8963456 Z" id="path-11"></path>
    </defs>
    <g id="Barbtn_8" stroke="none" stroke-width="1" fill="none" fill-rule="evenodd">
        <path d="M36,72 C16.117749,72 0,55.882251 0,36 C0,16.117749 16.117749,0 36,0 C55.882251,0 72,16.117749 72,36 C72,55.882251 55.882251,72 36,72 Z" id="Oval-Copy-10" fill="#055077" fill-rule="nonzero"></path>
        <g id="waterfall-copy-2" transform="translate(4.000000, 4.000000)">
            <circle id="Oval-Copy-4" stroke-opacity="0" stroke="#FFEFC6" stroke-width="8" fill="#8DD9FF" cx="32" cy="32" r="32"></circle>
            <mask id="mask-2" fill="white">
                <use xlink:href="#path-1"></use>
            </mask>
            <use id="Oval" fill="#64B400" xlink:href="#path-1"></use>
            <path d="M-4.53333333,37.3333333 C0.441015202,52.8041126 14.9131967,64 32,64 C49.0868033,64 63.5589848,52.8041126 68.5333333,37.3333333 L-4.53333333,37.3333333 Z" id="Shape" fill="#64B400" mask="url(#mask-2)"></path>
        </g>
        <g id="waterfall" transform="translate(4.000000, 4.000000)">
            <g id="Group-4">
                <mask id="mask-4" fill="white">
                    <use xlink:href="#path-3"></use>
                </mask>
                <use id="Oval" fill="#3C9BD4" xlink:href="#path-3"></use>
                <circle id="Oval-Copy" fill="#FFEB97" mask="url(#mask-4)" cx="32" cy="32" r="32"></circle>
                <g id="Group-7-Copy" mask="url(#mask-4)">
                    <g transform="translate(52.999932, 47.277978) rotate(11.000000) translate(-52.999932, -47.277978) translate(2.999932, 5.777978)">
                        <g id="Group-8" stroke-width="1" fill="none" fill-rule="evenodd" transform="translate(62.638329, 28.639839)">
                            <mask id="mask-6" fill="white">
                                <use xlink:href="#path-5"></use>
                            </mask>
                            <use id="Oval-6" fill="#8ECC47" fill-rule="nonzero" xlink:href="#path-5"></use>
                        </g>
                        <g id="Group-9" stroke-width="1" fill="none" fill-rule="evenodd" transform="translate(41.533546, 37.670464)">
                            <mask id="mask-8" fill="white">
                                <use xlink:href="#path-7"></use>
                            </mask>
                            <use id="Oval-7" fill="#8ECC47" fill-rule="nonzero" xlink:href="#path-7"></use>
                            <path d="M37.9121762,23.5268674 C36.8144087,23.1104829 35.7550948,21.9338005 35.9749508,21.3896378 C36.1948068,20.8454751 37.4141688,20.8249893 38.6984721,21.3438815 C39.9827754,21.8627737 40.8456804,22.72455 40.6258244,23.2687127 C40.4059684,23.8128754 39.0099436,23.9432518 37.9121762,23.5268674 Z M28.6251992,25.3279353 C27.7421829,26.1017258 26.2059162,26.4846255 25.8286652,26.0350353 C25.4514142,25.585445 25.4291448,23.8270317 26.4902433,22.9366643 C27.5513418,22.046297 29.2939918,22.3611396 29.6712428,22.8107299 C30.0484938,23.2603201 29.5082154,24.5541449 28.6251992,25.3279353 Z M35.097101,30.0978514 C34.3460036,31.0002494 32.2467126,30.9213098 31.8037747,30.5362698 C31.3608369,30.1512298 31.7384526,28.9916308 32.6472031,27.946233 C33.5559536,26.9008352 34.6517135,26.3655094 35.0946513,26.7505493 C35.5375891,27.1355893 35.8481983,29.1954534 35.097101,30.0978514 Z M40.2295014,29.8981142 C38.9363378,30.3945132 37.2436705,28.2746348 37.0524654,27.7765286 C36.8612603,27.2784224 37.1992294,25.4051914 38.492393,24.9087924 C39.7855566,24.4123934 40.9246366,25.0970453 41.0928865,25.8628287 C41.2611364,26.6286122 41.522665,29.4017152 40.2295014,29.8981142 Z M32.8203034,21.536036 C31.794228,21.7532646 30.6073462,20.6914045 30.4931772,20.0762786 C30.3790082,19.4611526 30.9980941,19.1926916 32.3851936,19.3140471 C33.7722932,19.4354026 34.969491,19.9156768 34.9078744,20.6199575 C34.8462578,21.3242382 33.8463788,21.3188075 32.8203034,21.536036 Z M24.1941053,32.3039978 C23.1680299,32.5212264 21.9811481,31.4593663 21.8669791,30.8442404 C21.7528101,30.2291144 22.371896,29.9606534 23.7589955,30.0820089 C25.1460951,30.2033644 26.3432929,30.6836386 26.2816763,31.3879193 C26.2200597,32.0922 25.2201807,32.0867693 24.1941053,32.3039978 Z M34.3611912,24.7732833 C33.9749457,24.9778889 33.0898067,25.2521148 32.6829649,25.1617632 C32.2761231,25.0714115 32.4178864,24.656364 33.2045419,24.019343 C33.9911974,23.3823219 34.830628,23.4112655 35.0992441,23.7429788 C35.3678602,24.074692 34.7474367,24.5686777 34.3611912,24.7732833 Z M22.0559816,28.1697417 C21.6189453,28.1766948 20.7057848,28.0191872 20.3843049,27.753981 C20.062825,27.4887748 20.3775646,27.183324 21.3676813,26.9728682 C22.357798,26.7624124 23.092596,27.1692948 23.18134,27.5868027 C23.270084,28.0043105 22.4930179,28.1627886 22.0559816,28.1697417 Z M36.4598363,33.2297487 C36.025921,33.2823465 35.1012988,33.221153 34.7538584,32.9910034 C34.406418,32.7608538 34.6875051,32.424177 35.6501992,32.1113788 C36.6128933,31.7985805 37.3861968,32.1264267 37.5180961,32.5323711 C37.6499955,32.9383155 36.8937516,33.177151 36.4598363,33.2297487 Z M31.0463945,32.8558291 C30.6124792,32.9084269 29.687857,32.8472334 29.3404166,32.6170838 C28.9929762,32.3869342 29.2740633,32.0502575 30.2367574,31.7374592 C31.1994515,31.4246609 31.972755,31.7525071 32.1046543,32.1584515 C32.2365537,32.5643959 31.4803098,32.8032314 31.0463945,32.8558291 Z M28.0856011,28.7655054 C28.3430631,28.4122882 29.018408,27.7777962 29.4236825,27.680656 C29.8289571,27.5835158 29.8834859,28.018703 29.4556963,28.9361008 C29.0279067,29.8534986 28.2607434,30.1954663 27.8738994,30.015078 C27.4870553,29.8346897 27.8281392,29.1187225 28.0856011,28.7655054 Z M43.7530619,27.5860218 C43.3787496,27.3603244 42.7692315,26.4740583 42.637139,26.0787923 C42.5050464,25.6835263 42.9601775,24.8053444 43.9113687,25.1515496 C44.8625598,25.4977549 45.3079197,27.3034793 45.1619335,27.7045732 C45.0159473,28.105667 44.1273743,27.8117192 43.7530619,27.5860218 Z M42.6364593,31.054135 C42.2502138,31.2587405 41.5414745,31.445696 41.1346327,31.3553443 C40.7277909,31.2649927 40.7177239,31.017417 41.5043794,30.3803959 C42.2910349,29.7433748 43.1304654,29.7723185 43.3990815,30.1040317 C43.6676976,30.4357449 43.0227048,30.8495294 42.6364593,31.054135 Z" id="Combined-Shape" fill="#905135" fill-rule="nonzero" opacity="0.300000012" mask="url(#mask-8)"></path>
                        </g>
                        <path d="M40.9165297,82.9166141 C45.7113341,82.9166141 38.5345242,68.7288817 37.4796316,63.5083913 C36.424739,58.2879008 33.7451073,56.0390061 32.5441063,51.8177578 C30.6067796,45.0084909 44.0327429,38.1853565 37.0324352,37.0381345 C35.2057198,36.7387694 25.9869396,47.5236252 24.7274526,49.0946814 C20.8581144,53.9212083 18.9337256,56.3934086 20.920461,64.4813238 C22.9071964,72.5692389 36.1217253,82.9166141 40.9165297,82.9166141 Z" id="Oval-8" fill="#8ECC47" fill-rule="nonzero"></path>
                        <g id="head" stroke-width="1" fill="none" fill-rule="evenodd" transform="translate(35.660120, 28.247959) rotate(-13.000000) translate(-35.660120, -28.247959) translate(4.042472, 6.922784)">
                            <g>
                                <mask id="mask-10" fill="white">
                                    <use xlink:href="#path-9"></use>
                                </mask>
                                <use id="Oval-9" fill="#8ECC47" fill-rule="nonzero" xlink:href="#path-9"></use>
                                <path d="M15.6549521,1.91533252 C14.5962593,1.91533252 13.7380192,1.48657073 13.7380192,0.957666259 C13.7380192,0.428761789 14.5962593,0 15.6549521,0 C16.7136449,0 17.571885,0.428761789 17.571885,0.957666259 C17.571885,1.48657073 16.7136449,1.91533252 15.6549521,1.91533252 Z M10.0868444,2.41717437 C9.21117655,2.52469287 8.45776336,2.25721561 8.404049,1.8197472 C8.35033463,1.38227878 9.01665962,0.940479601 9.89232751,0.832961103 C10.7679954,0.725442605 11.5214086,0.99291986 11.575123,1.43038827 C11.6288373,1.86785669 10.9625123,2.30965587 10.0868444,2.41717437 Z M13.0866407,3.63808707 C12.4736732,3.71335002 11.9419295,3.49065212 11.898958,3.14067738 C11.8559866,2.79070265 12.3180596,2.4459794 12.9310272,2.37071645 C13.5439947,2.29545351 14.0757383,2.51815141 14.1187098,2.86812614 C14.1616813,3.21810087 13.6996082,3.56282412 13.0866407,3.63808707 Z" id="Combined-Shape" fill="#976544" fill-rule="nonzero" mask="url(#mask-10)"></path>
                                <path d="M4.27854302,12.2396568 C4.53990096,11.8076897 4.92387516,11.5917061 5.43046564,11.5917061" id="Path-10" stroke="#251D1E" stroke-width="0.784313725" stroke-linecap="round" stroke-linejoin="round" fill-rule="nonzero" mask="url(#mask-10)"></path>
                            </g>
                            <g id="mouth" transform="translate(3.833866, 16.599548)" fill-rule="nonzero">
                                <path d="M2.80907707,0.292686597 C0.455216429,0.502252895 -0.416392113,1.00041821 0.194251442,1.78718255 C1.11021677,2.96732905 3.06003028,4.2218851 4.62568766,4.41960453 C5.66945925,4.55141749 7.14494922,4.56956246 9.05215759,4.47403943 L2.80907707,0.292686597 Z" id="Path-9" fill="#61160F"></path>
                                <path d="M3.55388152,1.6265758 C2.9251607,1.55024686 0.718491498,2.3835818 1.05573476,2.67097201 C2.06370441,3.52993837 3.4525387,4.27145312 4.62568766,4.41960453 C5.2576236,4.49940872 6.033492,4.53089665 6.95329289,4.51406833 C7.55273149,4.50310123 4.90486446,1.79058991 3.55388152,1.6265758 Z" id="Path-9-Copy" fill="#F7B7B2"></path>
                            </g>
                            <g id="eyes" transform="translate(12.140575, 5.426775)" fill-rule="nonzero">
                                <ellipse id="Oval-10" fill="#FFFFFF" cx="5.91054313" cy="6.70366381" rx="5.59105431" ry="6.70366381"></ellipse>
                                <ellipse id="Oval-10-Copy" fill="#34230F" transform="translate(5.591054, 7.661330) rotate(-53.000000) translate(-5.591054, -7.661330) " cx="5.59105431" cy="7.66133007" rx="4.31309904" ry="3.51144295"></ellipse>
                                <ellipse id="Oval-10-Copy-2" fill="#221B22" opacity="0.800000012" transform="translate(4.794862, 8.459375) rotate(-53.000000) translate(-4.794862, -8.459375) " cx="4.79486152" cy="8.459375" rx="3.19488818" ry="2.39416565"></ellipse>
                                <ellipse id="Oval-11" fill="#FFFFFF" cx="8.78594249" cy="6.86327485" rx="1.43769968" ry="1.43649939"></ellipse>
                            </g>
                        </g>
                        <g id="back" stroke-width="1" fill="none" fill-rule="evenodd" transform="translate(30.811378, 17.240250)">
                            <path d="M23.2151058,27.0665654 C28.0804599,27.0665654 32.6157384,25.6271157 36.0938452,22.789375 C42.005237,17.9663498 45.870361,11.4046112 43.4472797,10.2718316 C39.7053552,8.52249869 33.065133,1.05044186 22.6312612,0.187327372 C12.1973895,-0.675787122 2.69481872,6.49081132 2.69481872,13.2057137 C2.69481872,14.4929434 7.52773274,16.8855576 6.68648457,18.1968561 C5.31577366,20.3334564 -0.896892977,22.1206159 0.341948891,22.5512225 C4.33152301,23.9379507 10.0040856,25.7356237 11.4496339,26.0990311 C15.0956164,27.0156224 20.7777791,27.0665654 23.2151058,27.0665654 Z" id="Oval-5" fill="#FCC05D" fill-rule="nonzero"></path>
                            <path d="M2.72036014,14.6936369 C2.84463949,16.4477806 5.29330609,17.8964958 10.0663599,19.0397827 C17.2259407,20.754713 19.6722816,22.5110352 21.6345872,23.477862 C23.5968927,24.4446888 29.1611191,27.1321101 33.2028144,24.6749583 C37.2445097,22.2178065 40.716263,18.6905193 41.8047252,17.235678 C42.8931875,15.7808366 44.5792895,13.0482392 43.9276443,10.8978763" id="Path-11" stroke="#A55C22" stroke-width="1.60964326" stroke-linecap="round" stroke-linejoin="round" fill-rule="nonzero"></path>
                            <mask id="mask-12" fill="white">
                                <use xlink:href="#path-11"></use>
                            </mask>
                            <use id="Oval-5-Copy" fill="#682D1B" fill-rule="nonzero" xlink:href="#path-11"></use>
                            <polyline id="Path-3" stroke="#581509" stroke-width="0.784313725" fill-rule="nonzero" mask="url(#mask-12)" points="17.357349 21.8254591 17.6680589 16.0973606 20.1511182 5.09075222"></polyline>
                            <polyline id="Path-3-Copy" stroke="#581509" stroke-width="0.784313725" fill-rule="nonzero" mask="url(#mask-12)" points="8.70244309 19.2372206 11.4229685 12.8384568 12.9536494 5.96682205 10.7611481 -0.268709488"></polyline>
                            <path d="M1.1497177,9.17333211 L11.1400858,12.8371448 L17.7311539,16.1714469 L27.0441545,19.869181 L32.3209829,15.5795033 C34.3706931,14.1950215 36.0807987,13.5027806 37.4512995,13.5027806 C38.3570091,11.2618357 37.6945397,8.50526348 40.6638611,5.62492324" id="Path-4" stroke="#581509" stroke-width="0.784313725" fill-rule="nonzero" mask="url(#mask-12)"></path>
                            <path d="M29.9018998,0.621720627 C27.6927951,2.88599053 26.4852551,4.530254 26.2792797,5.55451103 C23.1748006,5.55451103 19.205443,4.35990894 12.8183125,6.01306505 C8.56022543,7.11516912 5.05325844,8.08529993 2.29741149,8.92345746" id="Path-5" stroke="#581509" stroke-width="0.784313725" fill-rule="nonzero" mask="url(#mask-12)"></path>
                            <path d="M26.3279714,5.62492324 C29.8604136,9.826039 31.8888712,13.1461275 32.4133443,15.5851888 C33.200054,19.2437807 36.4940596,18.5501549 34.6588404,24.4206084" id="Path-6" stroke="#581509" stroke-width="0.784313725" fill-rule="nonzero" mask="url(#mask-12)"></path>
                            <path d="M27.0345472,20.0119735 C27.621468,20.6133199 27.9149284,21.6287572 27.9149284,23.0582853 C27.9149284,24.4878135 27.2412504,25.6298615 25.8938946,26.4844295" id="Path-7" stroke="#581509" stroke-width="0.784313725" fill-rule="nonzero" mask="url(#mask-12)"></path>
                        </g>
                    </g>
                </g>
            </g>
        </g>
    </g>
</svg>