<?xml version="1.0" encoding="UTF-8"?>
<svg width="120px" height="80px" viewBox="0 0 120 80" version="1.1" xmlns="http://www.w3.org/2000/svg" xmlns:xlink="http://www.w3.org/1999/xlink">
    <!-- Generator: Sketch 51.3 (57544) - http://www.bohemiancoding.com/sketch -->
    <title>Logo</title>
    <desc>Created with Sketch.</desc>
    <defs>
        <path d="M11.8981747,10.9659197 C17.2745175,12.069908 23.6385354,3.76597582 23.6385354,1.15394611 C23.6385354,-1.4580836 13.7661968,1.9212218 11.8981747,2.25563602 C11.0235232,2.41221654 8.23867173,4.35736653 5.65851314,5.0238426 C2.72814158,5.78078154 0.0251845178,5.33160472 0.0251845178,6.72062126 C0.0251845178,8.24544995 1.61510783,7.81466531 4.52774312,8.44861959 C6.60444858,8.90062822 9.66038792,10.5064084 11.8981747,10.9659197 Z" id="path-1"></path>
        <path d="M11.6118614,20.1329379 C17.9740472,22.005195 28.7147171,21.328818 28.7147171,17.9263056 C28.7147171,14.5237932 19.9134383,11.9631808 14.1647519,11.2830613 C11.6669715,10.9875523 8.51026162,9.75832129 6.0319578,9.60915544 C4.64559478,9.52571207 3.0035348,0.927380077 0.550141575,0.0131777425 C-0.687676969,-0.448067765 0.550141575,11.3451791 0.550141575,12.4423097 C0.550141575,15.8448221 5.24967561,18.2606807 11.6118614,20.1329379 Z" id="path-3"></path>
        <path d="M8.25643958,13.5754465 C7.66179651,13.4817786 4.68755941,11.8359099 2.98365211,11.3105338 C1.88697831,10.9723897 1.65696416,11.4703857 1.54984675,11.776542 C1.31996568,12.4335738 3.84973022,14.9727934 5.81549714,15.4106842 C6.50452744,15.5641714 7.83614465,15.1548327 9.42080319,15.7045816 C11.0933776,16.2848303 13.1203438,18.7524945 14.9485954,19.8130225 C17.7764861,21.4534188 22.1222301,24.5648846 25.4101974,25.3282688 C25.628717,25.3790036 28.9204311,26.6311981 32.1289494,26.7744604 C35.7394072,26.9356694 37.4988265,25.8548942 39.4142213,24.7052495 C41.2332784,23.6134279 26.5874246,16.4023885 26.608727,16.3938096 C27.7850147,15.9200947 19.865451,17.7898921 18.4427691,15.7045816 C17.416076,14.1996958 18.2199309,12.4489253 18.3644912,11.1642307 C18.8330417,7.00026512 17.5699829,4.18434117 12.0082313,0.782351183 C6.44647958,-2.61963881 -2.82544544,6.6556217 0.906652295,8.83011575 C4.63875003,11.0046098 6.12864096,12.2036418 8.25643958,13.5754465 Z" id="path-5"></path>
        <path d="M14.4840072,15.3930891 C16.1473961,16.2844915 19.0693076,16.9410702 20.8857775,16.0492575 C26.3403576,13.3712811 29.6028085,7.46205039 27.806259,6.61671129 C25.4114273,5.48985959 21.1616851,0.676653474 14.4840072,0.12066895 C7.80632929,-0.435315574 1.11998746,3.73685582 1.65076407,9.07508547 C2.88501849,12.3712351 5.62721739,10.6467766 14.4840072,15.3930891 Z" id="path-7"></path>
    </defs>
    <g id="Logo" stroke="none" stroke-width="1" fill="none" fill-rule="evenodd">
        <g id="Group-11" transform="translate(0.000000, -20.000000)">
            <path d="M60,120 C26.862915,120 0,93.137085 0,60 C0,26.862915 26.862915,0 60,0 C93.137085,0 120,26.862915 120,60 C120,93.137085 93.137085,120 60,120 Z" id="Oval-Copy-12" fill="#055077" fill-rule="nonzero"></path>
            <g id="Group-2" transform="translate(7.000000, 21.000000)">
                <path d="M0.310709278,63.0102041 L3.2975275,58.3877551 L3.2975275,58.377551 L3.30755038,58.3673469 C3.30755038,58.3605442 3.30420945,58.3571429 3.2975275,58.3571429 L0.571304156,58.3571429 C0.417619229,58.3571429 0.283982166,58.301021 0.170388959,58.1887755 C0.0567957517,58.0765301 0,57.9421777 0,57.7857143 C0,57.6292509 0.0567957517,57.4931979 0.170388959,57.377551 C0.283982166,57.2619042 0.417619229,57.2040816 0.571304156,57.2040816 L4.37999853,57.2040816 C4.53368346,57.2040816 4.66732052,57.2619042 4.78091373,57.377551 C4.89450694,57.4931979 4.95130269,57.6292509 4.95130269,57.7857143 C4.95130269,58.1666686 4.84773396,58.5204065 4.64059341,58.8469388 L1.65377519,63.4693878 L1.65377519,63.4795918 L1.64375231,63.4897959 C1.64375231,63.4965987 1.64709324,63.5 1.65377519,63.5 L4.37999853,63.5 C4.53368346,63.5 4.66732052,63.5561219 4.78091373,63.6683673 C4.89450694,63.7806128 4.95130269,63.9149652 4.95130269,64.0714286 C4.95130269,64.2278919 4.89450694,64.363945 4.78091373,64.4795918 C4.66732052,64.5952387 4.53368346,64.6530612 4.37999853,64.6530612 L0.571304156,64.6530612 C0.417619229,64.6530612 0.283982166,64.5952387 0.170388959,64.4795918 C0.0567957517,64.363945 0,64.2278919 0,64.0714286 C0,63.6904743 0.103568724,63.3367363 0.310709278,63.0102041 Z M8.22126727,60.1938776 C7.88048764,60.1938776 7.61822491,60.2908154 7.43447119,60.4846939 C7.25071747,60.6785724 7.13545551,60.9897938 7.08868183,61.4183673 C7.08868183,61.4727894 7.11540925,61.5 7.16886487,61.5 L9.13334934,61.5 C9.18680497,61.5 9.21353238,61.4727894 9.21353238,61.4183673 C9.18680457,60.6020367 8.85605284,60.1938776 8.22126727,60.1938776 Z M8.47183926,64.755102 C7.59650337,64.755102 6.92330667,64.5221112 6.45222896,64.0561224 C5.98115125,63.5901337 5.74561592,62.9047664 5.74561592,62 C5.74561592,61.1020363 5.9560943,60.4183697 6.37705736,59.9489796 C6.79802042,59.4795895 7.40606906,59.244898 8.20122151,59.244898 C9.68461515,59.244898 10.4463464,60.1020322 10.4864381,61.8163265 C10.4931201,61.9795927 10.4363243,62.1156457 10.3160492,62.2244898 C10.195774,62.3333339 10.0554551,62.3877551 9.89508822,62.3877551 L7.15884199,62.3877551 C7.09870441,62.3877551 7.07531793,62.418367 7.08868183,62.4795918 C7.13545551,62.9353764 7.28412674,63.2670058 7.53469999,63.4744898 C7.78527324,63.6819738 8.1511047,63.7857143 8.63220534,63.7857143 C8.93289325,63.7857143 9.2669859,63.7346944 9.63449334,63.6326531 C9.7547685,63.5986393 9.86668954,63.6190472 9.97025982,63.6938776 C10.0738301,63.7687079 10.1256145,63.8707477 10.1256145,64 C10.1256145,64.1564634 10.0805119,64.2942171 9.99030558,64.4132653 C9.9000992,64.5323135 9.78149631,64.605442 9.63449334,64.6326531 C9.26030395,64.7142861 8.87275647,64.755102 8.47183926,64.755102 Z M12.2028563,64.6530612 C12.0491714,64.6530612 11.9155343,64.5952387 11.8019411,64.4795918 C11.6883479,64.363945 11.6315522,64.2278919 11.6315522,64.0714286 L11.6315522,59.9285714 C11.6315522,59.7721081 11.6883479,59.636055 11.8019411,59.5204082 C11.9155343,59.4047613 12.0491714,59.3469388 12.2028563,59.3469388 L12.4033139,59.3469388 C12.5569988,59.3469388 12.6906359,59.4047613 12.8042291,59.5204082 C12.9178223,59.636055 12.9746181,59.7721081 12.9746181,59.9285714 L12.9746181,60.3571429 C12.9746181,60.3639456 12.977959,60.3673469 12.984641,60.3673469 C12.9980049,60.3673469 13.0046867,60.3639456 13.0046867,60.3571429 C13.1984634,60.0850327 13.4523738,59.8622458 13.7664256,59.6887755 C14.0804774,59.5153053 14.4245928,59.4081635 14.7987822,59.3673469 C14.9391032,59.3537414 15.0593766,59.3996593 15.1596059,59.505102 C15.2598352,59.6105447 15.3099491,59.7346932 15.3099491,59.877551 C15.3099491,60.0204089 15.2598352,60.1428566 15.1596059,60.244898 C15.0593766,60.3469393 14.9391032,60.4047618 14.7987822,60.4183673 C13.6160765,60.5136059 13.0247325,61.1258447 13.0247325,62.255102 L13.0247325,64.0714286 C13.0247325,64.2278919 12.9679367,64.363945 12.8543435,64.4795918 C12.7407503,64.5952387 12.6071132,64.6530612 12.4534283,64.6530612 L12.2028563,64.6530612 Z M18.5398222,60.2346939 C18.1455869,60.2346939 17.8499149,60.3758489 17.6527973,60.6581633 C17.4556797,60.9404776 17.3571223,61.387752 17.3571223,62 C17.3571223,62.612248 17.4556797,63.0595224 17.6527973,63.3418367 C17.8499149,63.6241511 18.1455869,63.7653061 18.5398222,63.7653061 C18.9340574,63.7653061 19.2297294,63.6241511 19.426847,63.3418367 C19.6239647,63.0595224 19.722522,62.612248 19.722522,62 C19.722522,61.387752 19.6239647,60.9404776 19.426847,60.6581633 C19.2297294,60.3758489 18.9340574,60.2346939 18.5398222,60.2346939 Z M18.5398222,64.755102 C17.7379878,64.755102 17.114905,64.5153085 16.6705551,64.0357143 C16.2262052,63.5561201 16.0040335,62.8775554 16.0040335,62 C16.0040335,61.1224446 16.2262052,60.4438799 16.6705551,59.9642857 C17.114905,59.4846915 17.7379878,59.244898 18.5398222,59.244898 C19.3416566,59.244898 19.9647394,59.4846915 20.4090893,59.9642857 C20.8534392,60.4438799 21.0756108,61.1224446 21.0756108,62 C21.0756108,62.8775554 20.8534392,63.5561201 20.4090893,64.0357143 C19.9647394,64.5153085 19.3416566,64.755102 18.5398222,64.755102 Z M22.8621891,62.2346939 C22.7151862,62.2346939 22.5882309,62.1819733 22.4813197,62.0765306 C22.3744084,61.9710879 22.3209536,61.8435382 22.3209536,61.6938776 C22.3209536,61.5442169 22.3744084,61.4166672 22.4813197,61.3112245 C22.5882309,61.2057818 22.7151862,61.1530612 22.8621891,61.1530612 L25.12736,61.1530612 C25.274363,61.1530612 25.4013182,61.2057818 25.5082294,61.3112245 C25.6151407,61.4166672 25.6685955,61.5442169 25.6685955,61.6938776 C25.6685955,61.8435382 25.6151407,61.9710879 25.5082294,62.0765306 C25.4013182,62.1819733 25.274363,62.2346939 25.12736,62.2346939 L22.8621891,62.2346939 Z M27.7257916,64.0918367 L26.7235036,59.9081633 C26.6900939,59.7653054 26.7184917,59.636055 26.8086981,59.5204082 C26.8989045,59.4047613 27.0141664,59.3469388 27.1544875,59.3469388 L27.4050595,59.3469388 C27.5721083,59.3469388 27.7191091,59.40136 27.8460662,59.5102041 C27.9730233,59.6190482 28.0498646,59.7551012 28.0765924,59.9183673 L28.698011,63.5204082 C28.698011,63.5272109 28.7013519,63.5306122 28.7080339,63.5306122 C28.7213978,63.5306122 28.7280796,63.5272109 28.7280796,63.5204082 L29.359521,59.9183673 C29.3929308,59.7551012 29.4731131,59.6190482 29.6000702,59.5102041 C29.7270273,59.40136 29.8706871,59.3469388 30.031054,59.3469388 L30.532198,59.3469388 C30.6992468,59.3469388 30.8462476,59.40136 30.9732047,59.5102041 C31.1001618,59.6190482 31.1770031,59.7551012 31.203731,59.9183673 L31.8351724,63.5204082 C31.8351724,63.5272109 31.8418542,63.5306122 31.8552182,63.5306122 C31.8619001,63.5306122 31.865241,63.5272109 31.865241,63.5204082 L32.4866596,59.9183673 C32.5200694,59.7551012 32.6002516,59.6190482 32.7272087,59.5102041 C32.8541658,59.40136 32.9978257,59.3469388 33.1581925,59.3469388 L33.368673,59.3469388 C33.515676,59.3469388 33.6342789,59.4047613 33.7244853,59.5204082 C33.8146916,59.636055 33.8397486,59.7653054 33.7996569,59.9081633 L32.7973689,64.0918367 C32.7572771,64.2551029 32.6720835,64.3894553 32.5417854,64.494898 C32.4114873,64.6003407 32.2628161,64.6530612 32.0957673,64.6530612 L31.5946233,64.6530612 C31.4342564,64.6530612 31.2905966,64.59864 31.1636394,64.4897959 C31.0366823,64.3809518 30.9565001,64.2448988 30.9230903,64.0816327 L30.2716031,60.5816327 C30.2716031,60.5748299 30.2682622,60.5714286 30.2615802,60.5714286 C30.2548983,60.5714286 30.2515574,60.5748299 30.2515574,60.5816327 L29.6000702,64.0816327 C29.5733424,64.2448988 29.496501,64.3809518 29.3695439,64.4897959 C29.2425868,64.59864 29.095586,64.6530612 28.9285372,64.6530612 L28.4273932,64.6530612 C28.2670263,64.6530612 28.1200256,64.6003407 27.9863865,64.494898 C27.8527474,64.3894553 27.7658833,64.2551029 27.7257916,64.0918367 Z M37.3201934,62.1020408 C36.3646741,62.1020408 35.8869216,62.4013576 35.8869216,63 C35.8869216,63.2176882 35.9487287,63.3945571 36.0723449,63.5306122 C36.195961,63.6666673 36.354655,63.7346939 36.5484317,63.7346939 C36.929303,63.7346939 37.2366683,63.6139468 37.4705366,63.372449 C37.704405,63.1309512 37.8213374,62.7993218 37.8213374,62.377551 L37.8213374,62.1938776 C37.8213374,62.1326528 37.7912691,62.1020408 37.7311315,62.1020408 L37.3201934,62.1020408 Z M36.187608,64.755102 C35.7332352,64.755102 35.3573809,64.603743 35.060034,64.3010204 C34.7626871,63.9982978 34.6140159,63.6054446 34.6140159,63.122449 C34.6140159,62.5306093 34.8361875,62.0714302 35.2805374,61.744898 C35.7248873,61.4183657 36.4047658,61.255102 37.3201934,61.255102 L37.7311315,61.255102 C37.7912691,61.255102 37.8213374,61.2244901 37.8213374,61.1632653 L37.8213374,61.0816327 C37.8213374,60.7687059 37.747837,60.5493204 37.6008341,60.4234694 C37.4538311,60.2976184 37.1932388,60.2346939 36.8190494,60.2346939 C36.4314961,60.2346939 35.9570846,60.3061217 35.3958005,60.4489796 C35.2755253,60.4829934 35.1652748,60.4608847 35.0650455,60.3826531 C34.9648162,60.3044214 34.9147023,60.2006809 34.9147023,60.0714286 C34.9147023,59.9149652 34.9614752,59.7738102 35.0550226,59.6479592 C35.1485699,59.5221082 35.2688433,59.4455784 35.4158462,59.4183673 C35.9236747,59.3027205 36.4014272,59.244898 36.8491181,59.244898 C37.7044081,59.244898 38.302434,59.401359 38.6432136,59.7142857 C38.9839932,60.0272124 39.1543805,60.574826 39.1543805,61.3571429 L39.1543805,64.0714286 C39.1543805,64.2278919 39.0992552,64.363945 38.9890029,64.4795918 C38.8787507,64.5952387 38.7467841,64.6530612 38.5930992,64.6530612 L38.4828475,64.6530612 C38.3224806,64.6530612 38.1855026,64.5969393 38.0719094,64.4846939 C37.9583162,64.3724484 37.8981795,64.2346947 37.8914976,64.0714286 L37.8914976,63.9285714 C37.8914976,63.9217687 37.8881567,63.9183673 37.8814747,63.9183673 C37.8681108,63.9183673 37.861429,63.9217687 37.861429,63.9285714 C37.4538298,64.4795946 36.8958951,64.755102 36.187608,64.755102 Z M42.2439332,62.5102041 C41.5423281,62.3537407 41.0428596,62.1394571 40.7455127,61.8673469 C40.4481657,61.5952367 40.2994945,61.2414988 40.2994945,60.8061224 C40.2994945,60.3163241 40.4782341,59.9336748 40.8357186,59.6581633 C41.1932031,59.3826517 41.7227399,59.244898 42.424345,59.244898 C42.865354,59.244898 43.3030153,59.2857139 43.7373423,59.3673469 C43.8843453,59.394558 44.0029482,59.4676865 44.0931546,59.5867347 C44.1833609,59.7057829 44.2284634,59.8435366 44.2284634,60 C44.2284634,60.1292523 44.1783495,60.2329928 44.0781202,60.3112245 C43.9778909,60.3894562 43.8642994,60.4115648 43.7373423,60.377551 C43.3631529,60.2823124 42.9689236,60.2346939 42.5546425,60.2346939 C41.9532667,60.2346939 41.6525833,60.4047602 41.6525833,60.744898 C41.6525833,60.9081641 41.709379,61.0442171 41.8229722,61.1530612 C41.9365655,61.2619053 42.1303392,61.3469385 42.4042993,61.4081633 C43.1727239,61.5646266 43.6989199,61.7755089 43.9829029,62.0408163 C44.2668859,62.3061238 44.4088753,62.693875 44.4088753,63.2040816 C44.4088753,63.69388 44.2284652,64.0748286 43.8676398,64.3469388 C43.5068143,64.619049 42.9822888,64.755102 42.2940476,64.755102 C41.8463567,64.755102 41.3886498,64.7006808 40.9209131,64.5918367 C40.7739101,64.557823 40.6536367,64.4778918 40.5600894,64.3520408 C40.466542,64.2261898 40.4197691,64.0816335 40.4197691,63.9183673 C40.4197691,63.789115 40.4715534,63.6904765 40.5751237,63.622449 C40.678694,63.5544214 40.790615,63.5374148 40.9108902,63.5714286 C41.3452171,63.6938782 41.7561511,63.755102 42.1437044,63.755102 C42.7517622,63.755102 43.0557865,63.5714304 43.0557865,63.2040816 C43.0557865,63.02721 42.9973203,62.8877556 42.8803861,62.7857143 C42.7634519,62.683673 42.5513031,62.5918371 42.2439332,62.5102041 Z M45.7344011,60.5408163 C45.6007621,60.5408163 45.4871706,60.4914971 45.3936232,60.3928571 C45.3000759,60.2942172 45.2533029,60.1768714 45.2533029,60.0408163 C45.2533029,59.9047612 45.3000759,59.7891161 45.3936232,59.6938776 C45.4871706,59.598639 45.6007621,59.5510204 45.7344011,59.5510204 L46.2154994,59.5510204 C46.275637,59.5510204 46.3057053,59.5204085 46.3057053,59.4591837 L46.3057053,58.1938776 C46.3057053,58.0374142 46.3608306,57.9013611 46.4710828,57.7857143 C46.581335,57.6700674 46.7133016,57.6122449 46.8669866,57.6122449 L47.0674442,57.6122449 C47.2211291,57.6122449 47.3547662,57.6700674 47.4683594,57.7857143 C47.5819526,57.9013611 47.6387483,58.0374142 47.6387483,58.1938776 L47.6387483,59.4591837 C47.6387483,59.5204085 47.6688167,59.5510204 47.7289542,59.5510204 L48.8715626,59.5510204 C49.0052016,59.5510204 49.1204636,59.598639 49.2173519,59.6938776 C49.3142402,59.7891161 49.3626837,59.9047612 49.3626837,60.0408163 C49.3626837,60.1768714 49.3142402,60.2942172 49.2173519,60.3928571 C49.1204636,60.4914971 49.0052016,60.5408163 48.8715626,60.5408163 L47.7289542,60.5408163 C47.6688167,60.5408163 47.6387483,60.5680269 47.6387483,60.622449 L47.6387483,62.6836735 C47.6387483,63.1258526 47.6855213,63.411564 47.7790686,63.5408163 C47.872616,63.6700687 48.0663897,63.7346939 48.3603957,63.7346939 C48.5207626,63.7346939 48.6410359,63.7278912 48.7212194,63.7142857 C48.8548584,63.7006802 48.9717909,63.7312921 49.0720202,63.8061224 C49.1722495,63.8809528 49.2223634,63.9829926 49.2223634,64.1122449 C49.2223634,64.2619055 49.1739199,64.3962579 49.0770316,64.5153061 C48.9801433,64.6343543 48.8615404,64.7006802 48.7212194,64.7142857 C48.4272134,64.7414967 48.2067123,64.755102 48.0597093,64.755102 C47.4115598,64.755102 46.9571938,64.613947 46.6965976,64.3316327 C46.4360014,64.0493183 46.3057053,63.5442213 46.3057053,62.8163265 L46.3057053,60.622449 C46.3057053,60.5680269 46.275637,60.5408163 46.2154994,60.5408163 L45.7344011,60.5408163 Z M52.8331059,60.1938776 C52.4923262,60.1938776 52.2300635,60.2908154 52.0463098,60.4846939 C51.8625561,60.6785724 51.7472941,60.9897938 51.7005204,61.4183673 C51.7005204,61.4727894 51.7272478,61.5 51.7807035,61.5 L53.7451879,61.5 C53.7986436,61.5 53.825371,61.4727894 53.825371,61.4183673 C53.7986432,60.6020367 53.4678914,60.1938776 52.8331059,60.1938776 Z M53.0836779,64.755102 C52.208342,64.755102 51.5351453,64.5221112 51.0640675,64.0561224 C50.5929898,63.5901337 50.3574545,62.9047664 50.3574545,62 C50.3574545,61.1020363 50.5679329,60.4183697 50.9888959,59.9489796 C51.409859,59.4795895 52.0179076,59.244898 52.8130601,59.244898 C54.2964537,59.244898 55.058185,60.1020322 55.0982767,61.8163265 C55.1049587,61.9795927 55.0481629,62.1156457 54.9278878,62.2244898 C54.8076126,62.3333339 54.6672937,62.3877551 54.5069268,62.3877551 L51.7706806,62.3877551 C51.710543,62.3877551 51.6871565,62.418367 51.7005204,62.4795918 C51.7472941,62.9353764 51.8959653,63.2670058 52.1465386,63.4744898 C52.3971118,63.6819738 52.7629433,63.7857143 53.2440439,63.7857143 C53.5447318,63.7857143 53.8788245,63.7346944 54.2463319,63.6326531 C54.3666071,63.5986393 54.4785281,63.6190472 54.5820984,63.6938776 C54.6856687,63.7687079 54.737453,63.8707477 54.737453,64 C54.737453,64.1564634 54.6923505,64.2942171 54.6021442,64.4132653 C54.5119378,64.5323135 54.3933349,64.605442 54.2463319,64.6326531 C53.8721425,64.7142861 53.4845951,64.755102 53.0836779,64.755102 Z M62.2395787,64.755102 C61.18383,64.755102 60.3469279,64.4234727 59.7288473,63.7602041 C59.1107666,63.0969355 58.8017309,62.1530673 58.8017309,60.9285714 C58.8017309,59.717681 59.1007438,58.7772142 59.6987786,58.1071429 C60.2968134,57.4370715 61.1337155,57.1020408 62.20951,57.1020408 C62.7039746,57.1020408 63.1182495,57.1326528 63.4523471,57.1938776 C63.612714,57.2210886 63.7463511,57.3027204 63.8532623,57.4387755 C63.9601736,57.5748306 64.0136284,57.7278903 64.0136284,57.8979592 L64.0136284,57.9795918 C64.0136284,58.1224497 63.9551622,58.2346935 63.838228,58.3163265 C63.7212938,58.3979596 63.5960091,58.4217689 63.46237,58.3877551 C63.1349543,58.2993193 62.7674524,58.255102 62.3598532,58.255102 C61.6983399,58.255102 61.1788258,58.4863922 60.8012954,58.9489796 C60.423765,59.4115669 60.2350027,60.0714243 60.2350027,60.9285714 C60.2350027,61.7789158 60.4304469,62.4370725 60.8213412,62.9030612 C61.2122354,63.3690499 61.7350904,63.6020408 62.3899219,63.6020408 C62.8309308,63.6020408 63.2084555,63.5612249 63.5225073,63.4795918 C63.6561464,63.4455781 63.7814311,63.4693873 63.8983653,63.5510204 C64.0152995,63.6326535 64.0737657,63.7448972 64.0737657,63.8877551 L64.0737657,63.9591837 C64.0737657,64.1292526 64.0219813,64.2806116 63.9184111,64.4132653 C63.8148408,64.545919 63.6795333,64.6258502 63.5124844,64.6530612 C63.1316131,64.7210888 62.7073154,64.755102 62.2395787,64.755102 Z M66.1810762,64.6530612 C66.0273913,64.6530612 65.8954247,64.5952387 65.7851725,64.4795918 C65.6749202,64.363945 65.6197949,64.2278919 65.6197949,64.0714286 L65.6197949,57.5816327 C65.6197949,57.4251693 65.6749202,57.2891162 65.7851725,57.1734694 C65.8954247,57.0578226 66.0273913,57 66.1810762,57 L66.3815338,57 C66.5352187,57 66.6688558,57.0578226 66.782449,57.1734694 C66.8960422,57.2891162 66.952838,57.4251693 66.952838,57.5816327 L66.952838,59.9489796 C66.952838,59.9557823 66.9561789,59.9591837 66.9628608,59.9591837 C66.9695428,59.9591837 66.9762247,59.9557823 66.9829066,59.9489796 C67.4506433,59.4795895 67.965146,59.244898 68.5264301,59.244898 C69.1344879,59.244898 69.5754902,59.4217669 69.8494503,59.7755102 C70.1234104,60.1292535 70.2603883,60.7346896 70.2603883,61.5918367 L70.2603883,64.0714286 C70.2603883,64.2278919 70.2035926,64.363945 70.0899994,64.4795918 C69.9764062,64.5952387 69.8427691,64.6530612 69.6890842,64.6530612 L69.5287181,64.6530612 C69.3750332,64.6530612 69.2413961,64.5952387 69.1278029,64.4795918 C69.0142097,64.363945 68.957414,64.2278919 68.957414,64.0714286 L68.957414,61.7959184 C68.957414,61.2040787 68.8956068,60.8129261 68.7719907,60.622449 C68.6483745,60.4319718 68.4161801,60.3367347 68.0754005,60.3367347 C67.8081224,60.3367347 67.554212,60.4591824 67.3136616,60.7040816 C67.0731113,60.9489808 66.952838,61.210883 66.952838,61.4897959 L66.952838,64.0714286 C66.952838,64.2278919 66.8960422,64.363945 66.782449,64.4795918 C66.6688558,64.5952387 66.5352187,64.6530612 66.3815338,64.6530612 L66.1810762,64.6530612 Z M74.11168,62.1020408 C73.1561606,62.1020408 72.6784081,62.4013576 72.6784081,63 C72.6784081,63.2176882 72.7402153,63.3945571 72.8638314,63.5306122 C72.9874475,63.6666673 73.1461416,63.7346939 73.3399182,63.7346939 C73.7207895,63.7346939 74.0281548,63.6139468 74.2620232,63.372449 C74.4958915,63.1309512 74.612824,62.7993218 74.612824,62.377551 L74.612824,62.1938776 C74.612824,62.1326528 74.5827556,62.1020408 74.522618,62.1020408 L74.11168,62.1020408 Z M72.9790945,64.755102 C72.5247217,64.755102 72.1488675,64.603743 71.8515205,64.3010204 C71.5541736,63.9982978 71.4055024,63.6054446 71.4055024,63.122449 C71.4055024,62.5306093 71.627674,62.0714302 72.0720239,61.744898 C72.5163738,61.4183657 73.1962523,61.255102 74.11168,61.255102 L74.522618,61.255102 C74.5827556,61.255102 74.612824,61.2244901 74.612824,61.1632653 L74.612824,61.0816327 C74.612824,60.7687059 74.5393236,60.5493204 74.3923206,60.4234694 C74.2453176,60.2976184 73.9847253,60.2346939 73.610536,60.2346939 C73.2229827,60.2346939 72.7485711,60.3061217 72.187287,60.4489796 C72.0670118,60.4829934 71.9567613,60.4608847 71.856532,60.3826531 C71.7563027,60.3044214 71.7061888,60.2006809 71.7061888,60.0714286 C71.7061888,59.9149652 71.7529617,59.7738102 71.8465091,59.6479592 C71.9400564,59.5221082 72.0603298,59.4455784 72.2073328,59.4183673 C72.7151612,59.3027205 73.1929137,59.244898 73.6406046,59.244898 C74.4958946,59.244898 75.0939205,59.401359 75.4347001,59.7142857 C75.7754797,60.0272124 75.945867,60.574826 75.945867,61.3571429 L75.945867,64.0714286 C75.945867,64.2278919 75.8907417,64.363945 75.7804895,64.4795918 C75.6702372,64.5952387 75.5382706,64.6530612 75.3845857,64.6530612 L75.274334,64.6530612 C75.1139671,64.6530612 74.9769892,64.5969393 74.863396,64.4846939 C74.7498027,64.3724484 74.6896661,64.2346947 74.6829841,64.0714286 L74.6829841,63.9285714 C74.6829841,63.9217687 74.6796432,63.9183673 74.6729612,63.9183673 C74.6595973,63.9183673 74.6529155,63.9217687 74.6529155,63.9285714 C74.2453163,64.4795946 73.6873816,64.755102 72.9790945,64.755102 Z M78.2135436,64.6530612 C78.0598586,64.6530612 77.9262216,64.5952387 77.8126284,64.4795918 C77.6990352,64.363945 77.6422394,64.2278919 77.6422394,64.0714286 L77.6422394,57.5816327 C77.6422394,57.4251693 77.6990352,57.2891162 77.8126284,57.1734694 C77.9262216,57.0578226 78.0598586,57 78.2135436,57 L78.4741384,57 C78.6278234,57 78.7614604,57.0578226 78.8750536,57.1734694 C78.9886469,57.2891162 79.0454426,57.4251693 79.0454426,57.5816327 L79.0454426,64.0714286 C79.0454426,64.2278919 78.9886469,64.363945 78.8750536,64.4795918 C78.7614604,64.5952387 78.6278234,64.6530612 78.4741384,64.6530612 L78.2135436,64.6530612 Z M81.4634624,64.6530612 C81.3097775,64.6530612 81.1761404,64.5952387 81.0625472,64.4795918 C80.948954,64.363945 80.8921582,64.2278919 80.8921582,64.0714286 L80.8921582,57.5816327 C80.8921582,57.4251693 80.948954,57.2891162 81.0625472,57.1734694 C81.1761404,57.0578226 81.3097775,57 81.4634624,57 L81.7240573,57 C81.8777422,57 82.0113793,57.0578226 82.1249725,57.1734694 C82.2385657,57.2891162 82.2953614,57.4251693 82.2953614,57.5816327 L82.2953614,64.0714286 C82.2953614,64.2278919 82.2385657,64.363945 82.1249725,64.4795918 C82.0113793,64.5952387 81.8777422,64.6530612 81.7240573,64.6530612 L81.4634624,64.6530612 Z M86.1666988,60.1938776 C85.8259192,60.1938776 85.5636564,60.2908154 85.3799027,60.4846939 C85.196149,60.6785724 85.080887,60.9897938 85.0341134,61.4183673 C85.0341134,61.4727894 85.0608408,61.5 85.1142964,61.5 L87.0787809,61.5 C87.1322365,61.5 87.1589639,61.4727894 87.1589639,61.4183673 C87.1322361,60.6020367 86.8014844,60.1938776 86.1666988,60.1938776 Z M86.4172708,64.755102 C85.5419349,64.755102 84.8687382,64.5221112 84.3976605,64.0561224 C83.9265828,63.5901337 83.6910475,62.9047664 83.6910475,62 C83.6910475,61.1020363 83.9015258,60.4183697 84.3224889,59.9489796 C84.743452,59.4795895 85.3515006,59.244898 86.146653,59.244898 C87.6300467,59.244898 88.3917779,60.1020322 88.4318697,61.8163265 C88.4385516,61.9795927 88.3817559,62.1156457 88.2614807,62.2244898 C88.1412055,62.3333339 88.0008866,62.3877551 87.8405197,62.3877551 L85.1042735,62.3877551 C85.0441359,62.3877551 85.0207495,62.418367 85.0341134,62.4795918 C85.080887,62.9353764 85.2295583,63.2670058 85.4801315,63.4744898 C85.7307048,63.6819738 86.0965362,63.7857143 86.5776369,63.7857143 C86.8783248,63.7857143 87.2124174,63.7346944 87.5799249,63.6326531 C87.7002,63.5986393 87.8121211,63.6190472 87.9156913,63.6938776 C88.0192616,63.7687079 88.071046,63.8707477 88.071046,64 C88.071046,64.1564634 88.0259435,64.2942171 87.9357371,64.4132653 C87.8455307,64.5323135 87.7269278,64.605442 87.5799249,64.6326531 C87.2057355,64.7142861 86.818188,64.755102 86.4172708,64.755102 Z M90.1482879,64.6530612 C89.9946029,64.6530612 89.8609659,64.5952387 89.7473727,64.4795918 C89.6337794,64.363945 89.5769837,64.2278919 89.5769837,64.0714286 L89.5769837,59.9285714 C89.5769837,59.7721081 89.6337794,59.636055 89.7473727,59.5204082 C89.8609659,59.4047613 89.9946029,59.3469388 90.1482879,59.3469388 L90.2785853,59.3469388 C90.4389522,59.3469388 90.5742597,59.4030607 90.6845119,59.5153061 C90.7947642,59.6275516 90.8532304,59.7653053 90.8599123,59.9285714 L90.8599123,60 C90.8599123,60.0068028 90.8632533,60.0102041 90.8699352,60.0102041 C90.8766172,60.0102041 90.883299,60.0068028 90.889981,60 C91.3443538,59.4965961 91.8755611,59.244898 92.4836189,59.244898 C93.0916766,59.244898 93.5343494,59.4200663 93.8116505,59.7704082 C94.0889515,60.1207501 94.2276,60.7040776 94.2276,61.5204082 L94.2276,64.0714286 C94.2276,64.2278919 94.1708042,64.363945 94.057211,64.4795918 C93.9436178,64.5952387 93.8099808,64.6530612 93.6562958,64.6530612 L93.4859069,64.6530612 C93.3322219,64.6530612 93.2002553,64.5952387 93.0900031,64.4795918 C92.9797509,64.363945 92.9246256,64.2278919 92.9246256,64.0714286 L92.9246256,61.622449 C92.9246256,61.1122423 92.8594775,60.7636064 92.7291794,60.5765306 C92.5988813,60.3894548 92.3666869,60.2959184 92.0325893,60.2959184 C91.7586292,60.2959184 91.5047188,60.4149648 91.2708504,60.6530612 C91.036982,60.8911577 90.9200496,61.1462571 90.9200496,61.4183673 L90.9200496,64.0714286 C90.9200496,64.2278919 90.8632539,64.363945 90.7496606,64.4795918 C90.6360674,64.5952387 90.5024304,64.6530612 90.3487455,64.6530612 L90.1482879,64.6530612 Z M97.7481366,60.2653061 C97.0131217,60.2653061 96.6456198,60.8095184 96.6456198,61.8979592 C96.6456198,62.4625879 96.7441771,62.8843523 96.9412947,63.1632653 C97.1384124,63.4421783 97.4073569,63.5816327 97.7481366,63.5816327 C98.0488245,63.5816327 98.3077463,63.4727902 98.5249098,63.255102 C98.7420732,63.0374139 98.8506534,62.7823144 98.8506534,62.4897959 L98.8506534,61.3877551 C98.8506534,61.0748284 98.7420732,60.8095249 98.5249098,60.5918367 C98.3077463,60.3741486 98.0488245,60.2653061 97.7481366,60.2653061 Z M97.3271756,64.6020408 C96.7391637,64.6020408 96.2580703,64.3622473 95.8838809,63.8826531 C95.5096915,63.4030588 95.3225996,62.7415008 95.3225996,61.8979592 C95.3225996,61.0544176 95.5013392,60.4013629 95.8588237,59.9387755 C96.2163082,59.4761882 96.7057539,59.244898 97.3271756,59.244898 C97.6412274,59.244898 97.9185243,59.3027205 98.1590746,59.4183673 C98.399625,59.5340142 98.6368307,59.7278898 98.8706991,60 C98.8773811,60.0068028 98.8840629,60.0102041 98.8907449,60.0102041 C98.8974268,60.0102041 98.9007678,60.0068028 98.9007678,60 L98.9007678,59.9285714 C98.9074497,59.7653053 98.9675864,59.6275516 99.0811796,59.5153061 C99.1947728,59.4030607 99.3317508,59.3469388 99.4921177,59.3469388 L99.6023694,59.3469388 C99.7560543,59.3469388 99.8880209,59.4047613 99.9982731,59.5204082 C100.108525,59.636055 100.163651,59.7721081 100.163651,59.9285714 L100.163651,64.244898 C100.163651,66.0816418 99.2616005,67 97.457473,67 C97.1367393,67 96.7993057,66.9727894 96.4451622,66.9183673 C96.2847953,66.8911563 96.1528287,66.8112252 96.0492584,66.6785714 C95.9456881,66.5459177 95.8939038,66.3945587 95.8939038,66.2244898 C95.8939038,66.0884347 95.9490291,65.9812929 96.0592813,65.9030612 C96.1695335,65.8248295 96.2914773,65.8027209 96.4251164,65.8367347 C96.7458502,65.9183678 97.0799428,65.9591837 97.4274044,65.9591837 C97.921869,65.9591837 98.282689,65.8282326 98.5098754,65.5663265 C98.7370619,65.3044205 98.8506534,64.8741527 98.8506534,64.2755102 L98.8506534,63.9591837 C98.8506534,63.9523809 98.8473124,63.9489796 98.8406305,63.9489796 C98.8339485,63.9489796 98.8272667,63.9523809 98.8205847,63.9591837 C98.4196675,64.3877572 97.9218695,64.6020408 97.3271756,64.6020408 Z M103.734302,60.1938776 C103.393522,60.1938776 103.131259,60.2908154 102.947506,60.4846939 C102.763752,60.6785724 102.64849,60.9897938 102.601716,61.4183673 C102.601716,61.4727894 102.628444,61.5 102.681899,61.5 L104.646384,61.5 C104.699839,61.5 104.726567,61.4727894 104.726567,61.4183673 C104.699839,60.6020367 104.369087,60.1938776 103.734302,60.1938776 Z M103.984874,64.755102 C103.109538,64.755102 102.436341,64.5221112 101.965263,64.0561224 C101.494186,63.5901337 101.25865,62.9047664 101.25865,62 C101.25865,61.1020363 101.469129,60.4183697 101.890092,59.9489796 C102.311055,59.4795895 102.919103,59.244898 103.714256,59.244898 C105.197649,59.244898 105.959381,60.1020322 105.999472,61.8163265 C106.006154,61.9795927 105.949359,62.1156457 105.829084,62.2244898 C105.708808,62.3333339 105.568489,62.3877551 105.408123,62.3877551 L102.671876,62.3877551 C102.611739,62.3877551 102.588352,62.418367 102.601716,62.4795918 C102.64849,62.9353764 102.797161,63.2670058 103.047734,63.4744898 C103.298308,63.6819738 103.664139,63.7857143 104.14524,63.7857143 C104.445928,63.7857143 104.78002,63.7346944 105.147528,63.6326531 C105.267803,63.5986393 105.379724,63.6190472 105.483294,63.6938776 C105.586864,63.7687079 105.638649,63.8707477 105.638649,64 C105.638649,64.1564634 105.593546,64.2942171 105.50334,64.4132653 C105.413134,64.5323135 105.294531,64.605442 105.147528,64.6326531 C104.773338,64.7142861 104.385791,64.755102 103.984874,64.755102 Z" id="Zero-waste-Challenge" fill="#FFFFFF"></path>
                <g id="Group-4" transform="translate(20.000000, 0.000000)">
                    <g id="Group-7-Copy">
                        <g id="Group-8" transform="translate(40.088531, 18.983315)">
                            <mask id="mask-2" fill="white">
                                <use xlink:href="#path-1"></use>
                            </mask>
                            <use id="Oval-6" fill="#8ECC47" fill-rule="nonzero" xlink:href="#path-1"></use>
                            <path d="M19.2475487,2.86833864 C18.5520151,3.15269321 17.5415537,3.0615995 17.4060702,2.70865294 C17.2705867,2.35570639 17.8316781,1.81204371 18.6593028,1.49434835 C19.4869275,1.17665299 20.2676809,1.20522973 20.4031644,1.55817628 C20.5386479,1.91112283 19.9430822,2.58398406 19.2475487,2.86833864 Z M13.7631679,4.18687996 C13.1981048,4.68218607 12.2130375,4.92502933 11.9700272,4.63542092 C11.7270169,4.3458125 11.7091236,3.21608888 12.3882266,2.64625377 C13.0673296,2.07641866 14.1862666,2.28225703 14.4292769,2.57186544 C14.6722872,2.86147385 14.328231,3.69157386 13.7631679,4.18687996 Z M16.9052566,7.13803868 C16.4246334,7.71564209 15.0759493,7.66065452 14.7906261,7.41262686 C14.5053029,7.16459919 14.745483,6.42115712 15.3270833,5.7521025 C15.9086836,5.08304789 16.6114639,4.74173811 16.8967871,4.98976577 C17.1821103,5.23779343 17.3858799,6.56043527 16.9052566,7.13803868 Z M20.1888108,7.00938495 C19.3611861,7.32708031 18.2740235,5.96031422 18.1508567,5.63945371 C18.0276899,5.31859321 18.2415631,4.11340269 19.0691878,3.79570733 C19.8968125,3.47801197 20.6273854,3.92025773 20.7362213,4.4133704 C20.8450572,4.90648308 21.0164355,6.69168959 20.1888108,7.00938495 Z M16.8880113,1.60362048 C16.5801569,2.05456702 15.7558464,2.09280746 15.4936454,1.90765124 C15.2314443,1.72249501 15.3681997,1.39983822 15.9323502,0.942998184 C16.4965006,0.486158148 17.1173154,0.230099869 17.3452948,0.511630996 C17.5732742,0.793162124 17.1958658,1.15267393 16.8880113,1.60362048 Z M16.5277277,3.81142237 C16.2803105,3.94209811 15.712921,4.11649062 15.4516879,4.05761062 C15.1904549,3.99873062 15.2805724,3.73234573 15.7840319,3.32465225 C16.2874915,2.91695877 16.8261692,2.93726362 16.9992011,3.15094029 C17.1722331,3.36461695 16.7751449,3.68074662 16.5277277,3.81142237 Z M17.702583,9.05757549 C17.4247691,9.0909054 16.8325687,9.05038063 16.6097873,8.90179387 C16.387006,8.75320711 16.5666018,8.53681061 17.182726,8.33661972 C17.7988502,8.13642882 18.2944726,8.34842986 18.379437,8.60992332 C18.4644013,8.87141678 17.9803969,9.02424559 17.702583,9.05757549 Z M12.4103859,6.27907898 C12.5754786,6.05316781 13.0089962,5.6476977 13.2696022,5.58610166 C13.5302082,5.52450563 13.5659866,5.8034357 13.2922012,6.3905703 C13.0184159,6.9777049 12.5253545,7.1955958 12.2761647,7.07939669 C12.0269749,6.96319759 12.2452933,6.50499014 12.4103859,6.27907898 Z M22.2778124,0.967490715 C22.0303951,1.09816646 21.3416541,1.13838638 21.0804211,1.07950639 C20.8191881,1.02062639 20.4848827,0.478305465 20.9883422,0.0706119867 C21.4918017,-0.337081492 22.6332445,0.0188048133 22.8062765,0.232481481 C22.9793084,0.446158148 22.5252296,0.83681497 22.2778124,0.967490715 Z M22.5904677,2.68063302 C22.3430505,2.81130876 21.8886699,2.92998779 21.6274368,2.87110779 C21.3662038,2.81222779 21.3592405,2.65313671 21.8627,2.24544323 C22.3661595,1.83774975 22.9048373,1.8580546 23.0778692,2.07173127 C23.2509012,2.28540794 22.837885,2.54995727 22.5904677,2.68063302 Z" id="Combined-Shape" fill="#905135" fill-rule="nonzero" opacity="0.300000012" mask="url(#mask-2)"></path>
                        </g>
                        <g id="Group-9" transform="translate(26.581470, 24.800490)">
                            <mask id="mask-4" fill="white">
                                <use xlink:href="#path-3"></use>
                            </mask>
                            <use id="Oval-7" fill="#8ECC47" fill-rule="nonzero" xlink:href="#path-3"></use>
                            <path d="M24.2619863,15.1549475 C23.5593759,14.8885585 22.882497,14.1328037 23.0241196,13.7822755 C23.1657422,13.4317472 23.9468755,13.4168008 24.7688296,13.7488918 C25.5907837,14.0809828 26.1423014,14.6343551 26.0006787,14.9848834 C25.8590561,15.3354117 24.9645967,15.4213364 24.2619863,15.1549475 Z M18.3244113,16.3155004 C17.7593483,16.8108065 16.774281,17.0536498 16.5312707,16.7640414 C16.2882604,16.4744329 16.270367,15.3447093 16.9494701,14.7748742 C17.6285731,14.2050391 18.74751,14.4108775 18.9905203,14.7004859 C19.2335306,14.9900943 18.8894744,15.8201943 18.3244113,16.3155004 Z M22.4672635,19.387804 C21.9866403,19.9654074 20.6379562,19.9104199 20.352633,19.6623922 C20.0673098,19.4143645 20.3074899,18.6709225 20.8890902,18.0018678 C21.4706905,17.3328132 22.1734708,16.9915035 22.458794,17.2395311 C22.7441172,17.4875588 22.9478868,18.8102006 22.4672635,19.387804 Z M25.7508177,19.2591503 C24.923193,19.5768457 23.8360304,18.2100796 23.7128636,17.8892191 C23.5896968,17.5683586 23.80357,16.363168 24.6311947,16.0454727 C25.4588194,15.7277773 26.1893923,16.1700231 26.2982282,16.6631358 C26.4070641,17.1562484 26.5784424,18.9414549 25.7508177,19.2591503 Z M21.0046104,13.8725844 C20.3478112,14.0128784 19.5885529,13.3293321 19.5157034,12.9331527 C19.4428539,12.5369734 19.8391854,12.3638262 20.7269291,12.4414937 C21.6146728,12.5191612 22.3807437,12.8280874 22.3410527,13.2817573 C22.3013617,13.7354273 21.6614096,13.7322905 21.0046104,13.8725844 Z M15.4838436,20.8088833 C14.8270445,20.9491773 14.0677862,20.265631 13.9949366,19.8694516 C13.9220871,19.4732723 14.3184186,19.3001251 15.2061623,19.3777926 C16.093906,19.4554601 16.8599769,19.7643862 16.820286,20.2180562 C16.780595,20.6717262 16.1406428,20.6685894 15.4838436,20.8088833 Z M21.9928232,15.9585104 C21.745406,16.0891861 21.1780165,16.2635786 20.9167835,16.2046986 C20.6555504,16.1458186 20.745668,15.8794337 21.2491275,15.4717403 C21.752587,15.0640468 22.2912647,15.0843516 22.4642967,15.2980283 C22.6373286,15.511705 22.2402405,15.8278346 21.9928232,15.9585104 Z M14.1163769,18.1460193 C13.836601,18.1501271 13.2518807,18.0479226 13.0458514,17.8768628 C12.839822,17.705803 13.0410535,17.5093648 13.6747282,17.3746731 C14.3084029,17.2399814 14.77915,17.5026277 14.8363154,17.7715699 C14.8934809,18.0405121 14.3961529,18.1419114 14.1163769,18.1460193 Z M23.3351108,21.405563 C23.0572969,21.4388929 22.4650965,21.3983681 22.2423151,21.2497814 C22.0195338,21.1011946 22.1991296,20.8847981 22.8152538,20.6846072 C23.431378,20.4844163 23.9270004,20.6964173 24.0119648,20.9579108 C24.0969291,21.2194043 23.6129247,21.3722331 23.3351108,21.405563 Z M19.870508,21.1646986 C19.5926941,21.1980285 19.0004937,21.1575038 18.7777124,21.008917 C18.5549311,20.8603303 18.7345268,20.6439338 19.350651,20.4437429 C19.9667753,20.243552 20.4623976,20.455553 20.547362,20.7170465 C20.6323264,20.9785399 20.1483219,21.1313687 19.870508,21.1646986 Z M17.9723928,18.5288443 C18.1374855,18.3029332 18.5710031,17.897463 18.8316091,17.835867 C19.0922151,17.774271 19.1279935,18.0532011 18.8542081,18.6403357 C18.5804228,19.2274702 18.0873614,19.4453611 17.8381716,19.329162 C17.5889818,19.2129629 17.8073002,18.7547555 17.9723928,18.5288443 Z M28.0003204,17.7696093 C27.7608801,17.6248343 27.3716771,17.0551829 27.2876021,16.800937 C27.2035272,16.5466912 27.496207,15.9808196 28.1049693,16.202391 C28.7137316,16.4239624 28.996564,17.5856648 28.9025254,17.8440337 C28.8084868,18.1024027 28.2397607,17.9143843 28.0003204,17.7696093 Z M27.2888628,20.0042206 C27.0414456,20.1348964 26.5870649,20.2535754 26.3258319,20.1946954 C26.0645989,20.1358154 26.0576356,19.9767243 26.5610951,19.5690308 C27.0645546,19.1613374 27.6032324,19.1816422 27.7762643,19.3953189 C27.9492963,19.6089955 27.53628,19.8735449 27.2888628,20.0042206 Z" id="Combined-Shape" fill="#905135" fill-rule="nonzero" opacity="0.300000012" mask="url(#mask-4)"></path>
                        </g>
                        <path d="M26.186579,53.9462861 C29.2552538,53.9462861 24.6620955,44.807105 23.9869642,41.4442697 C23.3118329,38.0814344 21.5968687,36.6327846 20.828228,33.9136219 C19.5883389,29.5273591 28.1809555,25.1321633 23.7007585,24.3931679 C22.5316606,24.2003286 16.6316413,31.14751 15.8255697,32.1595228 C13.3491932,35.2685822 12.1175844,36.8610768 13.389095,42.0709947 C14.6606057,47.2809126 23.1179042,53.9462861 26.186579,53.9462861 Z" id="Oval-8" fill="#8ECC47" fill-rule="nonzero"></path>
                        <path d="M46.994051,18.5707846 C47.9529205,18.5446341 48.7815198,18.1193319 49.479849,17.2948779 C50.0582288,16.6120373 50.2271023,17.9709863 49.7164289,18.9484059 C49.3022303,19.7411745 48.324465,20.841433 47.5648073,20.841433 C46.4339711,20.841433 46.243719,20.0845502 46.994051,18.5707846 Z" id="Path-12" fill="#8ECC47" fill-rule="nonzero"></path>
                        <g id="head" transform="translate(22.822476, 18.730881) rotate(-13.000000) translate(-22.822476, -18.730881) translate(2.587182, 4.994039)">
                            <g>
                                <mask id="mask-6" fill="white">
                                    <use xlink:href="#path-5"></use>
                                </mask>
                                <use id="Oval-9" fill="#8ECC47" fill-rule="nonzero" xlink:href="#path-5"></use>
                                <path d="M10.0191693,1.23378213 C9.34160593,1.23378213 8.79233227,0.957590592 8.79233227,0.616891065 C8.79233227,0.276191537 9.34160593,0 10.0191693,0 C10.6967327,0 11.2460064,0.276191537 11.2460064,0.616891065 C11.2460064,0.957590592 10.6967327,1.23378213 10.0191693,1.23378213 Z M6.45598512,1.55704898 C5.89555766,1.62586082 5.41319205,1.4531998 5.37859136,1.17139979 C5.34399067,0.889599787 5.77025748,0.60537273 6.33068494,0.536560892 C6.89111239,0.467749053 7.37347801,0.640410075 7.4080787,0.922210079 C7.44267939,1.20401008 7.01641257,1.48823714 6.45598512,1.55704898 Z M8.37577379,2.34351308 C7.98347457,2.39168137 7.6430137,2.24797425 7.61533315,2.02253425 C7.5876526,1.79709424 7.88323443,1.5752909 8.27553365,1.52712261 C8.66783286,1.47895432 9.00829374,1.62266144 9.03597429,1.84810145 C9.06365484,2.07354145 8.76807301,2.29534479 8.37577379,2.34351308 Z" id="Combined-Shape" fill="#976544" fill-rule="nonzero" mask="url(#mask-6)"></path>
                                <path d="M2.73826753,7.88430714 C2.90553661,7.60605084 3.1512801,7.46692268 3.47549801,7.46692268" id="Path-10" stroke="#251D1E" stroke-width="0.5" stroke-linecap="round" stroke-linejoin="round" fill-rule="nonzero" mask="url(#mask-6)"></path>
                            </g>
                            <g id="mouth" transform="translate(2.453674, 10.692778)" fill-rule="nonzero">
                                <path d="M1.79780932,0.188537233 C0.291338515,0.323531628 -0.266490952,0.644430197 0.124320923,1.15123294 C0.710538735,1.91143706 1.95841938,2.71957289 2.9604401,2.846936 C3.62845392,2.93184474 4.5727675,2.94353301 5.79338085,2.88200083 L1.79780932,0.188537233 Z" id="Path-9" fill="#61160F"></path>
                                <path d="M2.27448417,1.04777637 C1.87210285,0.99860826 0.459834559,1.53540996 0.675670245,1.72053547 C1.32077082,2.27384793 2.20962477,2.75150267 2.9604401,2.846936 C3.3648791,2.89834273 3.86143488,2.91862602 4.45010745,2.90778588 C4.83374816,2.9007213 3.13911325,1.15342783 2.27448417,1.04777637 Z" id="Path-9-Copy" fill="#F7B7B2"></path>
                            </g>
                            <g id="eyes" transform="translate(7.769968, 3.495716)" fill-rule="nonzero">
                                <ellipse id="Oval-10" fill="#FFFFFF" cx="3.7827476" cy="4.31823745" rx="3.57827476" ry="4.31823745"></ellipse>
                                <ellipse id="Oval-10-Copy" fill="#34230F" transform="translate(3.578275, 4.935129) rotate(-53.000000) translate(-3.578275, -4.935129) " cx="3.57827476" cy="4.93512852" rx="2.76038339" ry="2.2619339"></ellipse>
                                <ellipse id="Oval-10-Copy-2" fill="#221B22" opacity="0.800000012" transform="translate(3.068711, 5.449198) rotate(-53.000000) translate(-3.068711, -5.449198) " cx="3.06871137" cy="5.44919778" rx="2.04472843" ry="1.54222766"></ellipse>
                                <ellipse id="Oval-11" fill="#FFFFFF" cx="5.62300319" cy="4.42105263" rx="1" ry="1"></ellipse>
                            </g>
                        </g>
                        <g id="back" transform="translate(19.719282, 11.640147)">
                            <path d="M14.8576677,17.4352205 C17.9714944,17.4352205 20.8740726,16.5079834 23.1000609,14.6800221 C26.8833517,11.5732183 29.357031,7.3464035 27.806259,6.61671129 C25.4114273,5.48985959 21.1616851,0.676653474 14.4840072,0.12066895 C7.80632929,-0.435315574 1.72468398,4.18112623 1.72468398,8.50660311 C1.72468398,9.33578605 4.81774896,10.8770144 4.27935013,11.7217014 C3.40209515,13.0980156 -0.574011506,14.2492337 0.21884729,14.5266136 C2.77217473,15.4198895 6.40261476,16.57788 7.32776569,16.8119728 C9.6611945,17.402405 13.2977787,17.4352205 14.8576677,17.4352205 Z" id="Oval-5" fill="#FCC05D" fill-rule="nonzero"></path>
                            <path d="M1.74103049,9.46506493 C1.82056927,10.5950155 3.3877159,11.5282211 6.44247036,12.2646817 C11.0246021,13.3693726 12.5902602,14.5007265 13.8461358,15.1235184 C15.1020113,15.7463103 18.6631162,17.4774418 21.2498012,15.8946409 C23.8364862,14.31184 26.0584083,12.0396999 26.7550242,11.1025481 C27.45164,10.1653964 28.5307453,8.40516419 28.1136924,7.01998476" id="Path-11" stroke="#A55C22" stroke-width="1.02614758" stroke-linecap="round" stroke-linejoin="round" fill-rule="nonzero"></path>
                            <mask id="mask-8" fill="white">
                                <use xlink:href="#path-7"></use>
                            </mask>
                            <use id="Oval-5-Copy" fill="#682D1B" fill-rule="nonzero" xlink:href="#path-7"></use>
                            <polyline id="Path-3" stroke="#581509" stroke-width="0.5" fill-rule="nonzero" mask="url(#mask-8)" points="11.1087034 14.0591052 11.3075577 10.3692887 12.8967156 3.27926303"></polyline>
                            <polyline id="Path-3-Copy" stroke="#581509" stroke-width="0.5" fill-rule="nonzero" mask="url(#mask-8)" points="5.56956358 12.3918634 7.31069981 8.27003062 8.29033563 3.84359288 6.88713476 -0.173092119"></polyline>
                            <path d="M0.735819328,5.90910097 L7.12965494,8.26918546 L11.3479385,10.4170122 L17.3082589,12.7989476 L20.6854291,10.0357054 C21.9972436,9.14387645 23.0917111,8.697962 23.9688317,8.697962 C24.5484858,7.25443311 24.1245054,5.47875734 26.0248711,3.62335506" id="Path-4" stroke="#581509" stroke-width="0.5" fill-rule="nonzero" mask="url(#mask-8)"></path>
                            <path d="M19.1372159,0.400488058 C17.7233889,1.85904197 16.9505633,2.91821205 16.818739,3.57799828 C14.8318724,3.57799828 12.2914836,2.80848244 8.20371999,3.8733808 C5.47854428,4.58331305 3.2340854,5.20823328 1.47034335,5.74814151" id="Path-5" stroke="#581509" stroke-width="0.5" fill-rule="nonzero" mask="url(#mask-8)"></path>
                            <path d="M16.8499017,3.62335506 C19.1106647,6.32954916 20.4088776,8.46822004 20.7445404,10.0393677 C21.2480346,12.3960892 23.3561981,11.9492826 22.1816578,15.7307987" id="Path-6" stroke="#581509" stroke-width="0.5" fill-rule="nonzero" mask="url(#mask-8)"></path>
                            <path d="M17.3021102,12.8909289 C17.6777395,13.2782927 17.8655541,13.9323976 17.8655541,14.8532436 C17.8655541,15.7740895 17.4344003,16.5097521 16.5720925,17.0602313" id="Path-7" stroke="#581509" stroke-width="0.5" fill-rule="nonzero" mask="url(#mask-8)"></path>
                            <path d="M23.9214588,8.74965746 C25.1444899,9.70196208 25.7560055,10.6536093 25.7560055,11.6045993 C25.7560055,12.5555892 25.7560055,13.2466932 25.7560055,13.6779113" id="Path-8" stroke="#581509" stroke-width="0.5" fill-rule="nonzero" mask="url(#mask-8)"></path>
                        </g>
                    </g>
                </g>
            </g>
        </g>
    </g>
</svg>