<?xml version="1.0" encoding="UTF-8"?>
<svg width="120px" height="80px" viewBox="0 0 120 80" version="1.1" xmlns="http://www.w3.org/2000/svg" xmlns:xlink="http://www.w3.org/1999/xlink">
    <!-- Generator: Sketch 51.3 (57544) - http://www.bohemiancoding.com/sketch -->
    <title>Logo</title>
    <desc>Created with Sketch.</desc>
    <defs>
        <path d="M11.8981747,10.9659197 C17.2745175,12.069908 23.6385354,3.76597582 23.6385354,1.15394611 C23.6385354,-1.4580836 13.7661968,1.9212218 11.8981747,2.25563602 C11.0235232,2.41221654 8.23867173,4.35736653 5.65851314,5.0238426 C2.72814158,5.78078154 0.0251845178,5.33160472 0.0251845178,6.72062126 C0.0251845178,8.24544995 1.61510783,7.81466531 4.52774312,8.44861959 C6.60444858,8.90062822 9.66038792,10.5064084 11.8981747,10.9659197 Z" id="path-1"></path>
        <path d="M11.6118614,20.1329379 C17.9740472,22.005195 28.7147171,21.328818 28.7147171,17.9263056 C28.7147171,14.5237932 19.9134383,11.9631808 14.1647519,11.2830613 C11.6669715,10.9875523 8.51026162,9.75832129 6.0319578,9.60915544 C4.64559478,9.52571207 3.0035348,0.927380077 0.550141575,0.0131777425 C-0.687676969,-0.448067765 0.550141575,11.3451791 0.550141575,12.4423097 C0.550141575,15.8448221 5.24967561,18.2606807 11.6118614,20.1329379 Z" id="path-3"></path>
        <path d="M8.25643958,13.5754465 C7.66179651,13.4817786 4.68755941,11.8359099 2.98365211,11.3105338 C1.88697831,10.9723897 1.65696416,11.4703857 1.54984675,11.776542 C1.31996568,12.4335738 3.84973022,14.9727934 5.81549714,15.4106842 C6.50452744,15.5641714 7.83614465,15.1548327 9.42080319,15.7045816 C11.0933776,16.2848303 13.1203438,18.7524945 14.9485954,19.8130225 C17.7764861,21.4534188 22.1222301,24.5648846 25.4101974,25.3282688 C25.628717,25.3790036 28.9204311,26.6311981 32.1289494,26.7744604 C35.7394072,26.9356694 37.4988265,25.8548942 39.4142213,24.7052495 C41.2332784,23.6134279 26.5874246,16.4023885 26.608727,16.3938096 C27.7850147,15.9200947 19.865451,17.7898921 18.4427691,15.7045816 C17.416076,14.1996958 18.2199309,12.4489253 18.3644912,11.1642307 C18.8330417,7.00026512 17.5699829,4.18434117 12.0082313,0.782351183 C6.44647958,-2.61963881 -2.82544544,6.6556217 0.906652295,8.83011575 C4.63875003,11.0046098 6.12864096,12.2036418 8.25643958,13.5754465 Z" id="path-5"></path>
        <path d="M14.4840072,15.3930891 C16.1473961,16.2844915 19.0693076,16.9410702 20.8857775,16.0492575 C26.3403576,13.3712811 29.6028085,7.46205039 27.806259,6.61671129 C25.4114273,5.48985959 21.1616851,0.676653474 14.4840072,0.12066895 C7.80632929,-0.435315574 1.11998746,3.73685582 1.65076407,9.07508547 C2.88501849,12.3712351 5.62721739,10.6467766 14.4840072,15.3930891 Z" id="path-7"></path>
    </defs>
    <g id="Logo" stroke="none" stroke-width="1" fill="none" fill-rule="evenodd">
        <g id="Group-11" transform="translate(0.000000, -20.000000)">
            <path d="M60,120 C26.862915,120 0,93.137085 0,60 C0,26.862915 26.862915,0 60,0 C93.137085,0 120,26.862915 120,60 C120,93.137085 93.137085,120 60,120 Z" id="Oval-Copy-12" fill="#055077" fill-rule="nonzero"></path>
            <g id="Group-2" transform="translate(17.000000, 25.000000)">
                <text id="Zero-Waste-Challenge" font-family="RoundedMplus1c-Bold, Rounded Mplus 1c Bold" font-size="8" font-weight="bold" line-spacing="25" letter-spacing="0.05" fill="#FFFFFF">
                    <tspan x="0" y="59">Zero-Waste Challenge</tspan>
                </text>
                <g id="Group-4" transform="translate(10.000000, 0.000000)">
                    <g id="Group-7-Copy">
                        <g id="Group-8" transform="translate(40.088531, 18.983315)">
                            <mask id="mask-2" fill="white">
                                <use xlink:href="#path-1"></use>
                            </mask>
                            <use id="Oval-6" fill="#8ECC47" fill-rule="nonzero" xlink:href="#path-1"></use>
                            <path d="M19.2475487,2.86833864 C18.5520151,3.15269321 17.5415537,3.0615995 17.4060702,2.70865294 C17.2705867,2.35570639 17.8316781,1.81204371 18.6593028,1.49434835 C19.4869275,1.17665299 20.2676809,1.20522973 20.4031644,1.55817628 C20.5386479,1.91112283 19.9430822,2.58398406 19.2475487,2.86833864 Z M13.7631679,4.18687996 C13.1981048,4.68218607 12.2130375,4.92502933 11.9700272,4.63542092 C11.7270169,4.3458125 11.7091236,3.21608888 12.3882266,2.64625377 C13.0673296,2.07641866 14.1862666,2.28225703 14.4292769,2.57186544 C14.6722872,2.86147385 14.328231,3.69157386 13.7631679,4.18687996 Z M16.9052566,7.13803868 C16.4246334,7.71564209 15.0759493,7.66065452 14.7906261,7.41262686 C14.5053029,7.16459919 14.745483,6.42115712 15.3270833,5.7521025 C15.9086836,5.08304789 16.6114639,4.74173811 16.8967871,4.98976577 C17.1821103,5.23779343 17.3858799,6.56043527 16.9052566,7.13803868 Z M20.1888108,7.00938495 C19.3611861,7.32708031 18.2740235,5.96031422 18.1508567,5.63945371 C18.0276899,5.31859321 18.2415631,4.11340269 19.0691878,3.79570733 C19.8968125,3.47801197 20.6273854,3.92025773 20.7362213,4.4133704 C20.8450572,4.90648308 21.0164355,6.69168959 20.1888108,7.00938495 Z M16.8880113,1.60362048 C16.5801569,2.05456702 15.7558464,2.09280746 15.4936454,1.90765124 C15.2314443,1.72249501 15.3681997,1.39983822 15.9323502,0.942998184 C16.4965006,0.486158148 17.1173154,0.230099869 17.3452948,0.511630996 C17.5732742,0.793162124 17.1958658,1.15267393 16.8880113,1.60362048 Z M16.5277277,3.81142237 C16.2803105,3.94209811 15.712921,4.11649062 15.4516879,4.05761062 C15.1904549,3.99873062 15.2805724,3.73234573 15.7840319,3.32465225 C16.2874915,2.91695877 16.8261692,2.93726362 16.9992011,3.15094029 C17.1722331,3.36461695 16.7751449,3.68074662 16.5277277,3.81142237 Z M17.702583,9.05757549 C17.4247691,9.0909054 16.8325687,9.05038063 16.6097873,8.90179387 C16.387006,8.75320711 16.5666018,8.53681061 17.182726,8.33661972 C17.7988502,8.13642882 18.2944726,8.34842986 18.379437,8.60992332 C18.4644013,8.87141678 17.9803969,9.02424559 17.702583,9.05757549 Z M12.4103859,6.27907898 C12.5754786,6.05316781 13.0089962,5.6476977 13.2696022,5.58610166 C13.5302082,5.52450563 13.5659866,5.8034357 13.2922012,6.3905703 C13.0184159,6.9777049 12.5253545,7.1955958 12.2761647,7.07939669 C12.0269749,6.96319759 12.2452933,6.50499014 12.4103859,6.27907898 Z M22.2778124,0.967490715 C22.0303951,1.09816646 21.3416541,1.13838638 21.0804211,1.07950639 C20.8191881,1.02062639 20.4848827,0.478305465 20.9883422,0.0706119867 C21.4918017,-0.337081492 22.6332445,0.0188048133 22.8062765,0.232481481 C22.9793084,0.446158148 22.5252296,0.83681497 22.2778124,0.967490715 Z M22.5904677,2.68063302 C22.3430505,2.81130876 21.8886699,2.92998779 21.6274368,2.87110779 C21.3662038,2.81222779 21.3592405,2.65313671 21.8627,2.24544323 C22.3661595,1.83774975 22.9048373,1.8580546 23.0778692,2.07173127 C23.2509012,2.28540794 22.837885,2.54995727 22.5904677,2.68063302 Z" id="Combined-Shape" fill="#905135" fill-rule="nonzero" opacity="0.300000012" mask="url(#mask-2)"></path>
                        </g>
                        <g id="Group-9" transform="translate(26.581470, 24.800490)">
                            <mask id="mask-4" fill="white">
                                <use xlink:href="#path-3"></use>
                            </mask>
                            <use id="Oval-7" fill="#8ECC47" fill-rule="nonzero" xlink:href="#path-3"></use>
                            <path d="M24.2619863,15.1549475 C23.5593759,14.8885585 22.882497,14.1328037 23.0241196,13.7822755 C23.1657422,13.4317472 23.9468755,13.4168008 24.7688296,13.7488918 C25.5907837,14.0809828 26.1423014,14.6343551 26.0006787,14.9848834 C25.8590561,15.3354117 24.9645967,15.4213364 24.2619863,15.1549475 Z M18.3244113,16.3155004 C17.7593483,16.8108065 16.774281,17.0536498 16.5312707,16.7640414 C16.2882604,16.4744329 16.270367,15.3447093 16.9494701,14.7748742 C17.6285731,14.2050391 18.74751,14.4108775 18.9905203,14.7004859 C19.2335306,14.9900943 18.8894744,15.8201943 18.3244113,16.3155004 Z M22.4672635,19.387804 C21.9866403,19.9654074 20.6379562,19.9104199 20.352633,19.6623922 C20.0673098,19.4143645 20.3074899,18.6709225 20.8890902,18.0018678 C21.4706905,17.3328132 22.1734708,16.9915035 22.458794,17.2395311 C22.7441172,17.4875588 22.9478868,18.8102006 22.4672635,19.387804 Z M25.7508177,19.2591503 C24.923193,19.5768457 23.8360304,18.2100796 23.7128636,17.8892191 C23.5896968,17.5683586 23.80357,16.363168 24.6311947,16.0454727 C25.4588194,15.7277773 26.1893923,16.1700231 26.2982282,16.6631358 C26.4070641,17.1562484 26.5784424,18.9414549 25.7508177,19.2591503 Z M21.0046104,13.8725844 C20.3478112,14.0128784 19.5885529,13.3293321 19.5157034,12.9331527 C19.4428539,12.5369734 19.8391854,12.3638262 20.7269291,12.4414937 C21.6146728,12.5191612 22.3807437,12.8280874 22.3410527,13.2817573 C22.3013617,13.7354273 21.6614096,13.7322905 21.0046104,13.8725844 Z M15.4838436,20.8088833 C14.8270445,20.9491773 14.0677862,20.265631 13.9949366,19.8694516 C13.9220871,19.4732723 14.3184186,19.3001251 15.2061623,19.3777926 C16.093906,19.4554601 16.8599769,19.7643862 16.820286,20.2180562 C16.780595,20.6717262 16.1406428,20.6685894 15.4838436,20.8088833 Z M21.9928232,15.9585104 C21.745406,16.0891861 21.1780165,16.2635786 20.9167835,16.2046986 C20.6555504,16.1458186 20.745668,15.8794337 21.2491275,15.4717403 C21.752587,15.0640468 22.2912647,15.0843516 22.4642967,15.2980283 C22.6373286,15.511705 22.2402405,15.8278346 21.9928232,15.9585104 Z M14.1163769,18.1460193 C13.836601,18.1501271 13.2518807,18.0479226 13.0458514,17.8768628 C12.839822,17.705803 13.0410535,17.5093648 13.6747282,17.3746731 C14.3084029,17.2399814 14.77915,17.5026277 14.8363154,17.7715699 C14.8934809,18.0405121 14.3961529,18.1419114 14.1163769,18.1460193 Z M23.3351108,21.405563 C23.0572969,21.4388929 22.4650965,21.3983681 22.2423151,21.2497814 C22.0195338,21.1011946 22.1991296,20.8847981 22.8152538,20.6846072 C23.431378,20.4844163 23.9270004,20.6964173 24.0119648,20.9579108 C24.0969291,21.2194043 23.6129247,21.3722331 23.3351108,21.405563 Z M19.870508,21.1646986 C19.5926941,21.1980285 19.0004937,21.1575038 18.7777124,21.008917 C18.5549311,20.8603303 18.7345268,20.6439338 19.350651,20.4437429 C19.9667753,20.243552 20.4623976,20.455553 20.547362,20.7170465 C20.6323264,20.9785399 20.1483219,21.1313687 19.870508,21.1646986 Z M17.9723928,18.5288443 C18.1374855,18.3029332 18.5710031,17.897463 18.8316091,17.835867 C19.0922151,17.774271 19.1279935,18.0532011 18.8542081,18.6403357 C18.5804228,19.2274702 18.0873614,19.4453611 17.8381716,19.329162 C17.5889818,19.2129629 17.8073002,18.7547555 17.9723928,18.5288443 Z M28.0003204,17.7696093 C27.7608801,17.6248343 27.3716771,17.0551829 27.2876021,16.800937 C27.2035272,16.5466912 27.496207,15.9808196 28.1049693,16.202391 C28.7137316,16.4239624 28.996564,17.5856648 28.9025254,17.8440337 C28.8084868,18.1024027 28.2397607,17.9143843 28.0003204,17.7696093 Z M27.2888628,20.0042206 C27.0414456,20.1348964 26.5870649,20.2535754 26.3258319,20.1946954 C26.0645989,20.1358154 26.0576356,19.9767243 26.5610951,19.5690308 C27.0645546,19.1613374 27.6032324,19.1816422 27.7762643,19.3953189 C27.9492963,19.6089955 27.53628,19.8735449 27.2888628,20.0042206 Z" id="Combined-Shape" fill="#905135" fill-rule="nonzero" opacity="0.300000012" mask="url(#mask-4)"></path>
                        </g>
                        <path d="M26.186579,53.9462861 C29.2552538,53.9462861 24.6620955,44.807105 23.9869642,41.4442697 C23.3118329,38.0814344 21.5968687,36.6327846 20.828228,33.9136219 C19.5883389,29.5273591 28.1809555,25.1321633 23.7007585,24.3931679 C22.5316606,24.2003286 16.6316413,31.14751 15.8255697,32.1595228 C13.3491932,35.2685822 12.1175844,36.8610768 13.389095,42.0709947 C14.6606057,47.2809126 23.1179042,53.9462861 26.186579,53.9462861 Z" id="Oval-8" fill="#8ECC47" fill-rule="nonzero"></path>
                        <path d="M46.994051,18.5707846 C47.9529205,18.5446341 48.7815198,18.1193319 49.479849,17.2948779 C50.0582288,16.6120373 50.2271023,17.9709863 49.7164289,18.9484059 C49.3022303,19.7411745 48.324465,20.841433 47.5648073,20.841433 C46.4339711,20.841433 46.243719,20.0845502 46.994051,18.5707846 Z" id="Path-12" fill="#8ECC47" fill-rule="nonzero"></path>
                        <g id="head" transform="translate(22.822476, 18.730881) rotate(-13.000000) translate(-22.822476, -18.730881) translate(2.587182, 4.994039)">
                            <g>
                                <mask id="mask-6" fill="white">
                                    <use xlink:href="#path-5"></use>
                                </mask>
                                <use id="Oval-9" fill="#8ECC47" fill-rule="nonzero" xlink:href="#path-5"></use>
                                <path d="M10.0191693,1.23378213 C9.34160593,1.23378213 8.79233227,0.957590592 8.79233227,0.616891065 C8.79233227,0.276191537 9.34160593,0 10.0191693,0 C10.6967327,0 11.2460064,0.276191537 11.2460064,0.616891065 C11.2460064,0.957590592 10.6967327,1.23378213 10.0191693,1.23378213 Z M6.45598512,1.55704898 C5.89555766,1.62586082 5.41319205,1.4531998 5.37859136,1.17139979 C5.34399067,0.889599787 5.77025748,0.60537273 6.33068494,0.536560892 C6.89111239,0.467749053 7.37347801,0.640410075 7.4080787,0.922210079 C7.44267939,1.20401008 7.01641257,1.48823714 6.45598512,1.55704898 Z M8.37577379,2.34351308 C7.98347457,2.39168137 7.6430137,2.24797425 7.61533315,2.02253425 C7.5876526,1.79709424 7.88323443,1.5752909 8.27553365,1.52712261 C8.66783286,1.47895432 9.00829374,1.62266144 9.03597429,1.84810145 C9.06365484,2.07354145 8.76807301,2.29534479 8.37577379,2.34351308 Z" id="Combined-Shape" fill="#976544" fill-rule="nonzero" mask="url(#mask-6)"></path>
                                <path d="M2.73826753,7.88430714 C2.90553661,7.60605084 3.1512801,7.46692268 3.47549801,7.46692268" id="Path-10" stroke="#251D1E" stroke-width="0.5" stroke-linecap="round" stroke-linejoin="round" fill-rule="nonzero" mask="url(#mask-6)"></path>
                            </g>
                            <g id="mouth" transform="translate(2.453674, 10.692778)" fill-rule="nonzero">
                                <path d="M1.79780932,0.188537233 C0.291338515,0.323531628 -0.266490952,0.644430197 0.124320923,1.15123294 C0.710538735,1.91143706 1.95841938,2.71957289 2.9604401,2.846936 C3.62845392,2.93184474 4.5727675,2.94353301 5.79338085,2.88200083 L1.79780932,0.188537233 Z" id="Path-9" fill="#61160F"></path>
                                <path d="M2.27448417,1.04777637 C1.87210285,0.99860826 0.459834559,1.53540996 0.675670245,1.72053547 C1.32077082,2.27384793 2.20962477,2.75150267 2.9604401,2.846936 C3.3648791,2.89834273 3.86143488,2.91862602 4.45010745,2.90778588 C4.83374816,2.9007213 3.13911325,1.15342783 2.27448417,1.04777637 Z" id="Path-9-Copy" fill="#F7B7B2"></path>
                            </g>
                            <g id="eyes" transform="translate(7.769968, 3.495716)" fill-rule="nonzero">
                                <ellipse id="Oval-10" fill="#FFFFFF" cx="3.7827476" cy="4.31823745" rx="3.57827476" ry="4.31823745"></ellipse>
                                <ellipse id="Oval-10-Copy" fill="#34230F" transform="translate(3.578275, 4.935129) rotate(-53.000000) translate(-3.578275, -4.935129) " cx="3.57827476" cy="4.93512852" rx="2.76038339" ry="2.2619339"></ellipse>
                                <ellipse id="Oval-10-Copy-2" fill="#221B22" opacity="0.800000012" transform="translate(3.068711, 5.449198) rotate(-53.000000) translate(-3.068711, -5.449198) " cx="3.06871137" cy="5.44919778" rx="2.04472843" ry="1.54222766"></ellipse>
                                <ellipse id="Oval-11" fill="#FFFFFF" cx="5.62300319" cy="4.42105263" rx="1" ry="1"></ellipse>
                            </g>
                        </g>
                        <g id="back" transform="translate(19.719282, 11.640147)">
                            <path d="M14.8576677,17.4352205 C17.9714944,17.4352205 20.8740726,16.5079834 23.1000609,14.6800221 C26.8833517,11.5732183 29.357031,7.3464035 27.806259,6.61671129 C25.4114273,5.48985959 21.1616851,0.676653474 14.4840072,0.12066895 C7.80632929,-0.435315574 1.72468398,4.18112623 1.72468398,8.50660311 C1.72468398,9.33578605 4.81774896,10.8770144 4.27935013,11.7217014 C3.40209515,13.0980156 -0.574011506,14.2492337 0.21884729,14.5266136 C2.77217473,15.4198895 6.40261476,16.57788 7.32776569,16.8119728 C9.6611945,17.402405 13.2977787,17.4352205 14.8576677,17.4352205 Z" id="Oval-5" fill="#FCC05D" fill-rule="nonzero"></path>
                            <path d="M1.74103049,9.46506493 C1.82056927,10.5950155 3.3877159,11.5282211 6.44247036,12.2646817 C11.0246021,13.3693726 12.5902602,14.5007265 13.8461358,15.1235184 C15.1020113,15.7463103 18.6631162,17.4774418 21.2498012,15.8946409 C23.8364862,14.31184 26.0584083,12.0396999 26.7550242,11.1025481 C27.45164,10.1653964 28.5307453,8.40516419 28.1136924,7.01998476" id="Path-11" stroke="#A55C22" stroke-width="1.02614758" stroke-linecap="round" stroke-linejoin="round" fill-rule="nonzero"></path>
                            <mask id="mask-8" fill="white">
                                <use xlink:href="#path-7"></use>
                            </mask>
                            <use id="Oval-5-Copy" fill="#682D1B" fill-rule="nonzero" xlink:href="#path-7"></use>
                            <polyline id="Path-3" stroke="#581509" stroke-width="0.5" fill-rule="nonzero" mask="url(#mask-8)" points="11.1087034 14.0591052 11.3075577 10.3692887 12.8967156 3.27926303"></polyline>
                            <polyline id="Path-3-Copy" stroke="#581509" stroke-width="0.5" fill-rule="nonzero" mask="url(#mask-8)" points="5.56956358 12.3918634 7.31069981 8.27003062 8.29033563 3.84359288 6.88713476 -0.173092119"></polyline>
                            <path d="M0.735819328,5.90910097 L7.12965494,8.26918546 L11.3479385,10.4170122 L17.3082589,12.7989476 L20.6854291,10.0357054 C21.9972436,9.14387645 23.0917111,8.697962 23.9688317,8.697962 C24.5484858,7.25443311 24.1245054,5.47875734 26.0248711,3.62335506" id="Path-4" stroke="#581509" stroke-width="0.5" fill-rule="nonzero" mask="url(#mask-8)"></path>
                            <path d="M19.1372159,0.400488058 C17.7233889,1.85904197 16.9505633,2.91821205 16.818739,3.57799828 C14.8318724,3.57799828 12.2914836,2.80848244 8.20371999,3.8733808 C5.47854428,4.58331305 3.2340854,5.20823328 1.47034335,5.74814151" id="Path-5" stroke="#581509" stroke-width="0.5" fill-rule="nonzero" mask="url(#mask-8)"></path>
                            <path d="M16.8499017,3.62335506 C19.1106647,6.32954916 20.4088776,8.46822004 20.7445404,10.0393677 C21.2480346,12.3960892 23.3561981,11.9492826 22.1816578,15.7307987" id="Path-6" stroke="#581509" stroke-width="0.5" fill-rule="nonzero" mask="url(#mask-8)"></path>
                            <path d="M17.3021102,12.8909289 C17.6777395,13.2782927 17.8655541,13.9323976 17.8655541,14.8532436 C17.8655541,15.7740895 17.4344003,16.5097521 16.5720925,17.0602313" id="Path-7" stroke="#581509" stroke-width="0.5" fill-rule="nonzero" mask="url(#mask-8)"></path>
                            <path d="M23.9214588,8.74965746 C25.1444899,9.70196208 25.7560055,10.6536093 25.7560055,11.6045993 C25.7560055,12.5555892 25.7560055,13.2466932 25.7560055,13.6779113" id="Path-8" stroke="#581509" stroke-width="0.5" fill-rule="nonzero" mask="url(#mask-8)"></path>
                        </g>
                    </g>
                </g>
            </g>
        </g>
    </g>
</svg>