<?xml version="1.0" encoding="UTF-8"?>
<svg width="120px" height="80px" viewBox="0 0 120 80" version="1.1" xmlns="http://www.w3.org/2000/svg" xmlns:xlink="http://www.w3.org/1999/xlink">
    <!-- Generator: Sketch 51.3 (57544) - http://www.bohemiancoding.com/sketch -->
    <title>Logo</title>
    <desc>Created with Sketch.</desc>
    <defs>
        <path d="M11.8981747,10.9659197 C17.2745175,12.069908 23.6385354,3.76597582 23.6385354,1.15394611 C23.6385354,-1.4580836 13.7661968,1.9212218 11.8981747,2.25563602 C11.0235232,2.41221654 8.23867173,4.35736653 5.65851314,5.0238426 C2.72814158,5.78078154 0.0251845178,5.33160472 0.0251845178,6.72062126 C0.0251845178,8.24544995 1.61510783,7.81466531 4.52774312,8.44861959 C6.60444858,8.90062822 9.66038792,10.5064084 11.8981747,10.9659197 Z" id="path-1"></path>
        <path d="M11.6118614,20.1329379 C17.9740472,22.005195 28.7147171,21.328818 28.7147171,17.9263056 C28.7147171,14.5237932 19.9134383,11.9631808 14.1647519,11.2830613 C11.6669715,10.9875523 8.51026162,9.75832129 6.0319578,9.60915544 C4.64559478,9.52571207 3.0035348,0.927380077 0.550141575,0.0131777425 C-0.687676969,-0.448067765 0.550141575,11.3451791 0.550141575,12.4423097 C0.550141575,15.8448221 5.24967561,18.2606807 11.6118614,20.1329379 Z" id="path-3"></path>
        <path d="M8.25643958,13.5754465 C7.66179651,13.4817786 4.68755941,11.8359099 2.98365211,11.3105338 C1.88697831,10.9723897 1.65696416,11.4703857 1.54984675,11.776542 C1.31996568,12.4335738 3.84973022,14.9727934 5.81549714,15.4106842 C6.50452744,15.5641714 7.83614465,15.1548327 9.42080319,15.7045816 C11.0933776,16.2848303 13.1203438,18.7524945 14.9485954,19.8130225 C17.7764861,21.4534188 22.1222301,24.5648846 25.4101974,25.3282688 C25.628717,25.3790036 28.9204311,26.6311981 32.1289494,26.7744604 C35.7394072,26.9356694 37.4988265,25.8548942 39.4142213,24.7052495 C41.2332784,23.6134279 26.5874246,16.4023885 26.608727,16.3938096 C27.7850147,15.9200947 19.865451,17.7898921 18.4427691,15.7045816 C17.416076,14.1996958 18.2199309,12.4489253 18.3644912,11.1642307 C18.8330417,7.00026512 17.5699829,4.18434117 12.0082313,0.782351183 C6.44647958,-2.61963881 -2.82544544,6.6556217 0.906652295,8.83011575 C4.63875003,11.0046098 6.12864096,12.2036418 8.25643958,13.5754465 Z" id="path-5"></path>
        <path d="M14.4840072,15.3930891 C16.1473961,16.2844915 19.0693076,16.9410702 20.8857775,16.0492575 C26.3403576,13.3712811 29.6028085,7.46205039 27.806259,6.61671129 C25.4114273,5.48985959 21.1616851,0.676653474 14.4840072,0.12066895 C7.80632929,-0.435315574 1.11998746,3.73685582 1.65076407,9.07508547 C2.88501849,12.3712351 5.62721739,10.6467766 14.4840072,15.3930891 Z" id="path-7"></path>
    </defs>
    <g id="Logo" stroke="none" stroke-width="1" fill="none" fill-rule="evenodd">
        <g id="Group-11" transform="translate(0.000000, -20.000000)">
            <path d="M60,120 C26.862915,120 0,93.137085 0,60 C0,26.862915 26.862915,0 60,0 C93.137085,0 120,26.862915 120,60 C120,93.137085 93.137085,120 60,120 Z" id="Oval-Copy-12" fill="#055077" fill-rule="nonzero"></path>
            <g id="Group-2" transform="translate(17.000000, 25.000000)">
                <path d="M1.04,64.712 L3.424,61.088 L3.424,61.08 L3.432,61.072 C3.432,61.0666666 3.42933336,61.064 3.424,61.064 L1.248,61.064 C1.12533272,61.064 1.01866712,61.0200004 0.928,60.932 C0.83733288,60.8439996 0.792,60.7386673 0.792,60.616 C0.792,60.4933327 0.83733288,60.3866671 0.928,60.296 C1.01866712,60.2053329 1.12533272,60.16 1.248,60.16 L4.288,60.16 C4.41066728,60.16 4.51733288,60.2053329 4.608,60.296 C4.69866712,60.3866671 4.744,60.4933327 4.744,60.616 C4.744,60.9146682 4.66133416,61.1919987 4.496,61.448 L2.112,65.072 L2.112,65.08 L2.104,65.088 C2.104,65.0933334 2.10666664,65.096 2.112,65.096 L4.288,65.096 C4.41066728,65.096 4.51733288,65.1399996 4.608,65.228 C4.69866712,65.3160004 4.744,65.4213327 4.744,65.544 C4.744,65.6666673 4.69866712,65.7733329 4.608,65.864 C4.51733288,65.9546671 4.41066728,66 4.288,66 L1.248,66 C1.12533272,66 1.01866712,65.9546671 0.928,65.864 C0.83733288,65.7733329 0.792,65.6666673 0.792,65.544 C0.792,65.2453318 0.87466584,64.9680013 1.04,64.712 Z M7.354,62.504 C7.08199864,62.504 6.8726674,62.5799992 6.726,62.732 C6.5793326,62.8840008 6.48733352,63.1279983 6.45,63.464 C6.45,63.5066669 6.47133312,63.528 6.514,63.528 L8.082,63.528 C8.12466688,63.528 8.146,63.5066669 8.146,63.464 C8.12466656,62.8239968 7.8606692,62.504 7.354,62.504 Z M7.554,66.08 C6.85532984,66.08 6.31800188,65.8973352 5.942,65.532 C5.56599812,65.1666648 5.378,64.6293369 5.378,63.92 C5.378,63.2159965 5.54599832,62.6800018 5.882,62.312 C6.21800168,61.9439982 6.70333016,61.76 7.338,61.76 C8.52200592,61.76 9.12999984,62.4319933 9.162,63.776 C9.16733336,63.9040006 9.12200048,64.0106662 9.026,64.096 C8.92999952,64.1813338 8.81800064,64.224 8.69,64.224 L6.506,64.224 C6.45799976,64.224 6.43933328,64.2479998 6.45,64.296 C6.48733352,64.6533351 6.605999,64.9133325 6.806,65.076 C7.006001,65.2386675 7.29799808,65.32 7.682,65.32 C7.9220012,65.32 8.1886652,65.2800004 8.482,65.2 C8.57800048,65.1733332 8.66733292,65.189333 8.75,65.248 C8.83266708,65.306667 8.874,65.3866662 8.874,65.488 C8.874,65.6106673 8.83800036,65.7186662 8.766,65.812 C8.69399964,65.9053338 8.59933392,65.9626666 8.482,65.984 C8.18333184,66.0480003 7.8740016,66.08 7.554,66.08 Z M10.532,66 C10.4093327,66 10.3026671,65.9546671 10.212,65.864 C10.1213329,65.7733329 10.076,65.6666673 10.076,65.544 L10.076,62.296 C10.076,62.1733327 10.1213329,62.0666671 10.212,61.976 C10.3026671,61.8853329 10.4093327,61.84 10.532,61.84 L10.692,61.84 C10.8146673,61.84 10.9213329,61.8853329 11.012,61.976 C11.1026671,62.0666671 11.148,62.1733327 11.148,62.296 L11.148,62.632 C11.148,62.6373334 11.1506666,62.64 11.156,62.64 C11.1666667,62.64 11.172,62.6373334 11.172,62.632 C11.3266674,62.4186656 11.5293321,62.2440007 11.78,62.108 C12.0306679,61.9719993 12.3053318,61.8880002 12.604,61.856 C12.7160006,61.8453333 12.8119996,61.8813329 12.892,61.964 C12.9720004,62.0466671 13.012,62.1439994 13.012,62.256 C13.012,62.3680006 12.9720004,62.4639996 12.892,62.544 C12.8119996,62.6240004 12.7160006,62.6693333 12.604,62.68 C11.6599953,62.754667 11.188,63.2346622 11.188,64.12 L11.188,65.544 C11.188,65.6666673 11.1426671,65.7733329 11.052,65.864 C10.9613329,65.9546671 10.8546673,66 10.732,66 L10.532,66 Z M15.59,62.536 C15.2753318,62.536 15.0393341,62.6466656 14.882,62.868 C14.7246659,63.0893344 14.646,63.4399976 14.646,63.92 C14.646,64.4000024 14.7246659,64.7506656 14.882,64.972 C15.0393341,65.1933344 15.2753318,65.304 15.59,65.304 C15.9046682,65.304 16.1406659,65.1933344 16.298,64.972 C16.4553341,64.7506656 16.534,64.4000024 16.534,63.92 C16.534,63.4399976 16.4553341,63.0893344 16.298,62.868 C16.1406659,62.6466656 15.9046682,62.536 15.59,62.536 Z M15.59,66.08 C14.9499968,66.08 14.4526684,65.8920019 14.098,65.516 C13.7433316,65.1399981 13.566,64.6080034 13.566,63.92 C13.566,63.2319966 13.7433316,62.7000019 14.098,62.324 C14.4526684,61.9479981 14.9499968,61.76 15.59,61.76 C16.2300032,61.76 16.7273316,61.9479981 17.082,62.324 C17.4366684,62.7000019 17.614,63.2319966 17.614,63.92 C17.614,64.6080034 17.4366684,65.1399981 17.082,65.516 C16.7273316,65.8920019 16.2300032,66.08 15.59,66.08 Z M19.04,64.104 C18.9226661,64.104 18.8213338,64.0626671 18.736,63.98 C18.6506662,63.8973329 18.608,63.7973339 18.608,63.68 C18.608,63.5626661 18.6506662,63.4626671 18.736,63.38 C18.8213338,63.2973329 18.9226661,63.256 19.04,63.256 L20.848,63.256 C20.9653339,63.256 21.0666662,63.2973329 21.152,63.38 C21.2373338,63.4626671 21.28,63.5626661 21.28,63.68 C21.28,63.7973339 21.2373338,63.8973329 21.152,63.98 C21.0666662,64.0626671 20.9653339,64.104 20.848,64.104 L19.04,64.104 Z M22.922,65.56 L22.122,62.28 C22.0953332,62.1679994 22.1179996,62.0666671 22.19,61.976 C22.2620004,61.8853329 22.3539994,61.84 22.466,61.84 L22.666,61.84 C22.799334,61.84 22.9166662,61.8826662 23.018,61.968 C23.1193338,62.0533338 23.1806666,62.1599994 23.202,62.288 L23.698,65.112 C23.698,65.1173334 23.7006666,65.12 23.706,65.12 C23.7166667,65.12 23.722,65.1173334 23.722,65.112 L24.226,62.288 C24.2526668,62.1599994 24.3166662,62.0533338 24.418,61.968 C24.5193338,61.8826662 24.6339994,61.84 24.762,61.84 L25.162,61.84 C25.295334,61.84 25.4126662,61.8826662 25.514,61.968 C25.6153338,62.0533338 25.6766666,62.1599994 25.698,62.288 L26.202,65.112 C26.202,65.1173334 26.2073333,65.12 26.218,65.12 C26.2233334,65.12 26.226,65.1173334 26.226,65.112 L26.722,62.288 C26.7486668,62.1599994 26.8126662,62.0533338 26.914,61.968 C27.0153338,61.8826662 27.1299994,61.84 27.258,61.84 L27.426,61.84 C27.5433339,61.84 27.6379996,61.8853329 27.71,61.976 C27.7820004,62.0666671 27.8020002,62.1679994 27.77,62.28 L26.97,65.56 C26.9379998,65.6880006 26.8700005,65.7933329 26.766,65.876 C26.6619995,65.9586671 26.543334,66 26.41,66 L26.01,66 C25.8819994,66 25.7673338,65.9573338 25.666,65.872 C25.5646662,65.7866662 25.5006668,65.6800006 25.474,65.552 L24.954,62.808 C24.954,62.8026666 24.9513334,62.8 24.946,62.8 C24.9406666,62.8 24.938,62.8026666 24.938,62.808 L24.418,65.552 C24.3966666,65.6800006 24.3353338,65.7866662 24.234,65.872 C24.1326662,65.9573338 24.015334,66 23.882,66 L23.482,66 C23.3539994,66 23.2366672,65.9586671 23.13,65.876 C23.0233328,65.7933329 22.9540002,65.6880006 22.922,65.56 Z M30.58,64 C29.8173295,64 29.436,64.2346643 29.436,64.704 C29.436,64.8746675 29.4853328,65.0133328 29.584,65.12 C29.6826672,65.2266672 29.8093326,65.28 29.964,65.28 C30.2680015,65.28 30.5133324,65.1853343 30.7,64.996 C30.8866676,64.8066657 30.98,64.5466683 30.98,64.216 L30.98,64.072 C30.98,64.0239998 30.9560002,64 30.908,64 L30.58,64 Z M29.676,66.08 C29.3133315,66.08 29.0133345,65.9613345 28.776,65.724 C28.5386655,65.4866655 28.42,65.1786686 28.42,64.8 C28.42,64.3359977 28.5973316,63.9760013 28.952,63.72 C29.3066684,63.4639987 29.8493297,63.336 30.58,63.336 L30.908,63.336 C30.9560002,63.336 30.98,63.3120002 30.98,63.264 L30.98,63.2 C30.98,62.9546654 30.9213339,62.7826672 30.804,62.684 C30.6866661,62.5853328 30.4786682,62.536 30.18,62.536 C29.8706651,62.536 29.4920022,62.5919994 29.044,62.704 C28.9479995,62.7306668 28.8600004,62.7133336 28.78,62.652 C28.6999996,62.5906664 28.66,62.5093338 28.66,62.408 C28.66,62.2853327 28.697333,62.1746672 28.772,62.076 C28.846667,61.9773328 28.9426661,61.9173334 29.06,61.896 C29.4653354,61.8053329 29.8466649,61.76 30.204,61.76 C30.8866701,61.76 31.3639986,61.8826654 31.636,62.128 C31.9080014,62.3733346 32.044,62.8026636 32.044,63.416 L32.044,65.544 C32.044,65.6666673 32.0000004,65.7733329 31.912,65.864 C31.8239996,65.9546671 31.7186673,66 31.596,66 L31.508,66 C31.3799994,66 31.2706671,65.9560004 31.18,65.868 C31.0893329,65.7799996 31.0413334,65.6720006 31.036,65.544 L31.036,65.432 C31.036,65.4266666 31.0333334,65.424 31.028,65.424 C31.0173333,65.424 31.012,65.4266666 31.012,65.432 C30.686665,65.8640022 30.2413362,66.08 29.676,66.08 Z M34.51,64.32 C33.9499972,64.1973327 33.5513345,64.0293344 33.314,63.816 C33.0766655,63.6026656 32.958,63.325335 32.958,62.984 C32.958,62.5999981 33.1006652,62.3000011 33.386,62.084 C33.6713348,61.8679989 34.0939972,61.76 34.654,61.76 C35.0060018,61.76 35.3553316,61.7919997 35.702,61.856 C35.8193339,61.8773334 35.9139996,61.9346662 35.986,62.028 C36.0580004,62.1213338 36.094,62.2293327 36.094,62.352 C36.094,62.4533338 36.0540004,62.5346664 35.974,62.596 C35.8939996,62.6573336 35.8033338,62.6746668 35.702,62.648 C35.4033318,62.573333 35.0886683,62.536 34.758,62.536 C34.2779976,62.536 34.038,62.669332 34.038,62.936 C34.038,63.0640006 34.0833329,63.1706662 34.174,63.256 C34.2646671,63.3413338 34.4193322,63.4079998 34.638,63.456 C35.2513364,63.5786673 35.6713322,63.743999 35.898,63.952 C36.1246678,64.160001 36.238,64.463998 36.238,64.864 C36.238,65.2480019 36.0940014,65.5466656 35.806,65.76 C35.5179986,65.9733344 35.0993361,66.08 34.55,66.08 C34.1926649,66.08 33.8273352,66.0373338 33.454,65.952 C33.3366661,65.9253332 33.240667,65.8626672 33.166,65.764 C33.091333,65.6653328 33.054,65.5520006 33.054,65.424 C33.054,65.3226662 33.0953329,65.2453336 33.178,65.192 C33.2606671,65.1386664 33.3499995,65.1253332 33.446,65.152 C33.7926684,65.2480005 34.1206651,65.296 34.43,65.296 C34.9153358,65.296 35.158,65.1520014 35.158,64.864 C35.158,64.7253326 35.1113338,64.6160004 35.018,64.536 C34.9246662,64.4559996 34.7553346,64.3840003 34.51,64.32 Z M37.296,62.776 C37.1893328,62.776 37.098667,62.7373337 37.024,62.66 C36.949333,62.5826663 36.912,62.4906672 36.912,62.384 C36.912,62.2773328 36.949333,62.186667 37.024,62.112 C37.098667,62.037333 37.1893328,62 37.296,62 L37.68,62 C37.7280002,62 37.752,61.9760002 37.752,61.928 L37.752,60.936 C37.752,60.8133327 37.7959996,60.7066671 37.884,60.616 C37.9720004,60.5253329 38.0773327,60.48 38.2,60.48 L38.36,60.48 C38.4826673,60.48 38.5893329,60.5253329 38.68,60.616 C38.7706671,60.7066671 38.816,60.8133327 38.816,60.936 L38.816,61.928 C38.816,61.9760002 38.8399998,62 38.888,62 L39.8,62 C39.9066672,62 39.9986663,62.037333 40.076,62.112 C40.1533337,62.186667 40.192,62.2773328 40.192,62.384 C40.192,62.4906672 40.1533337,62.5826663 40.076,62.66 C39.9986663,62.7373337 39.9066672,62.776 39.8,62.776 L38.888,62.776 C38.8399998,62.776 38.816,62.7973331 38.816,62.84 L38.816,64.456 C38.816,64.8026684 38.853333,65.0266662 38.928,65.128 C39.002667,65.2293338 39.1573322,65.28 39.392,65.28 C39.5200006,65.28 39.6159997,65.2746667 39.68,65.264 C39.7866672,65.2533333 39.8799996,65.277333 39.96,65.336 C40.0400004,65.394667 40.08,65.4746662 40.08,65.576 C40.08,65.6933339 40.0413337,65.7986662 39.964,65.892 C39.8866663,65.9853338 39.7920006,66.0373333 39.68,66.048 C39.4453322,66.0693334 39.2693339,66.08 39.152,66.08 C38.6346641,66.08 38.272001,65.9693344 38.064,65.748 C37.855999,65.5266656 37.752,65.1306695 37.752,64.56 L37.752,62.84 C37.752,62.7973331 37.7280002,62.776 37.68,62.776 L37.296,62.776 Z M42.962,62.504 C42.6899986,62.504 42.4806674,62.5799992 42.334,62.732 C42.1873326,62.8840008 42.0953335,63.1279983 42.058,63.464 C42.058,63.5066669 42.0793331,63.528 42.122,63.528 L43.69,63.528 C43.7326669,63.528 43.754,63.5066669 43.754,63.464 C43.7326666,62.8239968 43.4686692,62.504 42.962,62.504 Z M43.162,66.08 C42.4633298,66.08 41.9260019,65.8973352 41.55,65.532 C41.1739981,65.1666648 40.986,64.6293369 40.986,63.92 C40.986,63.2159965 41.1539983,62.6800018 41.49,62.312 C41.8260017,61.9439982 42.3113302,61.76 42.946,61.76 C44.1300059,61.76 44.7379998,62.4319933 44.77,63.776 C44.7753334,63.9040006 44.7300005,64.0106662 44.634,64.096 C44.5379995,64.1813338 44.4260006,64.224 44.298,64.224 L42.114,64.224 C42.0659998,64.224 42.0473333,64.2479998 42.058,64.296 C42.0953335,64.6533351 42.213999,64.9133325 42.414,65.076 C42.614001,65.2386675 42.9059981,65.32 43.29,65.32 C43.5300012,65.32 43.7966652,65.2800004 44.09,65.2 C44.1860005,65.1733332 44.2753329,65.189333 44.358,65.248 C44.4406671,65.306667 44.482,65.3866662 44.482,65.488 C44.482,65.6106673 44.4460004,65.7186662 44.374,65.812 C44.3019996,65.9053338 44.2073339,65.9626666 44.09,65.984 C43.7913318,66.0480003 43.4820016,66.08 43.162,66.08 Z M50.47,66.08 C49.6273291,66.08 48.9593358,65.8200026 48.466,65.3 C47.9726642,64.7799974 47.726,64.0400048 47.726,63.08 C47.726,62.1306619 47.9646643,61.393336 48.442,60.868 C48.9193357,60.342664 49.587329,60.08 50.446,60.08 C50.8406686,60.08 51.171332,60.1039998 51.438,60.152 C51.5660006,60.1733334 51.6726662,60.2373328 51.758,60.344 C51.8433338,60.4506672 51.886,60.570666 51.886,60.704 L51.886,60.768 C51.886,60.8800006 51.8393338,60.9679997 51.746,61.032 C51.6526662,61.0960003 51.5526672,61.1146668 51.446,61.088 C51.1846654,61.0186663 50.891335,60.984 50.566,60.984 C50.0379974,60.984 49.6233348,61.1653315 49.322,61.528 C49.0206652,61.8906685 48.87,62.4079966 48.87,63.08 C48.87,63.74667 49.0259984,64.2626648 49.338,64.628 C49.6500016,64.9933352 50.0673307,65.176 50.59,65.176 C50.9420018,65.176 51.2433321,65.1440003 51.494,65.08 C51.6006672,65.0533332 51.7006662,65.0719997 51.794,65.136 C51.8873338,65.2000003 51.934,65.2879994 51.934,65.4 L51.934,65.456 C51.934,65.589334 51.8926671,65.7079995 51.81,65.812 C51.7273329,65.9160005 51.619334,65.9786666 51.486,66 C51.1819985,66.0533336 50.8433352,66.08 50.47,66.08 Z M53.616,66 C53.4933327,66 53.3880004,65.9546671 53.3,65.864 C53.2119996,65.7733329 53.168,65.6666673 53.168,65.544 L53.168,60.456 C53.168,60.3333327 53.2119996,60.2266671 53.3,60.136 C53.3880004,60.0453329 53.4933327,60 53.616,60 L53.776,60 C53.8986673,60 54.0053329,60.0453329 54.096,60.136 C54.1866671,60.2266671 54.232,60.3333327 54.232,60.456 L54.232,62.312 C54.232,62.3173334 54.2346666,62.32 54.24,62.32 C54.2453334,62.32 54.2506666,62.3173334 54.256,62.312 C54.6293352,61.9439982 55.0399978,61.76 55.488,61.76 C55.9733358,61.76 56.3253322,61.8986653 56.544,62.176 C56.7626678,62.4533347 56.872,62.9279966 56.872,63.6 L56.872,65.544 C56.872,65.6666673 56.8266671,65.7733329 56.736,65.864 C56.6453329,65.9546671 56.5386673,66 56.416,66 L56.288,66 C56.1653327,66 56.0586671,65.9546671 55.968,65.864 C55.8773329,65.7733329 55.832,65.6666673 55.832,65.544 L55.832,63.76 C55.832,63.2959977 55.7826672,62.9893341 55.684,62.84 C55.5853328,62.6906659 55.4000014,62.616 55.128,62.616 C54.9146656,62.616 54.712001,62.711999 54.52,62.904 C54.327999,63.096001 54.232,63.3013322 54.232,63.52 L54.232,65.544 C54.232,65.6666673 54.1866671,65.7733329 54.096,65.864 C54.0053329,65.9546671 53.8986673,66 53.776,66 L53.616,66 Z M59.946,64 C59.1833295,64 58.802,64.2346643 58.802,64.704 C58.802,64.8746675 58.8513328,65.0133328 58.95,65.12 C59.0486672,65.2266672 59.1753326,65.28 59.33,65.28 C59.6340015,65.28 59.8793324,65.1853343 60.066,64.996 C60.2526676,64.8066657 60.346,64.5466683 60.346,64.216 L60.346,64.072 C60.346,64.0239998 60.3220002,64 60.274,64 L59.946,64 Z M59.042,66.08 C58.6793315,66.08 58.3793345,65.9613345 58.142,65.724 C57.9046655,65.4866655 57.786,65.1786686 57.786,64.8 C57.786,64.3359977 57.9633316,63.9760013 58.318,63.72 C58.6726684,63.4639987 59.2153297,63.336 59.946,63.336 L60.274,63.336 C60.3220002,63.336 60.346,63.3120002 60.346,63.264 L60.346,63.2 C60.346,62.9546654 60.2873339,62.7826672 60.17,62.684 C60.0526661,62.5853328 59.8446682,62.536 59.546,62.536 C59.2366651,62.536 58.8580022,62.5919994 58.41,62.704 C58.3139995,62.7306668 58.2260004,62.7133336 58.146,62.652 C58.0659996,62.5906664 58.026,62.5093338 58.026,62.408 C58.026,62.2853327 58.063333,62.1746672 58.138,62.076 C58.212667,61.9773328 58.3086661,61.9173334 58.426,61.896 C58.8313354,61.8053329 59.2126649,61.76 59.57,61.76 C60.2526701,61.76 60.7299986,61.8826654 61.002,62.128 C61.2740014,62.3733346 61.41,62.8026636 61.41,63.416 L61.41,65.544 C61.41,65.6666673 61.3660004,65.7733329 61.278,65.864 C61.1899996,65.9546671 61.0846673,66 60.962,66 L60.874,66 C60.7459994,66 60.6366671,65.9560004 60.546,65.868 C60.4553329,65.7799996 60.4073334,65.6720006 60.402,65.544 L60.402,65.432 C60.402,65.4266666 60.3993334,65.424 60.394,65.424 C60.3833333,65.424 60.378,65.4266666 60.378,65.432 C60.052665,65.8640022 59.6073362,66.08 59.042,66.08 Z M63.22,66 C63.0973327,66 62.9906671,65.9546671 62.9,65.864 C62.8093329,65.7733329 62.764,65.6666673 62.764,65.544 L62.764,60.456 C62.764,60.3333327 62.8093329,60.2266671 62.9,60.136 C62.9906671,60.0453329 63.0973327,60 63.22,60 L63.428,60 C63.5506673,60 63.6573329,60.0453329 63.748,60.136 C63.8386671,60.2266671 63.884,60.3333327 63.884,60.456 L63.884,65.544 C63.884,65.6666673 63.8386671,65.7733329 63.748,65.864 C63.6573329,65.9546671 63.5506673,66 63.428,66 L63.22,66 Z M65.814,66 C65.6913327,66 65.5846671,65.9546671 65.494,65.864 C65.4033329,65.7733329 65.358,65.6666673 65.358,65.544 L65.358,60.456 C65.358,60.3333327 65.4033329,60.2266671 65.494,60.136 C65.5846671,60.0453329 65.6913327,60 65.814,60 L66.022,60 C66.1446673,60 66.2513329,60.0453329 66.342,60.136 C66.4326671,60.2266671 66.478,60.3333327 66.478,60.456 L66.478,65.544 C66.478,65.6666673 66.4326671,65.7733329 66.342,65.864 C66.2513329,65.9546671 66.1446673,66 66.022,66 L65.814,66 Z M69.568,62.504 C69.2959986,62.504 69.0866674,62.5799992 68.94,62.732 C68.7933326,62.8840008 68.7013335,63.1279983 68.664,63.464 C68.664,63.5066669 68.6853331,63.528 68.728,63.528 L70.296,63.528 C70.3386669,63.528 70.36,63.5066669 70.36,63.464 C70.3386666,62.8239968 70.0746692,62.504 69.568,62.504 Z M69.768,66.08 C69.0693298,66.08 68.5320019,65.8973352 68.156,65.532 C67.7799981,65.1666648 67.592,64.6293369 67.592,63.92 C67.592,63.2159965 67.7599983,62.6800018 68.096,62.312 C68.4320017,61.9439982 68.9173302,61.76 69.552,61.76 C70.7360059,61.76 71.3439998,62.4319933 71.376,63.776 C71.3813334,63.9040006 71.3360005,64.0106662 71.24,64.096 C71.1439995,64.1813338 71.0320006,64.224 70.904,64.224 L68.72,64.224 C68.6719998,64.224 68.6533333,64.2479998 68.664,64.296 C68.7013335,64.6533351 68.819999,64.9133325 69.02,65.076 C69.220001,65.2386675 69.5119981,65.32 69.896,65.32 C70.1360012,65.32 70.4026652,65.2800004 70.696,65.2 C70.7920005,65.1733332 70.8813329,65.189333 70.964,65.248 C71.0466671,65.306667 71.088,65.3866662 71.088,65.488 C71.088,65.6106673 71.0520004,65.7186662 70.98,65.812 C70.9079996,65.9053338 70.8133339,65.9626666 70.696,65.984 C70.3973318,66.0480003 70.0880016,66.08 69.768,66.08 Z M72.746,66 C72.6233327,66 72.5166671,65.9546671 72.426,65.864 C72.3353329,65.7733329 72.29,65.6666673 72.29,65.544 L72.29,62.296 C72.29,62.1733327 72.3353329,62.0666671 72.426,61.976 C72.5166671,61.8853329 72.6233327,61.84 72.746,61.84 L72.85,61.84 C72.9780006,61.84 73.0859996,61.8839996 73.174,61.972 C73.2620004,62.0600004 73.3086666,62.1679994 73.314,62.296 L73.314,62.352 C73.314,62.3573334 73.3166666,62.36 73.322,62.36 C73.3273334,62.36 73.3326666,62.3573334 73.338,62.352 C73.7006685,61.9573314 74.1246642,61.76 74.61,61.76 C75.0953358,61.76 75.4486656,61.897332 75.67,62.172 C75.8913344,62.446668 76.002,62.9039968 76.002,63.544 L76.002,65.544 C76.002,65.6666673 75.9566671,65.7733329 75.866,65.864 C75.7753329,65.9546671 75.6686673,66 75.546,66 L75.41,66 C75.2873327,66 75.1820004,65.9546671 75.094,65.864 C75.0059996,65.7733329 74.962,65.6666673 74.962,65.544 L74.962,63.624 C74.962,63.223998 74.9100005,62.9506674 74.806,62.804 C74.7019995,62.6573326 74.516668,62.584 74.25,62.584 C74.0313322,62.584 73.8286676,62.6773324 73.642,62.864 C73.4553324,63.0506676 73.362,63.2506656 73.362,63.464 L73.362,65.544 C73.362,65.6666673 73.3166671,65.7733329 73.226,65.864 C73.1353329,65.9546671 73.0286673,66 72.906,66 L72.746,66 Z M78.812,62.56 C78.2253304,62.56 77.932,62.9866624 77.932,63.84 C77.932,64.2826689 78.0106659,64.6133322 78.168,64.832 C78.3253341,65.0506678 78.5399986,65.16 78.812,65.16 C79.0520012,65.16 79.2586658,65.0746675 79.432,64.904 C79.6053342,64.7333325 79.692,64.5333345 79.692,64.304 L79.692,63.44 C79.692,63.1946654 79.6053342,62.9866675 79.432,62.816 C79.2586658,62.6453325 79.0520012,62.56 78.812,62.56 Z M78.476,65.96 C78.0066643,65.96 77.6226682,65.7720019 77.324,65.396 C77.0253318,65.0199981 76.876,64.5013366 76.876,63.84 C76.876,63.1786634 77.0186652,62.6666685 77.304,62.304 C77.5893348,61.9413315 77.9799975,61.76 78.476,61.76 C78.7266679,61.76 78.947999,61.8053329 79.14,61.896 C79.332001,61.9866671 79.5213324,62.1386656 79.708,62.352 C79.7133334,62.3573334 79.7186666,62.36 79.724,62.36 C79.7293334,62.36 79.732,62.3573334 79.732,62.352 L79.732,62.296 C79.7373334,62.1679994 79.7853329,62.0600004 79.876,61.972 C79.9666671,61.8839996 80.0759994,61.84 80.204,61.84 L80.292,61.84 C80.4146673,61.84 80.5199996,61.8853329 80.608,61.976 C80.6960004,62.0666671 80.74,62.1733327 80.74,62.296 L80.74,65.68 C80.74,67.1200072 80.0200072,67.84 78.58,67.84 C78.3239987,67.84 78.0546681,67.8186669 77.772,67.776 C77.6439994,67.7546666 77.5386671,67.6920005 77.456,67.588 C77.3733329,67.4839995 77.332,67.365334 77.332,67.232 C77.332,67.1253328 77.3759996,67.0413336 77.464,66.98 C77.5520004,66.9186664 77.6493328,66.9013332 77.756,66.928 C78.0120013,66.9920003 78.2786653,67.024 78.556,67.024 C78.9506686,67.024 79.2386658,66.9213344 79.42,66.716 C79.6013342,66.5106656 79.692,66.1733357 79.692,65.704 L79.692,65.456 C79.692,65.4506666 79.6893334,65.448 79.684,65.448 C79.6786666,65.448 79.6733334,65.4506666 79.668,65.456 C79.3479984,65.7920017 78.950669,65.96 78.476,65.96 Z M83.59,62.504 C83.3179986,62.504 83.1086674,62.5799992 82.962,62.732 C82.8153326,62.8840008 82.7233335,63.1279983 82.686,63.464 C82.686,63.5066669 82.7073331,63.528 82.75,63.528 L84.318,63.528 C84.3606669,63.528 84.382,63.5066669 84.382,63.464 C84.3606666,62.8239968 84.0966692,62.504 83.59,62.504 Z M83.79,66.08 C83.0913298,66.08 82.5540019,65.8973352 82.178,65.532 C81.8019981,65.1666648 81.614,64.6293369 81.614,63.92 C81.614,63.2159965 81.7819983,62.6800018 82.118,62.312 C82.4540017,61.9439982 82.9393302,61.76 83.574,61.76 C84.7580059,61.76 85.3659998,62.4319933 85.398,63.776 C85.4033334,63.9040006 85.3580005,64.0106662 85.262,64.096 C85.1659995,64.1813338 85.0540006,64.224 84.926,64.224 L82.742,64.224 C82.6939998,64.224 82.6753333,64.2479998 82.686,64.296 C82.7233335,64.6533351 82.841999,64.9133325 83.042,65.076 C83.242001,65.2386675 83.5339981,65.32 83.918,65.32 C84.1580012,65.32 84.4246652,65.2800004 84.718,65.2 C84.8140005,65.1733332 84.9033329,65.189333 84.986,65.248 C85.0686671,65.306667 85.11,65.3866662 85.11,65.488 C85.11,65.6106673 85.0740004,65.7186662 85.002,65.812 C84.9299996,65.9053338 84.8353339,65.9626666 84.718,65.984 C84.4193318,66.0480003 84.1100016,66.08 83.79,66.08 Z" id="Zero-waste-Challenge" fill="#FFFFFF"></path>
                <g id="Group-4" transform="translate(10.000000, 0.000000)">
                    <g id="Group-7-Copy">
                        <g id="Group-8" transform="translate(40.088531, 18.983315)">
                            <mask id="mask-2" fill="white">
                                <use xlink:href="#path-1"></use>
                            </mask>
                            <use id="Oval-6" fill="#8ECC47" fill-rule="nonzero" xlink:href="#path-1"></use>
                            <path d="M19.2475487,2.86833864 C18.5520151,3.15269321 17.5415537,3.0615995 17.4060702,2.70865294 C17.2705867,2.35570639 17.8316781,1.81204371 18.6593028,1.49434835 C19.4869275,1.17665299 20.2676809,1.20522973 20.4031644,1.55817628 C20.5386479,1.91112283 19.9430822,2.58398406 19.2475487,2.86833864 Z M13.7631679,4.18687996 C13.1981048,4.68218607 12.2130375,4.92502933 11.9700272,4.63542092 C11.7270169,4.3458125 11.7091236,3.21608888 12.3882266,2.64625377 C13.0673296,2.07641866 14.1862666,2.28225703 14.4292769,2.57186544 C14.6722872,2.86147385 14.328231,3.69157386 13.7631679,4.18687996 Z M16.9052566,7.13803868 C16.4246334,7.71564209 15.0759493,7.66065452 14.7906261,7.41262686 C14.5053029,7.16459919 14.745483,6.42115712 15.3270833,5.7521025 C15.9086836,5.08304789 16.6114639,4.74173811 16.8967871,4.98976577 C17.1821103,5.23779343 17.3858799,6.56043527 16.9052566,7.13803868 Z M20.1888108,7.00938495 C19.3611861,7.32708031 18.2740235,5.96031422 18.1508567,5.63945371 C18.0276899,5.31859321 18.2415631,4.11340269 19.0691878,3.79570733 C19.8968125,3.47801197 20.6273854,3.92025773 20.7362213,4.4133704 C20.8450572,4.90648308 21.0164355,6.69168959 20.1888108,7.00938495 Z M16.8880113,1.60362048 C16.5801569,2.05456702 15.7558464,2.09280746 15.4936454,1.90765124 C15.2314443,1.72249501 15.3681997,1.39983822 15.9323502,0.942998184 C16.4965006,0.486158148 17.1173154,0.230099869 17.3452948,0.511630996 C17.5732742,0.793162124 17.1958658,1.15267393 16.8880113,1.60362048 Z M16.5277277,3.81142237 C16.2803105,3.94209811 15.712921,4.11649062 15.4516879,4.05761062 C15.1904549,3.99873062 15.2805724,3.73234573 15.7840319,3.32465225 C16.2874915,2.91695877 16.8261692,2.93726362 16.9992011,3.15094029 C17.1722331,3.36461695 16.7751449,3.68074662 16.5277277,3.81142237 Z M17.702583,9.05757549 C17.4247691,9.0909054 16.8325687,9.05038063 16.6097873,8.90179387 C16.387006,8.75320711 16.5666018,8.53681061 17.182726,8.33661972 C17.7988502,8.13642882 18.2944726,8.34842986 18.379437,8.60992332 C18.4644013,8.87141678 17.9803969,9.02424559 17.702583,9.05757549 Z M12.4103859,6.27907898 C12.5754786,6.05316781 13.0089962,5.6476977 13.2696022,5.58610166 C13.5302082,5.52450563 13.5659866,5.8034357 13.2922012,6.3905703 C13.0184159,6.9777049 12.5253545,7.1955958 12.2761647,7.07939669 C12.0269749,6.96319759 12.2452933,6.50499014 12.4103859,6.27907898 Z M22.2778124,0.967490715 C22.0303951,1.09816646 21.3416541,1.13838638 21.0804211,1.07950639 C20.8191881,1.02062639 20.4848827,0.478305465 20.9883422,0.0706119867 C21.4918017,-0.337081492 22.6332445,0.0188048133 22.8062765,0.232481481 C22.9793084,0.446158148 22.5252296,0.83681497 22.2778124,0.967490715 Z M22.5904677,2.68063302 C22.3430505,2.81130876 21.8886699,2.92998779 21.6274368,2.87110779 C21.3662038,2.81222779 21.3592405,2.65313671 21.8627,2.24544323 C22.3661595,1.83774975 22.9048373,1.8580546 23.0778692,2.07173127 C23.2509012,2.28540794 22.837885,2.54995727 22.5904677,2.68063302 Z" id="Combined-Shape" fill="#905135" fill-rule="nonzero" opacity="0.300000012" mask="url(#mask-2)"></path>
                        </g>
                        <g id="Group-9" transform="translate(26.581470, 24.800490)">
                            <mask id="mask-4" fill="white">
                                <use xlink:href="#path-3"></use>
                            </mask>
                            <use id="Oval-7" fill="#8ECC47" fill-rule="nonzero" xlink:href="#path-3"></use>
                            <path d="M24.2619863,15.1549475 C23.5593759,14.8885585 22.882497,14.1328037 23.0241196,13.7822755 C23.1657422,13.4317472 23.9468755,13.4168008 24.7688296,13.7488918 C25.5907837,14.0809828 26.1423014,14.6343551 26.0006787,14.9848834 C25.8590561,15.3354117 24.9645967,15.4213364 24.2619863,15.1549475 Z M18.3244113,16.3155004 C17.7593483,16.8108065 16.774281,17.0536498 16.5312707,16.7640414 C16.2882604,16.4744329 16.270367,15.3447093 16.9494701,14.7748742 C17.6285731,14.2050391 18.74751,14.4108775 18.9905203,14.7004859 C19.2335306,14.9900943 18.8894744,15.8201943 18.3244113,16.3155004 Z M22.4672635,19.387804 C21.9866403,19.9654074 20.6379562,19.9104199 20.352633,19.6623922 C20.0673098,19.4143645 20.3074899,18.6709225 20.8890902,18.0018678 C21.4706905,17.3328132 22.1734708,16.9915035 22.458794,17.2395311 C22.7441172,17.4875588 22.9478868,18.8102006 22.4672635,19.387804 Z M25.7508177,19.2591503 C24.923193,19.5768457 23.8360304,18.2100796 23.7128636,17.8892191 C23.5896968,17.5683586 23.80357,16.363168 24.6311947,16.0454727 C25.4588194,15.7277773 26.1893923,16.1700231 26.2982282,16.6631358 C26.4070641,17.1562484 26.5784424,18.9414549 25.7508177,19.2591503 Z M21.0046104,13.8725844 C20.3478112,14.0128784 19.5885529,13.3293321 19.5157034,12.9331527 C19.4428539,12.5369734 19.8391854,12.3638262 20.7269291,12.4414937 C21.6146728,12.5191612 22.3807437,12.8280874 22.3410527,13.2817573 C22.3013617,13.7354273 21.6614096,13.7322905 21.0046104,13.8725844 Z M15.4838436,20.8088833 C14.8270445,20.9491773 14.0677862,20.265631 13.9949366,19.8694516 C13.9220871,19.4732723 14.3184186,19.3001251 15.2061623,19.3777926 C16.093906,19.4554601 16.8599769,19.7643862 16.820286,20.2180562 C16.780595,20.6717262 16.1406428,20.6685894 15.4838436,20.8088833 Z M21.9928232,15.9585104 C21.745406,16.0891861 21.1780165,16.2635786 20.9167835,16.2046986 C20.6555504,16.1458186 20.745668,15.8794337 21.2491275,15.4717403 C21.752587,15.0640468 22.2912647,15.0843516 22.4642967,15.2980283 C22.6373286,15.511705 22.2402405,15.8278346 21.9928232,15.9585104 Z M14.1163769,18.1460193 C13.836601,18.1501271 13.2518807,18.0479226 13.0458514,17.8768628 C12.839822,17.705803 13.0410535,17.5093648 13.6747282,17.3746731 C14.3084029,17.2399814 14.77915,17.5026277 14.8363154,17.7715699 C14.8934809,18.0405121 14.3961529,18.1419114 14.1163769,18.1460193 Z M23.3351108,21.405563 C23.0572969,21.4388929 22.4650965,21.3983681 22.2423151,21.2497814 C22.0195338,21.1011946 22.1991296,20.8847981 22.8152538,20.6846072 C23.431378,20.4844163 23.9270004,20.6964173 24.0119648,20.9579108 C24.0969291,21.2194043 23.6129247,21.3722331 23.3351108,21.405563 Z M19.870508,21.1646986 C19.5926941,21.1980285 19.0004937,21.1575038 18.7777124,21.008917 C18.5549311,20.8603303 18.7345268,20.6439338 19.350651,20.4437429 C19.9667753,20.243552 20.4623976,20.455553 20.547362,20.7170465 C20.6323264,20.9785399 20.1483219,21.1313687 19.870508,21.1646986 Z M17.9723928,18.5288443 C18.1374855,18.3029332 18.5710031,17.897463 18.8316091,17.835867 C19.0922151,17.774271 19.1279935,18.0532011 18.8542081,18.6403357 C18.5804228,19.2274702 18.0873614,19.4453611 17.8381716,19.329162 C17.5889818,19.2129629 17.8073002,18.7547555 17.9723928,18.5288443 Z M28.0003204,17.7696093 C27.7608801,17.6248343 27.3716771,17.0551829 27.2876021,16.800937 C27.2035272,16.5466912 27.496207,15.9808196 28.1049693,16.202391 C28.7137316,16.4239624 28.996564,17.5856648 28.9025254,17.8440337 C28.8084868,18.1024027 28.2397607,17.9143843 28.0003204,17.7696093 Z M27.2888628,20.0042206 C27.0414456,20.1348964 26.5870649,20.2535754 26.3258319,20.1946954 C26.0645989,20.1358154 26.0576356,19.9767243 26.5610951,19.5690308 C27.0645546,19.1613374 27.6032324,19.1816422 27.7762643,19.3953189 C27.9492963,19.6089955 27.53628,19.8735449 27.2888628,20.0042206 Z" id="Combined-Shape" fill="#905135" fill-rule="nonzero" opacity="0.300000012" mask="url(#mask-4)"></path>
                        </g>
                        <path d="M26.186579,53.9462861 C29.2552538,53.9462861 24.6620955,44.807105 23.9869642,41.4442697 C23.3118329,38.0814344 21.5968687,36.6327846 20.828228,33.9136219 C19.5883389,29.5273591 28.1809555,25.1321633 23.7007585,24.3931679 C22.5316606,24.2003286 16.6316413,31.14751 15.8255697,32.1595228 C13.3491932,35.2685822 12.1175844,36.8610768 13.389095,42.0709947 C14.6606057,47.2809126 23.1179042,53.9462861 26.186579,53.9462861 Z" id="Oval-8" fill="#8ECC47" fill-rule="nonzero"></path>
                        <path d="M46.994051,18.5707846 C47.9529205,18.5446341 48.7815198,18.1193319 49.479849,17.2948779 C50.0582288,16.6120373 50.2271023,17.9709863 49.7164289,18.9484059 C49.3022303,19.7411745 48.324465,20.841433 47.5648073,20.841433 C46.4339711,20.841433 46.243719,20.0845502 46.994051,18.5707846 Z" id="Path-12" fill="#8ECC47" fill-rule="nonzero"></path>
                        <g id="head" transform="translate(22.822476, 18.730881) rotate(-13.000000) translate(-22.822476, -18.730881) translate(2.587182, 4.994039)">
                            <g>
                                <mask id="mask-6" fill="white">
                                    <use xlink:href="#path-5"></use>
                                </mask>
                                <use id="Oval-9" fill="#8ECC47" fill-rule="nonzero" xlink:href="#path-5"></use>
                                <path d="M10.0191693,1.23378213 C9.34160593,1.23378213 8.79233227,0.957590592 8.79233227,0.616891065 C8.79233227,0.276191537 9.34160593,0 10.0191693,0 C10.6967327,0 11.2460064,0.276191537 11.2460064,0.616891065 C11.2460064,0.957590592 10.6967327,1.23378213 10.0191693,1.23378213 Z M6.45598512,1.55704898 C5.89555766,1.62586082 5.41319205,1.4531998 5.37859136,1.17139979 C5.34399067,0.889599787 5.77025748,0.60537273 6.33068494,0.536560892 C6.89111239,0.467749053 7.37347801,0.640410075 7.4080787,0.922210079 C7.44267939,1.20401008 7.01641257,1.48823714 6.45598512,1.55704898 Z M8.37577379,2.34351308 C7.98347457,2.39168137 7.6430137,2.24797425 7.61533315,2.02253425 C7.5876526,1.79709424 7.88323443,1.5752909 8.27553365,1.52712261 C8.66783286,1.47895432 9.00829374,1.62266144 9.03597429,1.84810145 C9.06365484,2.07354145 8.76807301,2.29534479 8.37577379,2.34351308 Z" id="Combined-Shape" fill="#976544" fill-rule="nonzero" mask="url(#mask-6)"></path>
                                <path d="M2.73826753,7.88430714 C2.90553661,7.60605084 3.1512801,7.46692268 3.47549801,7.46692268" id="Path-10" stroke="#251D1E" stroke-width="0.5" stroke-linecap="round" stroke-linejoin="round" fill-rule="nonzero" mask="url(#mask-6)"></path>
                            </g>
                            <g id="mouth" transform="translate(2.453674, 10.692778)" fill-rule="nonzero">
                                <path d="M1.79780932,0.188537233 C0.291338515,0.323531628 -0.266490952,0.644430197 0.124320923,1.15123294 C0.710538735,1.91143706 1.95841938,2.71957289 2.9604401,2.846936 C3.62845392,2.93184474 4.5727675,2.94353301 5.79338085,2.88200083 L1.79780932,0.188537233 Z" id="Path-9" fill="#61160F"></path>
                                <path d="M2.27448417,1.04777637 C1.87210285,0.99860826 0.459834559,1.53540996 0.675670245,1.72053547 C1.32077082,2.27384793 2.20962477,2.75150267 2.9604401,2.846936 C3.3648791,2.89834273 3.86143488,2.91862602 4.45010745,2.90778588 C4.83374816,2.9007213 3.13911325,1.15342783 2.27448417,1.04777637 Z" id="Path-9-Copy" fill="#F7B7B2"></path>
                            </g>
                            <g id="eyes" transform="translate(7.769968, 3.495716)" fill-rule="nonzero">
                                <ellipse id="Oval-10" fill="#FFFFFF" cx="3.7827476" cy="4.31823745" rx="3.57827476" ry="4.31823745"></ellipse>
                                <ellipse id="Oval-10-Copy" fill="#34230F" transform="translate(3.578275, 4.935129) rotate(-53.000000) translate(-3.578275, -4.935129) " cx="3.57827476" cy="4.93512852" rx="2.76038339" ry="2.2619339"></ellipse>
                                <ellipse id="Oval-10-Copy-2" fill="#221B22" opacity="0.800000012" transform="translate(3.068711, 5.449198) rotate(-53.000000) translate(-3.068711, -5.449198) " cx="3.06871137" cy="5.44919778" rx="2.04472843" ry="1.54222766"></ellipse>
                                <ellipse id="Oval-11" fill="#FFFFFF" cx="5.62300319" cy="4.42105263" rx="1" ry="1"></ellipse>
                            </g>
                        </g>
                        <g id="back" transform="translate(19.719282, 11.640147)">
                            <path d="M14.8576677,17.4352205 C17.9714944,17.4352205 20.8740726,16.5079834 23.1000609,14.6800221 C26.8833517,11.5732183 29.357031,7.3464035 27.806259,6.61671129 C25.4114273,5.48985959 21.1616851,0.676653474 14.4840072,0.12066895 C7.80632929,-0.435315574 1.72468398,4.18112623 1.72468398,8.50660311 C1.72468398,9.33578605 4.81774896,10.8770144 4.27935013,11.7217014 C3.40209515,13.0980156 -0.574011506,14.2492337 0.21884729,14.5266136 C2.77217473,15.4198895 6.40261476,16.57788 7.32776569,16.8119728 C9.6611945,17.402405 13.2977787,17.4352205 14.8576677,17.4352205 Z" id="Oval-5" fill="#FCC05D" fill-rule="nonzero"></path>
                            <path d="M1.74103049,9.46506493 C1.82056927,10.5950155 3.3877159,11.5282211 6.44247036,12.2646817 C11.0246021,13.3693726 12.5902602,14.5007265 13.8461358,15.1235184 C15.1020113,15.7463103 18.6631162,17.4774418 21.2498012,15.8946409 C23.8364862,14.31184 26.0584083,12.0396999 26.7550242,11.1025481 C27.45164,10.1653964 28.5307453,8.40516419 28.1136924,7.01998476" id="Path-11" stroke="#A55C22" stroke-width="1.02614758" stroke-linecap="round" stroke-linejoin="round" fill-rule="nonzero"></path>
                            <mask id="mask-8" fill="white">
                                <use xlink:href="#path-7"></use>
                            </mask>
                            <use id="Oval-5-Copy" fill="#682D1B" fill-rule="nonzero" xlink:href="#path-7"></use>
                            <polyline id="Path-3" stroke="#581509" stroke-width="0.5" fill-rule="nonzero" mask="url(#mask-8)" points="11.1087034 14.0591052 11.3075577 10.3692887 12.8967156 3.27926303"></polyline>
                            <polyline id="Path-3-Copy" stroke="#581509" stroke-width="0.5" fill-rule="nonzero" mask="url(#mask-8)" points="5.56956358 12.3918634 7.31069981 8.27003062 8.29033563 3.84359288 6.88713476 -0.173092119"></polyline>
                            <path d="M0.735819328,5.90910097 L7.12965494,8.26918546 L11.3479385,10.4170122 L17.3082589,12.7989476 L20.6854291,10.0357054 C21.9972436,9.14387645 23.0917111,8.697962 23.9688317,8.697962 C24.5484858,7.25443311 24.1245054,5.47875734 26.0248711,3.62335506" id="Path-4" stroke="#581509" stroke-width="0.5" fill-rule="nonzero" mask="url(#mask-8)"></path>
                            <path d="M19.1372159,0.400488058 C17.7233889,1.85904197 16.9505633,2.91821205 16.818739,3.57799828 C14.8318724,3.57799828 12.2914836,2.80848244 8.20371999,3.8733808 C5.47854428,4.58331305 3.2340854,5.20823328 1.47034335,5.74814151" id="Path-5" stroke="#581509" stroke-width="0.5" fill-rule="nonzero" mask="url(#mask-8)"></path>
                            <path d="M16.8499017,3.62335506 C19.1106647,6.32954916 20.4088776,8.46822004 20.7445404,10.0393677 C21.2480346,12.3960892 23.3561981,11.9492826 22.1816578,15.7307987" id="Path-6" stroke="#581509" stroke-width="0.5" fill-rule="nonzero" mask="url(#mask-8)"></path>
                            <path d="M17.3021102,12.8909289 C17.6777395,13.2782927 17.8655541,13.9323976 17.8655541,14.8532436 C17.8655541,15.7740895 17.4344003,16.5097521 16.5720925,17.0602313" id="Path-7" stroke="#581509" stroke-width="0.5" fill-rule="nonzero" mask="url(#mask-8)"></path>
                            <path d="M23.9214588,8.74965746 C25.1444899,9.70196208 25.7560055,10.6536093 25.7560055,11.6045993 C25.7560055,12.5555892 25.7560055,13.2466932 25.7560055,13.6779113" id="Path-8" stroke="#581509" stroke-width="0.5" fill-rule="nonzero" mask="url(#mask-8)"></path>
                        </g>
                    </g>
                </g>
            </g>
        </g>
    </g>
</svg>