<?xml version="1.0" encoding="UTF-8"?>
<svg width="200px" height="200px" viewBox="0 0 200 200" version="1.1" xmlns="http://www.w3.org/2000/svg" xmlns:xlink="http://www.w3.org/1999/xlink">
    <!-- Generator: Sketch 51.3 (57544) - http://www.bohemiancoding.com/sketch -->
    <title>child</title>
    <desc>Created with Sketch.</desc>
    <defs>
        <path d="M0.482177215,89.5483019 C0.482177215,138.778868 40.1975823,178.686792 89.1892658,178.686792 C138.179823,178.686792 177.895228,138.778868 177.895228,89.5483019 C177.895228,40.3188679 138.179823,0.408679245 89.1892658,0.408679245 C40.1975823,0.408679245 0.482177215,40.3188679 0.482177215,89.5483019" id="path-1"></path>
    </defs>
    <g id="child" stroke="none" stroke-width="1" fill="none" fill-rule="evenodd">
        <g transform="translate(11.000000, 15.000000)" id="4">
            <g>
                <path d="M177.895453,89.7012453 C177.895453,138.930679 138.180048,178.839736 89.1894911,178.839736 C40.1978076,178.839736 0.482402532,138.930679 0.482402532,89.7012453 C0.482402532,40.4718113 40.1978076,0.562754717 89.1894911,0.562754717 C138.180048,0.562754717 177.895453,40.4718113 177.895453,89.7012453" id="Fill-1-Copy" fill="#D1E1E7"></path>
                <g id="Group-49" transform="translate(0.000000, 0.152830)">
                    <g id="Group-9">
                        <mask id="mask-2" fill="white">
                            <use xlink:href="#path-1"></use>
                        </mask>
                        <g id="Clip-8"></g>
                        <path d="M116.688373,190.231698 L63.5647912,190.231698 C55.2135693,190.231698 48.443038,183.418868 48.443038,175.016604 L48.443038,152.197358 C48.443038,143.793962 55.2135693,136.981132 63.5647912,136.981132 L116.688373,136.981132 C125.04072,136.981132 131.810127,143.793962 131.810127,152.197358 L131.810127,175.016604 C131.810127,183.418868 125.04072,190.231698 116.688373,190.231698" id="Fill-7" fill="#7B53A2" mask="url(#mask-2)"></path>
                        <rect id="Rectangle-Copy" fill="#FBCBA9" fill-rule="nonzero" mask="url(#mask-2)" x="112.658228" y="157.358491" width="19.1518987" height="27.1698113"></rect>
                        <path d="M48.443038,172.017923 C48.443038,166.499551 48.443038,161.939489 48.443038,158.337736 L67.4447246,158.337736 C67.4447246,160.090785 67.4447246,163.968109 67.4447246,169.969709 C67.4447246,175.948507 68.8076571,183.21751 74.8974446,183.21751 C84.0979816,183.21751 82.6226134,185.186106 77.7446924,186.390618 C80.3620875,189.768555 85.3110438,193.797826 82.5590367,195.545441 C79.8070296,197.293056 75.7744758,203.032925 64.6914218,194.661449 C53.6083678,186.289972 48.443038,180.070016 48.443038,172.017923 Z" id="Rectangle-Copy-2" fill="#FBCBA9" fill-rule="nonzero" mask="url(#mask-2)"></path>
                    </g>
                    <path d="M83.8786696,123.822453 L96.6687582,123.822453 C100.740227,123.822453 104.041113,127.140566 104.041113,131.233019 L104.041113,156.153396 C104.041113,160.245849 100.740227,163.56283 96.6687582,163.56283 L83.8786696,163.56283 C79.8060747,163.56283 76.504062,160.245849 76.504062,156.153396 L76.504062,131.233019 C76.504062,127.140566 79.8060747,123.822453 83.8786696,123.822453" id="Fill-10" fill="#F7AC82"></path>
                    <path d="M61.1214823,36.0456226 C61.1214823,36.0456226 37.7550392,41.3788302 27.4569506,95.1071321 L33.7939759,95.1071321 C33.7939759,95.1071321 34.1139253,141.670528 37.7167354,144.456566 C37.7167354,144.456566 19.5359506,157.192415 21.5164823,162.764491 C23.4970139,168.335434 35.6990266,173.906377 37.7167354,171.918453 C39.7344443,169.928264 41.242938,146.446755 41.242938,146.446755 C41.242938,146.446755 38.942457,142.863736 56.7649886,135.701094 C74.5863937,128.537321 122.905508,136.895434 122.905508,136.895434 L137.163533,144.456566 C137.163533,144.456566 135.183001,171.945623 139.144065,172.329396 C143.104001,172.71317 154.192951,164.753547 153.400963,159.978453 C152.608976,155.202226 141.12347,143.660717 141.12347,143.660717 C141.12347,143.660717 144.291419,95.1071321 141.5189,89.5350566 C141.5189,89.5350566 149.441027,92.7195849 151.420432,91.5252453 C151.420432,91.5252453 152.212419,5.95845283 59.5375076,32.6244906 L61.1214823,36.0456226 Z" id="Fill-13" fill="#EFBB37"></path>
                    <path d="M137.804896,146.306943 C137.371162,146.445057 136.908137,146.205057 136.769567,145.769208 L136.394415,144.586189 C136.255846,144.151472 136.494681,143.686189 136.928415,143.546943 L140.55601,142.382038 C140.989744,142.242792 141.45277,142.483925 141.591339,142.919774 L141.966491,144.102792 C142.105061,144.538642 141.866225,145.003925 141.433618,145.14317 L137.804896,146.306943 Z M40.9683899,146.247283 L37.3396684,145.084642 C36.9070608,144.945396 36.6682253,144.478981 36.8067949,144.043132 L37.1819468,142.861245 C37.3205165,142.425396 37.7835418,142.184264 38.2172759,142.323509 L41.8448709,143.487283 C42.2786051,143.626528 42.5174405,144.092943 42.3788709,144.52766 L42.003719,145.710679 C41.8651494,146.146528 41.4021241,146.386528 40.9683899,146.247283 Z" id="Fill-46" fill="#7B53A2"></path>
                    <path d="M146.812147,107.722415 C146.812147,113.868453 141.854058,118.849585 135.73897,118.849585 C129.622754,118.849585 124.664666,113.868453 124.664666,107.722415 C124.664666,101.576377 129.622754,96.5952453 135.73897,96.5952453 C141.854058,96.5952453 146.812147,101.576377 146.812147,107.722415 Z M54.8438278,107.722415 C54.8438278,113.868453 49.8868658,118.849585 43.7706506,118.849585 C37.6544354,118.849585 32.6974734,113.868453 32.6974734,107.722415 C32.6974734,101.576377 37.6544354,96.5952453 43.7706506,96.5952453 C49.8868658,96.5952453 54.8438278,101.576377 54.8438278,107.722415 Z" id="Fill-19" fill="#F7AC82"></path>
                    <path d="M140.662134,94.9655094 C140.662134,123.004755 118.042615,145.734566 90.1394253,145.734566 C62.237362,145.734566 39.617843,123.004755 39.617843,94.9655094 C39.617843,66.9262642 62.237362,44.1964528 90.1394253,44.1964528 C118.042615,44.1964528 140.662134,66.9262642 140.662134,94.9655094" id="Fill-22" fill="#FBCBA9"></path>
                    <path d="M123.283701,99.0914717 C123.283701,103.119396 120.034638,106.384302 116.026258,106.384302 C112.017878,106.384302 108.767689,103.119396 108.767689,99.0914717 C108.767689,95.0624151 112.017878,91.7986415 116.026258,91.7986415 C120.034638,91.7986415 123.283701,95.0624151 123.283701,99.0914717 Z M71.5126266,99.0914717 C71.5126266,103.119396 68.2624367,106.384302 64.254057,106.384302 C60.2456772,106.384302 56.9954873,103.119396 56.9954873,99.0914717 C56.9954873,95.0624151 60.2456772,91.7986415 64.254057,91.7986415 C68.2624367,91.7986415 71.5126266,95.0624151 71.5126266,99.0914717 Z" id="Combined-Shape" fill="#010202"></path>
                    <path d="M90.1220759,110.124792 C86.4223797,110.124792 83.4234177,107.111208 83.4234177,103.393472 L96.8218608,103.393472 C96.8218608,107.111208 93.8228987,110.124792 90.1220759,110.124792" id="Fill-31" fill="#F7AC82"></path>
                    <path d="M78.6219241,118.162075 L101.623354,118.162075 C101.623354,118.162075 98.6795949,130.180189 90.1220759,130.180189 C81.5656835,130.180189 78.6219241,118.162075 78.6219241,118.162075" id="Fill-34" fill="#CA583C"></path>
                    <path d="M39.4292532,96.4315472 C39.4292532,96.4315472 56.0350759,101.842868 72.6408987,50.4285283 L72.6408987,33.4972075 L56.0350759,45.9194717 L32.6967975,89.2156981 L39.4292532,96.4315472 Z" id="Fill-37" fill="#EFBB37"></path>
                    <path d="M60.0872797,33.2387547 C60.0872797,33.2387547 70.634343,86.4406415 154.715685,92.9183774 C154.715685,92.9183774 148.563419,4.17724528 60.0872797,33.2387547" id="Fill-40" fill="#EFBB37"></path>
                </g>
                <g id="Group-54" transform="translate(20.278481, 145.058491)" fill="#EFBB37">
                    <path d="M16.9646392,0.487018868 C16.9646392,0.487018868 -8.30009494,14.6153208 4.45844937,22.7775849 C17.2192468,30.9398491 18.063057,28.8590943 18.9823481,21.2356981 C19.9027658,13.6123019 21.6726266,2.1149434 20.1945506,1.96550943 C18.7187278,1.8149434 16.9646392,0.487018868 16.9646392,0.487018868" id="Fill-50"></path>
                    <path d="M121.22521,0.250415094 C121.22521,0.250415094 145.094109,16.6496604 131.643843,23.6017358 C118.192451,30.5526792 116.691843,28.6541887 116.469906,20.9775849 C116.250223,13.3009811 116.388792,1.43909434 117.873628,1.42550943 C119.35959,1.41192453 121.22521,0.250415094 121.22521,0.250415094" id="Fill-52"></path>
                </g>
            </g>
        </g>
    </g>
</svg>