<?xml version="1.0" encoding="UTF-8"?>
<svg width="200px" height="200px" viewBox="0 0 200 200" version="1.1" xmlns="http://www.w3.org/2000/svg" xmlns:xlink="http://www.w3.org/1999/xlink">
    <!-- Generator: Sketch 51.3 (57544) - http://www.bohemiancoding.com/sketch -->
    <title>mom</title>
    <desc>Created with Sketch.</desc>
    <defs>
        <path d="M177.916167,88.8091362 C177.916167,137.856059 138.08814,177.617148 88.9575202,177.617148 C39.828027,177.617148 0,137.856059 0,88.8091362 C0,39.7610891 39.828027,0 88.9575202,0 C138.08814,0 177.916167,39.7610891 177.916167,88.8091362" id="path-1"></path>
    </defs>
    <g id="mom" stroke="none" stroke-width="1" fill="none" fill-rule="evenodd">
        <g transform="translate(6.000000, 4.000000)">
            <g id="Group-25">
                <g id="Group-26" transform="translate(5.000000, 13.000000)">
                    <mask id="mask-2" fill="white">
                        <use xlink:href="#path-1"></use>
                    </mask>
                    <use id="Fill-1" fill="#D1E1E7" xlink:href="#path-1"></use>
                    <path d="M115.380887,190.238145 L61.4584912,190.238145 C53.020579,190.238145 46.1806874,183.471114 46.1806874,175.124209 L46.1806874,152.299814 C46.1806874,143.951785 53.020579,137.184753 61.4584912,137.184753 L115.380887,137.184753 C123.818799,137.184753 130.657555,143.951785 130.657555,152.299814 L130.657555,175.124209 C130.657555,183.471114 123.818799,190.238145 115.380887,190.238145" id="Fill-6" fill="#29A98C" mask="url(#mask-2)"></path>
                    <rect id="Rectangle-Copy" fill="#FED8BC" fill-rule="nonzero" mask="url(#mask-2)" x="46.1806874" y="161.922987" width="19.1480899" height="26.9871646"></rect>
                    <rect id="Rectangle-Copy-3" fill="#FED8BC" fill-rule="nonzero" mask="url(#mask-2)" x="111.509465" y="161.922987" width="19.1480899" height="26.9871646"></rect>
                </g>
                <path d="M56.192675,89.0746828 C60.4938268,92.9493756 63.1997746,98.5749153 63.1997746,104.835047 C63.1997746,116.525711 53.7683351,126 42.133183,126 C30.4980309,126 21.0677187,116.525711 21.0677187,104.835047 C21.0677187,97.8340258 24.451664,91.626694 29.6664091,87.7743897 C12.3623933,81.4650996 0,64.8018929 0,45.237833 C0,20.2534618 20.1614348,0 45.029008,0 C69.8988357,0 90.0591433,20.2534618 90.0591433,45.237833 C90.0591433,66.3510102 75.6622929,84.0857571 56.192675,89.0746828 Z M115.866817,103.247874 C115.866817,91.5594785 125.298256,82.0851891 136.932281,82.0851891 C148.568561,82.0851891 158,91.5594785 158,103.247874 C158,114.937404 148.568561,124.412827 136.932281,124.412827 C125.298256,124.412827 115.866817,114.937404 115.866817,103.247874 Z" id="Combined-Shape" fill="#EFBB37"></path>
                <g id="Group-23" transform="translate(33.000000, 57.000000)">
                    <path d="M53.0240249,80.3733708 L65.9564378,80.3733708 C70.0480423,80.3733708 73.3654677,83.6716829 73.3654677,87.7397136 L73.3654677,112.63066 C73.3654677,116.698691 70.0480423,119.997003 65.9564378,119.997003 L53.0240249,119.997003 C48.9324204,119.997003 45.614995,116.698691 45.614995,112.63066 L45.614995,87.7397136 C45.614995,83.6716829 48.9324204,80.3733708 53.0240249,80.3733708" id="Fill-9" fill="#FFC4A3"></path>
                    <path d="M22.9844042,64.160665 C22.9844042,70.2880307 17.988459,75.2551918 11.8255858,75.2551918 C5.66271269,75.2551918 0.666767413,70.2880307 0.666767413,64.160665 C0.666767413,58.0332992 5.66271269,53.0661381 11.8255858,53.0661381 C17.988459,53.0661381 22.9844042,58.0332992 22.9844042,64.160665 Z M115.662132,64.160665 C115.662132,70.2880307 110.666187,75.2551918 104.503313,75.2551918 C98.3404403,75.2551918 93.344495,70.2880307 93.344495,64.160665 C93.344495,58.0332992 98.3404403,53.0661381 104.503313,53.0661381 C110.666187,53.0661381 115.662132,58.0332992 115.662132,64.160665 Z" id="Combined-Shape" fill="#FFC4A3"></path>
                    <path d="M12.8226244,74.5863018 C12.8226244,75.7510077 11.87301,76.6962762 10.7004229,76.6962762 C9.52783582,76.6962762 8.57822139,75.7510077 8.57822139,74.5863018 C8.57822139,73.4204706 9.52783582,72.475202 10.7004229,72.475202 C11.87301,72.475202 12.8226244,73.4204706 12.8226244,74.5863018 Z M110.811968,74.5863018 C110.811968,75.7510077 109.861221,76.6962762 108.688634,76.6962762 C107.517179,76.6962762 106.566433,75.7510077 106.566433,74.5863018 C106.566433,73.4204706 107.517179,72.475202 108.688634,72.475202 C109.861221,72.475202 110.811968,73.4204706 110.811968,74.5863018 Z" id="Combined-Shape" fill="#29A98C"></path>
                    <path d="M110.403034,51.6008593 C110.403034,79.5571765 87.60776,102.21999 59.4905709,102.21999 C31.37225,102.21999 8.57810821,79.5571765 8.57810821,51.6008593 C8.57810821,23.6445422 31.37225,0.98285422 59.4905709,0.98285422 C87.60776,0.98285422 110.403034,23.6445422 110.403034,51.6008593" id="Fill-25" fill="#FED8BC"></path>
                    <path d="M66.8702861,60.6362762 C66.8702861,64.6986803 63.5585199,67.9913657 59.4725746,67.9913657 C55.3866294,67.9913657 52.0748632,64.6986803 52.0748632,60.6362762 C52.0748632,56.5749974 55.3866294,53.2811867 59.4725746,53.2811867 C63.5585199,53.2811867 66.8702861,56.5749974 66.8702861,60.6362762" id="Fill-37" fill="#FFC4A3"></path>
                    <path d="M47.883204,74.7292174 L71.0621716,74.7292174 C71.0621716,74.7292174 68.0944851,86.7116215 59.4721219,86.7116215 C50.8497587,86.7116215 47.883204,74.7292174 47.883204,74.7292174" id="Fill-34" fill="#CA583C"></path>
                    <path d="M92.8905137,55.7152532 C92.8905137,59.7303939 89.6149664,62.9870691 85.5754266,62.9870691 C81.5370187,62.9870691 78.2614714,59.7303939 78.2614714,55.7152532 C78.2614714,51.6989872 81.5370187,48.442312 85.5754266,48.442312 C89.6149664,48.442312 92.8905137,51.6989872 92.8905137,55.7152532 Z M40.7185386,55.7152532 C40.7185386,59.7303939 37.4441231,62.9870691 33.4045833,62.9870691 C29.3650435,62.9870691 26.0906281,59.7303939 26.0906281,55.7152532 C26.0906281,51.6989872 29.3650435,48.442312 33.4045833,48.442312 C37.4441231,48.442312 40.7185386,51.6989872 40.7185386,55.7152532 Z" id="Combined-Shape" fill="#010202"></path>
                </g>
            </g>
            <path d="M64.3278651,46.6111765 C64.3278651,62.7419449 77.4073602,75.8180127 93.543681,75.8180127 C109.680002,75.8180127 122.75839,62.7419449 122.75839,46.6111765 C122.75839,30.4826232 109.680002,17.4065554 93.543681,17.4065554 C77.4073602,17.4065554 64.3278651,30.4826232 64.3278651,46.6111765 Z" id="Clip-42" fill="#EFBB37"></path>
            <path d="M115.003438,62.3775517 C115.003438,73.7966826 124.263561,83.0538209 135.686261,83.0538209 C147.111175,83.0538209 156.371298,73.7966826 156.371298,62.3775517 C156.371298,50.9584208 147.111175,41.7012825 135.686261,41.7012825 C124.263561,41.7012825 115.003438,50.9584208 115.003438,62.3775517 Z" id="Clip-45" fill="#EFBB37"></path>
        </g>
    </g>
</svg>