<?xml version="1.0" encoding="UTF-8"?>
<svg width="1024px" height="630px" viewBox="0 0 1024 630" version="1.1" xmlns="http://www.w3.org/2000/svg" xmlns:xlink="http://www.w3.org/1999/xlink">
    <!-- Generator: Sketch 51.3 (57544) - http://www.bohemiancoding.com/sketch -->
    <title>NewHomepage_BG</title>
    <desc>Created with Sketch.</desc>
    <defs>
        <rect id="path-1" x="0" y="0" width="1025" height="772"></rect>
        <filter x="-8.2%" y="-144.8%" width="116.4%" height="389.7%" filterUnits="objectBoundingBox" id="filter-3">
            <feGaussianBlur stdDeviation="5" in="SourceGraphic"></feGaussianBlur>
        </filter>
        <filter x="-9.3%" y="-12.7%" width="118.5%" height="125.3%" filterUnits="objectBoundingBox" id="filter-4">
            <feGaussianBlur stdDeviation="5" in="SourceGraphic"></feGaussianBlur>
        </filter>
        <filter x="-11.7%" y="-9.3%" width="123.4%" height="118.6%" filterUnits="objectBoundingBox" id="filter-5">
            <feGaussianBlur stdDeviation="5" in="SourceGraphic"></feGaussianBlur>
        </filter>
        <filter x="-4.3%" y="-37.9%" width="108.6%" height="175.7%" filterUnits="objectBoundingBox" id="filter-6">
            <feGaussianBlur stdDeviation="5" in="SourceGraphic"></feGaussianBlur>
        </filter>
        <filter x="-10.1%" y="-21.7%" width="120.1%" height="143.4%" filterUnits="objectBoundingBox" id="filter-7">
            <feGaussianBlur stdDeviation="5" in="SourceGraphic"></feGaussianBlur>
        </filter>
        <filter x="-46.2%" y="-25.4%" width="192.4%" height="150.7%" filterUnits="objectBoundingBox" id="filter-8">
            <feGaussianBlur stdDeviation="7" in="SourceGraphic"></feGaussianBlur>
        </filter>
        <filter x="-81.0%" y="-18.0%" width="262.0%" height="136.0%" filterUnits="objectBoundingBox" id="filter-9">
            <feGaussianBlur stdDeviation="7" in="SourceGraphic"></feGaussianBlur>
        </filter>
    </defs>
    <g id="NewHomepage_BG" stroke="none" stroke-width="1" fill="none" fill-rule="evenodd">
        <rect fill="#FFEFC6" x="0" y="0" width="1024" height="630"></rect>
        <g id="BG" transform="translate(0.000000, -79.000000)">
            <mask id="mask-2" fill="white">
                <use xlink:href="#path-1"></use>
            </mask>
            <rect stroke="#979797" x="0.5" y="0.5" width="1024" height="771"></rect>
            <path d="M176.03627,520.35195 C175.477647,509.528105 166.64666,500.861942 155.61486,500.861942 C146.334202,500.861942 138.780915,507.065277 136.189858,515.444011 C132.618241,503.362175 121.509184,494.487332 108.197333,494.487332 C95.2737437,494.487332 84.4301315,502.856223 80.5336417,514.39667 C76.9243868,506.539637 70.4388212,500.289054 62.3625686,497.021033 C58.9751778,481.808983 45.3701489,470.414219 29.0453028,470.414219 C15.436312,470.414219 3.78646123,478.379529 -1.7106202,489.819573 C-5.57937697,488.612768 -9.61651281,487.781982 -13.8854175,487.781982 C-23.9822189,487.781982 -33.1063837,491.555956 -40.2436753,497.58014 C-36.4066134,523.377822 -30.7352102,548.563243 -23.1224952,572.927721 C78.8102324,577.623041 208.256228,559.565571 267.077971,524.625304 C267.077971,524.624508 249.155493,521.486216 237.387979,520.452647 C220.033329,518.928347 203.599474,519.415742 176.03627,520.35195 Z" id="Shape-Copy-6" fill="#43AB5F" mask="url(#mask-2)" transform="translate(113.417148, 522.037612) rotate(-8.000000) translate(-113.417148, -522.037612) "></path>
            <path d="M176.054724,534.862639 C175.496101,524.038794 166.665114,515.372631 155.633314,515.372631 C146.352656,515.372631 138.799369,521.575966 136.208312,529.9547 C132.636695,517.872864 121.527638,508.998021 108.215786,508.998021 C95.2921976,508.998021 84.4485854,517.366912 80.5520956,528.907358 C76.9428407,521.050326 70.4572751,514.799743 62.3810225,511.531722 C58.9936318,496.319672 45.3886028,484.924908 29.0637567,484.924908 C15.4547659,484.924908 3.80491515,492.890218 -1.69216628,504.330262 C-5.56092305,503.123457 -9.59805889,502.292671 -13.8669636,502.292671 C-23.963765,502.292671 -33.0879297,506.066645 -40.2252214,512.090829 C-36.3881595,537.888511 -30.7167562,563.073932 -23.1040413,587.43841 C78.8286863,592.13373 200.953036,562.154555 259.774779,527.214287 C259.774779,527.212318 222.307464,533.291626 176.054724,534.862639 Z" id="Shape-Copy-11" fill="#71BE63" mask="url(#mask-2)" transform="translate(109.774779, 536.424908) rotate(-8.000000) translate(-109.774779, -536.424908) "></path>
            <path d="M868.247697,420.831663 C859.482671,409.818462 845.981477,402.735839 830.802971,402.735839 C804.380442,402.735839 782.959688,424.13436 782.959688,450.531636 C782.959688,451.068154 783.021955,451.588149 783.039468,452.120779 C774.700581,453.923753 767.250941,458.104123 761.452345,463.938758 C755.952435,461.625509 749.911582,460.343503 743.570098,460.343503 C718.097137,460.343503 697.446936,480.973209 697.446936,506.421859 C681.320807,506.421859 668.247697,519.481993 668.247697,535.592117 C668.247697,540.346912 669.494978,544.769299 671.514758,548.735839 C756.402897,541.476321 829.125658,491.731759 868.247697,420.831663 Z" id="Shape-Copy-7" fill="#43AB5F" mask="url(#mask-2)" transform="translate(768.247697, 475.735839) rotate(16.000000) translate(-768.247697, -475.735839) "></path>
            <path d="M874.247697,440.831663 C865.482671,429.818462 851.981477,422.735839 836.802971,422.735839 C810.380442,422.735839 788.959688,444.13436 788.959688,470.531636 C788.959688,471.068154 789.021955,471.588149 789.039468,472.120779 C780.700581,473.923753 773.250941,478.104123 767.452345,483.938758 C761.952435,481.625509 755.911582,480.343503 749.570098,480.343503 C724.097137,480.343503 703.446936,500.973209 703.446936,526.421859 C687.320807,526.421859 674.247697,539.481993 674.247697,555.592117 C674.247697,560.346912 675.494978,564.769299 677.514758,568.735839 C762.402897,561.476321 835.125658,511.731759 874.247697,440.831663 Z" id="Shape-Copy-9" fill="#71BE63" mask="url(#mask-2)" transform="translate(774.247697, 495.735839) rotate(16.000000) translate(-774.247697, -495.735839) "></path>
            <path d="M450.490148,127.074895 C440.450146,116.58625 428.223928,108.979071 413.045422,108.979071 C386.622893,108.979071 365.202139,130.377592 365.202139,156.774867 C365.202139,157.311386 365.264406,157.831381 365.281919,158.364011 C356.943032,160.166984 349.493392,164.347355 343.694796,170.181989 C338.194886,167.868741 332.154033,166.586735 325.812549,166.586735 C300.339589,166.586735 279.689387,187.21644 279.689387,212.66509 C263.563258,212.66509 250.490148,225.725225 250.490148,241.835348 C250.490148,246.590143 251.73743,251.01253 253.757209,254.979071 C334.364168,248.085673 470.235062,220.712394 463.08514,150.01646 C462.50107,144.241387 456.896421,133.767435 450.490148,127.074895 Z" id="Shape-Copy-8" fill="#43AB5F" mask="url(#mask-2)" transform="translate(356.923274, 181.979071) rotate(24.000000) translate(-356.923274, -181.979071) "></path>
            <path d="M449.731077,139.941411 C440.966052,128.928209 427.464857,121.845587 412.286351,121.845587 C385.863822,121.845587 364.443069,143.244107 364.443069,169.641383 C364.443069,170.177901 364.505336,170.697896 364.522848,171.230527 C356.183961,173.0335 348.734322,177.21387 342.935726,183.048505 C337.435816,180.735257 331.394963,179.45325 325.053478,179.45325 C299.580518,179.45325 278.930316,200.082956 278.930316,225.531606 C262.804187,225.531606 249.731077,238.59174 249.731077,254.701864 C249.731077,259.456659 250.978359,263.879046 252.998139,267.845587 C332.099565,261.08094 416.392704,219.607978 457.023776,156.321081 C454.228672,150.043174 453.571567,144.873091 449.731077,139.941411 Z" id="Shape-Copy-10" fill="#71BE63" mask="url(#mask-2)" transform="translate(353.377427, 194.845587) rotate(24.000000) translate(-353.377427, -194.845587) "></path>
            <path d="M964,242 C975.666319,242 986.318285,246.342958 994.427365,253.500339 C1000.29733,246.471691 1009.12646,242 1019,242 C1036.67311,242 1051,256.326888 1051,274 C1051,284.070371 1046.34825,293.054266 1039.07628,298.920144 C1044.00975,304.550323 1047,311.925956 1047,320 C1047,337.673112 1032.67311,352 1015,352 C1000.54682,352 988.331617,342.418078 984.360316,329.260156 C978.222575,332.294685 971.310436,334 964,334 C938.594902,334 918,313.405098 918,288 C918,282.37597 919.009284,276.987671 920.856606,272.006347 C910.141444,268.025519 902.13664,258.469381 900.367121,246.862861 C894.527795,253.101382 886.219183,257 877,257 C859.326888,257 845,242.673112 845,225 C845,222.48948 845.289103,220.046483 845.835834,217.702486 C840.309769,214.97026 835.686111,210.68914 832.532083,205.426351 C827.22476,211.305243 819.543858,215 811,215 C794.983742,215 782,202.016258 782,186 C782,169.983742 794.983742,157 811,157 C820.8189,157 829.498057,161.879816 834.74459,169.346564 C840.600264,161.832566 849.735779,157 860,157 C877.673112,157 892,171.326888 892,189 C892,191.51052 891.710897,193.953517 891.164166,196.297514 C900.344262,200.836385 907.033981,209.649742 908.632879,220.137139 C914.472205,213.898618 922.780817,210 932,210 C949.673112,210 964,224.326888 964,242 Z" id="Combined-Shape" fill="#349D50" fill-rule="nonzero" mask="url(#mask-2)"></path>
            <g id="Group-12-Copy-7" mask="url(#mask-2)">
                <g transform="translate(803.000000, 42.000000)" id="Shape">
                    <path d="M34.0018785,144.746438 C31.0254696,144.746438 28.6144751,142.336658 28.6144751,139.364346 L28.6144751,81.3925194 C28.6144751,78.4202073 31.0245304,76.0104275 34.0018785,76.0104275 C36.9792265,76.0104275 39.3883425,78.4202073 39.3883425,81.3925194 L39.3883425,139.364346 C39.3883425,142.336658 36.9782873,144.746438 34.0018785,144.746438 Z" fill="#674447"></path>
                    <path d="M67.9276796,76.4546308 C67.9276796,95.1900583 52.7375691,110.378433 34,110.378433 C15.2624309,110.378433 0.072320442,95.1900583 0.072320442,76.4546308 C0.072320442,57.7192034 15.2624309,0.12490285 34,0.12490285 C52.7375691,0.12490285 67.9276796,57.7182642 67.9276796,76.4546308 Z" fill="#43AB5F"></path>
                    <path d="M34,0.12490285 C29.2963536,0.12490285 24.8171823,3.76023316 20.7446961,9.4935557 L20.7456354,9.4935557 C37.8959116,9.4935557 51.7983425,62.2063148 51.7983425,79.3546308 C51.7983425,94.2706606 41.2705525,106.707416 27.2441436,109.69851 C29.4278453,110.139896 31.6857459,110.379372 33.9990608,110.379372 C52.7366298,110.379372 67.9276796,95.1909974 67.9276796,76.4555699 C67.9286188,57.7182642 52.7375691,0.12490285 34,0.12490285 Z" fill="#71BE63"></path>
                </g>
            </g>
            <g id="Group-12-Copy-4" mask="url(#mask-2)">
                <g transform="translate(893.000000, 14.000000)" id="Shape">
                    <path d="M32.001768,136.760427 C29.200442,136.760427 26.9312707,134.483601 26.9312707,131.675278 L26.9312707,76.9018977 C26.9312707,74.0935751 29.199558,71.8167487 32.001768,71.8167487 C34.8039779,71.8167487 37.0713812,74.0935751 37.0713812,76.9018977 L37.0713812,131.675278 C37.0713812,134.483601 34.8030939,136.760427 32.001768,136.760427 Z" fill="#674447"></path>
                    <path d="M63.9319337,72.2364443 C63.9319337,89.938193 49.6353591,104.288588 32,104.288588 C14.3646409,104.288588 0.0680662983,89.938193 0.0680662983,72.2364443 C0.0680662983,54.5346956 14.3646409,0.118011658 32,0.118011658 C49.6353591,0.118011658 63.9319337,54.5338083 63.9319337,72.2364443 Z" fill="#43AB5F"></path>
                    <path d="M32,0.118011658 C27.5730387,0.118011658 23.3573481,3.55277202 19.5244199,8.96977332 L19.5253039,8.96977332 C35.6667403,8.96977332 48.7513812,58.7742422 48.7513812,74.9764443 C48.7513812,89.0695207 38.8428729,100.82011 25.641547,103.646179 C27.6967956,104.063212 29.8218785,104.289475 31.999116,104.289475 C49.6344751,104.289475 63.9319337,89.9390803 63.9319337,72.2373316 C63.9328177,54.5338083 49.6353591,0.118011658 32,0.118011658 Z" fill="#71BE63"></path>
                </g>
            </g>
            <g id="Group-12-Copy-6" mask="url(#mask-2)">
                <g transform="translate(983.000000, -8.000000)" id="Shape">
                    <path d="M32.001768,136.760427 C29.200442,136.760427 26.9312707,134.483601 26.9312707,131.675278 L26.9312707,76.9018977 C26.9312707,74.0935751 29.199558,71.8167487 32.001768,71.8167487 C34.8039779,71.8167487 37.0713812,74.0935751 37.0713812,76.9018977 L37.0713812,131.675278 C37.0713812,134.483601 34.8030939,136.760427 32.001768,136.760427 Z" fill="#674447"></path>
                    <path d="M63.9319337,72.2364443 C63.9319337,89.938193 49.6353591,104.288588 32,104.288588 C14.3646409,104.288588 0.0680662983,89.938193 0.0680662983,72.2364443 C0.0680662983,54.5346956 14.3646409,0.118011658 32,0.118011658 C49.6353591,0.118011658 63.9319337,54.5338083 63.9319337,72.2364443 Z" fill="#43AB5F"></path>
                    <path d="M32,0.118011658 C27.5730387,0.118011658 23.3573481,3.55277202 19.5244199,8.96977332 L19.5253039,8.96977332 C35.6667403,8.96977332 48.7513812,58.7742422 48.7513812,74.9764443 C48.7513812,89.0695207 38.8428729,100.82011 25.641547,103.646179 C27.6967956,104.063212 29.8218785,104.289475 31.999116,104.289475 C49.6344751,104.289475 63.9319337,89.9390803 63.9319337,72.2373316 C63.9328177,54.5338083 49.6353591,0.118011658 32,0.118011658 Z" fill="#71BE63"></path>
                </g>
            </g>
            <g id="Group-12-Copy-2" mask="url(#mask-2)">
                <g transform="translate(854.000000, 78.000000)" id="Shape">
                    <path d="M34.0018785,144.746438 C31.0254696,144.746438 28.6144751,142.336658 28.6144751,139.364346 L28.6144751,81.3925194 C28.6144751,78.4202073 31.0245304,76.0104275 34.0018785,76.0104275 C36.9792265,76.0104275 39.3883425,78.4202073 39.3883425,81.3925194 L39.3883425,139.364346 C39.3883425,142.336658 36.9782873,144.746438 34.0018785,144.746438 Z" fill="#674447"></path>
                    <path d="M67.9276796,76.4546308 C67.9276796,95.1900583 52.7375691,110.378433 34,110.378433 C15.2624309,110.378433 0.072320442,95.1900583 0.072320442,76.4546308 C0.072320442,57.7192034 15.2624309,0.12490285 34,0.12490285 C52.7375691,0.12490285 67.9276796,57.7182642 67.9276796,76.4546308 Z" fill="#43AB5F"></path>
                    <path d="M34,0.12490285 C29.2963536,0.12490285 24.8171823,3.76023316 20.7446961,9.4935557 L20.7456354,9.4935557 C37.8959116,9.4935557 51.7983425,62.2063148 51.7983425,79.3546308 C51.7983425,94.2706606 41.2705525,106.707416 27.2441436,109.69851 C29.4278453,110.139896 31.6857459,110.379372 33.9990608,110.379372 C52.7366298,110.379372 67.9276796,95.1909974 67.9276796,76.4555699 C67.9286188,57.7182642 52.7375691,0.12490285 34,0.12490285 Z" fill="#71BE63"></path>
                </g>
            </g>
            <g id="Group-12-Copy-3" mask="url(#mask-2)">
                <g transform="translate(946.000000, 56.000000)" id="Shape">
                    <path d="M32.001768,136.760427 C29.200442,136.760427 26.9312707,134.483601 26.9312707,131.675278 L26.9312707,76.9018977 C26.9312707,74.0935751 29.199558,71.8167487 32.001768,71.8167487 C34.8039779,71.8167487 37.0713812,74.0935751 37.0713812,76.9018977 L37.0713812,131.675278 C37.0713812,134.483601 34.8030939,136.760427 32.001768,136.760427 Z" fill="#674447"></path>
                    <path d="M63.9319337,72.2364443 C63.9319337,89.938193 49.6353591,104.288588 32,104.288588 C14.3646409,104.288588 0.0680662983,89.938193 0.0680662983,72.2364443 C0.0680662983,54.5346956 14.3646409,0.118011658 32,0.118011658 C49.6353591,0.118011658 63.9319337,54.5338083 63.9319337,72.2364443 Z" fill="#43AB5F"></path>
                    <path d="M32,0.118011658 C27.5730387,0.118011658 23.3573481,3.55277202 19.5244199,8.96977332 L19.5253039,8.96977332 C35.6667403,8.96977332 48.7513812,58.7742422 48.7513812,74.9764443 C48.7513812,89.0695207 38.8428729,100.82011 25.641547,103.646179 C27.6967956,104.063212 29.8218785,104.289475 31.999116,104.289475 C49.6344751,104.289475 63.9319337,89.9390803 63.9319337,72.2373316 C63.9328177,54.5338083 49.6353591,0.118011658 32,0.118011658 Z" fill="#71BE63"></path>
                </g>
            </g>
            <g id="Group-12-Copy-5" mask="url(#mask-2)">
                <g transform="translate(991.000000, 95.000000)" id="Shape">
                    <path d="M32.001768,136.760427 C29.200442,136.760427 26.9312707,134.483601 26.9312707,131.675278 L26.9312707,76.9018977 C26.9312707,74.0935751 29.199558,71.8167487 32.001768,71.8167487 C34.8039779,71.8167487 37.0713812,74.0935751 37.0713812,76.9018977 L37.0713812,131.675278 C37.0713812,134.483601 34.8030939,136.760427 32.001768,136.760427 Z" fill="#674447"></path>
                    <path d="M63.9319337,72.2364443 C63.9319337,89.938193 49.6353591,104.288588 32,104.288588 C14.3646409,104.288588 0.0680662983,89.938193 0.0680662983,72.2364443 C0.0680662983,54.5346956 14.3646409,0.118011658 32,0.118011658 C49.6353591,0.118011658 63.9319337,54.5338083 63.9319337,72.2364443 Z" fill="#43AB5F"></path>
                    <path d="M32,0.118011658 C27.5730387,0.118011658 23.3573481,3.55277202 19.5244199,8.96977332 L19.5253039,8.96977332 C35.6667403,8.96977332 48.7513812,58.7742422 48.7513812,74.9764443 C48.7513812,89.0695207 38.8428729,100.82011 25.641547,103.646179 C27.6967956,104.063212 29.8218785,104.289475 31.999116,104.289475 C49.6344751,104.289475 63.9319337,89.9390803 63.9319337,72.2373316 C63.9328177,54.5338083 49.6353591,0.118011658 32,0.118011658 Z" fill="#71BE63"></path>
                </g>
            </g>
            <circle id="Oval-15-Copy-10" fill="#349D50" fill-rule="nonzero" mask="url(#mask-2)" cx="1031.5" cy="238.5" r="25.5"></circle>
            <g id="Group-12-Copy" mask="url(#mask-2)">
                <g transform="translate(906.000000, 115.000000)" id="Shape">
                    <path d="M34.0018785,144.746438 C31.0254696,144.746438 28.6144751,142.336658 28.6144751,139.364346 L28.6144751,81.3925194 C28.6144751,78.4202073 31.0245304,76.0104275 34.0018785,76.0104275 C36.9792265,76.0104275 39.3883425,78.4202073 39.3883425,81.3925194 L39.3883425,139.364346 C39.3883425,142.336658 36.9782873,144.746438 34.0018785,144.746438 Z" fill="#674447"></path>
                    <path d="M67.9276796,76.4546308 C67.9276796,95.1900583 52.7375691,110.378433 34,110.378433 C15.2624309,110.378433 0.072320442,95.1900583 0.072320442,76.4546308 C0.072320442,57.7192034 15.2624309,0.12490285 34,0.12490285 C52.7375691,0.12490285 67.9276796,57.7182642 67.9276796,76.4546308 Z" fill="#43AB5F"></path>
                    <path d="M34,0.12490285 C29.2963536,0.12490285 24.8171823,3.76023316 20.7446961,9.4935557 L20.7456354,9.4935557 C37.8959116,9.4935557 51.7983425,62.2063148 51.7983425,79.3546308 C51.7983425,94.2706606 41.2705525,106.707416 27.2441436,109.69851 C29.4278453,110.139896 31.6857459,110.379372 33.9990608,110.379372 C52.7366298,110.379372 67.9276796,95.1909974 67.9276796,76.4555699 C67.9286188,57.7182642 52.7375691,0.12490285 34,0.12490285 Z" fill="#71BE63"></path>
                </g>
            </g>
            <g id="Group-12" mask="url(#mask-2)">
                <g transform="translate(957.000000, 170.000000)" id="Shape">
                    <path d="M34.0018785,144.746438 C31.0254696,144.746438 28.6144751,142.336658 28.6144751,139.364346 L28.6144751,81.3925194 C28.6144751,78.4202073 31.0245304,76.0104275 34.0018785,76.0104275 C36.9792265,76.0104275 39.3883425,78.4202073 39.3883425,81.3925194 L39.3883425,139.364346 C39.3883425,142.336658 36.9782873,144.746438 34.0018785,144.746438 Z" fill="#674447"></path>
                    <path d="M67.9276796,76.4546308 C67.9276796,95.1900583 52.7375691,110.378433 34,110.378433 C15.2624309,110.378433 0.072320442,95.1900583 0.072320442,76.4546308 C0.072320442,57.7192034 15.2624309,0.12490285 34,0.12490285 C52.7375691,0.12490285 67.9276796,57.7182642 67.9276796,76.4546308 Z" fill="#43AB5F"></path>
                    <path d="M34,0.12490285 C29.2963536,0.12490285 24.8171823,3.76023316 20.7446961,9.4935557 L20.7456354,9.4935557 C37.8959116,9.4935557 51.7983425,62.2063148 51.7983425,79.3546308 C51.7983425,94.2706606 41.2705525,106.707416 27.2441436,109.69851 C29.4278453,110.139896 31.6857459,110.379372 33.9990608,110.379372 C52.7366298,110.379372 67.9276796,95.1909974 67.9276796,76.4555699 C67.9286188,57.7182642 52.7375691,0.12490285 34,0.12490285 Z" fill="#71BE63"></path>
                </g>
            </g>
            <circle id="Oval-15-Copy-6" fill="#349D50" fill-rule="nonzero" mask="url(#mask-2)" cx="980" cy="334" r="32"></circle>
            <circle id="Oval-15-Copy-7" fill="#349D50" fill-rule="nonzero" mask="url(#mask-2)" cx="931" cy="277" r="32"></circle>
            <circle id="Oval-15-Copy-8" fill="#349D50" fill-rule="nonzero" mask="url(#mask-2)" cx="897" cy="243" r="32"></circle>
            <circle id="Oval-15-Copy-9" fill="#349D50" fill-rule="nonzero" mask="url(#mask-2)" cx="839" cy="211" r="32"></circle>
            <path d="M-29.7557155,-33 L98.4731025,-11.6137838 C87.7385268,52.7492593 90.4510846,101.026616 104.243311,133.0902 C115.705919,159.737983 135.43338,176.357214 168.445509,185.704274 C212.386094,198.145619 253.997935,204.084613 297.052577,205.053668 C330.459217,205.80557 358.434904,204.032513 410.154068,198.891422 C465.834569,193.356558 559.741886,186.898268 598.245445,178.059837 C623.909416,172.168713 637.098766,169.357587 653.263895,166.634496 C675.604954,162.871041 696.198692,160.876534 716.717687,160.876534 C767.485137,160.876534 815.182498,173.347257 861.681881,201.170238 C938.298371,247.01384 981.276726,324.83999 978.138935,408.217589 C975.010134,491.356336 926.650222,567.775045 845.765906,614.055068 C805.254083,637.234941 764.349866,649.27418 721.859211,651.579577 C687.480279,653.444859 654.538005,649.191213 614.642126,639.596486 C602.581578,636.695994 595.271201,634.756909 571.632454,628.328034 C544.980772,621.079751 531.418522,617.676583 516.178654,614.68941 C497.580978,611.044072 481.122095,609.219996 465.279751,609.219996 C390.989088,609.219996 294.156363,620.72727 206.478425,643.906216 C94.1269138,673.607981 5.32479279,719.571286 -48.2384406,780.680638 L-146,694.991214 C-106.883763,650.364186 -56.7972434,613.07318 2.46534196,582.399314 C53.7075615,555.876729 111.183804,534.632693 173.252475,518.223933 C272.271381,492.046837 380.208143,479.219996 465.279751,479.219996 C490.180857,479.219996 514.835594,481.952387 541.184177,487.116984 C560.395546,490.882612 576.204185,494.849467 605.748521,502.884445 C628.02516,508.942876 634.712531,510.716709 645.039668,513.200325 C673.732706,520.100834 694.992927,522.846044 714.816218,521.770501 C737.104696,520.561204 758.308032,514.320478 781.204321,501.219782 C866.389624,452.47884 869.959575,357.61782 794.932691,312.725362 C769.166534,297.30814 744.567268,290.876534 716.717687,290.876534 C693.34202,290.876534 672.637408,294.364323 627.330301,304.764498 C582.618632,315.027991 473.996184,323.185957 423.01321,328.253868 C366.376697,333.883763 334.20447,335.922791 294.127334,335.020752 C240.384414,333.811129 187.8804,326.317565 133.029541,310.787083 C63.2287363,291.023671 12.1532581,247.995571 -15.1770783,184.459164 C-40.1777953,126.338558 -44.2481861,53.8948653 -29.7557155,-33 Z" id="Path-13-Copy-8" fill="#3C9BD4" fill-rule="nonzero" mask="url(#mask-2)"></path>
            <g id="Group-11" mask="url(#mask-2)" fill-rule="nonzero" stroke="#FFFFFF">
                <g transform="translate(-16.000000, 72.000000)">
                    <path d="M599,113.701222 C680.301648,99.4329261 743.47945,99.4329261 788.533408,113.701222" id="Path-2" stroke-width="1" opacity="0.400000006" filter="url(#filter-3)"></path>
                    <path d="M782.269425,510.521837 C856.089857,483.992929 883.075038,483.992929 949.52439,388.130223" id="Path-2-Copy-2" stroke-width="1" opacity="0.400000006" filter="url(#filter-4)"></path>
                    <path d="M939.16835,332.246468 C907.790003,189.471958 886.926507,199.706783 806.856493,165.245221" id="Path-2-Copy" stroke-width="1" opacity="0.400000006" filter="url(#filter-5)"></path>
                    <path d="M404,424.306104 C547.15281,401.115805 675.789955,496.926029 801.173036,454.571992" id="Path-16" stroke-width="4" opacity="0.200000003" filter="url(#filter-6)"></path>
                    <path d="M169.074036,521.463762 C86.8948713,545.509122 30.5921071,571.608357 0.165743714,599.761467" id="Path-17" stroke-width="4" opacity="0.200000003" filter="url(#filter-7)"></path>
                    <path d="M46.6142488,0 C39.563016,40.738921 55.6122576,70.954542 94.7619738,90.6468631" id="Path-15" stroke-width="4" opacity="0.200000003" filter="url(#filter-8)"></path>
                    <path d="M349.95451,124.339659 C345.20853,156.398709 354.2659,199.010282 377.126618,252.174377" id="Path-15-Copy" stroke-width="4" opacity="0.200000003" filter="url(#filter-9)" transform="translate(362.928639, 188.257018) rotate(-78.000000) translate(-362.928639, -188.257018) "></path>
                </g>
            </g>
            <path d="M769.923247,797.837341 C764.821499,812.48715 750.888453,823 734.5,823 C713.789322,823 697,806.210678 697,785.5 C697,764.789322 713.789322,748 734.5,748 C734.666924,748 734.833593,748.001091 735,748.003265 C735,718.728908 758.728908,695 788,695 C801.414016,695 813.664118,699.983306 823,708.199611 C832.335882,699.983306 844.585984,695 858,695 C858.324365,695 858.64805,695.002914 858.97103,695.008717 C865.775856,646.403912 907.519852,609 958,609 C966.602787,609 974.951852,610.086311 982.917506,612.129242 C987.54252,587.575099 1009.10204,569 1035,569 C1064.27109,569 1088,592.728908 1088,622 C1088,645.646851 1072.51374,665.676692 1051.12987,672.500869 C1055.56487,683.80831 1058,696.119777 1058,709 C1058,764.228475 1013.22847,809 958,809 C933.933977,809 911.853534,800.498717 894.597915,786.335395 C885.084123,795.420608 872.19363,801 858,801 C844.585984,801 832.335882,796.016694 823,787.800389 C813.664118,796.016694 801.414016,801 788,801 C781.651909,801 775.564486,799.883943 769.923243,797.83734 Z" id="Combined-Shape" fill="#43AB5F" fill-rule="nonzero" mask="url(#mask-2)"></path>
            <path d="M781.923247,811.837341 C776.821499,826.48715 762.888453,837 746.5,837 C725.789322,837 709,820.210678 709,799.5 C709,778.789322 725.789322,762 746.5,762 C746.666924,762 746.833593,762.001091 747,762.003265 C747,732.728908 770.728908,709 800,709 C813.414016,709 825.664118,713.983306 835,722.199611 C844.335882,713.983306 856.585984,709 870,709 C870.324365,709 870.64805,709.002914 870.97103,709.008717 C877.775856,660.403912 919.519852,623 970,623 C978.602787,623 986.951852,624.086311 994.917506,626.129242 C999.54252,601.575099 1021.10204,583 1047,583 C1076.27109,583 1100,606.728908 1100,636 C1100,659.646851 1084.51374,679.676692 1063.12987,686.500869 C1067.56487,697.80831 1070,710.119777 1070,723 C1070,778.228475 1025.22847,823 970,823 C945.933977,823 923.853534,814.498717 906.597915,800.335395 C897.084123,809.420608 884.19363,815 870,815 C856.585984,815 844.335882,810.016694 835,801.800389 C825.664118,810.016694 813.414016,815 800,815 C793.651909,815 787.564486,813.883943 781.923243,811.83734 Z" id="Combined-Shape-Copy" fill="#71BE63" fill-rule="nonzero" mask="url(#mask-2)"></path>
        </g>
    </g>
</svg>