<?xml version="1.0" encoding="UTF-8"?>
<svg width="290px" height="290px" viewBox="0 0 290 290" version="1.1" xmlns="http://www.w3.org/2000/svg" xmlns:xlink="http://www.w3.org/1999/xlink">
    <!-- Generator: Sketch 51.3 (57544) - http://www.bohemiancoding.com/sketch -->
    <title>btn_navi_02</title>
    <desc>Created with Sketch.</desc>
    <defs>
        <filter x="-2.1%" y="-2.1%" width="104.1%" height="104.1%" filterUnits="objectBoundingBox" id="filter-1">
            <feOffset dx="0" dy="0" in="SourceAlpha" result="shadowOffsetOuter1"></feOffset>
            <feGaussianBlur stdDeviation="2" in="shadowOffsetOuter1" result="shadowBlurOuter1"></feGaussianBlur>
            <feColorMatrix values="0 0 0 0 0   0 0 0 0 0   0 0 0 0 0  0 0 0 0.5 0" type="matrix" in="shadowBlurOuter1" result="shadowMatrixOuter1"></feColorMatrix>
            <feMerge>
                <feMergeNode in="shadowMatrixOuter1"></feMergeNode>
                <feMergeNode in="SourceGraphic"></feMergeNode>
            </feMerge>
        </filter>
        <circle id="path-2" cx="137" cy="137" r="137"></circle>
    </defs>
    <g id="btn_navi_02" stroke="none" stroke-width="1" fill="none" fill-rule="evenodd">
        <g id="Group-2" filter="url(#filter-1)">
            <circle id="Oval" fill="#075D89" fill-rule="nonzero" cx="145" cy="145" r="145"></circle>
            <g id="Group-3" transform="translate(8.000000, 8.000000)">
                <mask id="mask-3" fill="white">
                    <use xlink:href="#path-2"></use>
                </mask>
                <use id="Oval-Copy" fill="#FFFFFF" fill-rule="nonzero" xlink:href="#path-2"></use>
                <g id="village" mask="url(#mask-3)">
                    <g transform="translate(-22.000000, -48.000000)">
                        <path d="M12,197.833333 C46.2106938,286.284054 100.386822,343.666667 160.904449,343.666667 C221.422792,343.666667 274.559084,286.284054 307.166667,197.833333 L12,197.833333 Z" id="Shape" fill="#FFBB8C"></path>
                        <g id="Group" stroke-width="1" fill="none" transform="translate(0.333333, 0.666667)">
                            <path d="M280.099167,114.625 L269.733151,114.625 L269.733151,99.4492188 L248.07526,99.4492188 L189.76526,99.4492188 L177.47862,87.3496094 L158.666667,105.875 L83.419401,105.875 L83.419401,92.75 L52.667526,92.75 L52.667526,100.290859 L43.6861979,100.290859 L35.692526,92.4185937 L20.5583073,107.322031 L73.9786979,121.551719 L186.84987,135.885859 L298.301901,131.138438 C298.574792,127.134219 298.716979,123.092813 298.644245,118.999453 C298.578073,115.260469 298.322135,111.567422 297.969401,107.902266 L280.099167,107.902266 L280.099167,114.625 Z" id="Shape" fill="#FFEB97"></path>
                            <path d="M14.4140721,171.5 L78.6993229,171.5 L78.6993229,123.375 L0,123.375 C1.08348353,140.352734 6.1102428,156.564297 14.4140721,171.5 Z" id="Shape" fill="#FAD2A3"></path>
                            <path d="M19.2594792,128.773203 L69.8136979,128.773203 L69.8136979,123.441172 L18.8821354,123.441172 C18.9696354,125.228359 19.1063542,127.002969 19.2594792,128.773203 Z" id="Shape" fill="#FF8562"></path>
                            <rect id="Rectangle-path" fill="#FFF4DB" x="78.698776" y="79.625" width="81.440625" height="91.875"></rect>
                            <rect id="Rectangle-path" fill="#F26E64" x="78.698776" y="79.625" width="81.440625" height="17.5"></rect>
                            <path d="M310.333333,136.842891 L254.275729,136.842891 L254.275729,171.5 L299.474497,171.5 C304.928926,160.565234 308.624861,148.947422 310.333333,136.842891 Z" id="Shape" fill="#FFF4DB"></path>
                            <rect id="Rectangle-path" fill="#FAD2A3" x="183.749089" y="101.5" width="70.5271875" height="70"></rect>
                            <rect id="Rectangle-path" fill="#FF8562" x="183.749089" y="101.5" width="70.5271875" height="5.33203125"></rect>
                            <rect id="Rectangle-path" fill="#FFFCEC" x="127.568073" y="123.375" width="62.1971875" height="48.125"></rect>
                            <path d="M319.666667,184.625 L8.17213542,184.625 C12.4050158,190.74125 2.89636151,196.590625 8.17213542,202.125 L306.16829,202.125 C311.196773,196.590625 315.707253,190.74125 319.666667,184.625 Z" id="Shape" fill="#D8C34A"></path>
                            <path d="M2.33333333,172.839297 C4.47968702,176.868125 6.85655762,180.796875 9.4337903,184.625 L312.460333,184.625 C315.135401,180.376875 317.534385,175.994219 319.666667,171.5 L2.33333333,171.5 L2.33333333,172.839297 Z" id="Shape" fill="#E5AF7C"></path>
                            <path d="M14,172.687104 C14.7630814,174.086035 15.585189,175.460245 16.4109477,176.832031 L299.376612,176.832031 C300.351458,175.073915 301.292227,173.300288 302.166667,171.5 L14,171.5 L14,172.687104 Z" id="Shape" fill="#D0D75B"></path>
                            <path d="M245.876276,76.2546094 C245.876276,72.4122656 249.039401,69.2978125 252.940807,69.2978125 C253.529792,69.2978125 254.092526,69.3896875 254.639401,69.523125 C256.482917,67.5625781 259.096432,66.31625 262.023854,66.31625 C267.597604,66.31625 272.115885,70.7661719 272.115885,76.2546094 L245.876276,76.2546094 Z" id="Shape" fill="#FFF1A9"></path>
                            <path d="M108.173698,65.953125 C108.173698,62.1977344 111.265182,59.1538281 115.078542,59.1538281 C115.653854,59.1538281 116.204557,59.2435156 116.738854,59.3742188 C118.54026,57.4579688 121.09526,56.2400781 123.955964,56.2400781 C129.403385,56.2400781 133.819401,60.5888281 133.819401,65.9536719 L108.173698,65.9536719 L108.173698,65.953125 Z" id="Shape" fill="#FFF1A9"></path>
                            <path d="M85.9377604,45.7608594 C85.9377604,36.65375 93.4348698,29.2703906 102.683073,29.2703906 C104.078698,29.2703906 105.41362,29.4880469 106.709714,29.8046875 C111.079245,25.1578906 117.274792,22.203125 124.212995,22.203125 C137.424401,22.203125 148.134948,32.7501563 148.134948,45.7608594 L85.9377604,45.7608594 Z" id="Shape" fill="#FFEB97"></path>
                            <path d="M222.344792,45.1811719 C220.946432,45.1811719 219.624635,45.4524219 218.358073,45.845625 C214.345651,40.1657813 207.689635,36.4311719 200.131276,36.4311719 C192.572917,36.4311719 185.916901,40.1657813 181.904479,45.845625 C180.637917,45.4524219 179.31612,45.1811719 177.91776,45.1811719 C170.556823,45.1811719 164.58987,51.0573438 164.58987,58.3061719 L235.672135,58.3061719 C235.672682,51.0573438 229.705729,45.1811719 222.344792,45.1811719 Z" id="Shape" fill="#FFEB97"></path>
                            <path d="M239.397995,42.1235937 C238.487448,42.1235937 237.627214,42.3002344 236.802526,42.5561719 C234.190104,38.8582031 229.857214,36.4267969 224.936432,36.4267969 C220.015651,36.4267969 215.682214,38.8582031 213.070339,42.5561719 C212.245651,42.3002344 211.385417,42.1235937 210.47487,42.1235937 C205.682604,42.1235937 201.797604,45.9495312 201.797604,50.6685156 L248.07526,50.6685156 C248.074714,45.9495312 244.19026,42.1235937 239.397995,42.1235937 Z" id="Shape" fill="#FFEB97"></path>
                            <path d="M95.6792448,42.7032813 C94.7686979,42.7032813 93.9084635,42.8799219 93.083776,43.1358594 C90.4713542,39.4378906 86.1384635,37.0064844 81.2176823,37.0064844 C76.296901,37.0064844 71.9634635,39.4378906 69.3515885,43.1358594 C68.526901,42.8799219 67.6666667,42.7032813 66.7561198,42.7032813 C61.9638542,42.7032813 58.0788542,46.5292188 58.0788542,51.2482031 L104.35651,51.2482031 C104.355964,46.5292188 100.470964,42.7032813 95.6792448,42.7032813 Z" id="Shape" fill="#FFEB97"></path>
                            <polygon id="Shape" fill="#F26E64" points="239.580651 84 198.444714 84 181.990339 101.5 256.034479 101.5"></polygon>
                            <rect id="Rectangle-path" fill="#63A0B5" x="140.895964" y="136.842891" width="13.3278906" height="17.5"></rect>
                            <path d="M155.334557,155.437734 L139.78526,155.437734 L139.78526,135.750234 L155.334557,135.750234 L155.334557,155.437734 Z M142.006667,153.250234 L153.113151,153.250234 L153.113151,137.937734 L142.006667,137.937734 L142.006667,153.250234 Z" id="Shape" fill="#4185A6"></path>
                            <rect id="Rectangle-path" fill="#4185A6" x="140.895964" y="140.125234" width="13.3278906" height="2.1875"></rect>
                            <rect id="Rectangle-path" fill="#63A0B5" x="163.109479" y="136.842891" width="13.3278906" height="17.5"></rect>
                            <path d="M177.548073,155.437734 L161.998776,155.437734 L161.998776,135.750234 L177.548073,135.750234 L177.548073,155.437734 Z M164.220182,153.250234 L175.326667,153.250234 L175.326667,137.937734 L164.220182,137.937734 L164.220182,153.250234 Z" id="Shape" fill="#4185A6"></path>
                            <rect id="Rectangle-path" fill="#4185A6" x="163.109479" y="140.125234" width="13.3278906" height="2.1875"></rect>
                            <polygon id="Shape" fill="#F26E64" points="171.994557 99.4492188 158.666667 99.4492188 145.338776 99.4492188 123.12526 125.699219 194.208073 125.699219"></polygon>
                            <rect id="Rectangle-path" fill="#EBD7BD" x="127.568073" y="166.03125" width="62.1971875" height="5.46875"></rect>
                            <rect id="Rectangle-path" fill="#E8A271" x="78.698776" y="159.674922" width="48.8692969" height="11.8250781"></rect>
                            <rect id="Rectangle-path" fill="#FF8562" x="127.568073" y="125.699219" width="62.1971875" height="5.33203125"></rect>
                            <rect id="Rectangle-path" fill="#FF8562" x="78.698776" y="96.7832031" width="81.440625" height="5.33203125"></rect>
                            <rect id="Rectangle-path" fill="#63A0B5" x="198.835729" y="136.842891" width="9.99578125" height="17.5"></rect>
                            <path d="M209.943854,155.437734 L197.726667,155.437734 L197.726667,135.750234 L209.943854,135.750234 L209.943854,155.437734 Z M199.947526,153.250234 L207.721901,153.250234 L207.721901,137.937734 L199.947526,137.937734 L199.947526,153.250234 Z" id="Shape" fill="#4185A6"></path>
                            <rect id="Rectangle-path" fill="#4185A6" x="198.836823" y="140.125234" width="9.99578125" height="2.1875"></rect>
                            <rect id="Rectangle-path" fill="#63A0B5" x="214.014792" y="136.842891" width="9.99578125" height="17.5"></rect>
                            <path d="M225.119635,155.437734 L212.902448,155.437734 L212.902448,135.750234 L225.119635,135.750234 L225.119635,155.437734 Z M215.123854,153.250234 L222.898229,153.250234 L222.898229,137.937734 L215.123854,137.937734 L215.123854,153.250234 Z" id="Shape" fill="#4185A6"></path>
                            <rect id="Rectangle-path" fill="#4185A6" x="214.013151" y="140.125234" width="9.99578125" height="2.1875"></rect>
                            <rect id="Rectangle-path" fill="#63A0B5" x="229.193854" y="136.842891" width="9.99578125" height="17.5"></rect>
                            <path d="M240.300339,155.437734 L228.083151,155.437734 L228.083151,135.750234 L240.300339,135.750234 L240.300339,155.437734 Z M230.304557,153.250234 L238.078932,153.250234 L238.078932,137.937734 L230.304557,137.937734 L230.304557,153.250234 Z" id="Shape" fill="#4185A6"></path>
                            <rect id="Rectangle-path" fill="#4185A6" x="229.193854" y="140.125234" width="9.99578125" height="2.1875"></rect>
                            <rect id="Rectangle-path" fill="#63A0B5" x="28" y="136.5" width="9.99578125" height="17.5"></rect>
                            <rect id="Rectangle-path-Copy" fill="#63A0B5" x="11.6666667" y="136.5" width="9.99578125" height="17.5"></rect>
                            <path d="M39.0505208,155.020833 L26.8333333,155.020833 L26.8333333,135.333333 L39.0505208,135.333333 L39.0505208,155.020833 Z M29.0547396,152.833333 L36.8291146,152.833333 L36.8291146,137.520833 L29.0547396,137.520833 L29.0547396,152.833333 Z" id="Shape" fill="#4185A6"></path>
                            <path d="M22.7171875,155.020833 L10.5,155.020833 L10.5,135.333333 L22.7171875,135.333333 L22.7171875,155.020833 Z M12.7214063,152.833333 L20.4957813,152.833333 L20.4957813,137.520833 L12.7214063,137.520833 L12.7214063,152.833333 Z" id="Shape-Copy" fill="#4185A6"></path>
                            <rect id="Rectangle-path" fill="#4185A6" x="28" y="140" width="9.99578125" height="2.1875"></rect>
                            <rect id="Rectangle-path-Copy-2" fill="#4185A6" x="11.6666667" y="140" width="9.99578125" height="2.1875"></rect>
                            <rect id="Rectangle-path" fill="#63A0B5" x="43.6861979" y="136.842891" width="9.99578125" height="17.5"></rect>
                            <path d="M54.793776,155.437734 L42.5765885,155.437734 L42.5765885,135.750234 L54.793776,135.750234 L54.793776,155.437734 Z M44.7979948,153.250234 L52.5723698,153.250234 L52.5723698,137.937734 L44.7979948,137.937734 L44.7979948,153.250234 Z" id="Shape" fill="#4185A6"></path>
                            <rect id="Rectangle-path" fill="#4185A6" x="43.6872917" y="140.125234" width="9.99578125" height="2.1875"></rect>
                            <rect id="Rectangle-path" fill="#63A0B5" x="58.8652604" y="136.842891" width="9.99578125" height="17.5"></rect>
                            <path d="M69.9701042,155.437734 L57.7529167,155.437734 L57.7529167,135.750234 L69.9701042,135.750234 L69.9701042,155.437734 Z M59.973776,153.250234 L67.7486979,153.250234 L67.7486979,137.937734 L59.973776,137.937734 L59.973776,153.250234 Z" id="Shape" fill="#4185A6"></path>
                            <rect id="Rectangle-path" fill="#4185A6" x="58.8630729" y="140.125234" width="9.99578125" height="2.1875"></rect>
                            <rect id="Rectangle-path" fill="#63A0B5" x="198.835729" y="112.4375" width="9.99578125" height="13.125"></rect>
                            <path d="M209.943854,126.65625 L197.726667,126.65625 L197.726667,111.34375 L209.943854,111.34375 L209.943854,126.65625 Z M199.947526,124.46875 L207.721901,124.46875 L207.721901,113.53125 L199.947526,113.53125 L199.947526,124.46875 Z" id="Shape" fill="#4185A6"></path>
                            <rect id="Rectangle-path" fill="#4185A6" x="198.836823" y="115.71875" width="9.99578125" height="2.1875"></rect>
                            <rect id="Rectangle-path" fill="#63A0B5" x="214.014792" y="112.4375" width="9.99578125" height="13.125"></rect>
                            <path d="M225.119635,126.65625 L212.902448,126.65625 L212.902448,111.34375 L225.119635,111.34375 L225.119635,126.65625 Z M215.123854,124.46875 L222.898229,124.46875 L222.898229,113.53125 L215.123854,113.53125 L215.123854,124.46875 Z" id="Shape" fill="#4185A6"></path>
                            <rect id="Rectangle-path" fill="#4185A6" x="214.013151" y="115.71875" width="9.99578125" height="2.1875"></rect>
                            <rect id="Rectangle-path" fill="#63A0B5" x="229.193854" y="112.4375" width="9.99578125" height="13.125"></rect>
                            <path d="M240.300339,126.65625 L228.083151,126.65625 L228.083151,111.34375 L240.300339,111.34375 L240.300339,126.65625 Z M230.304557,124.46875 L238.078932,124.46875 L238.078932,113.53125 L230.304557,113.53125 L230.304557,124.46875 Z" id="Shape" fill="#4185A6"></path>
                            <rect id="Rectangle-path" fill="#4185A6" x="229.193854" y="115.71875" width="9.99578125" height="2.1875"></rect>
                            <rect id="Rectangle-path" fill="#B66E64" x="189.76526" y="163.114766" width="64.5110156" height="8.38523438"></rect>
                            <path d="M222.515417,168.876641 C221.780964,168.876641 221.086432,169.018828 220.420885,169.225547 C218.312682,166.24125 214.815964,164.279063 210.844557,164.279063 C206.873151,164.279063 203.376432,166.24125 201.268229,169.225547 C200.602682,169.018828 199.908151,168.876641 199.173698,168.876641 C195.306198,168.876641 192.17151,171.96375 192.17151,175.772188 L229.517604,175.772188 C229.517604,171.964297 226.38237,168.876641 222.515417,168.876641 Z" id="Shape" fill="#69BE5D"></path>
                            <path d="M227.297292,168.876641 C226.562839,168.876641 225.868307,169.018828 225.20276,169.225547 C223.094557,166.24125 219.597839,164.279063 215.626432,164.279063 C214.800651,164.279063 214.01151,164.411406 213.235495,164.572734 C216.193542,165.186875 218.751276,166.861406 220.420885,169.225547 C221.086432,169.018828 221.780964,168.876641 222.515417,168.876641 C226.382917,168.876641 229.517604,171.964297 229.517604,175.772188 L234.299479,175.772188 C234.299479,171.964297 231.164792,168.876641 227.297292,168.876641 Z" id="Shape" fill="#9DC85C"></path>
                            <path d="M305.207292,125.699219 L254.275729,125.699219 L254.275729,136.842891 L304.283412,136.842891 C304.746609,133.167891 305.080337,129.458438 305.207292,125.699219 Z" id="Shape" fill="#F26E64"></path>
                            <rect id="Rectangle-path" fill="#63A0B5" x="260.153542" y="146.480469" width="26.516875" height="12.5934375"></rect>
                            <path d="M287.78112,160.167109 L259.042839,160.167109 L259.042839,145.386719 L287.78112,145.386719 L287.78112,160.167109 Z M261.264245,157.979609 L285.559714,157.979609 L285.559714,147.574219 L261.264245,147.574219 L261.264245,157.979609 Z" id="Shape" fill="#4185A6"></path>
                            <rect id="Rectangle-path" fill="#4185A6" x="272.301276" y="146.480469" width="2.22140625" height="12.5928906"></rect>
                            <rect id="Rectangle-path" fill="#F26E64" x="254.276276" y="119" width="4.720625" height="17.8428906"></rect>
                            <rect id="Rectangle-path" fill="#F26E64" x="78.698776" y="74.5877344" width="4.720625" height="15.2239063"></rect>
                            <rect id="Rectangle-path" fill="#F26E64" x="73.9786979" y="100.290859" width="4.720625" height="15.2239063"></rect>
                            <rect id="Rectangle-path" fill="#B66E64" x="96.8588542" y="71.2851562" width="6.2475" height="14.9335156"></rect>
                            <rect id="Rectangle-path" fill="#B66E64" x="135.73237" y="71.2851562" width="6.2475" height="14.9335156"></rect>
                            <rect id="Rectangle-path" fill="#F26E64" x="155.419323" y="74.5877344" width="4.720625" height="15.2239063"></rect>
                            <path d="M303.145026,136.842891 L254.275729,136.842891 L254.275729,142.174922 L302.290698,142.174922 C302.587962,140.401406 302.92392,138.639375 303.145026,136.842891 Z" id="Shape" fill="#FF8562"></path>
                            <rect id="Rectangle-path" fill="#63A0B5" x="93.5076042" y="135.885859" width="9.99578125" height="17.5"></rect>
                            <path d="M104.612995,154.480703 L92.3958073,154.480703 L92.3958073,134.793203 L104.612995,134.793203 L104.612995,154.480703 Z M94.6172135,152.293203 L102.391589,152.293203 L102.391589,136.980703 L94.6172135,136.980703 L94.6172135,152.293203 Z" id="Shape" fill="#4185A6"></path>
                            <rect id="Rectangle-path" fill="#4185A6" x="93.5065104" y="139.168203" width="9.99578125" height="2.1875"></rect>
                            <rect id="Rectangle-path" fill="#63A0B5" x="111.463698" y="135.885859" width="9.99578125" height="17.5"></rect>
                            <path d="M122.570182,154.480703 L110.352995,154.480703 L110.352995,134.793203 L122.570182,134.793203 L122.570182,154.480703 Z M112.574401,152.293203 L120.348776,152.293203 L120.348776,136.980703 L112.574401,136.980703 L112.574401,152.293203 Z" id="Shape" fill="#4185A6"></path>
                            <rect id="Rectangle-path" fill="#4185A6" x="111.463698" y="139.168203" width="9.99578125" height="2.1875"></rect>
                            <rect id="Rectangle-path" fill="#63A0B5" x="93.5076042" y="111.480469" width="9.99578125" height="13.125"></rect>
                            <path d="M104.612995,125.699219 L92.3958073,125.699219 L92.3958073,110.386719 L104.612995,110.386719 L104.612995,125.699219 Z M94.6172135,123.511719 L102.391589,123.511719 L102.391589,112.574219 L94.6172135,112.574219 L94.6172135,123.511719 Z" id="Shape" fill="#4185A6"></path>
                            <rect id="Rectangle-path" fill="#4185A6" x="93.5065104" y="114.761719" width="9.99578125" height="2.1875"></rect>
                            <rect id="Rectangle-path" fill="#63A0B5" x="111.463698" y="111.480469" width="9.99578125" height="13.125"></rect>
                            <path d="M122.570182,125.699219 L110.352995,125.699219 L110.352995,110.386719 L122.570182,110.386719 L122.570182,125.699219 Z M112.574401,123.511719 L120.348776,123.511719 L120.348776,112.574219 L112.574401,112.574219 L112.574401,123.511719 Z" id="Shape" fill="#4185A6"></path>
                            <rect id="Rectangle-path" fill="#4185A6" x="111.463698" y="114.761719" width="9.99578125" height="2.1875"></rect>
                            <path d="M78.698776,105.875 L19.0888542,105.875 C18.7634635,110.198047 18.6108854,114.571406 18.6890885,119 C18.7153385,120.467266 18.8066667,121.918672 18.8772135,123.375 L78.698776,123.375 L78.698776,105.875 L78.698776,105.875 Z" id="Shape" fill="#F26E64"></path>
                            <path d="M12.5044288,171.5 L78.6993229,171.5 L78.6993229,163.114766 L8.17213542,163.114766 C9.51301281,165.945937 10.9309351,168.751406 12.5044288,171.5 Z" id="Shape" fill="#B66E64"></path>
                            <path d="M77.0614323,174.647812 L77.0614323,152.239062 C77.0614323,151.088984 76.1147917,150.156562 74.9455729,150.156562 C73.7763542,150.156562 72.8297135,151.088984 72.8297135,152.239062 L72.8297135,174.647266 L77.0614323,174.647266 L77.0614323,174.647812 Z" id="Shape" fill="#996459"></path>
                            <path d="M89.9485417,145.371406 C89.9485417,156.710859 83.231276,162.402187 74.9444792,162.402187 C66.6576823,162.402187 59.9404167,156.710312 59.9404167,145.371406 C59.9404167,134.0325 69.1311979,89.8121875 74.9444792,89.8121875 C80.7577604,89.8121875 89.9485417,134.031953 89.9485417,145.371406 Z" id="Shape" fill="#69BE5D"></path>
                            <path d="M74.9444792,89.8116406 C73.7933073,89.8116406 72.5086979,91.5649219 71.1901823,94.4349219 C75.9321354,101.507656 82.067526,136.451328 82.067526,146.157266 C82.067526,155.640078 77.7854948,160.978672 72.1001823,162.151172 C73.0227604,162.308672 73.9699479,162.402187 74.9444792,162.402187 C83.2307292,162.402187 89.9485417,156.710312 89.9485417,145.371406 C89.9485417,134.031953 80.7577604,89.8116406 74.9444792,89.8116406 Z" id="Shape" fill="#9DC85C"></path>
                            <path d="M95.3303385,174.647812 L95.3303385,157.42125 C95.3303385,156.5375 94.6024479,155.820547 93.7033854,155.820547 C92.8043229,155.820547 92.0764323,156.5375 92.0764323,157.42125 L92.0764323,174.647812 L95.3303385,174.647812 Z" id="Shape" fill="#996459"></path>
                            <path d="M105.236979,152.141172 C105.236979,160.858359 100.072839,165.233906 93.7028385,165.233906 C87.3328385,165.233906 82.1686979,160.858359 82.1686979,152.141172 C82.1686979,143.423984 89.2343229,109.429141 93.7028385,109.429141 C98.1713542,109.429141 105.236979,143.423984 105.236979,152.141172 Z" id="Shape" fill="#69BE5D"></path>
                            <path d="M93.7028385,109.429141 C92.8179948,109.429141 91.8303385,110.777188 90.8164323,112.983281 C94.461901,118.420313 99.178151,145.283359 99.178151,152.745469 C99.178151,160.035313 95.8865104,164.139609 91.5158854,165.040859 C92.2251823,165.161719 92.9536198,165.233906 93.7022917,165.233906 C100.072292,165.233906 105.236432,160.858359 105.236432,152.141172 C105.236432,143.423984 98.1713542,109.429141 93.7028385,109.429141 Z" id="Shape" fill="#9DC85C"></path>
                            <path d="M215.472214,167.364531 C214.576432,167.364531 213.72987,167.537891 212.918307,167.79 C210.347995,164.151094 206.08401,161.759062 201.241979,161.759062 C196.399948,161.759062 192.135964,164.151641 189.565651,167.79 C188.754089,167.537891 187.907526,167.364531 187.011745,167.364531 C182.296042,167.364531 178.473385,171.129219 178.473385,175.772734 L224.010573,175.772734 C224.010573,171.128672 220.187917,167.364531 215.472214,167.364531 Z" id="Shape" fill="#69BE5D"></path>
                            <path d="M201.080104,167.364531 C200.184323,167.364531 199.33776,167.537891 198.526198,167.79 C195.955885,164.151094 191.691901,161.759062 186.84987,161.759062 C182.007839,161.759062 177.743854,164.151641 175.173542,167.79 C174.361979,167.537891 173.515417,167.364531 172.619635,167.364531 C167.903932,167.364531 164.081276,171.129219 164.081276,175.772734 L209.618464,175.772734 C209.618464,171.128672 205.795807,167.364531 201.080104,167.364531 Z" id="Shape" fill="#69BE5D"></path>
                            <path d="M206.910885,167.363984 C206.015104,167.363984 205.168542,167.537344 204.356979,167.789453 C201.786667,164.150547 197.522682,161.758516 192.680104,161.758516 C191.673307,161.758516 190.711354,161.919844 189.764714,162.116719 C193.371901,162.865391 196.490182,164.907422 198.525651,167.79 C199.337214,167.537891 200.183776,167.364531 201.079557,167.364531 C205.79526,167.364531 209.617917,171.129219 209.617917,175.772734 L215.448698,175.772734 C215.449245,171.128672 211.626589,167.363984 206.910885,167.363984 Z" id="Shape" fill="#9DC85C"></path>
                        </g>
                    </g>
                </g>
                <text id="How-do-your-habits-a" mask="url(#mask-3)" font-family="ArialRoundedMTBold, Arial Rounded MT Bold" font-size="26" font-weight="normal" line-spacing="32" letter-spacing="0.150000006" fill="#075D89">
                    <tspan x="57.6276367" y="183">How do your </tspan>
                    <tspan x="34.0975585" y="215">habits affect the </tspan>
                    <tspan x="90.793457" y="247">ocean</tspan>
                    <tspan x="169.302246" y="247">?</tspan>
                </text>
            </g>
        </g>
    </g>
</svg>