<?xml version="1.0" encoding="UTF-8"?>
<svg width="250px" height="250px" viewBox="0 0 250 250" version="1.1" xmlns="http://www.w3.org/2000/svg" xmlns:xlink="http://www.w3.org/1999/xlink">
    <!-- Generator: Sketch 51.3 (57544) - http://www.bohemiancoding.com/sketch -->
    <title>btn_navi_07</title>
    <desc>Created with Sketch.</desc>
    <defs>
        <filter x="-2.4%" y="-2.4%" width="104.8%" height="104.8%" filterUnits="objectBoundingBox" id="filter-1">
            <feOffset dx="0" dy="0" in="SourceAlpha" result="shadowOffsetOuter1"></feOffset>
            <feGaussianBlur stdDeviation="2" in="shadowOffsetOuter1" result="shadowBlurOuter1"></feGaussianBlur>
            <feColorMatrix values="0 0 0 0 0   0 0 0 0 0   0 0 0 0 0  0 0 0 0.5 0" type="matrix" in="shadowBlurOuter1" result="shadowMatrixOuter1"></feColorMatrix>
            <feMerge>
                <feMergeNode in="shadowMatrixOuter1"></feMergeNode>
                <feMergeNode in="SourceGraphic"></feMergeNode>
            </feMerge>
        </filter>
        <circle id="path-2" cx="118" cy="118" r="118"></circle>
        <circle id="path-4" cx="125" cy="125" r="125"></circle>
    </defs>
    <g id="btn_navi_07" stroke="none" stroke-width="1" fill="none" fill-rule="evenodd">
        <g id="Group" filter="url(#filter-1)">
            <circle id="Oval" fill="#075D89" fill-rule="nonzero" cx="125" cy="125" r="125"></circle>
            <g id="waterfall" transform="translate(7.000000, 7.000000)">
                <mask id="mask-3" fill="white">
                    <use xlink:href="#path-2"></use>
                </mask>
                <use id="Oval" fill="#F9BE58" xlink:href="#path-2"></use>
                <g id="Group-4" mask="url(#mask-3)">
                    <g transform="translate(-7.000000, -84.000000)">
                        <mask id="mask-5" fill="white">
                            <use xlink:href="#path-4"></use>
                        </mask>
                        <use id="Oval-Copy" stroke="none" fill="#8DD9FF" fill-rule="evenodd" xlink:href="#path-4"></use>
                        <g id="3" stroke="none" stroke-width="1" fill="none" fill-rule="evenodd" mask="url(#mask-5)">
                            <g transform="translate(30.000000, 130.000000)">
                                <g id="Group-22" stroke-width="1" fill="none" transform="translate(16.000000, 68.000000)">
                                    <path d="M9.68372381,61.6075728 C4.46894897,61.6075728 0.240506329,57.417826 0.240506329,52.2499146 L0.240506329,9.59886076 C0.240506329,4.43025316 4.46894897,0.240506329 9.68372381,0.240506329 L43.0138838,0.240506329 C48.2286586,0.240506329 52.4556962,4.43025316 52.4556962,9.59886076 L52.4556962,52.2499146 C52.4556962,57.417826 48.2286586,61.6075728 43.0138838,61.6075728" id="Fill-3" fill="#262F6E"></path>
                                </g>
                                <path d="M38.2757342,59.8297532 L46.2312405,59.8297532 C48.7473165,59.8297532 50.7878861,61.8703228 50.7878861,64.3870949 L50.7878861,79.7863987 C50.7878861,82.3031709 48.7473165,84.3437405 46.2312405,84.3437405 L38.2757342,84.3437405 C35.758962,84.3437405 33.7183924,82.3031709 33.7183924,79.7863987 L33.7183924,64.3870949 C33.7183924,61.8703228 35.758962,59.8297532 38.2757342,59.8297532" id="Fill-6" fill="#E3B38F"></path>
                                <path d="M76.8048354,49.7994241 C76.8048354,53.5902468 73.7317975,56.6632848 69.9416709,56.6632848 C66.1501519,56.6632848 63.0771139,53.5902468 63.0771139,49.7994241 C63.0771139,46.0086013 66.1501519,42.9355633 69.9416709,42.9355633 C73.7317975,42.9355633 76.8048354,46.0086013 76.8048354,49.7994241 Z M19.798519,49.7994241 C19.798519,53.5902468 16.725481,56.6632848 12.9346582,56.6632848 C9.14313924,56.6632848 6.07010127,53.5902468 6.07010127,49.7994241 C6.07010127,46.0086013 9.14313924,42.9355633 12.9346582,42.9355633 C16.725481,42.9355633 19.798519,46.0086013 19.798519,49.7994241 Z" id="Combined-Shape" fill="#E3B38F"></path>
                                <path d="M73.5699304,42.0289684 C73.5699304,59.3254241 59.5484114,73.3455506 42.2533481,73.3455506 C24.9575886,73.3455506 10.9367658,59.3254241 10.9367658,42.0289684 C10.9367658,24.7332089 24.9575886,10.7130823 42.2533481,10.7130823 C59.5484114,10.7130823 73.5699304,24.7332089 73.5699304,42.0289684" id="Fill-15" fill="#F6D1B6"></path>
                                <path d="M62.7978671,44.5744937 C62.7978671,47.0585443 60.783057,49.0733544 58.2990063,49.0733544 C55.8142595,49.0733544 53.7994494,47.0585443 53.7994494,44.5744937 C53.7994494,42.0897468 55.8142595,40.0756329 58.2990063,40.0756329 C60.783057,40.0756329 62.7978671,42.0897468 62.7978671,44.5744937 Z M30.7066203,44.5744937 C30.7066203,47.0585443 28.6925063,49.0733544 26.2077595,49.0733544 C23.7237089,49.0733544 21.7088987,47.0585443 21.7088987,44.5744937 C21.7088987,42.0897468 23.7237089,40.0756329 26.2077595,40.0756329 C28.6925063,40.0756329 30.7066203,42.0897468 30.7066203,44.5744937 Z" id="Combined-Shape" fill="#010202"></path>
                                <path d="M35.1135823,56.3378797 L49.3711139,56.3378797 C49.3711139,56.3378797 47.5463671,63.7510443 42.242,63.7510443 C36.9383291,63.7510443 35.1135823,56.3378797 35.1135823,56.3378797" id="Fill-49" fill="#CA583C"></path>
                                <path d="M46.7926582,47.6189873 C46.7926582,50.1322785 44.7555696,52.1693671 42.2422785,52.1693671 C39.7289873,52.1693671 37.6925949,50.1322785 37.6925949,47.6189873 C37.6925949,45.1063924 39.7289873,43.0686076 42.2422785,43.0686076 C44.7555696,43.0686076 46.7926582,45.1063924 46.7926582,47.6189873" id="Fill-52" fill="#2C1811"></path>
                                <path d="M70.9304949,18.4515859 C71.4765735,18.3573446 72.0381079,18.3082342 72.6111203,18.3082342 C78.031057,18.3082342 82.4247911,22.7019684 82.4247911,28.1219051 C82.4247911,33.5411456 78.031057,37.9355759 72.6111203,37.9355759 C67.3192546,37.9355759 63.0063307,33.7463694 62.8054598,28.5043079 C62.1815525,28.6726899 61.5375747,28.7680712 60.8785759,28.7834367 L35.307057,29.3828671 C32.3490482,29.4522447 29.6495668,27.893217 27.6845153,25.3206763 C25.5345016,27.809864 22.3551562,29.3851646 18.8078924,29.3851646 C17.6811691,29.3851646 16.5915519,29.2261985 15.5602469,28.9294687 C15.5690706,29.0802852 15.5735443,29.2322714 15.5735443,29.3853038 C15.5735443,33.627962 12.135,37.0665063 7.89234177,37.0665063 C3.64968354,37.0665063 0.211139241,33.627962 0.211139241,29.3853038 C0.211139241,25.1734645 3.59990938,21.7540993 7.80001326,21.7046446 C7.33675055,20.4440019 7.08384177,19.0817438 7.08384177,17.6604177 C7.08384177,11.185038 12.3332089,5.93636709 18.8078924,5.93636709 C21.4150175,5.93636709 23.8234012,6.78719667 25.7704536,8.22635673 C27.5476544,3.86730562 30.9689966,0.877192056 34.9345886,0.784259494 L60.5068038,0.185525316 C66.3834494,0.0476772152 71.2408544,6.33786709 71.3438924,14.2355886 C71.3628554,15.699091 71.2174412,17.1150036 70.9304943,18.451589 Z M29.7642405,60.7408038 C30.3782911,54.3065 35.7975316,49.2736519 42.3933544,49.2736519 C48.9877848,49.2736519 54.4077215,54.3065 55.0217722,60.7408038 C49.3678987,57.9844217 45.1274936,56.6062307 42.3005568,56.6062307 C39.5147088,56.6062307 35.3359367,57.9844217 29.7642405,60.7408038 Z" id="Combined-Shape" fill="#997415"></path>
                            </g>
                        </g>
                        <g id="6" stroke="none" stroke-width="1" fill="none" fill-rule="evenodd" mask="url(#mask-5)">
                            <g transform="translate(130.000000, 123.000000)">
                                <g id="Group-25" stroke-width="1" fill="none">
                                    <g id="Group-26" transform="translate(28.592593, 85.764706)" fill="#29A98C">
                                        <path d="M40.3944263,57.7942433 L9.36548698,57.7942433 C4.51000049,57.7942433 0.574074074,53.9002433 0.574074074,49.0971257 L0.574074074,9.63894118 C0.574074074,4.83517647 4.51000049,0.941176471 9.36548698,0.941176471 L40.3944263,0.941176471 C45.2499128,0.941176471 49.1851852,4.83517647 49.1851852,9.63894118 L49.1851852,49.0971257" id="Fill-6"></path>
                                    </g>
                                    <path d="M32.4519527,51.0200917 C34.9251049,53.2315808 36.4810185,56.4423694 36.4810185,60.0153529 C36.4810185,66.6878235 31.057963,72.0952941 24.3677778,72.0952941 C17.6775926,72.0952941 12.2551852,66.6878235 12.2551852,60.0153529 C12.2551852,56.0195052 14.2009458,52.4766575 17.199412,50.2779468 C7.24964347,46.6769062 0.141296296,37.1663459 0.141296296,26.0001176 C0.141296296,11.7402353 11.7340741,0.180529412 26.0328704,0.180529412 C40.332963,0.180529412 51.9250926,11.7402353 51.9250926,26.0001176 C51.9250926,38.0505079 43.6469373,48.1726519 32.4519527,51.0200917 Z M66.7644444,59.1094706 C66.7644444,52.4382941 72.1875,47.0308235 78.877037,47.0308235 C85.5678704,47.0308235 90.9909259,52.4382941 90.9909259,59.1094706 C90.9909259,65.7812941 85.5678704,71.1894118 78.877037,71.1894118 C72.1875,71.1894118 66.7644444,65.7812941 66.7644444,59.1094706 Z" id="Combined-Shape" fill="#FBC53A"></path>
                                    <g id="Group-23" transform="translate(19.444444, 33.000000)">
                                        <path d="M30.3641852,46.2146882 L37.7699259,46.2146882 C40.1129815,46.2146882 42.0127037,48.1112176 42.0127037,50.4503353 L42.0127037,64.7626294 C42.0127037,67.1017471 40.1129815,68.9982765 37.7699259,68.9982765 L30.3641852,68.9982765 C28.0211296,68.9982765 26.1214074,67.1017471 26.1214074,64.7626294 L26.1214074,50.4503353 C26.1214074,48.1112176 28.0211296,46.2146882 30.3641852,46.2146882" id="Fill-9" fill="#FFC4A3"></path>
                                        <path d="M13.1620093,36.8923824 C13.1620093,40.4156176 10.3010833,43.2717353 6.77191667,43.2717353 C3.24275,43.2717353 0.381824074,40.4156176 0.381824074,36.8923824 C0.381824074,33.3691471 3.24275,30.5130294 6.77191667,30.5130294 C10.3010833,30.5130294 13.1620093,33.3691471 13.1620093,36.8923824 Z M66.2338704,36.8923824 C66.2338704,40.4156176 63.3729444,43.2717353 59.8437778,43.2717353 C56.3146111,43.2717353 53.4536852,40.4156176 53.4536852,36.8923824 C53.4536852,33.3691471 56.3146111,30.5130294 59.8437778,30.5130294 C63.3729444,30.5130294 66.2338704,33.3691471 66.2338704,36.8923824 Z" id="Combined-Shape" fill="#FFC4A3"></path>
                                        <path d="M7.34287037,42.8871235 C7.34287037,43.5568294 6.79907407,44.1003588 6.12759259,44.1003588 C5.45611111,44.1003588 4.91231481,43.5568294 4.91231481,42.8871235 C4.91231481,42.2167706 5.45611111,41.6732412 6.12759259,41.6732412 C6.79907407,41.6732412 7.34287037,42.2167706 7.34287037,42.8871235 Z M63.4564259,42.8871235 C63.4564259,43.5568294 62.9119815,44.1003588 62.2405,44.1003588 C61.5696667,44.1003588 61.0252222,43.5568294 61.0252222,42.8871235 C61.0252222,42.2167706 61.5696667,41.6732412 62.2405,41.6732412 C62.9119815,41.6732412 63.4564259,42.2167706 63.4564259,42.8871235 Z" id="Combined-Shape" fill="#29A98C"></path>
                                        <path d="M63.22225,29.6704941 C63.22225,45.7453765 50.1685463,58.7764941 34.06725,58.7764941 C17.9653056,58.7764941 4.91225,45.7453765 4.91225,29.6704941 C4.91225,13.5956118 17.9653056,0.565141176 34.06725,0.565141176 C50.1685463,0.565141176 63.22225,13.5956118 63.22225,29.6704941" id="Fill-25" fill="#FED8BC"></path>
                                        <path d="M38.2932407,34.8658588 C38.2932407,37.2017412 36.3967593,39.0950353 34.0569444,39.0950353 C31.7171296,39.0950353 29.8206481,37.2017412 29.8206481,34.8658588 C29.8206481,32.5306235 31.7171296,30.6366824 34.0569444,30.6366824 C36.3967593,30.6366824 38.2932407,32.5306235 38.2932407,34.8658588" id="Fill-37" fill="#FFC4A3"></path>
                                        <path d="M27.4202963,42.9693 L40.6937222,42.9693 C40.6937222,42.9693 38.9942778,49.8591824 34.0566852,49.8591824 C29.1190926,49.8591824 27.4202963,42.9693 27.4202963,42.9693" id="Fill-34" fill="#CA583C"></path>
                                        <path d="M53.193713,32.0362706 C53.193713,34.3449765 51.3179722,36.2175647 49.0047315,36.2175647 C46.6921389,36.2175647 44.8163981,34.3449765 44.8163981,32.0362706 C44.8163981,29.7269176 46.6921389,27.8543294 49.0047315,27.8543294 C51.3179722,27.8543294 53.193713,29.7269176 53.193713,32.0362706 Z M23.3174537,32.0362706 C23.3174537,34.3449765 21.4423611,36.2175647 19.1291204,36.2175647 C16.8158796,36.2175647 14.940787,34.3449765 14.940787,32.0362706 C14.940787,29.7269176 16.8158796,27.8543294 19.1291204,27.8543294 C21.4423611,27.8543294 23.3174537,29.7269176 23.3174537,32.0362706 Z" id="Combined-Shape" fill="#010202"></path>
                                    </g>
                                </g>
                                <path d="M37.087037,26.6465294 C37.087037,36.0702941 44.7468519,43.7094706 54.1968519,43.7094706 C63.6468519,43.7094706 71.3060185,36.0702941 71.3060185,26.6465294 C71.3060185,17.2240588 63.6468519,9.58488235 54.1968519,9.58488235 C44.7468519,9.58488235 37.087037,17.2240588 37.087037,26.6465294 Z" id="Clip-42" fill="#FBC53A"></path>
                                <path d="M66.7644444,35.8574118 C66.7644444,42.5285882 72.1875,47.9367059 78.877037,47.9367059 C85.5678704,47.9367059 90.9909259,42.5285882 90.9909259,35.8574118 C90.9909259,29.1862353 85.5678704,23.7781176 78.877037,23.7781176 C72.1875,23.7781176 66.7644444,29.1862353 66.7644444,35.8574118 Z" id="Clip-45" fill="#FBC53A"></path>
                            </g>
                        </g>
                        <g id="4" stroke="none" stroke-width="1" fill="none" fill-rule="evenodd" mask="url(#mask-5)">
                            <g transform="translate(87.000000, 164.000000)">
                                <g id="Group-49" transform="translate(1.000000, 0.085755)">
                                    <g id="Group-9" transform="translate(15.000000, 61.000000)" fill="#7B53A2">
                                        <path d="M38.5552659,30.7411195 L8.71055687,30.7411195 C4.01885914,30.7411195 0.215189873,26.9183648 0.215189873,22.203761 L0.215189873,9.39962893 C0.215189873,4.68438994 4.01885914,0.86163522 8.71055687,0.86163522 L38.5552659,0.86163522 C43.2475957,0.86163522 47.0506329,4.68438994 47.0506329,9.39962893 L47.0506329,22.203761 C47.0506329,26.9183648 43.2475957,30.7411195 38.5552659,30.7411195" id="Fill-7"></path>
                                    </g>
                                    <path d="M35.1228481,54.4781541 L42.3082911,54.4781541 C44.5956329,54.4781541 46.4500633,56.3399843 46.4500633,58.636305 L46.4500633,72.6194057 C46.4500633,74.9157264 44.5956329,76.7769214 42.3082911,76.7769214 L35.1228481,76.7769214 C32.8348734,76.7769214 30.9798101,74.9157264 30.9798101,72.6194057 L30.9798101,58.636305 C30.9798101,56.3399843 32.8348734,54.4781541 35.1228481,54.4781541" id="Fill-10" fill="#F7AC82"></path>
                                    <path d="M22.3379114,5.22559937 C22.3379114,5.22559937 9.2106962,8.21812138 3.42525316,38.3656686 L6.98537975,38.3656686 C6.98537975,38.3656686 7.16512658,64.4929075 9.18917722,66.0561843 C9.18917722,66.0561843 -1.02474684,73.2024107 0.0879113924,76.3289642 C1.20056962,79.4548824 8.05563291,82.5808006 9.18917722,81.4653541 C10.3227215,80.3486371 11.1701899,67.1729013 11.1701899,67.1729013 C11.1701899,67.1729013 9.87778481,65.1624296 19.890443,61.1433918 C29.9024684,57.1237189 57.048038,61.8135491 57.048038,61.8135491 L65.0581646,66.0561843 C65.0581646,66.0561843 63.9455063,81.4805994 66.1708228,81.695939 C68.3955063,81.9112786 74.6252532,77.4450459 74.1803165,74.7656874 C73.7353797,72.0856937 67.2828481,65.6096245 67.2828481,65.6096245 C67.2828481,65.6096245 69.0625949,38.3656686 67.505,35.2391151 C67.505,35.2391151 71.9556329,37.0259893 73.0676582,36.3558321 C73.0676582,36.3558321 73.5125949,-11.6566459 21.448038,3.30596415 L22.3379114,5.22559937 Z" id="Fill-13" fill="#EFBB37"></path>
                                    <path d="M65.418481,67.0944516 C65.1748101,67.1719484 64.9146835,67.0372818 64.8368354,66.792722 L64.6260759,66.128917 C64.5482278,65.8849925 64.6824051,65.623917 64.9260759,65.5457849 L66.9640506,64.8921434 C67.2077215,64.8140113 67.4678481,64.9493132 67.5456962,65.193873 L67.7564557,65.857678 C67.8343038,66.1022377 67.7001266,66.3633132 67.4570886,66.4414453 L65.418481,67.0944516 Z M11.0159494,67.0609755 L8.97734177,66.4086044 C8.7343038,66.3304723 8.60012658,66.0687616 8.67797468,65.8242019 L8.88873418,65.1610321 C8.96658228,64.9164723 9.22670886,64.7811704 9.47037975,64.8593025 L11.5083544,65.5123088 C11.7520253,65.5904409 11.8862025,65.8521516 11.8083544,66.0960761 L11.5975949,66.7598811 C11.5197468,67.0044409 11.2596203,67.1391075 11.0159494,67.0609755 Z" id="Fill-46" fill="#7B53A2"></path>
                                    <path d="M70.4787342,45.444244 C70.4787342,48.8928541 67.6932911,51.6878226 64.2578481,51.6878226 C60.8217722,51.6878226 58.0363291,48.8928541 58.0363291,45.444244 C58.0363291,41.995634 60.8217722,39.2006654 64.2578481,39.2006654 C67.6932911,39.2006654 70.4787342,41.995634 70.4787342,45.444244 Z M18.8111392,45.444244 C18.8111392,48.8928541 16.0263291,51.6878226 12.5902532,51.6878226 C9.15417722,51.6878226 6.36936709,48.8928541 6.36936709,45.444244 C6.36936709,41.995634 9.15417722,39.2006654 12.5902532,39.2006654 C16.0263291,39.2006654 18.8111392,41.995634 18.8111392,45.444244 Z" id="Fill-19" fill="#F7AC82"></path>
                                    <path d="M67.0236709,38.2862025 C67.0236709,54.0193346 54.3160759,66.7732843 38.6401266,66.7732843 C22.9648101,66.7732843 10.2572152,54.0193346 10.2572152,38.2862025 C10.2572152,22.5530704 22.9648101,9.79912075 38.6401266,9.79912075 C54.3160759,9.79912075 67.0236709,22.5530704 67.0236709,38.2862025" id="Fill-22" fill="#FBCBA9"></path>
                                    <path d="M57.2605063,40.6013258 C57.2605063,42.861439 55.4351899,44.6934138 53.1832911,44.6934138 C50.9313924,44.6934138 49.105443,42.861439 49.105443,40.6013258 C49.105443,38.3405774 50.9313924,36.5092377 53.1832911,36.5092377 C55.4351899,36.5092377 57.2605063,38.3405774 57.2605063,40.6013258 Z M28.1756329,40.6013258 C28.1756329,42.861439 26.3496835,44.6934138 24.0977848,44.6934138 C21.8458861,44.6934138 20.0199367,42.861439 20.0199367,40.6013258 C20.0199367,38.3405774 21.8458861,36.5092377 24.0977848,36.5092377 C26.3496835,36.5092377 28.1756329,38.3405774 28.1756329,40.6013258 Z" id="Combined-Shape" fill="#010202"></path>
                                    <path d="M38.6303797,46.7922447 C36.5518987,46.7922447 34.8670886,45.1012887 34.8670886,43.0152258 L42.3943038,43.0152258 C42.3943038,45.1012887 40.7094937,46.7922447 38.6303797,46.7922447" id="Fill-31" fill="#F7AC82"></path>
                                    <path d="M32.1696203,51.3020535 L45.0917722,51.3020535 C45.0917722,51.3020535 43.4379747,58.0455503 38.6303797,58.0455503 C33.8234177,58.0455503 32.1696203,51.3020535 32.1696203,51.3020535" id="Fill-34" fill="#CA583C"></path>
                                    <path d="M10.1512658,39.1088126 C10.1512658,39.1088126 19.4803797,42.1451648 28.8094937,13.2960075 L28.8094937,3.79565535 L19.4803797,10.7659258 L6.36898734,35.0599195 L10.1512658,39.1088126 Z" id="Fill-37" fill="#EFBB37"></path>
                                    <path d="M21.7568987,3.65063459 C21.7568987,3.65063459 27.6822152,33.5028044 74.9189241,37.137534 C74.9189241,37.137534 71.4625949,-12.6561013 21.7568987,3.65063459" id="Fill-40" fill="#EFBB37"></path>
                                </g>
                                <g id="Group-54" transform="translate(0.392405, 66.393931)">
                                    <path d="M9.5306962,0.273271698 C9.5306962,0.273271698 -4.66297468,8.20081887 2.50474684,12.780756 C9.67373418,17.3606931 10.1477848,16.1931585 10.6642405,11.9155862 C11.1813291,7.63801384 12.1756329,1.18671824 11.3452532,1.10286918 C10.5161392,1.01838491 9.5306962,0.273271698 9.5306962,0.273271698" id="Fill-50" fill="#EFBB37"></path>
                                    <path d="M68.1040506,0.140510692 C68.1040506,0.140510692 81.5135443,9.34230943 73.9572152,13.2431962 C66.4002532,17.1434478 65.5572152,16.0781836 65.4325316,11.770756 C65.3091139,7.4633283 65.386962,0.807491824 66.2211392,0.799869182 C67.0559494,0.792246541 68.1040506,0.140510692 68.1040506,0.140510692" id="Fill-52" fill="#EFBB37"></path>
                                </g>
                            </g>
                        </g>
                    </g>
                </g>
                <text id="For-your-future" mask="url(#mask-3)" font-family="ArialRoundedMTBold, Arial Rounded MT Bold" font-size="23" font-weight="normal" line-spacing="28" letter-spacing="0.150000006" fill="#075D89">
                    <tspan x="34.7468261" y="194">For your future</tspan>
                </text>
            </g>
        </g>
    </g>
</svg>