<?xml version="1.0" encoding="UTF-8"?>
<svg width="250px" height="250px" viewBox="0 0 250 250" version="1.1" xmlns="http://www.w3.org/2000/svg" xmlns:xlink="http://www.w3.org/1999/xlink">
    <!-- Generator: Sketch 51.3 (57544) - http://www.bohemiancoding.com/sketch -->
    <title>btn_navi_04</title>
    <desc>Created with Sketch.</desc>
    <defs>
        <filter x="-2.4%" y="-2.4%" width="104.8%" height="104.8%" filterUnits="objectBoundingBox" id="filter-1">
            <feOffset dx="0" dy="0" in="SourceAlpha" result="shadowOffsetOuter1"></feOffset>
            <feGaussianBlur stdDeviation="2" in="shadowOffsetOuter1" result="shadowBlurOuter1"></feGaussianBlur>
            <feColorMatrix values="0 0 0 0 0   0 0 0 0 0   0 0 0 0 0  0 0 0 0.5 0" type="matrix" in="shadowBlurOuter1" result="shadowMatrixOuter1"></feColorMatrix>
            <feMerge>
                <feMergeNode in="shadowMatrixOuter1"></feMergeNode>
                <feMergeNode in="SourceGraphic"></feMergeNode>
            </feMerge>
        </filter>
        <circle id="path-2" cx="118" cy="118" r="118"></circle>
    </defs>
    <g id="btn_navi_04" stroke="none" stroke-width="1" fill="none" fill-rule="evenodd">
        <g id="Group-2" filter="url(#filter-1)">
            <circle id="Oval" fill="#075D89" fill-rule="nonzero" cx="125" cy="125" r="125"></circle>
            <g id="fields-1" transform="translate(7.000000, 7.000000)">
                <g id="Group">
                    <mask id="mask-3" fill="white">
                        <use xlink:href="#path-2"></use>
                    </mask>
                    <use id="Oval" fill="#FFF9BB" xlink:href="#path-2"></use>
                    <path d="M177.323565,30.2903125 C176.526497,30.2903125 175.773554,30.446875 175.051592,30.6742188 C172.765068,27.3915625 168.971718,25.2334375 164.663889,25.2334375 C160.35606,25.2334375 156.56271,27.3915625 154.276186,30.6742188 C153.554224,30.446875 152.801281,30.2903125 152.004213,30.2903125 C147.809043,30.2903125 144.408126,33.6864063 144.408126,37.875625 L184.919652,37.875625 C184.919652,33.6864063 181.518734,30.2903125 177.323565,30.2903125 Z" id="Shape" fill="#FFEB97" mask="url(#mask-3)"></path>
                    <path d="M140.38664,64.8878125 C139.744479,64.8878125 139.137524,65.0139063 138.555449,65.1971875 C136.712522,62.5520312 133.655686,60.8125 130.183886,60.8125 C126.712087,60.8125 123.655251,62.5515625 121.812324,65.1971875 C121.230718,65.0139063 120.623763,64.8878125 119.981133,64.8878125 C116.6004,64.8878125 113.859481,67.624375 113.859481,71.0007813 L146.506884,71.0007813 C146.508292,67.624375 143.767373,64.8878125 140.38664,64.8878125 Z" id="Shape" fill="#FFF1A9" mask="url(#mask-3)"></path>
                    <path d="M92.3574185,63.1796875 C92.3574185,60.3315625 94.6284524,58.0225 97.4294567,58.0225 C97.8524004,58.0225 98.2565675,58.0904688 98.6489991,58.189375 C99.9722824,56.73625 101.849007,55.811875 103.950582,55.811875 C107.952352,55.811875 111.196015,59.1104688 111.196015,63.1792188 L92.3574185,63.1792188 L92.3574185,63.1796875 Z" id="Shape" fill="#FFF1A9" mask="url(#mask-3)"></path>
                    <path d="M238.352789,118 C238.352789,108.112656 237.1309,98.5140625 234.87254,89.321875 L233.505601,88.4870312 C189.22044,88.4870312 148.381261,118 96.276102,118 C53.8235408,118 169.368375,122.842187 238.220414,123.226094 C238.295051,121.491719 238.352789,119.752656 238.352789,118 Z" id="Shape" fill="#FFEA96" mask="url(#mask-3)"></path>
                    <path d="M-1.53795634,118 C-1.53795634,108.112656 -0.316066879,98.5140625 1.94229278,89.321875 L3.30923173,88.4870312 C47.5943924,88.4870312 50.4324807,118 102.53764,118 C144.990671,118 67.4464581,122.842187 -1.40558107,123.226094 C-1.48021819,121.491719 -1.53795634,119.752656 -1.53795634,118 Z" id="Shape" fill="#FFEB97" mask="url(#mask-3)"></path>
                    <path d="M118.182331,238 C184.550691,238 238.352789,184.274219 238.352789,118 L-1.98812614,118 C-1.98812614,184.274219 51.8139715,238 118.182331,238 Z" id="Shape" fill="#D6EB76" mask="url(#mask-3)"></path>
                    <g id="cupcake" mask="url(#mask-3)" fill-rule="nonzero">
                        <g transform="translate(148.485356, 80.641509)">
                            <polyline id="Shape" fill="#FFCA54" points="57.8149103 43.8227273 59.8424981 35.2192727 4.60487483 35.2192727 11.4004894 64.0574545 53.0467005 64.0574545 56.7470071 48.3536364"></polyline>
                            <polygon id="Shape" fill="#FCA21F" points="4.60487483 35.2192727 11.4004894 64.0574545 16.0604806 64.0574545 9.26449984 35.2192727"></polygon>
                            <path d="M59.5070388,29.8678182 C59.7247578,14.6756364 47.3882051,2.37454545 32.2236865,2.37454545 C17.1523714,2.37454545 4.9346577,14.506 4.9346577,29.4707273 C4.9346577,29.6034545 4.93758747,29.7354545 4.93941858,29.868" id="Shape" fill="#7C5437"></path>
                            <path d="M34.3439285,2.45545455 C18.2779545,1.23054545 4.71126231,13.9414545 4.93960169,29.8678182 L16.3479648,29.8678182 C17.0174186,17.8898182 24.151056,7.624 34.3439285,2.45545455 Z" id="Shape" fill="#603D26"></path>
                            <path d="M32.2238696,2.37454545 C21.0227881,2.37454545 11.3997569,9.07618182 7.19552892,18.6609091 C7.26254754,18.6256364 7.32388971,18.5918182 7.3769919,18.5609091 L11.7819095,15.7190909 L11.7822758,15.7190909 C13.7955809,14.42 15.5728561,15.2270909 16.1734601,15.5792727 C21.2101106,18.8287273 21.5922632,19.3138182 23.2175562,19.2810909 C24.8053115,19.2645455 25.5886603,18.5303636 29.9461522,15.7190909 C29.9461522,15.7190909 30.9263452,15.0070909 32.23449,15.0070909 C33.537874,15.0172727 34.5010377,15.7190909 34.5010377,15.7190909 C42.0003477,20.5570909 40.5581657,20.5570909 48.274096,15.5792727 C48.8747,15.2269091 50.6516089,14.42 52.6650972,15.7189091 C52.6650972,15.7189091 52.6650972,15.7190909 52.6656465,15.7190909 C57.3972342,18.7716364 57.0595775,18.5603636 57.2529427,18.6607273 C53.0474329,9.07618182 43.4245849,2.37454545 32.2238696,2.37454545 Z" id="Shape" fill="#FFC373"></path>
                            <path d="M7.19552892,18.6609091 C7.26254754,18.6256364 7.32388971,18.5918182 7.3769919,18.5609091 L11.7819095,15.7190909 L11.7822758,15.7190909 C13.7955809,14.42 15.5728561,15.2270909 16.1734601,15.5792727 C19.6587944,17.8278182 18.1093093,16.8283636 19.4575554,17.698 C22.5856402,11.1290909 27.8398266,5.75381818 34.343196,2.45563636 C34.1657615,2.44945455 33.3670314,2.37436364 32.2238696,2.37436364 C21.2756643,2.37454545 11.5015666,8.84290909 7.19552892,18.6609091 Z" id="Shape" fill="#EF9A4D"></path>
                            <polygon id="Shape" fill="#F9D58C" points="15.0841329 35.2192727 19.3013618 64.0574545 45.145645 64.0574545 49.3634232 35.2192727"></polygon>
                            <polygon id="Shape" fill="#FFCA54" points="25.9717284 35.2192727 27.5100437 64.0574545 36.9367799 64.0574545 38.4752783 35.2192727"></polygon>
                            <path d="M45.6905832,29.8678182 L4.30164305,29.8678182 C3.04330442,29.8678182 1.71465118,30.778 1.71465118,32.6503636 C1.71465118,34.0690909 2.87282811,35.2190909 4.30164305,35.2190909 L60.145913,35.2190909 C61.4124916,35.2190909 62.7329049,34.2998182 62.7329049,32.4365455 C62.7329049,31.0176364 61.574728,29.8678182 60.145913,29.8678182 L50.7001333,29.8678182" id="Shape" fill="#F99841"></path>
                            <path d="M60.1457299,32.5436364 L4.30164305,32.5436364 C3.32199933,32.5436364 2.47016707,32.0027273 2.03088384,31.2056364 C1.15854315,32.788 2.08929624,35.2194545 4.30164305,35.2194545 L60.145913,35.2194545 C62.3553301,35.2194545 63.2899285,32.7898182 62.4166722,31.2056364 C61.977389,32.0027273 61.1253736,32.5436364 60.1457299,32.5436364 Z" id="Shape" fill="#F26722"></path>
                            <ellipse id="Oval" fill="#231F20" cx="40.4294387" cy="10.7341818" rx="1.92211592" ry="1.90854545"></ellipse>
                            <ellipse id="Oval" fill="#231F20" cx="23.1137323" cy="11.5178182" rx="1.92211592" ry="1.90854545"></ellipse>
                            <path d="M28.93776,8.55345455 L31.4555359,10.0803636 C32.1513576,10.5029091 33.0634334,10.2861818 33.4904482,9.59236364 C33.9165475,8.89945455 33.6964481,7.99490909 32.9987952,7.57181818 L30.4812024,6.04472727 C29.7833665,5.62163636 28.8725725,5.84018182 28.4462902,6.53272727 C28.0201909,7.22527273 28.2401072,8.13018182 28.93776,8.55345455 Z" id="Shape" fill="#231F20"></path>
                            <path d="M61.1032172,28.2514545 C60.6322558,14.5054545 50.4487219,3.25072727 37.1684153,0.969818182 L34.2076939,0.617090909 C34.1705224,0.614545455 32.4243761,0.469818182 30.2466373,0.617090909 L27.2862821,0.969818182 C13.9796075,3.25672727 3.82061052,14.5505455 3.3514802,28.2514545 C-0.950712188,29.1327273 -1.00399748,35.4303636 3.28409536,36.3849091 L9.86730117,64.3192727 C10.0236779,64.984 10.620986,65.4543636 11.3085677,65.4543636 L53.1463128,65.4543636 C53.8340777,65.4543636 54.4312026,64.984 54.5875793,64.3192727 L58.3050984,48.5434545 C58.4913222,47.7529091 57.9969226,46.9621818 57.2009392,46.7772727 C56.4040402,46.5914545 55.6089724,47.0829091 55.4223823,47.8734545 L51.9723884,62.5147273 L46.9198072,62.5147273 L50.7268675,36.4836364 L58.1067892,36.4836364 L56.4952295,43.3218182 C56.3091887,44.1123636 56.8035884,44.9030909 57.5995718,45.0878182 C58.3948228,45.2721818 59.1917217,44.7818182 59.3781287,43.9914545 L61.1709683,36.3845455 C65.4570469,35.4309091 65.4072407,29.1330909 61.1032172,28.2514545 Z M53.0309529,13.88 C51.0535375,12.8570909 48.8904475,13.1785455 47.5449481,14.0510909 C40.4257764,18.6443636 42.3085235,18.6987273 35.321558,14.1914545 C34.3735925,13.5969091 33.4065834,13.2541818 32.2672669,13.2392727 C31.1720801,13.2134545 30.0062126,13.6134545 29.1329563,14.1914545 C24.4967695,17.1823636 24.2614719,17.4785455 23.2041891,17.5310909 C22.0764086,17.5550909 22.0639571,17.3763636 16.9095662,14.0509091 C15.4388188,13.1067273 13.3020969,12.9087273 11.4242938,13.8796364 C21.913623,-0.0909090909 42.723453,0.150909091 53.0309529,13.88 Z M6.34809132,36.484 L13.7283792,36.484 L17.5350733,62.5150909 L12.4826752,62.5150909 L6.34809132,36.484 Z M16.7198632,36.484 L24.5429135,36.484 L25.9316271,62.5150909 L20.5267404,62.5150909 L16.7198632,36.484 Z M28.8961938,62.5149091 L27.5074802,36.4838182 L36.946851,36.4838182 L35.5581374,62.5149091 L28.8961938,62.5149091 Z M43.927957,62.5149091 L38.5228872,62.5149091 L39.9117839,36.4838182 L47.7352004,36.4838182 L43.927957,62.5149091 Z M4.17712759,33.5441818 C3.56022671,33.5441818 3.05850264,33.0458182 3.05850264,32.4332727 L3.05850264,32.2185455 C3.05850264,31.6061818 3.56022671,31.1078182 4.17712759,31.1078182 L45.7565032,31.1078182 C46.5742768,31.1078182 47.2369554,30.4498182 47.2369554,29.6378182 C47.2369554,28.8258182 46.5742768,28.1678182 45.7565032,28.1678182 L6.31751179,28.1678182 C6.44587258,25.0689091 7.12796097,22.1096364 8.26855924,19.3850909 C12.8346145,16.4396364 13.0158944,16.1781818 14.0010315,16.1781818 C14.6228763,16.1781818 15.1200226,16.4174545 15.3263887,16.5352727 C20.3485735,19.7752727 21.215787,20.6661818 23.6244288,20.4487273 C26.0687772,20.2183636 27.4589558,18.546 30.746164,16.6563636 C31.6954113,16.0438182 32.6836613,15.9952727 33.7083503,16.6563636 C37.7472291,19.1070909 39.0993205,20.7310909 41.8712545,20.4487273 C42.8232484,20.3594545 43.7675518,19.9992727 44.291066,19.656 C49.4020596,16.3583636 49.4544293,16.178 50.4534828,16.178 C51.4384368,16.178 51.6019549,16.4276364 56.1863213,19.3852727 C57.3271027,22.1096364 58.0088248,25.0687273 58.1371856,28.1676364 L50.7883928,28.1676364 C49.9708023,28.1676364 49.3081237,28.8256364 49.3081237,29.6376364 C49.3081237,30.4496364 49.9708023,31.1076364 50.7883928,31.1076364 L60.2775698,31.1076364 C61.774502,31.1076364 61.7754176,33.5438182 60.2775698,33.5438182 C57.410235,33.5441818 7.04208192,33.5441818 4.17712759,33.5441818 Z" id="Shape" fill="#231F20"></path>
                        </g>
                    </g>
                    <path d="M18.355418,134.591875 C-12.3194996,138.934375 81.3087776,156.532188 81.3087776,156.532188 C81.3087776,156.532188 218.665488,169.428438 222.705751,169.428438 C223.37326,169.428438 224.760853,169.645469 226.540878,169.939844 C232.367737,157.84 236.2146,144.612813 237.680116,130.676875 C178.893292,142.375 113.488173,121.125156 18.355418,134.591875 Z" id="Shape" fill="#CCE16B" mask="url(#mask-3)"></path>
                    <g id="ice-cream-1" mask="url(#mask-3)" fill-rule="nonzero">
                        <g transform="translate(29.545694, 40.000000)" id="Shape">
                            <path d="M30.90485,37.1120468 C40.3424495,27.1672515 33.2844268,10.6584795 19.4255629,10.6584795 C5.56269889,10.6584795 -1.4873237,27.1726316 7.94698161,37.1120468 L30.90485,37.1120468 Z" fill="#FF4B4E"></path>
                            <path d="M54.8507381,10.6596491 C54.8505028,10.6594152 54.8495616,10.6582456 54.8495616,10.6582456 L54.8495616,10.6582456 C46.7905778,-0.812865497 29.7069439,-0.707836257 21.7811391,10.8332164 C34.3616247,12.7045614 39.6200822,27.9279532 30.90485,37.1120468 L51.5774965,37.1120468 C59.4762419,30.2533333 60.6059114,18.8654971 54.8507381,10.6596491 Z" fill="#078CD6"></path>
                            <path d="M43.3001554,2.71719298 C39.730908,5.52187135 37.4407448,9.86292398 37.4473331,14.7366082 C37.4583922,23.1819883 44.3540587,30.0191813 52.8492865,30.0072515 C54.3071979,30.005614 55.7156965,29.7985965 57.0514878,29.4194152 C61.574166,18.0776608 54.8827388,5.62081871 43.3001554,2.71719298 Z" fill="#21AAF7"></path>
                            <path d="M23.0065753,11.0692398 C13.061201,8.77239766 3.64266069,16.2916959 3.64266069,26.3487719 C3.64266069,30.5167251 5.28010503,34.3022222 7.94698161,37.1118129 L15.1090064,37.1118129 C6.76389925,28.3195322 11.1785753,13.7981287 23.0065753,11.0692398 Z" fill="#EF3F48"></path>
                            <path d="M14.0638092,66.9866667 L28.3205633,115.239532 L28.3205633,115.239532 C28.3205633,115.239532 29.281053,118.05614 31.2354448,118.05614 C33.0632459,118.05614 33.8383202,115.595322 33.9310279,115.275088 L47.5962409,66.9869006" fill="#FFCA54"></path>
                            <path d="M21.225834,66.9866667 L14.0638092,66.9866667 L28.3205633,115.239532 C28.3205633,115.239532 29.281053,118.05614 31.2354448,118.05614 C33.4924309,118.05614 34.0818544,114.74269 34.6952784,112.574737 L21.225834,66.9866667 Z" fill="#FCA21F"></path>
                            <path d="M40.745987,67.2409357 L49.094153,67.2409357 C52.3958658,67.2409357 55.0716837,64.5803509 55.0716837,61.2984795 L55.0716837,46.4755556 L6.58860165,46.4755556 L6.58860165,61.2984795 C6.58860165,64.5803509 9.26441958,67.2409357 12.5651911,67.2409357 L34.2235043,67.2409357" fill="#F99841"></path>
                            <path d="M13.7501559,61.2984795 L13.7501559,46.4755556 L6.58813105,46.4755556 L6.58813105,61.2984795 C6.58813105,64.5803509 9.26394898,67.2409357 12.5647205,67.2409357 L19.7267453,67.2409357 C16.4262091,67.2409357 13.7501559,64.5803509 13.7501559,61.2984795 Z" fill="#F26722"></path>
                            <path d="M54.7777955,36.8577778 L6.88201925,36.8577778 C4.28432052,36.8577778 2.17933747,38.9508772 2.17933747,41.5326316 L2.17933747,42.0547368 C2.17933747,44.6367251 4.28455581,46.7295906 6.88201925,46.7295906 L54.7777955,46.7295906 C57.3747883,46.7295906 59.4797714,44.6364912 59.4797714,42.0547368 L59.4797714,41.5326316 C59.4800067,38.9506433 57.3747883,36.8577778 54.7777955,36.8577778 Z" fill="#FFCA54"></path>
                            <path d="M9.34159758,42.0549708 L9.34159758,41.5328655 C9.34159758,38.9508772 11.4468159,36.8580117 14.0440441,36.8580117 L6.88201925,36.8580117 C4.28432052,36.8580117 2.17933747,38.9511111 2.17933747,41.5328655 L2.17933747,42.0549708 C2.17933747,44.6369591 4.28455581,46.7298246 6.88201925,46.7298246 L14.0440441,46.7298246 C11.4468159,46.7298246 9.34159758,44.6367251 9.34159758,42.0549708 Z" fill="#F9B24B"></path>
                            <path d="M55.4966333,34.8725146 C58.3635139,31.1216374 59.9538985,26.5157895 59.9538985,21.7316959 C59.9538985,20.2432749 59.8018954,18.7564912 59.5014189,17.3132164 C59.2882382,16.2877193 58.278571,15.6297076 57.2486682,15.8411696 C56.2175888,16.0528655 55.5545168,17.0561404 55.7676975,18.0807018 C56.0159378,19.2725146 56.141352,20.5008187 56.141352,21.7316959 C56.141352,26.6755556 54.0848405,31.391345 50.4755923,34.7787135 L34.4632738,34.7787135 C40.001031,25.3471345 35.5228242,13.0236257 24.954614,9.43040936 C33.0366571,0.901988304 47.2865877,2.14128655 53.5594183,12.4783626 C54.1034291,13.3747368 55.2749819,13.6631579 56.1766469,13.1221053 C57.0780765,12.5812865 57.3677294,11.4166082 56.8239538,10.5204678 C48.760264,-2.76888889 29.9773022,-3.51695906 20.7102943,8.55508772 C6.28741918,7.3780117 -3.3087717,23.1160234 4.34949828,35.2493567 C-1.3117908,37.5127485 -1.14661104,45.9709942 4.59750322,48.0021053 L4.59750322,61.2135673 C4.59750322,65.514386 8.11710264,69.0138012 12.443071,69.0138012 L12.5056605,69.0138012 C12.5306022,69.0980117 26.2671107,115.593684 26.2941701,115.676959 C28.1398539,121.081637 33.8922036,121.196959 35.5098828,115.617076 L48.6986157,69.0138012 C53.1624692,69.0138012 56.5895962,65.4395322 56.5895962,61.2135673 L56.5895962,48.0018713 C62.9264282,45.7616374 62.273474,36.0173099 55.4966333,34.8725146 Z M24.9292018,13.4984795 C33.1801894,17.2364912 35.7181223,27.7978947 29.8116518,34.7782456 L8.70864382,34.7782456 C6.62342587,32.3122807 5.48410909,29.2175439 5.48410909,25.9777778 C5.48434439,16.0956725 15.7923141,9.38035088 24.9292018,13.4984795 Z M52.7775204,61.2135673 C52.7775204,63.4247953 50.9678374,65.2231579 48.7440284,65.2231579 L40.4480987,65.2231579 C39.3951366,65.2231579 38.5419431,66.0715789 38.5419431,67.1183626 C38.5419431,68.1651462 39.3953719,69.0133333 40.4480987,69.0133333 L44.738537,69.0133333 C31.4050953,116.129123 31.6756889,115.792281 30.9968519,115.972164 C30.7672002,115.972164 30.1841298,115.223158 29.9156539,114.48655 L16.4803278,69.0138012 L33.9663227,69.0138012 C35.0192848,69.0138012 35.8724783,68.1653801 35.8724783,67.1188304 C35.8724783,66.0718129 35.0190495,65.2236257 33.9663227,65.2236257 L12.4440122,65.2236257 C10.2204386,65.2236257 8.41146143,63.4250292 8.41146143,61.2140351 L8.41146143,48.3794152 L52.7777557,48.3794152 L52.7775204,61.2135673 L52.7775204,61.2135673 Z M54.3919055,44.588538 L6.79660578,44.588538 C3.08759083,44.588538 3.10006166,38.5688889 6.79660578,38.5688889 L7.85497978,38.5688889 L54.3916702,38.5688889 C58.1002145,38.5688889 58.087979,44.588538 54.3919055,44.588538 Z" fill="#231F20"></path>
                        </g>
                    </g>
                    <path d="M118.182331,238 C172.818112,238 218.907237,201.577656 233.505601,151.730781 C139.677353,151.323906 84.8106199,125.662656 -0.574245597,136.439219 C8.30991878,193.959063 58.0938168,238 118.182331,238 Z" id="Shape" fill="#D0D75B" mask="url(#mask-3)"></path>
                    <path d="M4.97096384,158.277344 C13.231744,181.427031 28.4098361,201.282344 48.020622,215.394531 L207.099551,198.722031 C215.873403,189.090156 223.078936,178.015937 228.364089,165.913281 C157.110049,164.183125 56.9559527,152.098281 4.97096384,158.277344 Z" id="Shape" fill="#D8C34A" mask="url(#mask-3)"></path>
                    <path d="M118.182331,238 C166.113914,238 207.46194,209.964531 226.746013,169.428437 C154.513241,169.428437 83.7938651,169.485625 21.9558375,189.880937 C43.873333,219.093906 78.8147712,238 118.182331,238 Z" id="Shape" fill="#D0B459" mask="url(#mask-3)"></path>
                    <g id="candy-1-copy" mask="url(#mask-3)" fill-rule="nonzero">
                        <g transform="translate(149.787946, 45.924419) scale(-1, -1) rotate(-135.000000) translate(-149.787946, -45.924419) translate(128.485001, 24.106238)" id="Shape">
                            <path d="M9.44581266,27.5378693 C8.20432921,28.0096023 6.13472639,28.90875 2.68286678,30.6036648 C-3.3253462,33.5544034 5.67206121,32.488125 7.72957787,39.6009375 C10.4355736,48.9548864 14.6134723,37.559233 15.8939967,33.6285511 C13.0702696,32.3714489 10.7981584,30.1889489 9.44581266,27.5378693 Z" fill="#FFCA54"></path>
                            <path d="M5.43590285,32.8369602 C8.10346628,31.527017 9.94491022,30.6928977 11.2172612,30.1634659 C10.5083514,29.3460511 9.91795547,28.4635227 9.44581266,27.5379545 C8.20432921,28.0096875 6.13472639,28.9088352 2.68286678,30.60375 C-0.971066478,32.3983807 0.924808655,32.7071591 3.4345564,34.2734659 C3.57863387,33.8960795 4.17859435,33.4546023 5.43590285,32.8369602 Z" fill="#F99830"></path>
                            <path d="M33.3758018,16.0899716 C34.6172852,15.6181534 36.686888,14.7190057 40.1388346,13.0239205 C46.1468737,10.073267 37.1495532,11.1396307 35.0920366,4.02664773 C32.3860409,-5.32721591 28.2081421,6.06852273 26.9277047,9.99911932 C29.7396934,11.251108 32.0176304,13.4273011 33.3758018,16.0899716 Z" fill="#FFCA54"></path>
                            <path d="M34.3726926,2.07443182 C31.696695,-3.44386364 28.0992797,6.40261364 26.9276178,9.99911932 C27.800256,10.3875 28.6386355,10.8726136 29.4271053,11.4536932 C29.7544751,10.7638636 31.965286,3.51161932 34.3726926,2.07443182 Z" fill="#F99830"></path>
                            <path d="M35.0919496,4.02664773 C33.4070171,-1.79786932 31.1513396,0.423323864 29.3798041,3.87758523 C29.5394458,4.17127841 29.5310985,4.22965909 29.835948,5.63744318 C30.0149797,6.46329545 30.0562813,7.20673295 30.6956305,7.72423295 C30.7397145,7.78542614 31.07291,7.99585227 31.4030621,8.08585227 C31.5477483,8.13579545 31.3828896,8.09650568 33.8710735,8.61417614 C33.9563722,8.61417614 34.5128573,8.77397727 34.8217065,9.09988636 C35.2067247,9.42639205 35.2744593,9.94806818 35.3170652,10.0316761 C35.7833823,12.1838352 35.8073808,12.8571307 36.462555,13.3768466 C36.5063782,13.4399148 36.8575725,13.6592898 37.1969414,13.7458807 L38.2109616,13.9570739 C38.800488,13.67625 39.4408806,13.3665341 40.1388346,13.0240057 C46.1468737,10.073267 37.1496402,11.1395455 35.0919496,4.02664773 Z" fill="#17DDC0"></path>
                            <path d="M34.3725187,2.07460227 C33.3624114,0.0392897727 32.2705702,-0.016875 30.9651779,1.408125 C30.8743144,1.51125 30.7800597,1.62741477 30.7819726,1.62553977 C30.295396,2.22860795 29.8224706,3.01457386 29.3798041,3.87758523 C29.5394458,4.17127841 29.5310985,4.22965909 29.835948,5.63744318 C30.0149797,6.46329545 30.0562813,7.20673295 30.6956305,7.72423295 C30.699978,7.73028409 30.7939718,7.79872159 30.8001453,7.80306818 C31.7764289,5.40400568 33.0662569,2.85477273 34.3725187,2.07460227 Z" fill="#0DBAA1"></path>
                            <path d="M7.72966482,39.601108 C9.50885198,45.751108 11.9241712,42.9312784 13.7338781,39.1611648 C13.4573745,37.8845455 13.4486795,37.5623011 13.0714869,37.1152841 C13.0714869,37.1152841 12.9680155,36.9896591 12.8323722,36.8809091 C12.7875926,36.8190341 12.4537885,36.608608 12.1248536,36.5192898 C11.9795588,36.4692614 12.1476347,36.5091477 9.65719004,35.9908807 C9.65719004,35.9908807 9.1274858,35.9112784 8.70968723,35.5085795 C8.38909965,35.1995455 8.21093747,34.696875 8.21093747,34.5733807 C7.74914179,32.4410795 7.7003624,31.7330114 7.06553464,31.2282955 C7.02979787,31.1714489 6.67729935,30.947983 6.33123518,30.8592614 C3.60741458,30.2922443 3.73349323,30.3357102 3.4734234,30.2177557 C3.21822282,30.3416761 2.95545752,30.4699432 2.68295373,30.60375 C-3.3253462,33.5545739 5.67206121,32.4882955 7.72966482,39.601108 Z" fill="#17DDC0"></path>
                            <path d="M0.647087816,32.1991193 C0.615350776,32.8527273 2.0017812,33.3633239 3.4345564,34.2734659 C3.68940918,33.6057955 5.31782367,32.8747159 7.54019903,31.8202841 C7.41472904,31.5729545 7.24169696,31.3684091 7.0656216,31.2283807 C7.02988482,31.1715341 6.6773863,30.9480682 6.33132213,30.8593466 C3.58532908,30.2877273 3.72062451,30.3299148 3.47351036,30.2178409 C2.50357424,30.6890625 0.680216069,31.5005966 0.647087816,32.1991193 Z" fill="#0DBAA1"></path>
                            <path d="M32.8408805,28.8526705 C28.24727,36.0271023 18.0663753,37.1243182 11.9907755,31.1689773 C6.75372909,26.0359091 6.75372909,17.7135511 11.9907755,12.5805682 C17.2277349,7.44741477 25.7183061,7.44741477 30.9550916,12.5803977 C34.8613561,16.4093182 35.8540733,22.0123295 33.9328086,26.7430398" fill="#FC3842"></path>
                            <path d="M14.7608539,31.1689773 C6.76529355,23.3320739 11.6987947,9.93102273 22.8580597,8.80125 C18.980489,8.40894886 14.9619711,9.66818182 11.9907755,12.5805682 C6.75372909,17.7136364 6.75372909,26.0359943 11.9907755,31.1689773 C14.962058,34.0813636 18.9806629,35.3406818 22.8580597,34.9482955 C19.9013849,34.6489773 17.0266177,33.3897443 14.7608539,31.1689773 Z" fill="#EF2235"></path>
                            <path d="M21.5354512,35.0180966 C20.8420186,31.8303409 20.9053188,31.7188636 20.3471816,31.1717898 C20.0075518,30.8450284 19.6460974,30.6840341 19.2018657,30.5705966 C16.3479668,29.9765625 15.9945118,29.9893466 15.4452436,29.4596591 C15.0534433,29.0778409 14.8693685,28.4931818 14.8693685,28.3801705 C14.2982757,25.742983 14.2894936,25.2809659 13.7537898,24.7118182 C13.1607854,24.0761932 12.7746369,24.1085795 9.77039997,23.4834375 C9.42042302,23.3949716 8.4713551,23.048608 8.21285038,21.855767 C8.21285038,21.855767 8.20545957,21.8216761 8.07877226,21.2371875 C7.70775322,28.772642 13.8556961,35.0532102 21.5354512,35.0180966 Z" fill="#FC6574"></path>
                            <path d="M21.5351034,35.0168182 C21.5351034,35.0168182 21.5370163,35.0266193 21.4743248,34.7364205 C16.0004244,33.610142 11.7638339,29.2303125 10.9672777,23.732642 L9.77039997,23.483608 C9.42042302,23.395142 8.4713551,23.0487784 8.21285038,21.8559375 C8.21285038,21.8559375 8.20545957,21.8218466 8.07885921,21.2375284 C8.07398996,21.2795455 8.06659915,21.5949716 8.06581659,21.6378409 C7.94208561,29.0832102 14.1062883,35.0783523 21.5351034,35.0168182 Z" fill="#FC304E"></path>
                            <path d="M34.8795288,22.1574716 C35.0519523,14.2441193 28.1153656,7.99346591 20.0950243,8.80065341 L21.2800767,9.04721591 C21.2800767,9.04721591 21.2801636,9.04755682 21.2802506,9.04738636 C22.4974748,9.30068182 22.8507559,10.2309375 22.9409238,10.574233 C23.6216616,13.716733 23.5656653,13.8658807 24.1560612,14.4439773 C24.481518,14.7483239 24.8379293,14.9064205 25.2738137,15.0180682 C28.0222413,15.589858 28.529947,15.6085227 29.0380875,16.1365057 C29.2836365,16.381108 29.5014483,16.7252557 29.6059631,17.2080682 L29.6060501,17.2082386 C30.1817513,19.8663068 30.1778385,20.3957386 30.8507507,21.0033239 C30.9139639,21.0590625 30.9303976,21.0713352 30.9303976,21.0713352 C31.4689708,21.5085511 31.6784353,21.4753977 34.7051055,22.1050568 C34.7529285,22.1169886 34.8123159,22.1342045 34.8795288,22.1574716 Z" fill="#FC6574"></path>
                            <path d="M14.9324684,29.821792 C14.9324684,29.821792 14.9329493,29.8222728 14.9234519,29.8124148 L14.9324684,29.821792 Z" fill="#231F20"></path>
                            <path d="M35.5316598,4.03764205 C35.0189979,2.26559659 34.0616696,-0.189119318 32.1840542,0.0115909091 C29.5180559,0.297102273 27.2759427,6.58457386 26.3960876,9.17505682 C17.2856441,5.71090909 7.43942306,12.329233 7.46942109,21.9184943 C7.47550764,23.684233 7.82113705,25.4609659 8.54569803,27.1523011 C6.68686393,27.9057955 4.25867603,29.0648864 2.46853307,29.9444318 C1.01141165,30.66 0.103297544,31.2728693 0.0783426662,32.1165341 C0.016520651,34.2070739 5.54285232,34.3051705 7.07414277,39.5983807 C7.60167325,41.4218182 8.58134785,43.8909375 10.494787,43.615142 C13.1135711,43.2361364 15.3010792,37.1265341 16.1881512,34.5242045 C22.2899232,36.9225 29.496666,34.8034091 33.1425997,29.108608 C33.3482384,28.7873864 33.2492884,28.3635511 32.9214839,28.1620739 C32.5937663,27.9605114 32.16136,28.0573295 31.9558953,28.3787216 C29.8733368,31.6306534 26.2474887,33.9047727 21.9895952,34.1091477 C21.514583,31.91625 21.5189305,31.2205398 20.6719428,30.4650852 C19.957729,29.7978409 19.2647312,29.7603409 16.6543814,29.2171023 C16.1764998,29.1042614 16.0661592,28.9628693 15.9245164,28.851733 C15.5655835,28.4941193 15.5974944,28.347017 14.9954471,25.5678409 C14.8643253,24.9698864 14.5307821,24.3714205 14.0100338,23.9486932 C13.2599093,23.3405114 12.7017721,23.3521875 10.0111667,22.7923295 C9.09687912,22.5523295 9.01714524,21.7858807 8.88950147,21.1975568 C9.22287082,15.1885227 13.9645585,10.3574148 19.968424,9.70747159 C20.9729665,9.91644886 21.8619514,9.94678977 22.1263688,10.9169318 C22.7617182,13.8499432 22.7436325,14.3620739 23.5642741,15.103125 C24.3283977,15.7877557 24.9700076,15.8053125 27.5787053,16.3479545 C28.2170981,16.4806534 28.5842043,16.8998864 28.6828065,17.436733 C29.2531168,20.0693182 29.2565948,20.8112216 30.2227921,21.6160227 C30.9638737,22.2175568 31.551748,22.2170455 33.8317717,22.6914205 C33.74656,23.9472443 33.4646655,25.2028125 32.9728718,26.413892 C32.8297508,26.7662216 33.0052175,27.1655114 33.364759,27.3057102 C33.7239528,27.4459091 34.1315781,27.2740909 34.2746121,26.9216761 C35.6715636,23.4819034 35.5482674,19.6793182 34.1222744,16.457983 C35.9701526,15.7053409 38.3362577,14.5758239 40.1372695,13.6914205 C41.5943909,12.9758523 42.5024181,12.3628977 42.5274599,11.5193182 C42.5892819,9.42886364 37.0628633,9.33076705 35.5316598,4.03764205 Z M1.52172586,32.1415057 C1.88013704,31.7440057 3.11422967,31.1621591 3.5981978,30.9265909 C3.63384762,30.9373295 3.69332197,30.9541193 3.72975435,30.9617045 C7.34603791,31.7141761 6.7761624,31.096875 7.53646015,34.6067898 C7.74462035,35.5680682 8.40962003,36.2852557 9.49911349,36.5304545 C12.8061131,37.2185795 12.4960465,36.9294886 12.9213229,38.8924432 C12.4910903,39.7690057 11.1944801,42.2630966 10.2113275,42.2630966 C9.38851208,42.2629261 8.6471696,40.0016761 8.42214095,39.2236364 C7.00979919,34.3418182 2.42105793,33.0276136 1.52172586,32.1415057 Z M13.8073515,36.9065625 C13.4306806,36.2428125 12.8395022,35.8551989 12.0895516,35.6661648 C8.61708463,34.8074148 9.22417508,35.7855682 8.42518422,32.0961648 C8.30136629,31.5467045 8.03634027,31.1141761 7.67984201,30.7647443 C7.04362304,30.1598011 6.40236093,30.1137784 5.62936836,29.9528693 C7.01379892,29.3024148 8.17946128,28.7853409 9.11270416,28.4082955 C10.3559266,30.5849148 12.4023136,32.6526136 14.9083224,33.9444886 C14.6339927,34.7545739 14.2548872,35.813608 13.8073515,36.9065625 Z M12.5688244,24.728608 C13.1460037,24.8829545 13.4692868,25.2917045 13.6286676,25.870142 C14.2342799,28.6659375 14.2108901,29.0810795 14.9417116,29.830483 C15.347337,30.2214205 15.8941706,30.4796591 16.3719652,30.5621591 C19.0748306,31.1247443 19.3057719,31.1124716 19.7079194,31.4615625 L20.1818012,30.9557386 L19.7172231,31.4700852 C20.1403257,31.8848011 20.0826773,31.9188068 20.5549071,34.0982386 C19.1161323,34.006875 17.695791,33.6844602 16.3083172,33.0829261 C16.2443214,33.0110795 16.1646745,32.9509943 16.0710285,32.9091477 C12.2251948,31.1972727 9.70692589,27.8109375 9.03931769,23.8777841 C9.55537066,24.1512784 9.59345511,24.109517 12.5688244,24.728608 Z M30.604593,19.6955966 C30.0404562,17.0907102 30.0112408,16.4169034 29.2910273,15.7343182 C28.5775961,15.0465341 28.056326,15.0434659 25.2671184,14.4631534 C24.7061119,14.3116193 24.2690103,14.0248295 24.1019778,13.4241477 C23.4739322,10.5247159 23.5154947,10.3626989 23.1029132,9.74940341 C28.9773089,10.5310227 33.566224,15.3965625 33.8442057,21.2902841 L31.6644362,20.8367045 C31.0591717,20.6744318 30.7598002,20.2549432 30.604593,19.6955966 Z M27.6809595,9.74011364 C28.0043295,8.78267045 28.4796895,7.46045455 29.0429567,6.14616477 C29.1968596,6.85670455 29.3122433,8.39292614 31.0175223,8.87420455 C31.1075164,8.90446023 31.1978583,8.92900568 31.240725,8.93821023 C33.7215181,9.45443182 33.8034258,9.42213068 34.0941023,9.70014205 C34.6804985,10.1928409 34.5055535,12.5350568 35.4312316,13.6319318 L35.4313186,13.6319318 C35.594873,13.8204545 35.7612099,13.9759091 36.0092805,14.1320455 C35.043605,14.5745455 34.204269,14.9401705 33.4979676,15.2256818 C32.194923,12.9533523 30.1739257,10.9899716 27.6809595,9.74011364 Z M37.8366384,13.275 C36.1302291,12.9196023 36.453686,13.0071307 35.7624272,9.98181818 C35.656782,9.50079545 35.4364487,9.07355114 35.0750812,8.71934659 C34.4309497,8.10127841 33.9394168,8.09565341 31.5491395,7.59835227 C31.5201849,7.59042614 31.4906216,7.58139205 31.4606236,7.57107955 C30.5572918,7.26085227 30.6759796,7.07309659 30.0831491,4.33585227 C30.0722802,4.28752841 30.0454994,4.19454545 30.0119364,4.10224432 C31.3571521,1.57542614 32.1714463,1.37292614 32.3948229,1.37292614 C32.5322052,1.37292614 32.695151,1.45090909 32.8739218,1.62639205 C33.7303002,2.46715909 34.1309694,4.44144886 34.5313778,5.40264205 C36.2260488,9.47071023 40.2596962,10.6823864 41.0841637,11.4942614 C40.641845,11.9849148 38.6898866,12.8642045 37.8366384,13.275 Z" fill="#231F20"></path>
                            <path d="M24.9572258,23.4630682 C24.2933565,24.1137784 25.3926754,25.189517 26.0556752,24.5396591 C26.3292224,24.2714489 26.3292224,23.8367898 26.0556752,23.5685795 L25.9481171,23.4630682 C25.674309,23.1949432 25.2309469,23.1949432 24.9572258,23.4630682 Z" fill="#231F20"></path>
                            <path d="M24.37196,21.9182386 L19.206648,16.855142 C18.9331878,16.587017 18.4895648,16.5871023 18.2160176,16.8550568 C17.9423835,17.1231818 17.9423835,17.5580114 18.2159307,17.8260511 C23.8168661,23.3162216 23.4774972,23.0903693 23.8766013,23.0903693 C24.4953432,23.0904545 24.8146265,22.3521307 24.37196,21.9182386 Z" fill="#231F20"></path>
                            <path d="M17.7190938,20.6244034 C17.4456336,20.8926136 17.4456336,21.327358 17.7190938,21.5955682 C23.3230726,27.0884659 22.9891815,26.8686648 23.3891552,26.8686648 C24.0077231,26.8686648 24.3270934,26.1303409 23.8844269,25.6963636 L18.7098982,20.624233 C18.436264,20.3563636 17.9928149,20.3563636 17.7190938,20.6244034 Z" fill="#231F20"></path>
                            <path d="M16.0447693,18.983267 C15.7713091,19.2514773 15.7713091,19.6862216 16.0447693,19.9543466 L16.1429368,20.0506534 C16.4168318,20.3187784 16.859933,20.3186932 17.1337411,20.0506534 C17.7968279,19.4003693 16.7078561,18.3335795 16.0447693,18.983267 Z" fill="#231F20"></path>
                        </g>
                    </g>
                    <path d="M214.038456,45.6423437 C214.010761,45.6423437 213.984473,45.6371875 213.956778,45.6371875 C209.234454,45.6371875 205.075899,48.0029687 202.569219,51.6015625 C201.777784,51.3521875 200.952081,51.180625 200.078498,51.180625 C195.479631,51.180625 191.751531,54.9034375 191.751531,59.4957812 L223.097243,59.4957812 C220.389183,54.6634375 217.367084,50.0321875 214.038456,45.6423437 Z" id="Shape" fill="#FFF1A9" mask="url(#mask-3)"></path>
                    <path d="M70.7976179,39.3339062 C70.7976179,31.85125 76.8723284,25.785625 84.3651442,25.785625 C85.495967,25.785625 86.5775011,25.9642187 87.6275844,26.224375 C91.1679187,22.4064062 96.1873824,19.97875 101.809107,19.97875 C112.513666,19.97875 121.191287,28.6440625 121.191287,39.3334375 L70.7976179,39.3334375 L70.7976179,39.3339062 Z" id="Shape" fill="#FFEB97" mask="url(#mask-3)"></path>
                    <path d="M99.1442328,46.1528125 C99.1442328,40.4565625 103.685831,35.8384375 109.288309,35.8384375 C110.133727,35.8384375 110.942061,35.974375 111.727394,36.1726562 C114.37443,33.2659375 118.12741,31.418125 122.330559,31.418125 C130.33363,31.418125 136.821896,38.0153125 136.821896,46.1528125 L99.1442328,46.1528125 L99.1442328,46.1528125 Z" id="Shape" fill="#FFEB97" mask="url(#mask-3)"></path>
                    <ellipse id="Oval" fill="#D8C34A" mask="url(#mask-3)" cx="81.172647" cy="212.187344" rx="3.12959547" ry="3.12515625"></ellipse>
                    <ellipse id="Oval" fill="#D8C34A" mask="url(#mask-3)" cx="90.7233819" cy="197.531406" rx="3.12959547" ry="3.12515625"></ellipse>
                    <ellipse id="Oval" fill="#D8C34A" mask="url(#mask-3)" cx="136.333234" cy="195.338594" rx="3.12959547" ry="3.12515625"></ellipse>
                    <ellipse id="Oval" fill="#D8C34A" mask="url(#mask-3)" cx="150.440119" cy="183.490469" rx="3.12959547" ry="3.12515625"></ellipse>
                    <ellipse id="Oval" fill="#D0D75B" mask="url(#mask-3)" cx="122.926248" cy="218.519688" rx="3.12959547" ry="3.12515625"></ellipse>
                    <ellipse id="Oval" fill="#D0D75B" mask="url(#mask-3)" cx="107.229451" cy="192.213437" rx="3.12959547" ry="3.12515625"></ellipse>
                    <ellipse id="Oval" fill="#D6EB76" mask="url(#mask-3)" cx="45.189575" cy="140.398281" rx="1.74481871" ry="1.74234375"></ellipse>
                    <ellipse id="Oval" fill="#CCE16B" mask="url(#mask-3)" cx="21.9558375" cy="146.814531" rx="1.74481871" ry="1.74234375"></ellipse>
                    <ellipse id="Oval" fill="#CCE16B" mask="url(#mask-3)" cx="35.9880855" cy="148.556875" rx="1.74481871" ry="1.74234375"></ellipse>
                    <ellipse id="Oval" fill="#D6EB76" mask="url(#mask-3)" cx="90.7233819" cy="151.681563" rx="1.74481871" ry="1.74234375"></ellipse>
                    <ellipse id="Oval" fill="#D6EB76" mask="url(#mask-3)" cx="81.172647" cy="143.882969" rx="1.74481871" ry="1.74234375"></ellipse>
                    <ellipse id="Oval" fill="#D6EB76" mask="url(#mask-3)" cx="121.541471" cy="148.556875" rx="1.74481871" ry="1.74234375"></ellipse>
                    <ellipse id="Oval" fill="#CCE16B" mask="url(#mask-3)" cx="110.358577" cy="151.681563" rx="1.74481871" ry="1.74234375"></ellipse>
                    <ellipse id="Oval" fill="#CCE16B" mask="url(#mask-3)" cx="134.948457" cy="151.681563" rx="1.74481871" ry="1.74234375"></ellipse>
                    <ellipse id="Oval" fill="#D6EB76" mask="url(#mask-3)" cx="164.666705" cy="156.532656" rx="1.74481871" ry="1.74234375"></ellipse>
                    <ellipse id="Oval" fill="#CCE16B" mask="url(#mask-3)" cx="188.004184" cy="155.734375" rx="1.74481871" ry="1.74234375"></ellipse>
                    <ellipse id="Oval" fill="#D6EB76" mask="url(#mask-3)" cx="202.207769" cy="158.274531" rx="1.74481871" ry="1.74234375"></ellipse>
                    <ellipse id="Oval" fill="#D8C34A" mask="url(#mask-3)" cx="156.987532" cy="209.062187" rx="3.12959547" ry="3.12515625"></ellipse>
                    <ellipse id="Oval" fill="#D8C34A" mask="url(#mask-3)" cx="186.259835" cy="194.40625" rx="3.12959547" ry="3.12515625"></ellipse>
                    <ellipse id="Oval" fill="#D0D75B" mask="url(#mask-3)" cx="173.210543" cy="183.937656" rx="3.12959547" ry="3.12515625"></ellipse>
                    <ellipse id="Oval" fill="#D0D75B" mask="url(#mask-3)" cx="195.648152" cy="180.365781" rx="3.12959547" ry="3.12515625"></ellipse>
                    <ellipse id="Oval" fill="#D0D75B" mask="url(#mask-3)" cx="59.6809117" cy="195.338594" rx="3.12959547" ry="3.12515625"></ellipse>
                    <text id="Test-your-knowledge" mask="url(#mask-3)" font-family="ArialRoundedMTBold, Arial Rounded MT Bold" font-size="23" font-weight="normal" line-spacing="28" letter-spacing="0.150000006" fill="#075D89">
                        <tspan x="66.3091256" y="154">Test your </tspan>
                        <tspan x="21.9311471" y="182">knowledge about </tspan>
                        <tspan x="83.8591256" y="210">habit</tspan>
                        <tspan x="140.615473" y="210">s</tspan>
                    </text>
                </g>
            </g>
        </g>
    </g>
</svg>