<?xml version="1.0" encoding="UTF-8"?>
<svg width="250px" height="250px" viewBox="0 0 250 250" version="1.1" xmlns="http://www.w3.org/2000/svg" xmlns:xlink="http://www.w3.org/1999/xlink">
    <!-- Generator: Sketch 51.3 (57544) - http://www.bohemiancoding.com/sketch -->
    <title>btn_navi_06</title>
    <desc>Created with Sketch.</desc>
    <defs>
        <filter x="-2.4%" y="-2.4%" width="104.8%" height="104.8%" filterUnits="objectBoundingBox" id="filter-1">
            <feOffset dx="0" dy="0" in="SourceAlpha" result="shadowOffsetOuter1"></feOffset>
            <feGaussianBlur stdDeviation="2" in="shadowOffsetOuter1" result="shadowBlurOuter1"></feGaussianBlur>
            <feColorMatrix values="0 0 0 0 0   0 0 0 0 0   0 0 0 0 0  0 0 0 0.5 0" type="matrix" in="shadowBlurOuter1" result="shadowMatrixOuter1"></feColorMatrix>
            <feMerge>
                <feMergeNode in="shadowMatrixOuter1"></feMergeNode>
                <feMergeNode in="SourceGraphic"></feMergeNode>
            </feMerge>
        </filter>
        <circle id="path-2" cx="118" cy="118" r="118"></circle>
        <path d="M102.379537,51.1040588 C102.379537,79.3274706 79.4610185,102.207471 51.1894444,102.207471 C22.9185185,102.207471 0,79.3274706 0,51.1040588 C0,22.88 22.9185185,0 51.1894444,0 C79.4610185,0 102.379537,22.88 102.379537,51.1040588" id="path-4"></path>
        <path d="M0.270886076,50.2465472 C0.270886076,77.8703648 22.5829114,100.263145 50.1063291,100.263145 C77.6291139,100.263145 99.9411392,77.8703648 99.9411392,50.2465472 C99.9411392,22.6233648 77.6291139,0.229314465 50.1063291,0.229314465 C22.5829114,0.229314465 0.270886076,22.6233648 0.270886076,50.2465472" id="path-6"></path>
    </defs>
    <g id="btn_navi_06" stroke="none" stroke-width="1" fill="none" fill-rule="evenodd">
        <g id="Group" filter="url(#filter-1)">
            <circle id="Oval" fill="#075D89" fill-rule="nonzero" cx="125" cy="125" r="125"></circle>
            <g id="waterfall" transform="translate(7.000000, 7.000000)">
                <mask id="mask-3" fill="white">
                    <use xlink:href="#path-2"></use>
                </mask>
                <use id="Oval" fill="#53BCFB" xlink:href="#path-2"></use>
                <g id="Group-21-Copy" mask="url(#mask-3)">
                    <g transform="translate(20.000000, 8.000000)">
                        <g id="6" stroke="none" stroke-width="1" fill="none" fill-rule="evenodd" transform="translate(102.000000, 77.000000)">
                            <g id="Group-25">
                                <g id="Group-26" transform="translate(2.592593, 7.764706)">
                                    <mask id="mask-5" fill="white">
                                        <use xlink:href="#path-4"></use>
                                    </mask>
                                    <use id="Fill-1" fill="#D1E1E7" xlink:href="#path-4"></use>
                                    <path d="M66.3944263,109.470059 L35.365487,109.470059 C30.5100005,109.470059 26.5740741,105.576059 26.5740741,100.772941 L26.5740741,87.6389412 C26.5740741,82.8351765 30.5100005,78.9411765 35.365487,78.9411765 L66.3944263,78.9411765 C71.2499128,78.9411765 75.1851852,82.8351765 75.1851852,87.6389412 L75.1851852,100.772941 C75.1851852,105.576059 71.2499128,109.470059 66.3944263,109.470059" id="Fill-6" fill="#29A98C" mask="url(#mask-5)"></path>
                                    <rect id="Rectangle-Copy" fill="#FED8BC" fill-rule="nonzero" mask="url(#mask-5)" x="26.5740741" y="93.1764706" width="11.0185185" height="15.5294118"></rect>
                                    <rect id="Rectangle-Copy-3" fill="#FED8BC" fill-rule="nonzero" mask="url(#mask-5)" x="64.1666667" y="93.1764706" width="11.0185185" height="15.5294118"></rect>
                                </g>
                                <path d="M32.4519527,51.0200917 C34.9251049,53.2315808 36.4810185,56.4423694 36.4810185,60.0153529 C36.4810185,66.6878235 31.057963,72.0952941 24.3677778,72.0952941 C17.6775926,72.0952941 12.2551852,66.6878235 12.2551852,60.0153529 C12.2551852,56.0195052 14.2009458,52.4766575 17.199412,50.2779468 C7.24964347,46.6769062 0.141296296,37.1663459 0.141296296,26.0001176 C0.141296296,11.7402353 11.7340741,0.180529412 26.0328704,0.180529412 C40.332963,0.180529412 51.9250926,11.7402353 51.9250926,26.0001176 C51.9250926,38.0505079 43.6469373,48.1726519 32.4519527,51.0200917 Z M66.7644444,59.1094706 C66.7644444,52.4382941 72.1875,47.0308235 78.877037,47.0308235 C85.5678704,47.0308235 90.9909259,52.4382941 90.9909259,59.1094706 C90.9909259,65.7812941 85.5678704,71.1894118 78.877037,71.1894118 C72.1875,71.1894118 66.7644444,65.7812941 66.7644444,59.1094706 Z" id="Combined-Shape" fill="#FBC53A"></path>
                                <g id="Group-23" transform="translate(19.444444, 33.000000)">
                                    <path d="M30.3641852,46.2146882 L37.7699259,46.2146882 C40.1129815,46.2146882 42.0127037,48.1112176 42.0127037,50.4503353 L42.0127037,64.7626294 C42.0127037,67.1017471 40.1129815,68.9982765 37.7699259,68.9982765 L30.3641852,68.9982765 C28.0211296,68.9982765 26.1214074,67.1017471 26.1214074,64.7626294 L26.1214074,50.4503353 C26.1214074,48.1112176 28.0211296,46.2146882 30.3641852,46.2146882" id="Fill-9" fill="#FFC4A3"></path>
                                    <path d="M13.1620093,36.8923824 C13.1620093,40.4156176 10.3010833,43.2717353 6.77191667,43.2717353 C3.24275,43.2717353 0.381824074,40.4156176 0.381824074,36.8923824 C0.381824074,33.3691471 3.24275,30.5130294 6.77191667,30.5130294 C10.3010833,30.5130294 13.1620093,33.3691471 13.1620093,36.8923824 Z M66.2338704,36.8923824 C66.2338704,40.4156176 63.3729444,43.2717353 59.8437778,43.2717353 C56.3146111,43.2717353 53.4536852,40.4156176 53.4536852,36.8923824 C53.4536852,33.3691471 56.3146111,30.5130294 59.8437778,30.5130294 C63.3729444,30.5130294 66.2338704,33.3691471 66.2338704,36.8923824 Z" id="Combined-Shape" fill="#FFC4A3"></path>
                                    <path d="M7.34287037,42.8871235 C7.34287037,43.5568294 6.79907407,44.1003588 6.12759259,44.1003588 C5.45611111,44.1003588 4.91231481,43.5568294 4.91231481,42.8871235 C4.91231481,42.2167706 5.45611111,41.6732412 6.12759259,41.6732412 C6.79907407,41.6732412 7.34287037,42.2167706 7.34287037,42.8871235 Z M63.4564259,42.8871235 C63.4564259,43.5568294 62.9119815,44.1003588 62.2405,44.1003588 C61.5696667,44.1003588 61.0252222,43.5568294 61.0252222,42.8871235 C61.0252222,42.2167706 61.5696667,41.6732412 62.2405,41.6732412 C62.9119815,41.6732412 63.4564259,42.2167706 63.4564259,42.8871235 Z" id="Combined-Shape" fill="#29A98C"></path>
                                    <path d="M63.22225,29.6704941 C63.22225,45.7453765 50.1685463,58.7764941 34.06725,58.7764941 C17.9653056,58.7764941 4.91225,45.7453765 4.91225,29.6704941 C4.91225,13.5956118 17.9653056,0.565141176 34.06725,0.565141176 C50.1685463,0.565141176 63.22225,13.5956118 63.22225,29.6704941" id="Fill-25" fill="#FED8BC"></path>
                                    <path d="M38.2932407,34.8658588 C38.2932407,37.2017412 36.3967593,39.0950353 34.0569444,39.0950353 C31.7171296,39.0950353 29.8206481,37.2017412 29.8206481,34.8658588 C29.8206481,32.5306235 31.7171296,30.6366824 34.0569444,30.6366824 C36.3967593,30.6366824 38.2932407,32.5306235 38.2932407,34.8658588" id="Fill-37" fill="#FFC4A3"></path>
                                    <path d="M27.4202963,42.9693 L40.6937222,42.9693 C40.6937222,42.9693 38.9942778,49.8591824 34.0566852,49.8591824 C29.1190926,49.8591824 27.4202963,42.9693 27.4202963,42.9693" id="Fill-34" fill="#CA583C"></path>
                                    <path d="M53.193713,32.0362706 C53.193713,34.3449765 51.3179722,36.2175647 49.0047315,36.2175647 C46.6921389,36.2175647 44.8163981,34.3449765 44.8163981,32.0362706 C44.8163981,29.7269176 46.6921389,27.8543294 49.0047315,27.8543294 C51.3179722,27.8543294 53.193713,29.7269176 53.193713,32.0362706 Z M23.3174537,32.0362706 C23.3174537,34.3449765 21.4423611,36.2175647 19.1291204,36.2175647 C16.8158796,36.2175647 14.940787,34.3449765 14.940787,32.0362706 C14.940787,29.7269176 16.8158796,27.8543294 19.1291204,27.8543294 C21.4423611,27.8543294 23.3174537,29.7269176 23.3174537,32.0362706 Z" id="Combined-Shape" fill="#010202"></path>
                                </g>
                            </g>
                            <path d="M71.3046576,26.4290909 C73.3786476,24.7703596 76.0116599,23.7781176 78.877037,23.7781176 C85.5678704,23.7781176 90.9909259,29.1862353 90.9909259,35.8574118 C90.9909259,42.5285882 85.5678704,47.9367059 78.877037,47.9367059 C72.9255998,47.9367059 67.9765843,43.6561742 66.9569241,38.013936 C63.8240299,41.5093232 59.2683284,43.7094706 54.1968519,43.7094706 C44.7468519,43.7094706 37.087037,36.0702941 37.087037,26.6465294 C37.087037,17.2240588 44.7468519,9.58488235 54.1968519,9.58488235 C63.5740535,9.58488235 71.1879071,17.106815 71.3046576,26.4290909 Z" id="Combined-Shape" fill="#FBC53A"></path>
                        </g>
                        <g id="Group" stroke="none" stroke-width="1" fill="none" fill-rule="evenodd" transform="translate(0.000000, 107.000000)">
                            <g id="4">
                                <path d="M99.9412658,50.3323654 C99.9412658,77.9555478 77.6292405,100.348963 50.1064557,100.348963 C22.583038,100.348963 0.271012658,77.9555478 0.271012658,50.3323654 C0.271012658,22.709183 22.583038,0.315767925 50.1064557,0.315767925 C77.6292405,0.315767925 99.9412658,22.709183 99.9412658,50.3323654" id="Fill-1-Copy" fill="#D1E1E7"></path>
                                <g id="Group-49" transform="translate(0.000000, 0.085755)">
                                    <g id="Group-9">
                                        <mask id="mask-7" fill="white">
                                            <use xlink:href="#path-6"></use>
                                        </mask>
                                        <g id="Clip-8"></g>
                                        <path d="M65.5552659,106.741119 L35.7105569,106.741119 C31.0188591,106.741119 27.2151899,102.918365 27.2151899,98.203761 L27.2151899,85.3996289 C27.2151899,80.6843899 31.0188591,76.8616352 35.7105569,76.8616352 L65.5552659,76.8616352 C70.2475957,76.8616352 74.0506329,80.6843899 74.0506329,85.3996289 L74.0506329,98.203761 C74.0506329,102.918365 70.2475957,106.741119 65.5552659,106.741119" id="Fill-7" fill="#7B53A2" mask="url(#mask-7)"></path>
                                        <rect id="Rectangle-Copy" fill="#FBCBA9" fill-rule="nonzero" mask="url(#mask-7)" x="63.2911392" y="88.2955975" width="10.7594937" height="15.245283"></rect>
                                        <path d="M27.2151899,96.5211677 C27.2151899,93.4247483 27.2151899,90.8660467 27.2151899,88.8450629 L37.8902947,88.8450629 C37.8902947,89.828718 37.8902947,92.0043278 37.8902947,95.3718923 C37.8902947,98.7266621 38.6559871,102.805381 42.0772161,102.805381 C47.2460571,102.805381 46.4171986,103.909982 43.6767935,104.585847 C45.1472401,106.481245 47.9275527,108.742114 46.3814813,109.72272 C44.8354099,110.703326 42.5699302,113.92403 36.3434954,109.226702 C30.1170606,104.529373 27.2151899,101.039287 27.2151899,96.5211677 Z" id="Rectangle-Copy-2" fill="#FBCBA9" fill-rule="nonzero" mask="url(#mask-7)"></path>
                                    </g>
                                    <path d="M47.1228481,69.4781541 L54.3082911,69.4781541 C56.5956329,69.4781541 58.4500633,71.3399843 58.4500633,73.636305 L58.4500633,87.6194057 C58.4500633,89.9157264 56.5956329,91.7769214 54.3082911,91.7769214 L47.1228481,91.7769214 C44.8348734,91.7769214 42.9798101,89.9157264 42.9798101,87.6194057 L42.9798101,73.636305 C42.9798101,71.3399843 44.8348734,69.4781541 47.1228481,69.4781541" id="Fill-10" fill="#F7AC82"></path>
                                    <path d="M34.3379114,20.2255994 C34.3379114,20.2255994 21.2106962,23.2181214 15.4252532,53.3656686 L18.9853797,53.3656686 C18.9853797,53.3656686 19.1651266,79.4929075 21.1891772,81.0561843 C21.1891772,81.0561843 10.9752532,88.2024107 12.0879114,91.3289642 C13.2005696,94.4548824 20.0556329,97.5808006 21.1891772,96.4653541 C22.3227215,95.3486371 23.1701899,82.1729013 23.1701899,82.1729013 C23.1701899,82.1729013 21.8777848,80.1624296 31.890443,76.1433918 C41.9024684,72.1237189 69.048038,76.8135491 69.048038,76.8135491 L77.0581646,81.0561843 C77.0581646,81.0561843 75.9455063,96.4805994 78.1708228,96.695939 C80.3955063,96.9112786 86.6252532,92.4450459 86.1803165,89.7656874 C85.7353797,87.0856937 79.2828481,80.6096245 79.2828481,80.6096245 C79.2828481,80.6096245 81.0625949,53.3656686 79.505,50.2391151 C79.505,50.2391151 83.9556329,52.0259893 85.0676582,51.3558321 C85.0676582,51.3558321 85.5125949,3.34335409 33.448038,18.3059642 L34.3379114,20.2255994 Z" id="Fill-13" fill="#EFBB37"></path>
                                    <path d="M77.418481,82.0944516 C77.1748101,82.1719484 76.9146835,82.0372818 76.8368354,81.792722 L76.6260759,81.128917 C76.5482278,80.8849925 76.6824051,80.623917 76.9260759,80.5457849 L78.9640506,79.8921434 C79.2077215,79.8140113 79.4678481,79.9493132 79.5456962,80.193873 L79.7564557,80.857678 C79.8343038,81.1022377 79.7001266,81.3633132 79.4570886,81.4414453 L77.418481,82.0944516 Z M23.0159494,82.0609755 L20.9773418,81.4086044 C20.7343038,81.3304723 20.6001266,81.0687616 20.6779747,80.8242019 L20.8887342,80.1610321 C20.9665823,79.9164723 21.2267089,79.7811704 21.4703797,79.8593025 L23.5083544,80.5123088 C23.7520253,80.5904409 23.8862025,80.8521516 23.8083544,81.0960761 L23.5975949,81.7598811 C23.5197468,82.0044409 23.2596203,82.1391075 23.0159494,82.0609755 Z" id="Fill-46" fill="#7B53A2"></path>
                                    <path d="M82.4787342,60.444244 C82.4787342,63.8928541 79.6932911,66.6878226 76.2578481,66.6878226 C72.8217722,66.6878226 70.0363291,63.8928541 70.0363291,60.444244 C70.0363291,56.995634 72.8217722,54.2006654 76.2578481,54.2006654 C79.6932911,54.2006654 82.4787342,56.995634 82.4787342,60.444244 Z M30.8111392,60.444244 C30.8111392,63.8928541 28.0263291,66.6878226 24.5902532,66.6878226 C21.1541772,66.6878226 18.3693671,63.8928541 18.3693671,60.444244 C18.3693671,56.995634 21.1541772,54.2006654 24.5902532,54.2006654 C28.0263291,54.2006654 30.8111392,56.995634 30.8111392,60.444244 Z" id="Fill-19" fill="#F7AC82"></path>
                                    <path d="M79.0236709,53.2862025 C79.0236709,69.0193346 66.3160759,81.7732843 50.6401266,81.7732843 C34.9648101,81.7732843 22.2572152,69.0193346 22.2572152,53.2862025 C22.2572152,37.5530704 34.9648101,24.7991208 50.6401266,24.7991208 C66.3160759,24.7991208 79.0236709,37.5530704 79.0236709,53.2862025" id="Fill-22" fill="#FBCBA9"></path>
                                    <path d="M69.2605063,55.6013258 C69.2605063,57.861439 67.4351899,59.6934138 65.1832911,59.6934138 C62.9313924,59.6934138 61.105443,57.861439 61.105443,55.6013258 C61.105443,53.3405774 62.9313924,51.5092377 65.1832911,51.5092377 C67.4351899,51.5092377 69.2605063,53.3405774 69.2605063,55.6013258 Z M40.1756329,55.6013258 C40.1756329,57.861439 38.3496835,59.6934138 36.0977848,59.6934138 C33.8458861,59.6934138 32.0199367,57.861439 32.0199367,55.6013258 C32.0199367,53.3405774 33.8458861,51.5092377 36.0977848,51.5092377 C38.3496835,51.5092377 40.1756329,53.3405774 40.1756329,55.6013258 Z" id="Combined-Shape" fill="#010202"></path>
                                    <path d="M50.6303797,61.7922447 C48.5518987,61.7922447 46.8670886,60.1012887 46.8670886,58.0152258 L54.3943038,58.0152258 C54.3943038,60.1012887 52.7094937,61.7922447 50.6303797,61.7922447" id="Fill-31" fill="#F7AC82"></path>
                                    <path d="M44.1696203,66.3020535 L57.0917722,66.3020535 C57.0917722,66.3020535 55.4379747,73.0455503 50.6303797,73.0455503 C45.8234177,73.0455503 44.1696203,66.3020535 44.1696203,66.3020535" id="Fill-34" fill="#CA583C"></path>
                                    <path d="M22.1512658,54.1088126 C22.1512658,54.1088126 31.4803797,57.1451648 40.8094937,28.2960075 L40.8094937,18.7956553 L31.4803797,25.7659258 L18.3689873,50.0599195 L22.1512658,54.1088126 Z" id="Fill-37" fill="#EFBB37"></path>
                                    <path d="M33.7568987,18.6506346 C33.7568987,18.6506346 39.6822152,48.5028044 86.9189241,52.137534 C86.9189241,52.137534 83.4625949,2.34389874 33.7568987,18.6506346" id="Fill-40" fill="#EFBB37"></path>
                                </g>
                                <g id="Group-54" transform="translate(11.392405, 81.393931)" fill="#EFBB37">
                                    <path d="M9.5306962,0.273271698 C9.5306962,0.273271698 -4.66297468,8.20081887 2.50474684,12.780756 C9.67373418,17.3606931 10.1477848,16.1931585 10.6642405,11.9155862 C11.1813291,7.63801384 12.1756329,1.18671824 11.3452532,1.10286918 C10.5161392,1.01838491 9.5306962,0.273271698 9.5306962,0.273271698" id="Fill-50"></path>
                                    <path d="M68.1040506,0.140510692 C68.1040506,0.140510692 81.5135443,9.34230943 73.9572152,13.2431962 C66.4002532,17.1434478 65.5572152,16.0781836 65.4325316,11.770756 C65.3091139,7.4633283 65.386962,0.807491824 66.2211392,0.799869182 C67.0559494,0.792246541 68.1040506,0.140510692 68.1040506,0.140510692" id="Fill-52"></path>
                                </g>
                            </g>
                        </g>
                        <path d="M95.9538686,122.510304 C92.0741149,122.510304 81.0257664,126.217945 63.0935192,133.590179 L61.2385144,134.352801 L61.745797,132.412363 C64.2325634,122.900079 63.799117,117.751711 60.9681947,116.770902 C56.1517439,115.102182 39.4349157,106.136868 35.8416619,103.325897 C21.2821207,91.9360942 13,76.841748 13,60.7551521 C13,26.5728047 50.1935208,-1 95.9538686,-1 C141.714216,-1 178.907737,26.5728047 178.907737,60.7551521 C178.907737,94.9374995 141.714216,122.510304 95.9538686,122.510304 Z" id="Oval-16" stroke-opacity="0.398635643" stroke="#075D89" stroke-width="2" fill="#FFFFFF" fill-rule="nonzero" stroke-linecap="round" stroke-linejoin="round"></path>
                    </g>
                </g>
                <text id="Help-your-parents" mask="url(#mask-3)" font-family="ArialRoundedMTBold, Arial Rounded MT Bold" font-size="24" font-weight="normal" line-spacing="28" letter-spacing="0.156521752" fill="#075D89">
                    <tspan x="61.1979959" y="67">Help your </tspan>
                    <tspan x="72.7334239" y="95">parents</tspan>
                </text>
            </g>
        </g>
    </g>
</svg>