<?xml version="1.0" encoding="UTF-8"?>
<svg width="250px" height="250px" viewBox="0 0 250 250" version="1.1" xmlns="http://www.w3.org/2000/svg" xmlns:xlink="http://www.w3.org/1999/xlink">
    <!-- Generator: Sketch 51.3 (57544) - http://www.bohemiancoding.com/sketch -->
    <title>btn_navi_01</title>
    <desc>Created with Sketch.</desc>
    <defs>
        <filter x="-2.4%" y="-2.4%" width="104.8%" height="104.8%" filterUnits="objectBoundingBox" id="filter-1">
            <feOffset dx="0" dy="0" in="SourceAlpha" result="shadowOffsetOuter1"></feOffset>
            <feGaussianBlur stdDeviation="2" in="shadowOffsetOuter1" result="shadowBlurOuter1"></feGaussianBlur>
            <feColorMatrix values="0 0 0 0 0   0 0 0 0 0   0 0 0 0 0  0 0 0 0.5 0" type="matrix" in="shadowBlurOuter1" result="shadowMatrixOuter1"></feColorMatrix>
            <feMerge>
                <feMergeNode in="shadowMatrixOuter1"></feMergeNode>
                <feMergeNode in="SourceGraphic"></feMergeNode>
            </feMerge>
        </filter>
        <circle id="path-2" cx="118" cy="118" r="118"></circle>
    </defs>
    <g id="btn_navi_01" stroke="none" stroke-width="1" fill="none" fill-rule="evenodd">
        <g id="Group-3" filter="url(#filter-1)">
            <circle id="Oval" fill="#075D89" fill-rule="nonzero" cx="125" cy="125" r="125"></circle>
            <g id="Group" transform="translate(7.000000, 7.000000)">
                <mask id="mask-3" fill="white">
                    <use xlink:href="#path-2"></use>
                </mask>
                <use id="Oval" fill="#8DD9FF" xlink:href="#path-2"></use>
                <g id="Group-2" mask="url(#mask-3)">
                    <g transform="translate(-10.816667, 13.766667)" id="Shape">
                        <path d="M11.4504404,79.4068864 C9.66541113,87.6565117 8.7,96.2128948 8.7,104.998643 C8.7,113.784859 9.66587842,122.340773 11.4504404,130.590399 C42.889853,156.612272 120.784419,175.043065 211.969043,175.043065 C216.540961,175.043065 221.066618,174.98115 225.567976,174.889686 C239.639333,155.199029 247.95,131.080085 247.95,104.998643 C247.95,78.9171998 239.638866,54.7977869 225.567976,35.1071302 C221.066618,35.0161348 216.541428,34.9537513 211.969043,34.9537513 C120.784419,34.9542204 42.889853,53.3850128 11.4504404,79.4068864 Z" fill="#FFFFF4" opacity="0.200000003"></path>
                        <path d="M8.7,104.998643 C8.7,130.372291 16.5611382,153.892729 29.9427832,173.282257 C73.2199307,185.502378 134.213728,194.364111 204.1294,197.882913 C230.878204,175.861085 247.95,142.433874 247.95,104.998643 C247.95,89.0303548 244.817788,73.8036328 239.180459,59.8663252 C142.293555,62.1501224 58.7182031,74.5339414 9.37242334,92.289773 C8.93410986,96.4671191 8.7,100.704972 8.7,104.998643 Z" fill="#FFFFF4" opacity="0.300000012"></path>
                        <path d="M90.9421875,52.4652086 C86.7366211,53.4033057 81.5964844,63.2533245 75.9890625,63.7223731 C70.3816406,64.1914216 60.1013672,63.7223731 57.2976562,67.4747612 C55.951875,69.2763765 54.1766587,76.4012235 52.6930283,82.4843137 L112.203662,82.4843137 L115.08541,64.8166632 C110.412558,61.5333236 95.1477539,51.5271116 90.9421875,52.4652086 Z" fill="#BBE6FF"></path>
                        <path d="M8.7,104.998643 C8.7,171.315067 62.2578882,225.075063 128.325,225.075063 C194.392112,225.075063 247.95,171.315067 247.95,104.998643 C247.95,97.2996802 247.199073,89.7803634 245.81918,82.4843137 L10.8308203,82.4843137 C9.45092725,89.7803634 8.7,97.2996802 8.7,104.998643 Z" fill="#3B87C5"></path>
                        <path d="M128.130211,94.0826043 C79.5253087,94.0826043 34.937837,104.690606 0,122.363556 C12.3751432,179.365569 61.3398535,222.608652 120.927374,225.944807 C123.401377,226.026843 125.856387,226.166667 128.356567,226.166667 C128.389416,226.166667 128.421753,226.164087 128.454603,226.164087 C130.906021,226.163055 133.312783,226.026327 135.73905,225.946871 C195.270111,222.627227 244.201458,179.474951 256.65,122.562714 C221.654163,104.770578 176.916813,94.0826043 128.130211,94.0826043 Z" fill="#3C9BD4"></path>
                        <path d="M97.3285737,28.0470119 C96.1519497,28.0470119 95.039811,28.27966 93.9739336,28.6169059 C90.5977983,23.745368 84.9973857,20.5422356 78.6371675,20.5422356 C72.2769492,20.5422356 66.6765366,23.745368 63.3004014,28.6169059 C62.2345239,28.27966 61.1223853,28.0470119 59.9457612,28.0470119 C53.7518965,28.0470119 48.7309175,33.0869382 48.7309175,39.3041763 L108.543417,39.3041763 C108.543417,33.0869382 103.522438,28.0470119 97.3285737,28.0470119 Z" fill="#FFFFFF"></path>
                        <path d="M82.3754487,29.1699141 C82.3754487,23.822761 86.6936309,19.4882836 92.0206816,19.4882836 C92.8248794,19.4882836 93.5935635,19.6158648 94.3398179,19.8020771 C96.8566157,17.0740909 100.425272,15.3390804 104.421495,15.3390804 C112.031234,15.3390804 118.200333,21.531459 118.200333,29.1699141 L82.3754487,29.1699141 L82.3754487,29.1699141 Z" fill="#FFFFFF"></path>
                        <path d="M128.325,19.3836858 C128.325,14.8273485 132.004871,11.1331224 136.544546,11.1331224 C137.229586,11.1331224 137.88472,11.2419416 138.521162,11.40048 C140.666001,9.07540655 143.707093,7.59743467 147.112667,7.59743467 C153.59765,7.59743467 158.854608,12.8742305 158.854608,19.3836858 L128.325,19.3836858 Z" fill="#FFFFFF" opacity="0.600000024"></path>
                        <path d="M194.367813,52.4032942 C194.367813,47.846957 198.047684,44.1527308 202.587359,44.1527308 C203.272399,44.1527308 203.927533,44.2615501 204.563975,44.4200885 C206.708814,42.095015 209.749906,40.6170431 213.15548,40.6170431 C219.640463,40.6170431 224.897421,45.8938389 224.897421,52.4032942 L194.367813,52.4032942 Z" fill="#FFFFFF" opacity="0.600000024"></path>
                        <path d="M98.6953828,8.98957067 C98.6953828,5.72452394 101.332273,3.07768316 104.585045,3.07768316 C105.076162,3.07768316 105.545316,3.15554522 106.001386,3.26905496 C107.538287,1.60299463 109.717238,0.543883076 112.157868,0.543883076 C116.804552,0.543883076 120.571805,4.32535222 120.571805,8.98957067 L98.6953828,8.98957067 Z" fill="#FFFFFF" opacity="0.600000024"></path>
                        <path d="M171.47084,44.9604324 C171.47084,38.9158041 176.352568,34.0161233 182.374005,34.0161233 C183.282875,34.0161233 184.152025,34.1605903 184.995942,34.370724 C187.840774,31.28673 191.874847,29.3256382 196.39256,29.3256382 C204.995279,29.3256382 211.969043,36.3257182 211.969043,44.9604324 L171.47084,44.9604324 Z" fill="#FFFFFF"></path>
                        <path d="M199.352344,82.4843137 C199.352344,70.6019076 189.168798,66.0117989 184.399219,63.7223731 C178.743199,61.0075202 166.954062,61.846179 161.969531,52.4652086 C156.985,43.0842383 153.541109,37.4556561 150.754688,37.4556561 C145.458945,37.4556561 132.37496,39.9570918 124.586719,48.7128205 C118.252668,55.8339151 119.602188,62.4714207 109.633594,67.4747612 C106.632688,68.980876 98.41875,71.2097945 98.41875,82.4843137 C98.41875,82.7971691 158.993684,82.7971691 199.352344,82.4843137 Z" fill="#BBE6FF"></path>
                        <path d="M90.9421875,52.4652086 C86.7366211,53.4033057 81.5964844,63.2533245 75.9890625,63.7223731 C70.3816406,64.1914216 60.1013672,63.7223731 57.2976563,67.4747612 C56.3481328,68.7454136 55.1864619,72.674164 54.0626411,77.0077032 C59.4878218,77.4382898 60.9747231,72.1666535 62.1261138,70.2890523 C63.3723633,68.2566651 70.2255674,69.1947621 74.8984189,68.5690514 C79.5712705,67.9438097 79.2595913,71.5395356 83.8889854,72.6342949 C88.5179121,73.7285851 89.3842588,63.0971314 91.5650786,61.0642751 C93.7458984,59.0318879 109.633594,67.4747612 113.216269,70.1328591 L114.473266,68.5709276 L115.08541,64.8171323 C110.412558,61.5333236 95.1477539,51.5271116 90.9421875,52.4652086 Z" fill="#FFFFFF"></path>
                        <path d="M184.399219,63.7223731 C178.743199,61.0075202 166.954062,61.846179 161.969531,52.4652086 C156.985,43.0842383 153.541109,37.4556561 150.754687,37.4556561 C145.458945,37.4556561 132.37496,39.9570918 124.586719,48.7128205 C118.252668,55.8339151 119.602188,62.4714207 109.633594,67.4747612 C106.736893,68.9288116 99.0533232,71.137092 98.5182817,81.423326 C102.390674,76.1521587 114.77373,72.8688191 122.483936,74.7450132 C127.561456,75.980487 124.119434,79.8393491 129.987601,79.8393491 C134.395969,79.8393491 134.038028,61.0272203 137.203418,58.0937908 C140.240771,55.2794997 143.548683,56.0191893 145.614551,63.7223731 C148.885547,75.9176345 169.446094,66.7711884 195.925742,71.997796 L195.925742,71.997796 C192.522504,67.5085327 187.394517,65.1600068 184.399219,63.7223731 Z" fill="#FFFFFF"></path>
                        <path d="M10.0794258,86.7057504 L246.570574,86.7057504 C246.354688,85.2868786 246.084598,83.8862997 245.819647,82.4843137 L10.8308203,82.4843137 C10.5654023,83.8862997 10.2957788,85.2868786 10.0794258,86.7057504 Z" fill="#FFFFFF"></path>
                    </g>
                </g>
                <text id="What-kind-of-waste-i" mask="url(#mask-3)" font-family="ArialRoundedMTBold, Arial Rounded MT Bold" font-size="25" font-weight="normal" line-spacing="30" letter-spacing="0.150000006" fill="#FFFFFF">
                    <tspan x="41.8520833" y="152.268905">What kind of </tspan>
                    <tspan x="31.4769368" y="182.268905">waste is in the </tspan>
                    <tspan x="73.6087728" y="212.268905">ocean</tspan>
                    <tspan x="149.126839" y="212.268905">?</tspan>
                </text>
            </g>
        </g>
    </g>
</svg>