<?xml version="1.0" encoding="UTF-8"?>
<svg width="250px" height="250px" viewBox="0 0 250 250" version="1.1" xmlns="http://www.w3.org/2000/svg" xmlns:xlink="http://www.w3.org/1999/xlink">
    <!-- Generator: Sketch 51.3 (57544) - http://www.bohemiancoding.com/sketch -->
    <title>btn_navi_03</title>
    <desc>Created with Sketch.</desc>
    <defs>
        <filter x="-2.4%" y="-2.4%" width="104.8%" height="104.8%" filterUnits="objectBoundingBox" id="filter-1">
            <feOffset dx="0" dy="0" in="SourceAlpha" result="shadowOffsetOuter1"></feOffset>
            <feGaussianBlur stdDeviation="2" in="shadowOffsetOuter1" result="shadowBlurOuter1"></feGaussianBlur>
            <feColorMatrix values="0 0 0 0 0   0 0 0 0 0   0 0 0 0 0  0 0 0 0.5 0" type="matrix" in="shadowBlurOuter1" result="shadowMatrixOuter1"></feColorMatrix>
            <feMerge>
                <feMergeNode in="shadowMatrixOuter1"></feMergeNode>
                <feMergeNode in="SourceGraphic"></feMergeNode>
            </feMerge>
        </filter>
        <circle id="path-2" cx="118" cy="118" r="118"></circle>
    </defs>
    <g id="btn_navi_03" stroke="none" stroke-width="1" fill="none" fill-rule="evenodd">
        <g id="Group" filter="url(#filter-1)">
            <circle id="Oval" fill="#075D89" fill-rule="nonzero" cx="125" cy="125" r="125"></circle>
            <g id="Group-10" transform="translate(7.000000, 7.000000)">
                <g id="Group-5">
                    <mask id="mask-3" fill="white">
                        <use xlink:href="#path-2"></use>
                    </mask>
                    <use id="Oval" fill="#8DD9FF" xlink:href="#path-2"></use>
                    <g id="Group-6" mask="url(#mask-3)">
                        <g transform="translate(-42.363636, -43.454545)">
                            <path d="M203.52848,121.814787 C203.52848,116.085724 198.884105,111.440881 193.154574,111.440881 C192.28973,111.440881 191.463324,111.577756 190.659886,111.776974 C187.952855,108.853849 184.115199,106.994787 179.816761,106.994787 C171.631918,106.994787 164.99723,113.629943 164.99723,121.814318 L203.52848,121.814318 L203.52848,121.814787 Z" id="Shape" fill="#FFFFFF" opacity="0.600000024"></path>
                            <path d="M120.668949,121.814787 C120.668949,113.984318 114.321136,107.636506 106.490668,107.636506 C105.308949,107.636506 104.178793,107.823537 103.081449,108.095881 C99.3816051,104.100724 94.1362926,101.560099 88.2614489,101.560099 C77.0751989,101.560099 68.0062926,110.628537 68.0062926,121.815256 L120.668949,121.815256 L120.668949,121.814787 Z" id="Shape" fill="#FFFFFF"></path>
                            <path d="M168.373168,114.939162 C167.651761,114.939162 166.970199,115.081193 166.316761,115.286974 C164.246761,112.311818 160.813636,110.355256 156.914574,110.355256 C153.015511,110.355256 149.581918,112.311349 147.512386,115.286974 C146.858949,115.080724 146.177386,114.939162 145.45598,114.939162 C141.658636,114.939162 138.580824,118.017443 138.580824,121.814318 L175.249261,121.814318 C175.248324,118.017443 172.170043,114.939162 168.373168,114.939162 Z" id="Shape" fill="#FFFFFF"></path>
                            <path d="M244.349105,116.279318 C243.768324,116.279318 243.219418,116.393693 242.69348,116.559631 C241.027074,114.164318 238.262855,112.589318 235.123636,112.589318 C231.984418,112.589318 229.220199,114.164318 227.553793,116.559631 C227.027855,116.393693 226.478949,116.279318 225.898168,116.279318 C222.84098,116.279318 220.363168,118.757599 220.363168,121.814318 L249.884105,121.814318 C249.884574,118.757599 247.406293,116.279318 244.349105,116.279318 Z" id="Shape" fill="#FFFFFF"></path>
                            <path d="M269.792386,115.024006 C269.079886,115.024006 268.406761,115.164162 267.761293,115.367599 C265.717074,112.429006 262.325668,110.496818 258.474418,110.496818 C254.623168,110.496818 251.23223,112.429006 249.187543,115.367599 C248.542074,115.164162 247.868949,115.024006 247.156449,115.024006 C243.40598,115.024006 240.365668,118.064318 240.365668,121.814787 L276.582699,121.814787 C276.583168,118.064318 273.542855,115.024006 269.792386,115.024006 Z" id="Shape" fill="#FFFFFF" opacity="0.600000024"></path>
                            <path d="M326.181818,128.181818 L10.6946243,128.181818 L39.2118881,173.181818 C39.2118881,173.181818 120.719255,205.681662 144.360027,209.431662 C154.081963,210.973849 171.109666,213.572599 187.790331,216.099162 C255.259501,207.522443 309.234838,172.916037 326.181818,128.181818 Z" id="Shape" fill="#57B9E7" opacity="0.600000024"></path>
                            <path d="M248.668299,160.519474 C221.733935,151.967131 173.073217,146.244631 117.417643,146.244631 C70.3054458,146.244631 28.1712734,150.341506 0,156.785412 L7.73068551,170.675412 C7.73068551,170.675412 60.0586382,194.429787 91.0111709,205.063381 C99.5950619,205.350724 108.408341,205.508693 117.417643,205.508693 C146.305085,205.508693 173.284731,203.957599 196.362391,201.281037 C208.790906,195.444721 305.039827,190.216847 314.856046,181.939517 C321.916321,175.986082 267.817148,166.59972 248.668299,160.519474 Z" id="Shape" fill="#B3F4EF"></path>
                            <path d="M297.965668,167.349162 L28.4114157,167.349162 L28.4114157,178.338068 L282.838817,178.338068 C288.245947,174.856193 293.284723,171.181662 297.965668,167.349162 Z" id="Shape" fill="#FFFFFF"></path>
                            <path d="M162.763895,134.275568 C218.097709,134.275568 268.498726,139.332443 306.384803,147.621349 C310.093641,141.395881 313.208054,134.921506 315.487194,128.181818 L33.8181818,128.181818 L42.3261485,143.218849 C76.5933209,137.580724 118.061959,134.275568 162.763895,134.275568 Z" id="Shape" fill="#57B9E7"></path>
                            <path d="M112.280668,10.0509375 C106.51973,20.0779688 103.176136,31.6692188 103.176136,44.0625 C103.176136,81.8592187 133.816449,112.5 171.613636,112.5 C209.410824,112.5 240.051136,81.8592187 240.051136,44.0625 C240.051136,38.7979688 239.400511,33.6946875 238.275043,28.7714063 C217.307855,10.8473438 190.110043,0 160.363636,0 C143.259886,0 127.005043,3.60234375 112.280668,10.0509375 Z" id="Shape" fill="#FFFFF4" opacity="0.300000012"></path>
                            <circle id="Oval" fill="#FFFFF4" opacity="0.300000012" cx="171.613636" cy="44.0625" r="32.1745312"></circle>
                            <circle id="Oval" fill="#FFFFFF" cx="171.613636" cy="44.0625" r="12.6492187"></circle>
                        </g>
                    </g>
                    <path d="M255.554252,134.363636 L-14,134.363636 C-14,134.363636 26.4054748,223.620408 26.882497,223.620408 C27.1910844,223.620408 87.4077488,240.852242 129.918657,253.028029 C135.488944,250.976719 140.92662,248.731421 146.139925,246.209589 C205.832576,302.70766 244.125831,178.423475 255.554252,134.363636 Z" id="Shape" fill="#FFF8DB" mask="url(#mask-3)"></path>
                    <g id="Group-3" mask="url(#mask-3)">
                        <g transform="translate(93.000000, 115.909091)">
                            <path d="M22.6150956,7.03121093 C23.3702487,5.95177252 23.4078583,4.19115623 22.5999926,2.59997945 C21.8149295,1.0529502 20.4577269,0.112483261 19.2118723,0.112483261 C18.8221541,0.112483261 18.4436891,0.204509117 18.0966148,0.398509569 C18.0966148,0.398509569 18.0148806,2.5576973 19.0454425,4.58817319 C19.5053455,5.49413043 20.1085796,6.22069943 20.6360022,6.74829361 C20.0579399,6.76383852 19.3543149,6.29531499 18.9095149,5.5329927 C18.6791192,5.13784113 18.1869371,5.01348187 17.8099528,5.25567154 C17.4335608,5.4978612 17.3151054,6.01457395 17.5457973,6.41003641 C18.0287991,7.23764731 18.7238361,7.87125776 19.5035687,8.19428095 C19.8728534,8.34724285 20.2486531,8.423102 20.6129034,8.423102 C20.8619559,8.423102 21.1053817,8.38641602 21.3372581,8.31553124 L21.5241215,8.90375056 L18.0963187,10.1594682 C18.0874345,10.1628881 18.0788465,10.1672407 18.0699624,10.1709715 C16.9730655,9.60109513 15.5717382,9.02189186 13.9980584,8.71503537 C14.0184919,8.69700328 14.0392216,8.67990388 14.0590629,8.6606282 C14.3285489,8.39729745 14.4840216,8.03914277 14.4970517,7.65300726 C14.5100818,7.26656084 14.3788924,6.89783562 14.1280632,6.61522919 C13.8680536,6.32236313 13.5002496,6.15447812 13.1191194,6.15447812 C12.7690837,6.15447812 12.4356318,6.29220601 12.179472,6.54278992 C11.909986,6.80643156 11.7545133,7.16427535 11.7414832,7.55072176 C11.7296377,7.89644052 11.8341745,8.22723616 12.036141,8.49585217 C11.9425612,8.49336498 11.8486853,8.49181049 11.7545133,8.49181049 C11.7186805,8.49181049 11.6831439,8.49212139 11.6473112,8.49243229 C11.5717959,8.49305409 11.4962806,8.49460858 11.4210614,8.49709576 C11.602002,8.25677148 11.706835,7.96452721 11.7171999,7.65300726 C11.7302299,7.26656084 11.5990406,6.89783562 11.3482113,6.61522919 C11.0882017,6.32236313 10.7206939,6.15447812 10.3392675,6.15447812 C9.989528,6.15447812 9.65577994,6.29220601 9.39962016,6.54278992 C9.13013415,6.80643156 8.97466146,7.16427535 8.96163136,7.55072176 C8.94860127,7.93685728 9.07979061,8.3055825 9.3306199,8.58849982 C9.37504067,8.63824353 9.42331124,8.68301286 9.47335864,8.72560591 C7.91596642,9.03899126 6.52618856,9.6234798 5.42544186,10.2070356 C5.39227435,10.1890036 5.35851457,10.1728368 5.32238567,10.1594682 L1.89487899,8.90375056 L2.08144623,8.31584213 C2.31361879,8.38641602 2.55674848,8.423102 2.80609707,8.423102 C3.17005125,8.423102 3.54614711,8.34724285 3.91543179,8.19428095 C4.69486825,7.87125776 5.39020138,7.23764731 5.87290709,6.41003641 C6.10359896,6.01457395 5.98543971,5.4978612 5.60875158,5.25567154 C5.23206344,5.01348187 4.7398813,5.13784113 4.50918943,5.5329927 C4.06468558,6.29500409 3.36106057,6.76383852 2.78299827,6.74829361 C3.31042089,6.22069943 3.91365496,5.49413043 4.37326187,4.58817319 C5.40382375,2.5576973 5.32208953,0.398509569 5.32208953,0.398509569 C4.97531138,0.204509117 4.59655028,0.112483261 4.20712818,0.112483261 C2.96127363,0.112483261 1.60407101,1.0529502 0.818711781,2.59997945 C0.0111421657,4.19115623 0.0487517517,5.95177252 0.803608718,7.03121093 L0.128413001,9.15806525 C-0.00988366586,9.59332268 0.210739496,10.0646443 0.623556527,10.2160517 L3.61514738,11.3119677 C3.1111197,11.6645262 2.83067656,11.9045396 2.83067656,11.9045396 C2.85259081,14.3429139 3.71820357,16.5596178 5.12456517,18.2344262 L4.0756427,19.7749265 C3.81889065,20.152046 3.90210556,20.6762203 4.26132153,20.945769 C4.40228344,21.0514744 4.56456732,21.1024617 4.72566665,21.1024617 C4.97501524,21.1024617 5.22051404,20.9802787 5.37687515,20.7511468 L6.29638511,19.4006052 C6.43971613,19.5196792 6.58630467,19.6340897 6.73644688,19.7435258 L5.48496569,21.5812449 C5.22821364,21.9586752 5.31113241,22.4828495 5.67034838,22.7523982 C5.81131029,22.8581036 5.97389031,22.9090909 6.1346935,22.9090909 C6.3840421,22.9090909 6.62983703,22.7869079 6.785902,22.557776 L8.13540502,20.5758002 C9.22164094,21.0897149 10.4207056,21.3754303 11.6804787,21.3754303 C11.7080196,21.3754303 11.7355604,21.3751194 11.7631013,21.3751194 C12.9731231,21.3629944 14.1239172,21.0887822 15.1701744,20.6031592 L16.5010207,22.557776 C16.6570857,22.7869079 16.9028806,22.9090909 17.1522292,22.9090909 C17.3130324,22.9090909 17.4756125,22.8581036 17.6165744,22.7523982 C17.9757903,22.4828495 18.0587091,21.9586752 17.801957,21.5812449 L16.5756476,19.7802118 C16.7263821,19.6717084 16.8738591,19.5585414 17.0180785,19.440711 L17.9103437,20.7511468 C18.0664087,20.9802787 18.3122036,21.1024617 18.5615522,21.1024617 C18.7223554,21.1024617 18.8849354,21.0514744 19.0258974,20.945769 C19.3851133,20.6762203 19.4680321,20.152046 19.21128,19.7749265 L18.1955251,18.2829263 C19.6605221,16.5593069 20.5465684,14.2543079 20.5237657,11.729193 C20.5237657,11.729193 20.3049194,11.549183 19.9075016,11.2740381 L22.795444,10.2160517 C23.208261,10.0646443 23.428588,9.59332268 23.2905875,9.15806525 L22.6150956,7.03121093 Z" id="Crab" stroke="#000000" stroke-width="0.715350224" fill="#F14F16"></path>
                            <path d="M11.7482944,19.6962693 C11.7254917,19.6965802 11.7029852,19.6965802 11.6804787,19.6965802 C9.76742415,19.6965802 7.96186788,18.8922867 6.59637338,17.4323089 C5.40323148,16.156072 4.66614282,14.5089335 4.47750261,12.7265543 C4.87284747,12.4486114 5.43758354,12.0820625 6.12936301,11.7142699 C7.4308916,11.0225215 9.4475946,10.1930452 11.6624142,10.1712824 C11.6932126,10.1709715 11.7237149,10.1706606 11.7545133,10.1706606 C14.897727,10.1706606 17.6769866,11.7686771 18.8914505,12.5850957 C18.5402303,16.5403421 15.4834889,19.6592724 11.7482944,19.6962693 L11.7482944,19.6962693 Z M20.4568385,3.79880276 C20.1387857,3.17203206 19.9531069,2.51945682 19.8447202,1.95921834 C20.3081769,2.18772849 20.8157583,2.65469752 21.1885966,3.38934988 C21.5179026,4.03788344 21.6561993,4.7551255 21.5691346,5.35920062 C21.1877082,4.95316763 20.7760757,4.42743884 20.4568385,3.79880276 L20.4568385,3.79880276 Z M2.23010774,3.38934988 C2.60294608,2.65469752 3.11082356,2.18772849 3.57398413,1.95921834 C3.46589359,2.51945682 3.28021477,3.17203206 2.96216205,3.79880276 C2.64410933,4.42495165 2.23188457,4.95068044 1.8495698,5.35764613 C1.76280123,4.75388191 1.9010979,4.03757254 2.23010774,3.38934988 L2.23010774,3.38934988 Z" id="Path" stroke="#000000" stroke-width="0.715350224" fill="#BD3100"></path>
                            <path d="M10.0354295,7.25941018 C10.1183482,7.17826576 10.2261426,7.13380733 10.3392675,7.13380733 C10.4645341,7.13380733 10.5803243,7.18666001 10.6656121,7.28272755 C10.7467541,7.37413161 10.7891019,7.4932056 10.7849559,7.61818666 C10.78081,7.74316772 10.7304665,7.85882184 10.6434017,7.94431883 C10.560483,8.02515235 10.4526886,8.06992169 10.3395637,8.06992169 C10.2142971,8.06992169 10.098507,8.0167581 10.0132191,7.92069057 C9.93207714,7.82928651 9.88972934,7.71021252 9.89387527,7.58523146 C9.89802121,7.4602504 9.94836475,7.34459628 10.0354295,7.25941018 L10.0354295,7.25941018 Z" id="Path" stroke="none" fill="#000000"></path>
                            <path d="M12.8152813,7.25941018 C12.8982001,7.17826576 13.0059945,7.13380733 13.1191194,7.13380733 C13.2440898,7.13380733 13.3601761,7.18666001 13.445464,7.28272755 C13.5266059,7.37413161 13.5689537,7.4932056 13.5648078,7.61818666 C13.5606618,7.74316772 13.5103183,7.85882184 13.4232536,7.94431883 C13.3403348,8.02515235 13.2325404,8.06992169 13.1194155,8.06992169 C12.9941489,8.06992169 12.8783588,8.0167581 12.7930709,7.92069057 C12.711929,7.82928651 12.6695812,7.71021252 12.6737271,7.58523146 C12.6778731,7.4602504 12.7282166,7.34459628 12.8152813,7.25941018 L12.8152813,7.25941018 Z" id="Path" stroke="none" fill="#000000"></path>
                        </g>
                    </g>
                    <g id="Group-3-Copy-2" mask="url(#mask-3)">
                        <g transform="translate(13.818182, 131.000000)">
                            <path d="M22.6150956,7.03121093 C23.3702487,5.95177252 23.4078583,4.19115623 22.5999926,2.59997945 C21.8149295,1.0529502 20.4577269,0.112483261 19.2118723,0.112483261 C18.8221541,0.112483261 18.4436891,0.204509117 18.0966148,0.398509569 C18.0966148,0.398509569 18.0148806,2.5576973 19.0454425,4.58817319 C19.5053455,5.49413043 20.1085796,6.22069943 20.6360022,6.74829361 C20.0579399,6.76383852 19.3543149,6.29531499 18.9095149,5.5329927 C18.6791192,5.13784113 18.1869371,5.01348187 17.8099528,5.25567154 C17.4335608,5.4978612 17.3151054,6.01457395 17.5457973,6.41003641 C18.0287991,7.23764731 18.7238361,7.87125776 19.5035687,8.19428095 C19.8728534,8.34724285 20.2486531,8.423102 20.6129034,8.423102 C20.8619559,8.423102 21.1053817,8.38641602 21.3372581,8.31553124 L21.5241215,8.90375056 L18.0963187,10.1594682 C18.0874345,10.1628881 18.0788465,10.1672407 18.0699624,10.1709715 C16.9730655,9.60109513 15.5717382,9.02189186 13.9980584,8.71503537 C14.0184919,8.69700328 14.0392216,8.67990388 14.0590629,8.6606282 C14.3285489,8.39729745 14.4840216,8.03914277 14.4970517,7.65300726 C14.5100818,7.26656084 14.3788924,6.89783562 14.1280632,6.61522919 C13.8680536,6.32236313 13.5002496,6.15447812 13.1191194,6.15447812 C12.7690837,6.15447812 12.4356318,6.29220601 12.179472,6.54278992 C11.909986,6.80643156 11.7545133,7.16427535 11.7414832,7.55072176 C11.7296377,7.89644052 11.8341745,8.22723616 12.036141,8.49585217 C11.9425612,8.49336498 11.8486853,8.49181049 11.7545133,8.49181049 C11.7186805,8.49181049 11.6831439,8.49212139 11.6473112,8.49243229 C11.5717959,8.49305409 11.4962806,8.49460858 11.4210614,8.49709576 C11.602002,8.25677148 11.706835,7.96452721 11.7171999,7.65300726 C11.7302299,7.26656084 11.5990406,6.89783562 11.3482113,6.61522919 C11.0882017,6.32236313 10.7206939,6.15447812 10.3392675,6.15447812 C9.989528,6.15447812 9.65577994,6.29220601 9.39962016,6.54278992 C9.13013415,6.80643156 8.97466146,7.16427535 8.96163136,7.55072176 C8.94860127,7.93685728 9.07979061,8.3055825 9.3306199,8.58849982 C9.37504067,8.63824353 9.42331124,8.68301286 9.47335864,8.72560591 C7.91596642,9.03899126 6.52618856,9.6234798 5.42544186,10.2070356 C5.39227435,10.1890036 5.35851457,10.1728368 5.32238567,10.1594682 L1.89487899,8.90375056 L2.08144623,8.31584213 C2.31361879,8.38641602 2.55674848,8.423102 2.80609707,8.423102 C3.17005125,8.423102 3.54614711,8.34724285 3.91543179,8.19428095 C4.69486825,7.87125776 5.39020138,7.23764731 5.87290709,6.41003641 C6.10359896,6.01457395 5.98543971,5.4978612 5.60875158,5.25567154 C5.23206344,5.01348187 4.7398813,5.13784113 4.50918943,5.5329927 C4.06468558,6.29500409 3.36106057,6.76383852 2.78299827,6.74829361 C3.31042089,6.22069943 3.91365496,5.49413043 4.37326187,4.58817319 C5.40382375,2.5576973 5.32208953,0.398509569 5.32208953,0.398509569 C4.97531138,0.204509117 4.59655028,0.112483261 4.20712818,0.112483261 C2.96127363,0.112483261 1.60407101,1.0529502 0.818711781,2.59997945 C0.0111421657,4.19115623 0.0487517517,5.95177252 0.803608718,7.03121093 L0.128413001,9.15806525 C-0.00988366586,9.59332268 0.210739496,10.0646443 0.623556527,10.2160517 L3.61514738,11.3119677 C3.1111197,11.6645262 2.83067656,11.9045396 2.83067656,11.9045396 C2.85259081,14.3429139 3.71820357,16.5596178 5.12456517,18.2344262 L4.0756427,19.7749265 C3.81889065,20.152046 3.90210556,20.6762203 4.26132153,20.945769 C4.40228344,21.0514744 4.56456732,21.1024617 4.72566665,21.1024617 C4.97501524,21.1024617 5.22051404,20.9802787 5.37687515,20.7511468 L6.29638511,19.4006052 C6.43971613,19.5196792 6.58630467,19.6340897 6.73644688,19.7435258 L5.48496569,21.5812449 C5.22821364,21.9586752 5.31113241,22.4828495 5.67034838,22.7523982 C5.81131029,22.8581036 5.97389031,22.9090909 6.1346935,22.9090909 C6.3840421,22.9090909 6.62983703,22.7869079 6.785902,22.557776 L8.13540502,20.5758002 C9.22164094,21.0897149 10.4207056,21.3754303 11.6804787,21.3754303 C11.7080196,21.3754303 11.7355604,21.3751194 11.7631013,21.3751194 C12.9731231,21.3629944 14.1239172,21.0887822 15.1701744,20.6031592 L16.5010207,22.557776 C16.6570857,22.7869079 16.9028806,22.9090909 17.1522292,22.9090909 C17.3130324,22.9090909 17.4756125,22.8581036 17.6165744,22.7523982 C17.9757903,22.4828495 18.0587091,21.9586752 17.801957,21.5812449 L16.5756476,19.7802118 C16.7263821,19.6717084 16.8738591,19.5585414 17.0180785,19.440711 L17.9103437,20.7511468 C18.0664087,20.9802787 18.3122036,21.1024617 18.5615522,21.1024617 C18.7223554,21.1024617 18.8849354,21.0514744 19.0258974,20.945769 C19.3851133,20.6762203 19.4680321,20.152046 19.21128,19.7749265 L18.1955251,18.2829263 C19.6605221,16.5593069 20.5465684,14.2543079 20.5237657,11.729193 C20.5237657,11.729193 20.3049194,11.549183 19.9075016,11.2740381 L22.795444,10.2160517 C23.208261,10.0646443 23.428588,9.59332268 23.2905875,9.15806525 L22.6150956,7.03121093 Z" id="Crab" stroke="#000000" stroke-width="0.715350224" fill="#F14F16"></path>
                            <path d="M11.7482944,19.6962693 C11.7254917,19.6965802 11.7029852,19.6965802 11.6804787,19.6965802 C9.76742415,19.6965802 7.96186788,18.8922867 6.59637338,17.4323089 C5.40323148,16.156072 4.66614282,14.5089335 4.47750261,12.7265543 C4.87284747,12.4486114 5.43758354,12.0820625 6.12936301,11.7142699 C7.4308916,11.0225215 9.4475946,10.1930452 11.6624142,10.1712824 C11.6932126,10.1709715 11.7237149,10.1706606 11.7545133,10.1706606 C14.897727,10.1706606 17.6769866,11.7686771 18.8914505,12.5850957 C18.5402303,16.5403421 15.4834889,19.6592724 11.7482944,19.6962693 L11.7482944,19.6962693 Z M20.4568385,3.79880276 C20.1387857,3.17203206 19.9531069,2.51945682 19.8447202,1.95921834 C20.3081769,2.18772849 20.8157583,2.65469752 21.1885966,3.38934988 C21.5179026,4.03788344 21.6561993,4.7551255 21.5691346,5.35920062 C21.1877082,4.95316763 20.7760757,4.42743884 20.4568385,3.79880276 L20.4568385,3.79880276 Z M2.23010774,3.38934988 C2.60294608,2.65469752 3.11082356,2.18772849 3.57398413,1.95921834 C3.46589359,2.51945682 3.28021477,3.17203206 2.96216205,3.79880276 C2.64410933,4.42495165 2.23188457,4.95068044 1.8495698,5.35764613 C1.76280123,4.75388191 1.9010979,4.03757254 2.23010774,3.38934988 L2.23010774,3.38934988 Z" id="Path" stroke="#000000" stroke-width="0.715350224" fill="#BD3100"></path>
                            <path d="M10.0354295,7.25941018 C10.1183482,7.17826576 10.2261426,7.13380733 10.3392675,7.13380733 C10.4645341,7.13380733 10.5803243,7.18666001 10.6656121,7.28272755 C10.7467541,7.37413161 10.7891019,7.4932056 10.7849559,7.61818666 C10.78081,7.74316772 10.7304665,7.85882184 10.6434017,7.94431883 C10.560483,8.02515235 10.4526886,8.06992169 10.3395637,8.06992169 C10.2142971,8.06992169 10.098507,8.0167581 10.0132191,7.92069057 C9.93207714,7.82928651 9.88972934,7.71021252 9.89387527,7.58523146 C9.89802121,7.4602504 9.94836475,7.34459628 10.0354295,7.25941018 L10.0354295,7.25941018 Z" id="Path" stroke="none" fill="#000000"></path>
                            <path d="M12.8152813,7.25941018 C12.8982001,7.17826576 13.0059945,7.13380733 13.1191194,7.13380733 C13.2440898,7.13380733 13.3601761,7.18666001 13.445464,7.28272755 C13.5266059,7.37413161 13.5689537,7.4932056 13.5648078,7.61818666 C13.5606618,7.74316772 13.5103183,7.85882184 13.4232536,7.94431883 C13.3403348,8.02515235 13.2325404,8.06992169 13.1194155,8.06992169 C12.9941489,8.06992169 12.8783588,8.0167581 12.7930709,7.92069057 C12.711929,7.82928651 12.6695812,7.71021252 12.6737271,7.58523146 C12.6778731,7.4602504 12.7282166,7.34459628 12.8152813,7.25941018 L12.8152813,7.25941018 Z" id="Path" stroke="none" fill="#000000"></path>
                        </g>
                    </g>
                    <g id="Group-3-Copy" mask="url(#mask-3)">
                        <g transform="translate(44.545455, 107.454545)">
                            <path d="M22.6150956,7.03121093 C23.3702487,5.95177252 23.4078583,4.19115623 22.5999926,2.59997945 C21.8149295,1.0529502 20.4577269,0.112483261 19.2118723,0.112483261 C18.8221541,0.112483261 18.4436891,0.204509117 18.0966148,0.398509569 C18.0966148,0.398509569 18.0148806,2.5576973 19.0454425,4.58817319 C19.5053455,5.49413043 20.1085796,6.22069943 20.6360022,6.74829361 C20.0579399,6.76383852 19.3543149,6.29531499 18.9095149,5.5329927 C18.6791192,5.13784113 18.1869371,5.01348187 17.8099528,5.25567154 C17.4335608,5.4978612 17.3151054,6.01457395 17.5457973,6.41003641 C18.0287991,7.23764731 18.7238361,7.87125776 19.5035687,8.19428095 C19.8728534,8.34724285 20.2486531,8.423102 20.6129034,8.423102 C20.8619559,8.423102 21.1053817,8.38641602 21.3372581,8.31553124 L21.5241215,8.90375056 L18.0963187,10.1594682 C18.0874345,10.1628881 18.0788465,10.1672407 18.0699624,10.1709715 C16.9730655,9.60109513 15.5717382,9.02189186 13.9980584,8.71503537 C14.0184919,8.69700328 14.0392216,8.67990388 14.0590629,8.6606282 C14.3285489,8.39729745 14.4840216,8.03914277 14.4970517,7.65300726 C14.5100818,7.26656084 14.3788924,6.89783562 14.1280632,6.61522919 C13.8680536,6.32236313 13.5002496,6.15447812 13.1191194,6.15447812 C12.7690837,6.15447812 12.4356318,6.29220601 12.179472,6.54278992 C11.909986,6.80643156 11.7545133,7.16427535 11.7414832,7.55072176 C11.7296377,7.89644052 11.8341745,8.22723616 12.036141,8.49585217 C11.9425612,8.49336498 11.8486853,8.49181049 11.7545133,8.49181049 C11.7186805,8.49181049 11.6831439,8.49212139 11.6473112,8.49243229 C11.5717959,8.49305409 11.4962806,8.49460858 11.4210614,8.49709576 C11.602002,8.25677148 11.706835,7.96452721 11.7171999,7.65300726 C11.7302299,7.26656084 11.5990406,6.89783562 11.3482113,6.61522919 C11.0882017,6.32236313 10.7206939,6.15447812 10.3392675,6.15447812 C9.989528,6.15447812 9.65577994,6.29220601 9.39962016,6.54278992 C9.13013415,6.80643156 8.97466146,7.16427535 8.96163136,7.55072176 C8.94860127,7.93685728 9.07979061,8.3055825 9.3306199,8.58849982 C9.37504067,8.63824353 9.42331124,8.68301286 9.47335864,8.72560591 C7.91596642,9.03899126 6.52618856,9.6234798 5.42544186,10.2070356 C5.39227435,10.1890036 5.35851457,10.1728368 5.32238567,10.1594682 L1.89487899,8.90375056 L2.08144623,8.31584213 C2.31361879,8.38641602 2.55674848,8.423102 2.80609707,8.423102 C3.17005125,8.423102 3.54614711,8.34724285 3.91543179,8.19428095 C4.69486825,7.87125776 5.39020138,7.23764731 5.87290709,6.41003641 C6.10359896,6.01457395 5.98543971,5.4978612 5.60875158,5.25567154 C5.23206344,5.01348187 4.7398813,5.13784113 4.50918943,5.5329927 C4.06468558,6.29500409 3.36106057,6.76383852 2.78299827,6.74829361 C3.31042089,6.22069943 3.91365496,5.49413043 4.37326187,4.58817319 C5.40382375,2.5576973 5.32208953,0.398509569 5.32208953,0.398509569 C4.97531138,0.204509117 4.59655028,0.112483261 4.20712818,0.112483261 C2.96127363,0.112483261 1.60407101,1.0529502 0.818711781,2.59997945 C0.0111421657,4.19115623 0.0487517517,5.95177252 0.803608718,7.03121093 L0.128413001,9.15806525 C-0.00988366586,9.59332268 0.210739496,10.0646443 0.623556527,10.2160517 L3.61514738,11.3119677 C3.1111197,11.6645262 2.83067656,11.9045396 2.83067656,11.9045396 C2.85259081,14.3429139 3.71820357,16.5596178 5.12456517,18.2344262 L4.0756427,19.7749265 C3.81889065,20.152046 3.90210556,20.6762203 4.26132153,20.945769 C4.40228344,21.0514744 4.56456732,21.1024617 4.72566665,21.1024617 C4.97501524,21.1024617 5.22051404,20.9802787 5.37687515,20.7511468 L6.29638511,19.4006052 C6.43971613,19.5196792 6.58630467,19.6340897 6.73644688,19.7435258 L5.48496569,21.5812449 C5.22821364,21.9586752 5.31113241,22.4828495 5.67034838,22.7523982 C5.81131029,22.8581036 5.97389031,22.9090909 6.1346935,22.9090909 C6.3840421,22.9090909 6.62983703,22.7869079 6.785902,22.557776 L8.13540502,20.5758002 C9.22164094,21.0897149 10.4207056,21.3754303 11.6804787,21.3754303 C11.7080196,21.3754303 11.7355604,21.3751194 11.7631013,21.3751194 C12.9731231,21.3629944 14.1239172,21.0887822 15.1701744,20.6031592 L16.5010207,22.557776 C16.6570857,22.7869079 16.9028806,22.9090909 17.1522292,22.9090909 C17.3130324,22.9090909 17.4756125,22.8581036 17.6165744,22.7523982 C17.9757903,22.4828495 18.0587091,21.9586752 17.801957,21.5812449 L16.5756476,19.7802118 C16.7263821,19.6717084 16.8738591,19.5585414 17.0180785,19.440711 L17.9103437,20.7511468 C18.0664087,20.9802787 18.3122036,21.1024617 18.5615522,21.1024617 C18.7223554,21.1024617 18.8849354,21.0514744 19.0258974,20.945769 C19.3851133,20.6762203 19.4680321,20.152046 19.21128,19.7749265 L18.1955251,18.2829263 C19.6605221,16.5593069 20.5465684,14.2543079 20.5237657,11.729193 C20.5237657,11.729193 20.3049194,11.549183 19.9075016,11.2740381 L22.795444,10.2160517 C23.208261,10.0646443 23.428588,9.59332268 23.2905875,9.15806525 L22.6150956,7.03121093 Z" id="Crab" stroke="#000000" stroke-width="0.715350224" fill="#F14F16"></path>
                            <path d="M11.7482944,19.6962693 C11.7254917,19.6965802 11.7029852,19.6965802 11.6804787,19.6965802 C9.76742415,19.6965802 7.96186788,18.8922867 6.59637338,17.4323089 C5.40323148,16.156072 4.66614282,14.5089335 4.47750261,12.7265543 C4.87284747,12.4486114 5.43758354,12.0820625 6.12936301,11.7142699 C7.4308916,11.0225215 9.4475946,10.1930452 11.6624142,10.1712824 C11.6932126,10.1709715 11.7237149,10.1706606 11.7545133,10.1706606 C14.897727,10.1706606 17.6769866,11.7686771 18.8914505,12.5850957 C18.5402303,16.5403421 15.4834889,19.6592724 11.7482944,19.6962693 L11.7482944,19.6962693 Z M20.4568385,3.79880276 C20.1387857,3.17203206 19.9531069,2.51945682 19.8447202,1.95921834 C20.3081769,2.18772849 20.8157583,2.65469752 21.1885966,3.38934988 C21.5179026,4.03788344 21.6561993,4.7551255 21.5691346,5.35920062 C21.1877082,4.95316763 20.7760757,4.42743884 20.4568385,3.79880276 L20.4568385,3.79880276 Z M2.23010774,3.38934988 C2.60294608,2.65469752 3.11082356,2.18772849 3.57398413,1.95921834 C3.46589359,2.51945682 3.28021477,3.17203206 2.96216205,3.79880276 C2.64410933,4.42495165 2.23188457,4.95068044 1.8495698,5.35764613 C1.76280123,4.75388191 1.9010979,4.03757254 2.23010774,3.38934988 L2.23010774,3.38934988 Z" id="Path" stroke="#000000" stroke-width="0.715350224" fill="#BD3100"></path>
                            <path d="M10.0354295,7.25941018 C10.1183482,7.17826576 10.2261426,7.13380733 10.3392675,7.13380733 C10.4645341,7.13380733 10.5803243,7.18666001 10.6656121,7.28272755 C10.7467541,7.37413161 10.7891019,7.4932056 10.7849559,7.61818666 C10.78081,7.74316772 10.7304665,7.85882184 10.6434017,7.94431883 C10.560483,8.02515235 10.4526886,8.06992169 10.3395637,8.06992169 C10.2142971,8.06992169 10.098507,8.0167581 10.0132191,7.92069057 C9.93207714,7.82928651 9.88972934,7.71021252 9.89387527,7.58523146 C9.89802121,7.4602504 9.94836475,7.34459628 10.0354295,7.25941018 L10.0354295,7.25941018 Z" id="Path" stroke="none" fill="#000000"></path>
                            <path d="M12.8152813,7.25941018 C12.8982001,7.17826576 13.0059945,7.13380733 13.1191194,7.13380733 C13.2440898,7.13380733 13.3601761,7.18666001 13.445464,7.28272755 C13.5266059,7.37413161 13.5689537,7.4932056 13.5648078,7.61818666 C13.5606618,7.74316772 13.5103183,7.85882184 13.4232536,7.94431883 C13.3403348,8.02515235 13.2325404,8.06992169 13.1194155,8.06992169 C12.9941489,8.06992169 12.8783588,8.0167581 12.7930709,7.92069057 C12.711929,7.82928651 12.6695812,7.71021252 12.6737271,7.58523146 C12.6778731,7.4602504 12.7282166,7.34459628 12.8152813,7.25941018 L12.8152813,7.25941018 Z" id="Path" stroke="none" fill="#000000"></path>
                        </g>
                    </g>
                    <g id="Seagull-" mask="url(#mask-3)">
                        <g transform="translate(157.000000, 77.000000)">
                            <rect id="Rectangle-3" stroke="#000000" stroke-width="1.36363636" fill="#F2A820" fill-rule="nonzero" x="22.0883507" y="45.8727273" width="3.9143783" height="14.2363636" rx="1.95718915"></rect>
                            <rect id="Rectangle-3-Copy-2" stroke="#000000" stroke-width="1.36363636" fill="#F2A820" fill-rule="nonzero" transform="translate(7.996589, 13.050000) rotate(90.000000) translate(-7.996589, -13.050000) " x="6.03939962" y="6.72272727" width="3.9143783" height="12.6545455" rx="1.95718915"></rect>
                            <rect id="Rectangle-3-Copy" stroke="#000000" stroke-width="1.36363636" fill="#FFC013" fill-rule="nonzero" x="27.5684803" y="48.2454545" width="3.9143783" height="14.2363636" rx="1.95718915"></rect>
                            <rect id="Rectangle-3-Copy-3" stroke="#000000" stroke-width="1.36363636" fill="#FFC013" fill-rule="nonzero" transform="translate(6.430837, 11.468182) rotate(90.000000) translate(-6.430837, -11.468182) " x="4.4736483" y="5.14090909" width="3.9143783" height="12.6545455" rx="1.95718915"></rect>
                            <path d="M55.3389589,22.4546209 L27.1554351,22.4546209 L27.1554351,11.0283573 C27.1554351,5.36623909 22.5698779,0.139911818 16.7533662,0.139911818 C10.9368544,0.139911818 6.80066792,4.33791424 6.80066792,8.88421379 L6.80066792,13.7546209 L6.80066792,39.3255027 C6.80066792,45.4273664 12.0545465,50.1364391 18.5571117,50.1364391 L27.9383108,50.1364391 L32.6355647,50.1364391 L56.9047102,50.1364391 L56.9047102,48.6447845 C56.9047102,43.7854391 55.1463715,39.11433 51.9240553,35.5536573 C54.0276422,32.7941755 55.3389589,29.3418573 55.3389589,25.6008573 L55.3389589,22.4546209 Z" id="Fill-24" stroke="#000000" stroke-width="1.36363636" fill="#CED8DA" fill-rule="evenodd"></path>
                            <path d="M63.1225626,32.785564 C61.846424,40.8227476 55.5940409,45.4401095 48.0953588,45.4401095 C40.5976713,45.4401095 35.6227456,40.9895182 31.8075362,33.7420434 L63.1225626,32.785564 Z" id="Path-Copy-3" stroke="#000000" stroke-width="1.36363636" fill="#434440" fill-rule="evenodd" transform="translate(47.465049, 39.112837) scale(-1, -1) rotate(28.000000) translate(-47.465049, -39.112837) "></path>
                            <g id="Group-4" stroke="none" stroke-width="1" fill="none" fill-rule="evenodd" transform="translate(18.173972, 22.145455)">
                                <path d="M43.0581614,0 C41.229871,11.5534513 32.2722458,18.1909091 21.5290807,18.1909091 C10.7873405,18.1909091 1.82829034,11.5534513 0,0 L43.0581614,0 Z" id="Path" stroke="#000000" stroke-width="1.36363636" fill="#595854"></path>
                                <path d="M39.143783,0 C37.4817009,11.5534513 26.9897783,17.4 17.2232645,17.4 C10.5895489,17.4 1.66208213,11.5534513 0,0 L39.143783,0 Z" id="Path-Copy-5" stroke="#000000" stroke-width="1.36363636" fill="#B9C3C5"></path>
                                <path d="M35.7554972,0 C34.3744067,8.56042781 27.6078166,13.4783936 19.4924296,13.4783936 C11.3781191,13.4783936 4.61045263,8.56042781 3.2293621,0 L35.7554972,0 Z" id="Path-Copy-4" stroke="#000000" stroke-width="1.36363636" fill="#E5E8ED"></path>
                            </g>
                            <path d="M16.7717267,12.121281 C16.4068334,12.4648072 15.9340416,12.6545455 15.4357464,12.6545455 C14.8844829,12.6545455 14.374417,12.430854 13.9997148,12.0214187 C13.6446304,11.6359504 13.460222,11.1346419 13.4778781,10.6073691 C13.497496,10.0820937 13.7172167,9.5927686 14.0978044,9.23326446 C14.4607359,8.88973829 14.9354895,8.7 15.4337846,8.7 C15.9850482,8.7 16.4951141,8.92369146 16.8698163,9.33312672 C17.2229389,9.71859504 17.4093091,10.2199036 17.3896912,10.7471763 C17.372035,11.2724518 17.1523143,11.7617769 16.7717267,12.121281" id="Fill-26" stroke="none" fill="#000000" fill-rule="evenodd"></path>
                        </g>
                    </g>
                </g>
                <text id="How-many-animals-can" font-family="ArialRoundedMTBold, Arial Rounded MT Bold" font-size="23" font-weight="normal" line-spacing="30" letter-spacing="0.150000006" fill="#075D89">
                    <tspan x="59.3047851" y="158">How many </tspan>
                    <tspan x="27.2839355" y="188">animals can you </tspan>
                    <tspan x="85.4124023" y="218">save</tspan>
                    <tspan x="137.403027" y="218">?</tspan>
                </text>
            </g>
        </g>
    </g>
</svg>